<svg xmlns="http://www.w3.org/2000/svg" xmlns:xlink="http://www.w3.org/1999/xlink" width="60.372" height="60.371" viewBox="0 0 60.372 60.371">
  <defs>
    <clipPath id="clip-path">
      <rect id="Rectángulo_85145" data-name="Rectángulo 85145" width="60.372" height="60.371" fill="#0d2380"/>
    </clipPath>
  </defs>
  <g id="Grupo_137524" data-name="Grupo 137524" transform="translate(6744.097 4556)">
    <g id="Grupo_134918" data-name="Grupo 134918" transform="translate(-6744.097 -4556)">
      <g id="Grupo_134919" data-name="Grupo 134919" clip-path="url(#clip-path)">
        <path id="Trazado_192496" data-name="Trazado 192496" d="M60.372,4.364V56.009a1.809,1.809,0,0,0-.085.212,5.032,5.032,0,0,1-5.417,4.151q-24.7,0-49.4,0a7.027,7.027,0,0,1-1.116-.054A5.021,5.021,0,0,1,0,55.071Q0,38.594,0,22.116q0-8.49,0-16.979A4.634,4.634,0,0,1,1.767,1.258,14.71,14.71,0,0,1,4.246,0H56.127c.179.061.357.13.539.183a4.962,4.962,0,0,1,3.411,3.182c.121.324.2.665.295,1M2.01,16.134v.66q0,19.1,0,38.2a3.062,3.062,0,0,0,3.357,3.368H55.005a3.062,3.062,0,0,0,3.357-3.368q0-19.1,0-38.2v-.66ZM2.254,4.019H16.977c3.006,0,6.012-.006,9.017,0a3.013,3.013,0,0,1,3.18,3.125c.012.491,0,.982,0,1.473,0,1.147.286,1.433,1.421,1.433q13.555,0,27.111,0c.207,0,.413-.018.6-.027a1.038,1.038,0,0,0,.046-.177q.005-2.18.007-4.361c0-2.3-1.181-3.477-3.483-3.477H5.491c-.216,0-.433-.006-.648.008a2.932,2.932,0,0,0-2.589,2m56.08,10.044v-2H30.79c-.275,0-.551,0-.825-.016A2.919,2.919,0,0,1,27.224,9.5a18.863,18.863,0,0,1-.063-2.059c-.012-1.1-.308-1.412-1.391-1.412H2.057v8.034Z" transform="translate(0 -0.001)" fill="#0d2380"/>
        <path id="Trazado_192497" data-name="Trazado 192497" d="M57.06,271.536q-9.462,0-18.925,0a5.979,5.979,0,0,1-6.131-5.1,25.154,25.154,0,0,1-.084-3.59,13.988,13.988,0,0,1,.095-2.409,6,6,0,0,1,6.15-5.013c4.441-.014,8.883,0,13.324,0q12.2,0,24.408,0a6.037,6.037,0,0,1,6.1,4.5,6.238,6.238,0,0,1,.192,1.454c.026,1.395.039,2.791,0,4.185A5.994,5.994,0,0,1,76.1,271.53c-3.655.024-7.311.006-10.966.006H57.06m-.012-2.01h7.014c3.969,0,7.937.006,11.906,0a4.013,4.013,0,0,0,4.222-4.22c.008-1.316.032-2.634-.012-3.949a3.772,3.772,0,0,0-2.551-3.613,5.324,5.324,0,0,0-1.9-.295q-18.655-.025-37.309-.011c-.255,0-.511,0-.765.027a3.968,3.968,0,0,0-3.72,4.045c-.016,1.316-.008,2.633,0,3.949a4.174,4.174,0,0,0,.083.877,4.026,4.026,0,0,0,4.113,3.189q9.46.009,18.92,0" transform="translate(-26.874 -215.183)" fill="#0d2380"/>
        <path id="Trazado_192498" data-name="Trazado 192498" d="M137.894,115.039a10.051,10.051,0,1,1-10.063,10.007,10.024,10.024,0,0,1,10.063-10.007m-3.775,12.447c-1.784-2.906-1.611-5.429.472-7.226a5.032,5.032,0,0,1,6.494-.076c2.155,1.793,2.352,4.273.6,7.236a11.1,11.1,0,0,1,1.361,1.276,10.616,10.616,0,0,1,.87,1.608,7.87,7.87,0,0,0,1.355-8.415,8.056,8.056,0,0,0-15.257,1.46c-.631,2.782.5,5.9,1.913,6.963a4.261,4.261,0,0,1,2.191-2.827m3.772-.385a3.012,3.012,0,1,0-3.031-3.035,3.031,3.031,0,0,0,3.031,3.035m-.041,6.029a7.725,7.725,0,0,0,3.679-.884c.142-.073.333-.212.35-.341.22-1.645-.56-2.778-2.114-2.791-1.158-.01-2.317,0-3.475,0-1.724,0-2.446.755-2.439,2.5a.651.651,0,0,0,.424.675,8.046,8.046,0,0,0,3.574.847" transform="translate(-107.695 -96.918)" fill="#0d2380"/>
        <path id="Trazado_192499" data-name="Trazado 192499" d="M334.258,33.037a1.035,1.035,0,0,1-1.012,1.014,1,1,0,0,1-.983-1.028.958.958,0,0,1,.967-.967,1,1,0,0,1,1.029.981" transform="translate(-279.923 -27.006)" fill="#0d2380"/>
        <path id="Trazado_192500" data-name="Trazado 192500" d="M307.717,32.053a1,1,0,0,1,.995,1.014,1.033,1.033,0,0,1-1.042.98,1,1,0,0,1-.95-1,.962.962,0,0,1,1-.995" transform="translate(-258.403 -27.004)" fill="#0d2380"/>
        <path id="Trazado_192501" data-name="Trazado 192501" d="M282.141,34.044a1.008,1.008,0,0,1-1.013-1,.993.993,0,0,1,1.985-.037,1.006,1.006,0,0,1-.972,1.038" transform="translate(-236.844 -27.001)" fill="#0d2380"/>
        <path id="Trazado_192502" data-name="Trazado 192502" d="M38.874,57.53q2.653,0,5.305,0c.79,0,1.256.385,1.246,1.011-.01.608-.467,1-1.214,1q-5.335.007-10.669,0c-.52,0-1-.161-1.1-.684a1.493,1.493,0,0,1,.275-1.053,1.2,1.2,0,0,1,.851-.263c1.768-.023,3.537-.011,5.3-.011" transform="translate(-27.319 -48.465)" fill="#0d2380"/>
        <path id="Trazado_192503" data-name="Trazado 192503" d="M134.622,53.187c-.619-.763-.685-1.232-.257-1.688s.96-.409,1.7.187c.856-.612,1.307-.663,1.747-.2.41.435.342.935-.227,1.664.576.894.617,1.348.16,1.76-.436.393-.96.319-1.617-.229-1.056.594-1.453.623-1.845.133-.379-.474-.292-.922.334-1.629" transform="translate(-112.944 -43.115)" fill="#0d2380"/>
        <path id="Trazado_192504" data-name="Trazado 192504" d="M78.446,285.143c.38.229.721.416,1.042.631a.983.983,0,0,1,.376,1.417,1,1,0,0,1-1.393.308c-.325-.169-.64-.357-1.03-.577-.013.272-.029.46-.031.648-.009,1.115-.325,1.613-1.025,1.6s-.986-.494-.995-1.629c0-.174,0-.348,0-.624-.4.219-.715.4-1.037.567a1.013,1.013,0,0,1-1.435-.321.989.989,0,0,1,.42-1.4c.165-.106.338-.2.506-.3.149-.09.3-.183.513-.318-.366-.215-.682-.392-.989-.584a1,1,0,1,1,.971-1.754c.311.158.611.338,1.05.582,0-.433-.01-.77,0-1.106.026-.714.4-1.137,1-1.144s.987.418,1.015,1.123c.013.33,0,.662,0,1.117.4-.221.715-.4,1.032-.561a1.016,1.016,0,0,1,1.435.312,1,1,0,0,1-.411,1.41c-.311.2-.637.381-1.014.605" transform="translate(-61.307 -236.851)" fill="#0d2380"/>
        <path id="Trazado_192505" data-name="Trazado 192505" d="M269.032,286.906c0,.471.017.837,0,1.2a1,1,0,1,1-2,.017c-.022-.368,0-.738,0-1.212-.408.225-.725.408-1.048.577a1.01,1.01,0,0,1-1.432-.331.991.991,0,0,1,.429-1.4c.165-.105.338-.2.506-.3.148-.09.294-.184.507-.316-.384-.227-.722-.41-1.043-.619a.991.991,0,0,1-.4-1.37,1,1,0,0,1,1.376-.372c.33.162.644.357,1.095.609,0-.439-.011-.777,0-1.115.027-.711.407-1.134,1-1.137s.981.423,1.008,1.13c.013.33,0,.661,0,1.118.409-.226.72-.406,1.039-.572a1.015,1.015,0,0,1,1.432.321,1,1,0,0,1-.421,1.409c-.31.2-.634.38-1.008.6.384.231.726.418,1.048.634a.981.981,0,0,1,.4,1.369,1,1,0,0,1-1.427.349c-.324-.169-.64-.355-1.06-.591" transform="translate(-222.748 -236.851)" fill="#0d2380"/>
        <path id="Trazado_192506" data-name="Trazado 192506" d="M205.135,286.866c0,.533.018.926,0,1.317a.993.993,0,0,1-1.981.061c-.039-.408-.008-.822-.008-1.36l-.863.482c-.732.409-1.31.321-1.629-.248-.31-.553-.1-1.069.608-1.485.268-.158.533-.319.85-.51-.391-.231-.735-.416-1.062-.629a.986.986,0,0,1-.381-1.372,1.01,1.01,0,0,1,1.382-.358c.176.085.341.194.513.288.151.083.305.161.568.3,0-.416-.007-.755,0-1.094.017-.7.4-1.14,1-1.146a1.009,1.009,0,0,1,1.008,1.125c.007.333,0,.666,0,1.113.382-.2.7-.375,1.014-.542a1.009,1.009,0,1,1,1.022,1.73c-.3.189-.608.358-.984.578l.9.544c.642.391.841.932.54,1.469s-.865.653-1.528.286c-.286-.158-.568-.324-.964-.55" transform="translate(-168.926 -236.831)" fill="#0d2380"/>
        <path id="Trazado_192507" data-name="Trazado 192507" d="M142.35,285.145c.4.239.729.418,1.039.621a1,1,0,1,1-1,1.739c-.327-.169-.64-.363-1.068-.608,0,.454.011.815,0,1.174a1.039,1.039,0,0,1-.993,1.1,1.029,1.029,0,0,1-1.011-1.131c-.008-.345,0-.69,0-1.14-.4.219-.7.39-1,.554a1.01,1.01,0,1,1-1.01-1.732c.3-.182.606-.356.982-.576-.386-.226-.719-.409-1.039-.612a1,1,0,1,1,.989-1.739c.327.165.643.354,1.078.6,0-.484-.013-.866,0-1.246a.975.975,0,0,1,.937-1.009.994.994,0,0,1,1.058.958c.02.194.008.392.009.589s0,.389,0,.694c.372-.2.67-.372.971-.534a1.034,1.034,0,0,1,1.49.283,1.012,1.012,0,0,1-.458,1.444c-.3.186-.606.358-.976.576" transform="translate(-115.158 -236.849)" fill="#0d2380"/>
      </g>
    </g>
  </g>
</svg>
