<svg xmlns="http://www.w3.org/2000/svg" xmlns:xlink="http://www.w3.org/1999/xlink" width="60.372" height="60.368" viewBox="0 0 60.372 60.368">
  <defs>
    <clipPath id="clip-path">
      <rect id="Rectángulo_85143" data-name="Rectángulo 85143" width="60.372" height="60.368" fill="#0d2380"/>
    </clipPath>
  </defs>
  <g id="Grupo_137523" data-name="Grupo 137523" transform="translate(6748.499 4720)">
    <g id="Grupo_134916" data-name="Grupo 134916" transform="translate(-6748.499 -4720)">
      <g id="Grupo_134917" data-name="Grupo 134917" clip-path="url(#clip-path)">
        <path id="Trazado_192485" data-name="Trazado 192485" d="M203.69,192.43q0-5.587,0-11.173c0-1.234.362-1.595,1.6-1.6,3.966,0,7.932.011,11.9-.012a1.894,1.894,0,0,1,1.616.76c1.744,2.134,3.54,4.227,5.269,6.372a2.371,2.371,0,0,1,.493,1.368c.034,5.175.023,10.351.021,15.526,0,1.137-.387,1.523-1.523,1.523q-8.923,0-17.846,0c-1.136,0-1.521-.386-1.522-1.524q0-5.623,0-11.246m2.346,10.4H222.2V188.948h-3.971c-1.477,0-1.773-.3-1.773-1.78,0-1.708,0-3.416,0-5.14H206.036ZM220.923,186.6l-2.1-2.518V186.6Z" transform="translate(-164.215 -144.834)" fill="#0d2380"/>
        <path id="Trazado_192486" data-name="Trazado 192486" d="M193.655,47.213q-3.227,0-6.454,0c-.915,0-1.445-.434-1.446-1.159s.528-1.159,1.443-1.16q6.056-.005,12.111,0a8.154,8.154,0,0,0,8.5-8.482c.008-1.912.075-3.827-.868-5.59a8.066,8.066,0,0,0-6.889-4.49c-.12-.009-.242,0-.362-.015a1.165,1.165,0,0,1-1.164-1.149A1.138,1.138,0,0,1,199.741,24a10.435,10.435,0,0,1,10.365,10.4,22.212,22.212,0,0,1-.351,4.966,10.306,10.306,0,0,1-10.008,7.84c-2.03.017-4.061,0-6.092,0" transform="translate(-149.756 -19.352)" fill="#0d2380"/>
        <path id="Trazado_192487" data-name="Trazado 192487" d="M.009,144.54c0-1.886-.009-3.772,0-5.658a6.957,6.957,0,0,1,7.109-7.115c2.949-.014,5.9-.005,8.848,0,.915,0,1.446.434,1.447,1.158s-.533,1.16-1.445,1.161c-2.9,0-5.8,0-8.7,0a4.652,4.652,0,0,0-4.935,4.961q-.006,5.512,0,11.025a4.639,4.639,0,0,0,4.553,4.908,1.168,1.168,0,1,1-.115,2.317,6.96,6.96,0,0,1-6.743-6.666c-.054-2.029-.01-4.061-.01-6.092H.009" transform="translate(0 -106.225)" fill="#0d2380"/>
        <path id="Trazado_192488" data-name="Trazado 192488" d="M113.679,107.829a5.8,5.8,0,1,1-5.811,5.814,5.809,5.809,0,0,1,5.811-5.814m3.47,5.773a3.478,3.478,0,1,0-3.487,3.507,3.493,3.493,0,0,0,3.487-3.507" transform="translate(-86.963 -86.932)" fill="#0d2380"/>
        <path id="Trazado_192489" data-name="Trazado 192489" d="M5.851,0a5.8,5.8,0,1,1-5.8,5.753A5.808,5.808,0,0,1,5.851,0M5.86,9.282A3.478,3.478,0,1,0,2.378,5.77,3.491,3.491,0,0,0,5.86,9.282" transform="translate(-0.045 -0.001)" fill="#0d2380"/>
        <path id="Trazado_192490" data-name="Trazado 192490" d="M185.358,5.867A5.8,5.8,0,1,1,179.6,0a5.814,5.814,0,0,1,5.755,5.867m-5.783,3.414a3.478,3.478,0,1,0-3.5-3.5,3.49,3.49,0,0,0,3.5,3.5" transform="translate(-140.082 0)" fill="#0d2380"/>
        <path id="Trazado_192491" data-name="Trazado 192491" d="M59.946,233.442a5.8,5.8,0,1,1,5.823,5.8,5.808,5.808,0,0,1-5.823-5.8m5.79,3.477a3.479,3.479,0,1,0-3.465-3.529,3.5,3.5,0,0,0,3.465,3.529" transform="translate(-48.329 -183.52)" fill="#0d2380"/>
        <path id="Trazado_192492" data-name="Trazado 192492" d="M85.432,26.277q-3.01,0-6.021,0c-.927,0-1.455-.415-1.472-1.133-.018-.744.53-1.186,1.491-1.186q6.057,0,12.114,0c.928,0,1.455.413,1.473,1.132.019.746-.527,1.185-1.492,1.187q-3.047.005-6.093,0" transform="translate(-62.834 -19.312)" fill="#0d2380"/>
        <path id="Trazado_192493" data-name="Trazado 192493" d="M142.479,251.582c1.088,0,2.176-.007,3.264,0,.853.007,1.372.458,1.368,1.163s-.52,1.151-1.378,1.153q-3.264.011-6.528,0c-.854,0-1.371-.458-1.367-1.164s.517-1.146,1.377-1.153c1.088-.009,2.176,0,3.264,0" transform="translate(-111.125 -202.824)" fill="#0d2380"/>
        <path id="Trazado_192494" data-name="Trazado 192494" d="M238.269,247.908c-1.088,0-2.176.009-3.264,0-.835-.009-1.36-.49-1.337-1.194A1.178,1.178,0,0,1,235,245.59q3.3-.013,6.6,0c.838,0,1.36.486,1.338,1.193-.022.677-.528,1.114-1.337,1.123-1.112.011-2.224,0-3.337,0" transform="translate(-188.383 -197.99)" fill="#0d2380"/>
        <path id="Trazado_192495" data-name="Trazado 192495" d="M238.236,271.871c-1.064,0-2.128.007-3.192,0-.855-.007-1.373-.454-1.373-1.159s.514-1.155,1.372-1.158q3.264-.011,6.528,0c.854,0,1.373.454,1.374,1.158s-.519,1.152-1.373,1.159c-1.112.009-2.224,0-3.336,0" transform="translate(-188.387 -217.309)" fill="#0d2380"/>
      </g>
    </g>
  </g>
</svg>
