<svg xmlns="http://www.w3.org/2000/svg" xmlns:xlink="http://www.w3.org/1999/xlink" width="303.554" height="228.999" viewBox="0 0 303.554 228.999">
  <defs>
    <clipPath id="clip-path">
      <path id="Trazado_192392" data-name="Trazado 192392" d="M0,0H202.911V202.92H0Z" fill="none"/>
    </clipPath>
  </defs>
  <g id="Grupo_137518" data-name="Grupo 137518" transform="translate(6628 5823)">
    <g id="Image_Place_Holder" data-name="Image Place Holder" transform="translate(-6628 -5806.001)" opacity="0.599">
      <rect id="Image_Place_Holder-2" data-name="Image Place Holder" width="303.554" height="205.482" rx="10" transform="translate(0 0)" fill="#0d2380"/>
      <rect id="Rect치ngulo_85176" data-name="Rect치ngulo 85176" width="303" height="17" transform="translate(0 -16.999)" fill="#fff"/>
    </g>
    <rect id="Rect치ngulo_85122" data-name="Rect치ngulo 85122" width="250" height="11" rx="5" transform="translate(-6594 -5605.001)" fill="#0d2380"/>
    <g id="Grupo_134901" data-name="Grupo 134901" transform="translate(-6578.196 -5823)">
      <g id="Enmascarar_grupo_130" data-name="Enmascarar grupo 130" clip-path="url(#clip-path)">
        <path id="Trazado_192363" data-name="Trazado 192363" d="M27.5,68.543c.763-2.468,1.324-2.861,4.191-2.861q31.576,0,63.152,0h2.161c.369-.7-.284-.964-.547-1.35a17.4,17.4,0,0,1-3.236-9.587c-.148-6.415,4.259-10.977,10.831-10.916,1.91.017,2.586-.388,2.211-2.352a19.08,19.08,0,0,1,.016-5.132c.131-1.6.8-3.276-1.228-4.441-.912-.524-.951-1.91-.587-2.934,2.873-8.078,6.327-15.793,13.412-21.229C120.15,6,122.594,5.08,125.426,5.849c.99.269,1.226-.2,1.611-.885a8.389,8.389,0,0,1,5.9-4.212c16.355-3.458,32.713,5.259,39.534,21.133.909,2.114,1.729,4.267,2.57,6.41.6,1.539.627,3.15-.808,4.109a2.116,2.116,0,0,0-.913,2.493,26.633,26.633,0,0,1,.146,7.5c-.181,1.289.371,1.439,1.4,1.393a12.771,12.771,0,0,1,4.31.427c5.649,1.712,8.544,7.261,6.977,13.627-1.709,6.938-6.055,11.4-12.99,13.2A2.272,2.272,0,0,0,171.2,73.2a30.989,30.989,0,0,1-10.621,18.028,3.147,3.147,0,0,0-1.328,3.02,12.2,12.2,0,0,1,.008,1.385c0,6.714,2.09,9.4,8.568,11.041,5.547,1.4,11.114,2.736,16.633,4.245A24.638,24.638,0,0,1,202.968,135.1c.057,21.182,0,42.365.049,63.547a4.445,4.445,0,0,1-2.406,4.154H2.6a2.964,2.964,0,0,1-2.376-2.376V182.6c.5-2.077,2.06-2.544,3.913-2.554,4.816-.025,9.631,0,14.447-.013,2.613-.007,2.613-.015,3.158-2.453a10.6,10.6,0,0,1,10.6-8.625c3.166-.038,6.334-.044,9.5.007a2.181,2.181,0,0,0,2.561-2.078c.276-1.758.661-3.5,1.039-5.241.285-1.315-.229-1.863-1.525-1.821-.527.017-1.055,0-1.583,0q-13.952,0-27.9,0a29.291,29.291,0,0,1-4.336-.309c-5.781-.856-8.776-3.687-9.867-9.388V74.491C1.209,71.9,2.4,69.478,4.735,67.774c3.994-2.911,8.527-2.157,12.946-1.877,1.231.078,1.822,1.386,2.011,2.645.316,1.829-.435,2.93-2.456,3.519a16.326,16.326,0,0,1-4.524.279C8.3,72.373,6.8,73.843,6.8,78.313q-.021,33.819-.008,67.638a18.73,18.73,0,0,1-.03,1.974c.564,2.837,1.869,4.142,4.624,4.625a12.509,12.509,0,0,0,2.165.149q15.51.006,31.02.012c1.5,0,2.729-.139,3.056-1.992.238-1.351-.055-2.023-1.526-1.978-1.118.034-2.239.013-3.358,0a5.679,5.679,0,0,1-2.871-.592,3.23,3.23,0,0,1-1.566-4.061,3.58,3.58,0,0,1,3.678-2.464c6-.07,12-.021,18-.028q11.373-.012,22.746,0c.725,0,1.451-.01,2.174.054a3.651,3.651,0,0,1,3.561,2.644,3.285,3.285,0,0,1-1.618,3.887c-1.869.947-3.886.443-5.837.6-.842.068-1.978-.317-2.058,1.161a2.291,2.291,0,0,0,1.941,2.7,12.113,12.113,0,0,0,1.581.044q14.934,0,29.868,0c6.137-.011,7.661-1.573,7.661-7.76q0-32.538,0-65.076c0-.329,0-.659,0-.989-.027-5.074-1.441-6.5-6.437-6.518-2.044-.006-4.088.043-6.132-.029-1.911.124-3.823.052-5.734.052q-34.11.01-68.222,0c-1.512,0-3.069.141-4.441-.668-1.169-.69-2.258-1.5-1.532-3.146" transform="translate(-0.107 0)"/>
        <path id="Trazado_192364" data-name="Trazado 192364" d="M.121,378.533A7.9,7.9,0,0,0,2.5,380.909q-3.047.67-2.376-2.376" transform="translate(0 -178.11)" fill="#e6e6e6"/>
        <path id="Trazado_192365" data-name="Trazado 192365" d="M91.858,208.743c1.3-.935,1.983-2.141,1.365-3.733s-1.946-1.922-3.528-1.919q-21.117.039-42.234,0c-1.6,0-2.93.4-3.471,1.988a2.956,2.956,0,0,0,1.477,3.7c-.41,1.058-1.38.891-2.178.895-9.854.052-19.709.04-29.563.015a2.8,2.8,0,0,1-2.206-.633c-.025-1.119-.07-2.238-.071-3.356q-.006-33.424,0-66.848c0-4.559,1.754-6.3,6.328-6.316,1.187,0,2.374.026,3.56-.006,2.284-.063,3.057-.732,3.635-3.073H32.78c.652,2.519,1.4,3.075,4.244,3.076q36.719.006,73.438.006c.788,0,1.577.059,2.366.09.848,2.34,1.223,4.661-.271,6.909a1.6,1.6,0,0,1-1.16-.106c-2.925-1.573-6.1-1.444-9.272-1.441q-34.531.027-69.063.007a16.99,16.99,0,0,0-4.708.465,7.732,7.732,0,0,0,.116,14.988,13.59,13.59,0,0,0,3.534.347q36.708,0,73.417.041c2.485.007,4.588-1.042,6.861-1.633,1.492.5,1.1,1.81,1.109,2.839.051,6.923.025,13.847.025,20.771,0,4.615.022,9.231,0,13.847A20.449,20.449,0,0,1,94.6,209.587c-.964.059-2.142.437-2.744-.844" transform="translate(-5.386 -60.911)" fill="#cfe1e6"/>
        <path id="Trazado_192366" data-name="Trazado 192366" d="M247.811,267.066c-.5-2.323-1.278-3.025-3.6-3.076a2.5,2.5,0,0,1-2.217-.923,11.118,11.118,0,0,0-8.1-4.39,104.074,104.074,0,0,0-15.418-.057C213,259,209.215,262.539,208,267.852c-.277,1.21-.646,1.741-2.01,1.663-2.433-.139-4.881-.088-7.319-.017-1.125.033-1.512-.355-1.487-1.466.056-2.439.078-4.883-.008-7.321-.047-1.306.4-1.707,1.694-1.683,3.23.059,6.478.172,9.69-.084,6.492-.518,10.541-5.025,10.591-11.533.033-4.341.006-8.683.006-13.235a41.945,41.945,0,0,0,8.666,2.572,30.016,30.016,0,0,0,22.315-5.264c1.733-1.218,2.2-2.952,1.253-4.4-.981-1.5-2.8-1.685-4.691-.416q-11.705,7.861-24.592,2.164c-3.268-1.448-3.313-1.7-2.753-5.532a34.569,34.569,0,0,0,10.053,2.72q17.27,1.38,27.685-12.429a2.223,2.223,0,0,1,2.75-1.024c5.029,1.323,10.08,2.564,15.119,3.848a18.906,18.906,0,0,1,14.749,18.854c.028,5.343-.055,10.688.045,16.03.028,1.526-.444,1.884-1.893,1.85-4.088-.093-8.18-.082-12.269,0-1.351.025-1.837-.33-1.8-1.752.093-3.758.042-7.52.024-11.28a3.1,3.1,0,0,0-2.078-3.251,2.784,2.784,0,0,0-3.065.775,3.424,3.424,0,0,0-.793,2.758c0,7.191-.053,14.382.043,21.571.022,1.681-.482,2.149-2.1,2.044-2.1-.136-4.22-.051-6.331-.028-2.45.027-3.211.65-3.852,3.071a9.951,9.951,0,0,1-7.829.016" transform="translate(-92.774 -99.956)" fill="#0d2380"/>
        <path id="Trazado_192367" data-name="Trazado 192367" d="M126.58,345.725c.657,2.458,1.429,3.024,4.3,3.026q18.115.014,36.23,0c11.021,0,22.042.048,33.062-.048,1.8-.015,2.243.5,2.132,2.2-.15,2.3-.082,4.619-.017,6.927.029,1.016-.253,1.493-1.32,1.341a7.164,7.164,0,0,0-.989-.006q-93.148,0-186.3.048c-1.935,0-2.49-.473-2.335-2.372a62.787,62.787,0,0,0,.024-6.727c-.026-1,.244-1.492,1.318-1.371a14.207,14.207,0,0,0,1.583.009q49.693,0,99.385,0c3.291,0,4-.466,4.7-3.029a11.334,11.334,0,0,1,8.222,0" transform="translate(-5.327 -162.31)" fill="#97301b"/>
        <path id="Trazado_192368" data-name="Trazado 192368" d="M155.788,211.489c4.095.85,7.81-.338,11.2-2.445,6.582-4.093,9.89-10.014,9.8-17.894-.121-11.254-.024-22.51-.045-33.765,0-.749.312-1.6-.419-2.225-.164-.6.246-.981.535-1.409,2.456-3.629,2.459-6.624.007-10.2-.293-.429-.691-.811-.578-1.405,1.05-2.2.187-4.522.467-6.77,2.636-.027,5.272-.121,7.906-.064a4.918,4.918,0,0,1,5.025,4.609,15.743,15.743,0,0,1,.059,1.976q0,34.04,0,68.08c0,5.157-1.681,6.813-6.915,6.814q-15.932,0-31.863,0c-2.9,0-2.811-.022-3.49-2.815-.426-1.752-.1-2.336,1.823-2.236a19.98,19.98,0,0,0,6.484-.247" transform="translate(-69.316 -63.658)" fill="#b3cfd4"/>
        <path id="Trazado_192369" data-name="Trazado 192369" d="M248.082,107.629a16.406,16.406,0,0,1-14.6-1c-1.655-.885-3.133-1.341-4.783.114a13.884,13.884,0,0,0-1.8-6.332,10.513,10.513,0,0,0-8.236-5.1c-1.282-.1-1.727-.253-1.216-1.691,1.691-4.762,3.254-9.57,4.817-14.376a4.909,4.909,0,0,1,1.564-2.453,12.008,12.008,0,0,0,4.735-11.663c-.248-1.925.406-2.411,2.311-2.33,4.272.181,8.556.094,12.836.116,2.358,2.719,4.892,5.284,6.006,8.882,1.459,4.713,2.9,9.449,4.723,14.025a15.308,15.308,0,0,1,.293,10.207,33.689,33.689,0,0,1-3.491,8.14,9.882,9.882,0,0,1-3.16,3.457" transform="translate(-102.218 -29.546)" fill="#fef0dc"/>
        <path id="Trazado_192370" data-name="Trazado 192370" d="M210.521,32.647a29.959,29.959,0,0,1,10.353-15.235c1.642-1.271,3.385-.574,3.955,1.43.108.38.149.778.255,1.159a2.73,2.73,0,0,0,2.941,2.144,2.7,2.7,0,0,0,2.682-2.225,20.248,20.248,0,0,0,.2-5.128c-.053-1.888.872-2.744,2.613-3.085,14.121-2.763,28.881,6.012,33.256,19.715.538,1.684-.558,1.211-1.275,1.212q-12.175.029-24.35.012H210.521Z" transform="translate(-99.056 -5.269)" fill="#0d2380"/>
        <path id="Trazado_192371" data-name="Trazado 192371" d="M262.735,308.454l7.829-.016c.419,2.078,1.674,2.919,3.8,2.89,5.407-.075,10.815-.016,16.223-.03,2.217-.005,3.492-1.038,3.564-2.822.075-1.832-1.3-3.168-3.534-3.069-1.576.07-2.118-.417-1.894-1.945a8.523,8.523,0,0,0,.005-1.975c-.08-.9.332-1.1,1.151-1.092q6.825.044,13.651,0c.848-.006,1.129.241,1.125,1.109q-.047,9.595,0,19.19c.006,1.04-.454,1.156-1.309,1.155q-23.048-.026-46.1.007c-1.006,0-1.3-.259-1.379-1.3-.445-5.916-4.463-9.644-10.37-9.679-5.538-.033-11.076-.007-16.616-.007a5.084,5.084,0,0,1,5.067-4.945c2.36-.187,4.744-.076,7.117-.09,1.516-.008,3.037.066,4.55-.015,3.357-.179,6.1.731,7.769,3.919a2.82,2.82,0,0,0,2.409,1.527,30.945,30.945,0,0,0,4.348-.011,2.856,2.856,0,0,0,2.588-2.794" transform="translate(-107.698 -141.343)" fill="#fef0dc"/>
        <path id="Trazado_192372" data-name="Trazado 192372" d="M258.148,107.663a31,31,0,0,0,7.041-16.189,5.3,5.3,0,0,0-.272-2.514c-2.011-5.981-3.98-11.977-6-17.955a10,10,0,0,0-2.535-4.172,11.185,11.185,0,0,1-2.607-3.882c3.5-.022,6.991-.016,10.485-.085.943-.018,1.336.262,1.237,1.226-.06.587.043,1.192-.019,1.779A11.244,11.244,0,0,0,269.888,76.5a6.59,6.59,0,0,1,2.074,3.286c1.7,5.187,3.348,10.393,5.2,15.525a11.8,11.8,0,0,1,.384,6.569c-3.312,16.667-22.56,25.756-37.556,17.715-.869-.466-1.661-.869-1.243-2.061,1.51-1.064,3.383-.887,5.033-1.479,1.264-.453,2.707-.5,3.676-1.62a24.014,24.014,0,0,0,16.33-2.758c2.019-1.173,2.659-2.725,1.8-4.336-.88-1.651-2.642-1.95-4.756-.818a7.005,7.005,0,0,1-2.684,1.141" transform="translate(-112.284 -29.58)" fill="#fee3c0"/>
        <path id="Trazado_192373" data-name="Trazado 192373" d="M252.523,205.934a26.309,26.309,0,0,1-12.407-3.12,2.413,2.413,0,0,1-1.506-2.437c.082-5.674.062-11.35.015-17.025-.011-1.3.1-1.745,1.585-1.158A31.209,31.209,0,0,0,264.1,182.1c1.355-.544,1.4-.008,1.417,1.045a14.438,14.438,0,0,0,5.718,11.643c.9.708.491,1.13.026,1.711a24.1,24.1,0,0,1-15.669,9.113c-1.172.178-2.36.248-3.069.32" transform="translate(-112.273 -85.582)" fill="#f0cfa4"/>
        <path id="Trazado_192374" data-name="Trazado 192374" d="M108.119,301.139c-3.758,0-7.516-.01-11.275.007-.86,0-1.457.1-1.18-1.217,1.328-6.311,2.544-12.646,3.765-18.979.187-.97.663-1.226,1.614-1.217,4.813.046,9.627.055,14.439-.006,1.035-.013,1.319.4,1.5,1.3q1.825,9.3,3.74,18.581c.254,1.224-.032,1.59-1.326,1.56-3.757-.087-7.516-.031-11.274-.031" transform="translate(-44.981 -131.619)" fill="#9ab8c0"/>
        <path id="Trazado_192375" data-name="Trazado 192375" d="M204.359,339.342h-8.222c-.324-2.019-1.5-2.923-3.55-2.9-4.679.045-9.36-.037-14.038.044-1.424.025-1.964-.295-1.923-1.841.087-3.253,0-3.255,3.181-3.255q20.367,0,40.733,0c2.556,0,4.182,1.075,4.715,3.062.355,1.325.175,2.064-1.532,2.034-5.271-.093-10.546-.005-15.818-.048-2.05-.016-3.23.876-3.546,2.9" transform="translate(-83.106 -155.927)" fill="#607780"/>
        <path id="Trazado_192376" data-name="Trazado 192376" d="M97.727,336.4q-11.272,0-22.544,0c-.883,0-2.026.281-1.762-1.264.236-1.378-.9-3.391,1.641-3.753a9.871,9.871,0,0,1,1.383-.015h42.517c2.9,0,4.1,1.7,3.167,4.451-.323.949-1.091.562-1.66.564-7.58.028-15.161.018-22.741.018" transform="translate(-34.521 -155.909)" fill="#cee0e5"/>
        <path id="Trazado_192377" data-name="Trazado 192377" d="M11.587,279.542q16.02,0,32.04,0c.641,0,1.327.19,1.907-.278,2.41.559,4.856.192,7.284.241.965.02,1.217.231,1.092,1.227-.475,3.8-.438,3.8-4.234,3.8-10.747,0-21.493.016-32.24-.009-3.7-.008-5.522-1.607-5.85-4.982" transform="translate(-5.452 -131.402)" fill="#b3ced3"/>
        <path id="Trazado_192378" data-name="Trazado 192378" d="M163.752,310.864c-2.172,0-4.345-.049-6.515.021-1.037.033-1.363-.292-1.336-1.335.068-2.631.056-5.266,0-7.9-.019-.947.3-1.264,1.242-1.257q6.812.052,13.624,0c.876-.005,1.128.342,1.118,1.167-.033,2.7-.047,5.4.007,8.1.019.95-.275,1.252-1.235,1.224-2.3-.066-4.606-.021-6.91-.021" transform="translate(-73.355 -141.344)" fill="#fef0dc"/>
        <path id="Trazado_192379" data-name="Trazado 192379" d="M324.755,109.228c.208-3.383.411-6.719.62-10.055a5.977,5.977,0,0,1,.179-1.764c.486-1.235-1.245-3.577,1.827-3.561,3.735.02,5.606,1.249,5.916,4.1.527,4.849-3.477,10.24-8.541,11.278" transform="translate(-152.806 -44.158)" fill="#efcfa4"/>
        <path id="Trazado_192380" data-name="Trazado 192380" d="M195.481,106.208c-.14.839.541,2.145-.168,2.537-.917.506-1.944-.454-2.813-1.01a10.941,10.941,0,0,1-5.4-9.31,5.2,5.2,0,0,1,7.09-4.823c.611.246.484.7.515,1.126.137,1.9.255,3.809.384,5.713s.26,3.808.394,5.767" transform="translate(-88.034 -43.872)" fill="#fde3c0"/>
        <path id="Trazado_192381" data-name="Trazado 192381" d="M212.191,80.937c-.139-5.412-1.03-10.611-.477-15.874.166-1.578.563-2.655,2.465-2.267.443.091.928-.044,1.378.024,1.444.221,3.18-.72,4.294.479.969,1.043-.094,6.526-1.316,7.585a16.159,16.159,0,0,0-5.373,8.751,1.594,1.594,0,0,1-.972,1.3" transform="translate(-99.533 -29.491)" fill="#859fae"/>
        <path id="Trazado_192382" data-name="Trazado 192382" d="M307.765,81.469a20.487,20.487,0,0,1-.777-2.208,14.9,14.9,0,0,0-4.879-7.933c-1.464-1.3-2.355-6.186-1.654-7.929.248-.616.71-.479,1.133-.491.922-.026,1.845-.009,2.767-.009,4.146,0,4.231,0,4.429,4.219.224,4.8-.507,9.573-1.019,14.352" transform="translate(-141.258 -29.593)" fill="#859fae"/>
        <path id="Trazado_192383" data-name="Trazado 192383" d="M247.56,156.945c.579.447.547.731-.176,1a33.875,33.875,0,0,1-8.532,2.095v-6.83a25.854,25.854,0,0,0,8.709,3.731" transform="translate(-112.386 -72.091)" fill="#fdefdb"/>
        <path id="Trazado_192384" data-name="Trazado 192384" d="M57.765,333.8c-.039,2.968.36,2.7-2.748,2.64-.864-.016-2.325.7-2.309-1.172a4.126,4.126,0,0,1,4.011-3.852c2.141.088.481,1.779,1.046,2.384" transform="translate(-24.8 -155.939)" fill="#5e747d"/>
        <path id="Trazado_192385" data-name="Trazado 192385" d="M121.68,146.486c4,4.484,4.012,8.5.035,13.018a11.185,11.185,0,0,1-6.874,1.992q-37.323-.064-74.647-.032c-5.914,0-9.885-4.716-8.747-10.29a8.5,8.5,0,0,1,8.5-6.617c3.63-.054,7.26-.012,10.89-.013q31.976,0,63.954-.022a11.365,11.365,0,0,1,6.888,1.964" transform="translate(-14.705 -68.002)"/>
        <path id="Trazado_192386" data-name="Trazado 192386" d="M264.612,110.013c0,1.056.048,2.114-.008,3.167a7.784,7.784,0,0,1-8.671,7.247,2.962,2.962,0,0,1-.068-5.89c2.816-.473,2.818-.46,2.82-3.328,0-1.518-.044-3.038.016-4.553a2.962,2.962,0,1,1,5.918-.009c.008.132.005.264.005.4q0,1.485,0,2.97h-.013" transform="translate(-119.16 -48.732)"/>
        <path id="Trazado_192387" data-name="Trazado 192387" d="M174.306,160.793c-1.708,0-3.415.015-5.122,0-1.6-.016-2.716-.775-2.785-2.419a2.408,2.408,0,0,1,2.615-2.6c3.543-.1,7.092-.084,10.637-.01a2.358,2.358,0,0,1,2.552,2.627c-.04,1.623-1.1,2.328-2.578,2.387-1.77.07-3.545.016-5.318.019" transform="translate(-78.294 -73.262)" fill="#607780"/>
        <path id="Trazado_192388" data-name="Trazado 192388" d="M50.6,155.744c1.649,0,3.3-.028,4.947.01a2.605,2.605,0,0,1,2.832,2.462c.152,1.4-1.152,2.555-2.894,2.579q-5.045.068-10.091,0c-1.808-.023-2.937-1.067-2.92-2.545s1.143-2.45,2.98-2.5c1.714-.046,3.43-.01,5.145-.008" transform="translate(-19.983 -73.275)" fill="#607780"/>
        <path id="Trazado_192389" data-name="Trazado 192389" d="M112.395,160.794q-2.572,0-5.143,0a2.485,2.485,0,0,1-2.8-2.446,2.417,2.417,0,0,1,2.647-2.59c3.559-.07,7.122-.08,10.681.012a2.3,2.3,0,0,1,2.463,2.52,2.334,2.334,0,0,1-2.507,2.478c-1.776.086-3.56.02-5.34.023" transform="translate(-49.146 -73.264)" fill="#607780"/>
        <path id="Trazado_192390" data-name="Trazado 192390" d="M150.69,160.849c-.683,0-1.2,0-1.722,0-4.272.026-4.268.025-3.834-4.257.034-.339.02-.741.419-.75,1.577-.034,3.157-.038,4.732.023.445.017.335.481.25.784a8.367,8.367,0,0,0,.156,4.2" transform="translate(-68.202 -73.316)" fill="#b0ccd1"/>
        <path id="Trazado_192391" data-name="Trazado 192391" d="M85.8,160.7c-.6-.732-2.561,1.239-2.467-.949.057-1.332-.637-2.9.192-3.914.436-.532,1.993-.286,3.012-.15.716.1,2.048-.834,2.1.75.143,4.261.093,4.263-2.837,4.263" transform="translate(-39.107 -73.169)" fill="#b0cbd0"/>
      </g>
    </g>
  </g>
</svg>
