<svg xmlns="http://www.w3.org/2000/svg" xmlns:xlink="http://www.w3.org/1999/xlink" width="63.274" height="77" viewBox="0 0 63.274 77">
  <defs>
    <clipPath id="clip-path">
      <rect id="Rectángulo_85137" data-name="Rectángulo 85137" width="63.274" height="77" fill="#0d2380"/>
    </clipPath>
  </defs>
  <g id="Grupo_137520" data-name="Grupo 137520" transform="translate(6559 5508)">
    <g id="Grupo_134910" data-name="Grupo 134910" transform="translate(-6559 -5508)">
      <g id="Grupo_134911" data-name="Grupo 134911" clip-path="url(#clip-path)">
        <path id="Trazado_192474" data-name="Trazado 192474" d="M40.8,0c.827.175,1.665.311,2.48.532a15.462,15.462,0,0,1,11.5,15.744,1.78,1.78,0,0,0,.98,1.864A27.783,27.783,0,0,1,59.538,21.2c.794.729.786,1.441.2,1.938s-1.157.35-1.857-.437a12.074,12.074,0,0,0-3.509-2.791c-.631,1.3-1.264,2.569-1.845,3.857a.939.939,0,0,0,.15.709,5.012,5.012,0,1,1-2.867-2.14c.237.068.47.148.85.269L52.233,19a11.858,11.858,0,0,0-4.506-.626,12.657,12.657,0,0,0-3.561,24.583c1.3.456,1.394.585,1.394,1.933q0,5.9,0,11.8c0,.15,0,.3,0,.451-.038.81-.48,1.322-1.137,1.322s-1.114-.508-1.116-1.326c-.01-3.658-.005-7.316-.006-10.974,0-1.431-.2-1.575-1.582-1.189a14.781,14.781,0,0,1-10.943-1.067c-.179-.089-.355-.184-.534-.274-.02-.01-.047,0,.01,0L21.29,52.6c.476.466,1.018.977,1.537,1.51a3.849,3.849,0,1,1-5.421,5.464c-.537-.522-1.018-1.1-1.566-1.7l-1.412,1.488c.527.5,1.071.975,1.575,1.492A3.854,3.854,0,1,1,10.548,66.3c-.516-.5-.986-1.052-1.61-1.724-.923.986-1.693,1.916-2.574,2.726a3.79,3.79,0,0,1-5.131-.054,3.87,3.87,0,0,1-.525-5.062,5.06,5.06,0,0,1,.544-.621q4.806-4.814,9.619-9.622a2.592,2.592,0,0,1,.387-.354,1.069,1.069,0,0,1,1.442.1,1.058,1.058,0,0,1,.129,1.438,3.589,3.589,0,0,1-.505.552q-4.649,4.652-9.3,9.307a2.929,2.929,0,0,0-.683.964,1.522,1.522,0,0,0,.684,1.821,1.529,1.529,0,0,0,1.933-.234c.994-.955,1.954-1.944,2.932-2.915.82-.814,1.345-.816,2.161-.01.695.687,1.372,1.392,2.078,2.068a1.6,1.6,0,1,0,2.254-2.244c-.71-.742-1.455-1.45-2.174-2.184a1.194,1.194,0,0,1,0-1.946q1.291-1.313,2.6-2.6a1.16,1.16,0,0,1,1.889-.007c.738.715,1.448,1.457,2.184,2.174a1.581,1.581,0,0,0,2.392.1,1.613,1.613,0,0,0-.135-2.344c-.715-.737-1.456-1.449-2.173-2.185a1.169,1.169,0,0,1,0-1.889q5.015-5.03,10.046-10.045c.615-.613,1.022-.644,1.8-.158a12.679,12.679,0,0,0,7.436,1.946c.411-.019.82-.09,1.136-.126-1.092-1.205-2.165-2.412-3.271-3.589a1.586,1.586,0,0,0-.735-.313A8.9,8.9,0,0,1,36.038,21.9a2.246,2.246,0,0,0,.981-.575c1.091-.983,2.152-2,3.239-3.016a11.566,11.566,0,0,0-5.137-.048,12.643,12.643,0,0,0-8.269,19.076c.581.955.553,1.255-.222,2.03q-5.207,5.211-10.418,10.417a3.136,3.136,0,0,1-.381.362,1.118,1.118,0,0,1-1.571-1.576,4.4,4.4,0,0,1,.468-.486q4.676-4.678,9.357-9.351a4.738,4.738,0,0,1,.681-.477l-.351-.087A50.393,50.393,0,0,1,22.9,32.8a13.952,13.952,0,0,1,1.942-9.8,1.385,1.385,0,0,0,.084-1.439A15.563,15.563,0,0,1,37.294.134,3.685,3.685,0,0,0,37.8,0ZM52.476,16.686c.725-5.028-2.37-10.556-7.239-13.017A13.31,13.31,0,0,0,29.95,6.088a13.151,13.151,0,0,0-3.071,14.151c.1-.08.2-.148.287-.228a14.806,14.806,0,0,1,15.874-3.239,1.23,1.23,0,0,0,.72.054,15.06,15.06,0,0,1,8.716-.14M34.311,36.339a.577.577,0,0,0,.019-.218,15.666,15.666,0,0,1-.889-5.753.6.6,0,0,0-.255-.459c-.633-.341-1.289-.64-1.94-.955a6.4,6.4,0,0,0,3.065,7.385m12.566-7.026a2.611,2.611,0,0,0,3.394-.161A2.473,2.473,0,0,0,50.9,26.13l-4.02,3.182m-.935-2.121,3.242-2.583a2.411,2.411,0,0,0-3.242,2.583m-11.191-2.4L34.6,24.6l-2.542,2.176,1.714.9.983-2.889" transform="translate(0)" fill="#0d2380"/>
        <path id="Trazado_192475" data-name="Trazado 192475" d="M223.1,153.568c.8.622,1.536,1.181,2.256,1.76.9.726.892,1.419-.025,2.15-.685.546-1.38,1.08-2.069,1.622-.036.028-.049.085-.093.167.742.577,1.494,1.151,2.234,1.741a1.167,1.167,0,0,1,0,2.056c-.74.59-1.495,1.162-2.306,1.791.7.541,1.325,1.076,2,1.541a1.889,1.889,0,0,1,.919,1.827c-.062,1,.028,2.006-.037,3a1.909,1.909,0,0,1-.465,1.119c-1.3,1.356-2.646,2.669-3.991,3.981a1.117,1.117,0,0,1-1.826-.019c-1.26-1.326-2.517-2.656-3.731-4.022a1.778,1.778,0,0,1-.4-1.077c-.031-3.107-.023-6.214-.014-9.32,0-.863.4-1.331,1.075-1.355.709-.026,1.171.47,1.175,1.343.014,2.781.02,5.562-.006,8.343a1.71,1.71,0,0,0,.529,1.328c.774.781,1.511,1.6,2.384,2.532.98-1.012,1.96-1.969,2.861-3,.2-.229.109-.705.177-1.063a2.5,2.5,0,0,0-1.389-2.9,11.94,11.94,0,0,1-1.724-1.328,1.118,1.118,0,0,1,.016-1.9c.756-.611,1.534-1.2,2.379-1.853-.791-.621-1.534-1.2-2.27-1.783-.868-.692-.87-1.4,0-2.091.723-.577,1.459-1.138,2.278-1.775-.724-.563-1.4-1.094-2.084-1.62-1.122-.866-1.132-1.517-.034-2.37.791-.615,1.6-1.2,2.357-1.863a1.409,1.409,0,0,0,.448-.915c.042-1.778.039-3.558.012-5.336a1.458,1.458,0,0,1,1.1-1.559,12.626,12.626,0,0,0,7.738-16.034c-.314-.969-.041-1.65.72-1.8.64-.122,1.127.2,1.381.972a14.777,14.777,0,0,1-1.313,12.649,14.218,14.218,0,0,1-6.78,5.935.861.861,0,0,0-.592.962c.028,1.678-.005,3.357.019,5.036a1.562,1.562,0,0,1-.7,1.4c-.729.529-1.427,1.1-2.216,1.714" transform="translate(-172.249 -99.79)" fill="#0d2380"/>
      </g>
    </g>
  </g>
</svg>
