<svg xmlns="http://www.w3.org/2000/svg" xmlns:xlink="http://www.w3.org/1999/xlink" width="77" height="77" viewBox="0 0 77 77">
  <defs>
    <clipPath id="clip-path">
      <rect id="Rectángulo_85135" data-name="Rectángulo 85135" width="77" height="77" transform="translate(0 -0.156)" fill="#0d2380"/>
    </clipPath>
  </defs>
  <g id="Grupo_137519" data-name="Grupo 137519" transform="translate(-558 -6363)">
    <g id="Grupo_137518" data-name="Grupo 137518">
      <g id="Grupo_134909" data-name="Grupo 134909" transform="translate(558 6363.156)">
        <g id="Grupo_134908" data-name="Grupo 134908" clip-path="url(#clip-path)">
          <path id="Trazado_192460" data-name="Trazado 192460" d="M193.75,198.924a7.67,7.67,0,0,1-3.352-2.234c-3.038-3.013-6.111-5.991-9.168-8.984-1.019-1-1.026-1.566-.026-2.563.351-.35.722-.681,1.078-1.015l-2.11-2.1a21.561,21.561,0,0,1-19.509,4.789,20.876,20.876,0,0,1-12.4-8.246,21.721,21.721,0,0,1,30.87-29.985,21.055,21.055,0,0,1,8.249,15.14,21.513,21.513,0,0,1-5.318,16.388l2.13,2.119c.309-.337.623-.716.975-1.054a1.315,1.315,0,0,1,2.089-.033c3.461,3.364,6.938,6.711,10.336,10.137a10.64,10.64,0,0,1,1.381,2.412v1.493a16.367,16.367,0,0,1-.727,1.667,4.818,4.818,0,0,1-3.006,2.066Zm-47.021-33.132a19.109,19.109,0,1,0,19.081-19.116,19.148,19.148,0,0,0-19.081,19.116m36.848,20.661,7.305,7.13,2.745-2.655-7.3-7.136-2.752,2.66m9.3,9.04a1.945,1.945,0,0,0,2.043.82,1.777,1.777,0,0,0,1.446-1.522,1.914,1.914,0,0,0-.815-1.958l-2.674,2.66" transform="translate(-122.525 -122.472)" fill="#0d2380"/>
          <path id="Trazado_192461" data-name="Trazado 192461" d="M0,210.872a3.933,3.933,0,0,1,3.628-3.129c.644-.045,1.294-.014,1.941-.018.242,0,.483,0,.751,0,.185-1.055-.293-2.57,1.414-2.49,1.49.07,1.114,1.428,1.247,2.49h.786q4.4,0,8.81,0a3.419,3.419,0,0,1,.816.048,1.156,1.156,0,0,1,.953,1.1,1.129,1.129,0,0,1-.807,1.272,3.427,3.427,0,0,1-1.027.118q-7.093.011-14.185.005c-1.369,0-1.78.41-1.781,1.781q0,5.861,0,11.721c0,1.366.406,1.769,1.786,1.77q7.055,0,14.111,0a4.45,4.45,0,0,1,.961.085,1.233,1.233,0,0,1-.087,2.416,5.489,5.489,0,0,1-.893.045c-4.479,0-8.961-.072-13.438.031-2.417.056-4.167-.67-4.984-3.067Z" transform="translate(0 -174.587)" fill="#0d2380"/>
          <path id="Trazado_192462" data-name="Trazado 192462" d="M22.249,0a2.915,2.915,0,0,1,1.96,3.287c-.049.568,0,1.144-.011,1.716a2.5,2.5,0,0,1-2.632,2.623c-3.757.017-7.514.006-11.271.007-2.364,0-4.729-.054-7.09.019A2.954,2.954,0,0,1,0,5.674V1.941A3.437,3.437,0,0,1,1.941,0Zm-.626,2.6H2.582V5.045H21.623Z" fill="#0d2380"/>
          <path id="Trazado_192463" data-name="Trazado 192463" d="M402.965,5.674a2.982,2.982,0,0,1-3.2,1.979c-4.3-.059-8.6-.019-12.9-.021-2.068,0-3.012-.943-3.017-3,0-.447.034-.9-.006-1.341A2.937,2.937,0,0,1,385.793,0h15.231a3.437,3.437,0,0,1,1.941,1.941ZM386.429,5.03h13.954V2.587H386.429Z" transform="translate(-326.513)" fill="#0d2380"/>
          <path id="Trazado_192464" data-name="Trazado 192464" d="M0,69.964a3.168,3.168,0,0,1,3.4-1.935c2.932.065,5.867.017,8.8.019,2.143,0,3.075.943,3.08,3.1,0,.671.019,1.343-.011,2.013a2.479,2.479,0,0,1-2.5,2.523c-.62.036-1.242.014-1.864.016s-1.237,0-1.974,0c0,.417.02.779,0,1.137-.059.89-.571,1.411-1.334,1.382-.736-.027-1.175-.535-1.209-1.413-.012-.321,0-.643,0-1.106H4.591c-.472,0-.947-.029-1.417.005A2.832,2.832,0,0,1,0,73.7Zm12.692.7H2.588V73.1h10.1Z" transform="translate(0 -57.869)" fill="#0d2380"/>
          <path id="Trazado_192465" data-name="Trazado 192465" d="M192.293,0a2.87,2.87,0,0,1,2.044,3.226c-.044.742.013,1.494-.075,2.23A2.38,2.38,0,0,1,191.9,7.614q-5.215.043-10.429,0a2.442,2.442,0,0,1-2.42-2.364,23.932,23.932,0,0,1-.006-2.829,2.782,2.782,0,0,1,1.9-2.42ZM181.61,5.032h10.1V2.6h-10.1Z" transform="translate(-152.276)" fill="#0d2380"/>
          <path id="Trazado_192466" data-name="Trazado 192466" d="M454.082,239.236a12.6,12.6,0,0,1-.571,1.188,3.461,3.461,0,0,1-2.915,1.8c-1.763.063-3.529.052-5.293.037a1.266,1.266,0,1,1-.043-2.523c1.515-.041,3.032-.011,4.549-.018,1.317-.006,1.729-.421,1.73-1.748q0-5.892,0-11.783c0-1.317-.426-1.738-1.743-1.741-1.442,0-2.884.007-4.325,0-1.005-.007-1.572-.5-1.552-1.311.02-.783.561-1.223,1.546-1.228q2.275-.012,4.549,0a3.783,3.783,0,0,1,3.938,2.879,2.23,2.23,0,0,0,.131.265Z" transform="translate(-377.63 -188.766)" fill="#0d2380"/>
          <path id="Trazado_192467" data-name="Trazado 192467" d="M432.074,73.753a2.911,2.911,0,0,1-3.17,2.023c-2.557-.06-5.117-.014-7.675-.017-2.281,0-3.179-.914-3.18-3.222,0-.571-.01-1.143,0-1.714a2.535,2.535,0,0,1,2.579-2.7c2.955-.05,5.912-.028,8.868-.009a2.8,2.8,0,0,1,2.577,1.905Zm-2.584-3.027h-8.844v2.44h8.844Z" transform="translate(-355.622 -57.925)" fill="#0d2380"/>
          <path id="Trazado_192468" data-name="Trazado 192468" d="M306.864,0a2.97,2.97,0,0,1,1.944,3.3c-.05.618.013,1.244-.02,1.864a2.494,2.494,0,0,1-2.5,2.452q-2.61.045-5.221,0A2.445,2.445,0,0,1,298.63,5.2c-.034-.67.025-1.345-.026-2.013A2.847,2.847,0,0,1,300.592,0ZM301.2,5.026h5.017V2.591H301.2Z" transform="translate(-254.004)" fill="#0d2380"/>
          <path id="Trazado_192469" data-name="Trazado 192469" d="M250.983,75.785q-4.474,0-8.949,0c-2.16,0-3.076-.927-3.079-3.09,0-.6-.005-1.193,0-1.79a2.579,2.579,0,0,1,2.737-2.772c.919-.022,1.839,0,2.759,0q7.793,0,15.586,0c2.186,0,3.114.94,3.116,3.144,0,.547,0,1.094,0,1.641a2.568,2.568,0,0,1-2.85,2.867c-2.734.017-5.469,0-8.2,0h-1.119m-9.444-2.607h19.038V70.726H241.539Z" transform="translate(-203.273 -57.949)" fill="#0d2380"/>
          <path id="Trazado_192470" data-name="Trazado 192470" d="M126.989,75.734c-1.59,0-3.181.013-4.771,0a2.567,2.567,0,0,1-2.845-2.8c-.017-.77-.032-1.543.016-2.31a2.466,2.466,0,0,1,2.519-2.516q5.1-.075,10.212,0a2.516,2.516,0,0,1,2.549,2.652c.019.77.018,1.541,0,2.311a2.525,2.525,0,0,1-2.611,2.656c-1.689.043-3.379.01-5.069.01Zm-5.017-2.6h10.1V70.688h-10.1Z" transform="translate(-101.534 -57.9)" fill="#0d2380"/>
          <path id="Trazado_192471" data-name="Trazado 192471" d="M42.718,261.217c0-1.217-.012-2.435,0-3.652.012-.917.479-1.463,1.223-1.487.759-.025,1.31.556,1.318,1.488q.029,3.615,0,7.229a1.276,1.276,0,0,1-1.279,1.435c-.773,0-1.244-.513-1.259-1.436-.019-1.192,0-2.385,0-3.577" transform="translate(-36.335 -217.839)" fill="#0d2380"/>
          <path id="Trazado_192472" data-name="Trazado 192472" d="M42.832,156.338a12.808,12.808,0,0,1,.01-1.415,1.122,1.122,0,0,1,1.139-1.069,1.053,1.053,0,0,1,1.256.905,19.315,19.315,0,0,1,.008,3.184c-.051.66-.61.943-1.24.945a1.189,1.189,0,0,1-1.171-1.135c-.041-.469-.008-.944-.008-1.416h.005" transform="translate(-36.421 -130.877)" fill="#0d2380"/>
          <path id="Trazado_192473" data-name="Trazado 192473" d="M195.712,179.146a16.565,16.565,0,1,1-16.567,16.594,16.628,16.628,0,0,1,16.567-16.594m-.025,2.547a14.02,14.02,0,1,0,14.044,13.993,14.09,14.09,0,0,0-14.044-13.993" transform="translate(-152.394 -152.396)" fill="#0d2380"/>
        </g>
      </g>
    </g>
  </g>
</svg>
