<svg xmlns="http://www.w3.org/2000/svg" xmlns:xlink="http://www.w3.org/1999/xlink" width="303.554" height="229" viewBox="0 0 303.554 229">
  <defs>
    <clipPath id="clip-path">
      <rect id="Rectángulo_85130" data-name="Rectángulo 85130" width="262" height="191.907" fill="none"/>
    </clipPath>
  </defs>
  <g id="Grupo_137520" data-name="Grupo 137520" transform="translate(-804 -5877)">
    <g id="Image_Place_Holder" data-name="Image Place Holder" transform="translate(804 5893.999)" opacity="0.599">
      <path id="Image_Place_Holder-2" data-name="Image Place Holder" d="M10,0H293.554a10,10,0,0,1,10,10V195.482a10,10,0,0,1-10,10H10a10,10,0,0,1-10-10V10A10,10,0,0,1,10,0Z" transform="translate(0 0)" fill="#0d2380"/>
      <rect id="Rectángulo_85174" data-name="Rectángulo 85174" width="303" height="17" transform="translate(0 -16.999)" fill="#fff"/>
    </g>
    <rect id="Rectángulo_41173" data-name="Rectángulo 41173" width="250" height="11" rx="5" transform="translate(831 6095)" fill="#0d2380"/>
    <g id="Grupo_134903" data-name="Grupo 134903" transform="translate(825 5877)">
      <g id="Grupo_134903-2" data-name="Grupo 134903" clip-path="url(#clip-path)">
        <path id="Trazado_192402" data-name="Trazado 192402" d="M0,173.142c1.946-5.207,6.079-6.372,11.882-5.618C7.533,162.6,8.188,157.24,8.188,152.007q0-68.182,0-136.365C8.194,8.019,12.442,2.3,19.37.442A18.408,18.408,0,0,1,24.191.007Q131,0,237.819.008c9.973,0,16,6.119,16,16.144q.007,69.845.036,139.691c0,4.04-.585,7.789-3.255,11.211,1.375.54,2.639.222,3.852.287A7.551,7.551,0,0,1,262,175.293a16.833,16.833,0,0,1-14.472,16.321,38.07,38.07,0,0,1-4.843.281q-111.675.019-223.351.011C9.1,191.906,3.9,188.236.378,178.553c-.046-.127-.249-.2-.378-.293v-5.118" transform="translate(0 0)"/>
        <path id="Trazado_192403" data-name="Trazado 192403" d="M137.146,7.488c35.39,0,70.782.128,106.171-.1,7.967-.051,11.659,5.365,11.635,11.626-.178,46.476-.1,92.953-.1,139.431,0,7.659-3.594,11.263-11.272,11.263q-106.427.005-212.853,0c-7.7,0-11.276-3.584-11.276-11.249q0-69.843,0-139.687c0-7.619,3.649-11.283,11.263-11.284q53.214-.007,106.427,0" transform="translate(-6.149 -2.336)" fill="#0d2380"/>
        <path id="Trazado_192404" data-name="Trazado 192404" d="M133.378,266.466q-56.269,0-112.538,0c-7.018,0-11.669-3.37-13.085-9.422-.871-3.725.019-4.9,3.768-4.9q35.935-.008,71.871-.038c1.556,0,2.359.249,2.847,1.94,1.278,4.427,4.683,6.742,9.653,6.782,6.393.051,12.788.012,19.182.012h54.99c6.916,0,8.851-1.256,11.487-7.739.59-1.451,1.668-.933,2.563-.936,11.765-.037,23.531-.025,35.3-.025q17.776,0,35.552,0c3.744,0,4.484.921,3.82,4.664a11.623,11.623,0,0,1-9.312,9.341,25.96,25.96,0,0,1-4.324.309q-55.885.025-111.77.013" transform="translate(-2.354 -79.678)" fill="#dadeec"/>
        <path id="Trazado_192405" data-name="Trazado 192405" d="M172.576,252.1q20.2,0,40.391.029c.737,0,1.938-.618,2.173.525.191.931-.733,1.647-1.512,2.2a5.665,5.665,0,0,1-3.411.844q-37.579,0-75.158,0a5.272,5.272,0,0,1-4.02-1.271c-.536-.537-1.264-1.154-.944-1.946.306-.76,1.211-.355,1.836-.358,5.964-.03,11.929-.018,17.895-.018h22.752" transform="translate(-41.096 -79.642)" fill="#c4d4e1"/>
        <path id="Trazado_192406" data-name="Trazado 192406" d="M139.783,15.016H245.177c5.759,0,6.925,1.146,6.925,6.8q0,69.454,0,138.907c0,4.942-1.3,6.276-6.159,6.276q-106.29.005-212.58,0c-5.082,0-6.426-1.332-6.426-6.291q0-69.583,0-139.164c0-5.228,1.277-6.53,6.428-6.53q53.21,0,106.418,0" transform="translate(-8.514 -4.746)"/>
        <path id="Trazado_192407" data-name="Trazado 192407" d="M142.126,38.155q52.184,0,104.368-.057c2.386-.006,2.888.672,2.884,2.95q-.1,62.673,0,125.346c0,2.212-.472,2.827-2.773,2.824q-104.752-.1-209.5,0c-2.333,0-2.758-.663-2.754-2.842q.1-62.8,0-125.6c0-2.111.492-2.677,2.643-2.673q52.568.109,105.136.051" transform="translate(-10.857 -12.042)" fill="#dadeec"/>
        <path id="Trazado_192408" data-name="Trazado 192408" d="M157.1,27.768q-48.466,0-96.932-.029c-.836,0-2.232.613-2.456-.516a19.005,19.005,0,0,1,.089-4.8c.007-.113.585-.248.9-.268.68-.042,1.363-.016,2.046-.016q96.42,0,192.84.018c.986,0,2.58-.517,2.849.346a14.909,14.909,0,0,1,.17,4.808c-.017.5-.622.455-1.043.457q-.9,0-1.79,0H157.1" transform="translate(-18.2 -6.954)" fill="#ebf2fa"/>
        <path id="Trazado_192409" data-name="Trazado 192409" d="M39.713,27.794a16.078,16.078,0,0,0-2.536.021c-2.346.38-2.868-.585-2.9-2.855-.035-2.394.709-3.062,2.97-2.842a33.648,33.648,0,0,0,5.834,0c1.729-.135,2.118.519,2.083,2.145-.077,3.526.012,3.528-3.418,3.528H39.713" transform="translate(-10.834 -6.979)" fill="#fc502d"/>
        <path id="Trazado_192410" data-name="Trazado 192410" d="M237.452,110.913a15.847,15.847,0,0,0,5.3,6.845c6.744,4.748,6.57,14.738,0,19.805-.6.462-1.205.912-1.808,1.368-1.1,1.481-1.512,3.416-3.028,4.627-3.468,4.946-7.6,9.4-13.892,9.861-4.149.3-5.717,1.511-6.849,5.6-1.4,5.033-5.88,7.42-11.112,7.44-21.4.079-42.81.124-64.214-.021-7.113-.048-12.087-5.1-12.142-12.212q-.206-26.478-.005-52.957c.04-6.18,3.631-10.432,9.687-11.81,1.62-.369,1.515-1.221,1.529-2.344.064-5.021-.265-10.052.777-15.035a32.945,32.945,0,0,1,65.169,5.353c.125,3.322.082,6.651.044,9.976-.013,1.2.291,1.737,1.617,2.036,5.474,1.232,8.751,4.674,9.54,10.287.159,1.128.419,1.646,1.7,1.561,5.211-.347,9.649,1.564,13.567,4.874,2.342.741,3.407,2.589,4.111,4.748" transform="translate(-40.97 -14.495)"/>
        <path id="Trazado_192411" data-name="Trazado 192411" d="M74.889,80.235c5.266-1.838,9.275,1.65,13.126,5.607,2.316,2.379,4.707,4.687,7.076,7.016,1.276,1.255,1.7,2.623.273,3.973-1.451,1.373-2.733.694-3.978-.52-3.29-3.207-6.454-6.54-9.919-9.575a5.243,5.243,0,0,0-3.874-1.455c-3.491.08-6.984-.016-10.475.04-1.795.029-3.11-.584-3.186-2.475-.074-1.842,1.421-2.476,2.917-2.571,2.375-.15,4.766-.04,8.04-.04" transform="translate(-20.207 -25.202)" fill="#aab2d3"/>
        <path id="Trazado_192412" data-name="Trazado 192412" d="M304.18,83.263c-.111,2.406-1.818,2.757-3.586,2.8-3.146.083-6.3.163-9.441-.018a6.558,6.558,0,0,0-5.6,2.243c-2.868,3.013-6,5.77-9.009,8.654-1.223,1.174-2.516,1.5-3.8.234s-1.031-2.6.194-3.783c4.036-3.9,8.092-7.775,12.125-11.676a3.092,3.092,0,0,1,2.351-.747c4.594.008,9.189.019,13.784,0,1.669-.008,2.825.542,2.978,2.293" transform="translate(-85.944 -25.594)" fill="#aab2d3"/>
        <path id="Trazado_192413" data-name="Trazado 192413" d="M73.206,185.928c-2.212,0-4.427.076-6.634-.025-1.713-.077-3.359-.619-3.29-2.735.072-2.189,1.744-2.39,3.5-2.357,2.211.04,4.472-.285,6.625.07,4.468.739,7.6-1.254,10.455-4.287,2.1-2.228,4.327-4.334,6.53-6.461,1.2-1.154,2.595-2.4,4.158-.821,1.5,1.513.829,3.072-.583,4.415q-5.728,5.447-11.411,10.942a4.36,4.36,0,0,1-3.221,1.275c-2.041-.023-4.084-.006-6.125-.006v-.01" transform="translate(-20.002 -53.281)" fill="#aab2d3"/>
        <path id="Trazado_192414" data-name="Trazado 192414" d="M80.938,138.548c-4.263,0-8.527-.053-12.789.024-1.906.035-3.4-.622-3.42-2.555s1.442-2.62,3.361-2.608q12.79.078,25.579,0c1.939-.011,3.34.745,3.292,2.675-.044,1.762-1.4,2.513-3.234,2.484-4.262-.069-8.526-.022-12.789-.022" transform="translate(-20.46 -42.169)" fill="#aab2d3"/>
        <path id="Trazado_192415" data-name="Trazado 192415" d="M285.392,138.58l-4.11-4.748c.725-.656,1.616-.393,2.437-.4,6.369-.021,12.738.03,19.107-.036,2-.021,3.861.352,3.818,2.636s-1.96,2.55-3.928,2.531c-5.774-.057-11.549,0-17.323.013" transform="translate(-88.91 -42.162)" fill="#aab2d3"/>
        <path id="Trazado_192416" data-name="Trazado 192416" d="M287.978,186.574c1.012-1.541.979-3.766,3.028-4.627a5.915,5.915,0,0,0,6.116,3.157c3.221-.239,6.473-.041,9.712-.058,1.538-.008,2.756.454,2.907,2.169a2.346,2.346,0,0,1-2.343,2.764,107.653,107.653,0,0,1-14.8.042c-2.056-.118-3.059-2.3-4.618-3.446" transform="translate(-91.026 -57.511)" fill="#aab2d3"/>
        <path id="Trazado_192417" data-name="Trazado 192417" d="M213.019,177.9h-4.781c-22.767,0-45.535-.033-68.3.052-2.227.008-2.87-.505-2.85-2.8.117-13.557.07-27.116.04-40.674,0-1.441.057-2.347,1.982-2.342q36.07.1,72.139.05c.233,0,.466.081,1.681.307-1.349,1.085-2.288,1.737-3.106,2.516a20.631,20.631,0,0,0-5.592,9.31,1.827,1.827,0,0,1-2.108,1.6c-4.6-.067-9.21-.088-13.813.012-1.323.029-1.678-.586-2.085-1.628-1.861-4.772-6.38-7.606-10.982-6.989a10.5,10.5,0,0,0-9.387,9.342,9.394,9.394,0,0,0,2.515,8.018,2.6,2.6,0,0,1,.474,3.515c-1.082,2.212-2.018,4.5-2.891,6.81-1.418,3.746.624,7.034,4.623,7.221,3.744.176,7.508.17,11.252,0,4.028-.179,5.95-3.229,4.73-7.144-.122-.391-.241-.782-.412-1.338,5.528,0,10.893.01,16.259-.011.776,0,1.3.191,1.526,1,1.469,5.157,4.517,9.276,9.088,13.174" transform="translate(-43.331 -41.764)" fill="#ccc198"/>
        <path id="Trazado_192418" data-name="Trazado 192418" d="M240.267,155.15c.275-5.674,1.745-11.109,5.573-15.677,5.967-7.117,15-7.042,20.88.159a16.069,16.069,0,0,1,2.352,3.63,13.072,13.072,0,0,0,5.218,6.01,7.341,7.341,0,0,1-.312,12.443,11.774,11.774,0,0,0-4.631,5.209c-2.643,5.449-6.641,9.51-13.059,9.588-6.579.079-10.547-4.121-13.315-9.6a27.291,27.291,0,0,1-2.707-11.765" transform="translate(-75.945 -42.414)" fill="#fc502d"/>
        <path id="Trazado_192419" data-name="Trazado 192419" d="M186.428,96.552c-4.774,0-9.549-.071-14.321.038-1.717.04-2.443-.335-2.31-2.211.259-3.647-.359-7.341.357-10.966,1.763-8.92,9.2-14.411,18.431-13.686,8.018.631,14.53,7.644,14.915,16.175.131,2.892-.05,5.8.078,8.693.072,1.627-.551,2.009-2.06,1.986-5.029-.076-10.06-.029-15.089-.029" transform="translate(-53.666 -22.019)" fill="#dadeec"/>
        <path id="Trazado_192420" data-name="Trazado 192420" d="M153.53,84.1c-.289-10.367,3-19.185,11.615-25.368,8.714-6.258,18.275-7.29,28.03-2.814,9.65,4.428,15.088,12.21,16.125,22.828.347,3.551.131,7.153.278,10.728.059,1.444-.407,1.89-1.869,1.912-4.192.066-4.175.135-4.2-4.093-.021-4.081.238-8.173-.92-12.183-3.032-10.5-12.993-16.964-24.185-15.631C168.094,60.71,159.866,69.869,159.6,80.477c-.077,3.067-.09,6.139,0,9.205.041,1.368-.424,1.68-1.732,1.7-4.383.081-4.38.139-4.341-4.215.009-1.023,0-2.046,0-3.069" transform="translate(-48.523 -16.808)" fill="#c6d6e4"/>
        <path id="Trazado_192421" data-name="Trazado 192421" d="M176.884,206.224q18.274,0,36.548.016c.638,0,1.487-.367,1.891.286.475.767-.23,1.463-.62,2.063a6.956,6.956,0,0,1-6.258,3.273c-4.6-.025-9.2,0-13.8,0-16.357,0-32.714-.023-49.071.023-2.922.008-5.4-.691-7.012-3.29-.385-.62-1.055-1.334-.618-2.076.382-.648,1.246-.273,1.883-.274q18.529-.032,37.059-.016" transform="translate(-43.556 -65.156)" fill="#fff2bf"/>
        <path id="Trazado_192422" data-name="Trazado 192422" d="M215.3,121.8c-2.272.246-75.178.243-77.554-.018A6.328,6.328,0,0,1,142.6,116.8a12.917,12.917,0,0,1,3.292-.33c20.468-.018,40.937.036,61.405-.059,3.669-.017,7.684,1.712,8.006,5.4" transform="translate(-43.54 -36.795)" fill="#fff2bf"/>
        <path id="Trazado_192423" data-name="Trazado 192423" d="M190.734,167.217c.986-3.041.549-5.454-2.1-7.128.611-.823,1.343-.463,1.942-.465,8.757-.029,17.515.026,26.271-.06,1.693-.016,2.331.447,1.965,2.111a2.419,2.419,0,0,0-.016.509c-.01,1.6.622,3.833-.181,4.633-1.142,1.139-3.381.371-5.144.381-7.477.044-14.955.018-22.741.018" transform="translate(-59.626 -50.431)" fill="#fc502d"/>
        <path id="Trazado_192424" data-name="Trazado 192424" d="M197.459,181.721H186.606c.348-2.373,1.225-3.888,3.917-3.461a10.121,10.121,0,0,0,3.041,0c2.611-.393,3.66.917,3.895,3.46" transform="translate(-58.984 -56.323)" fill="#dadeec"/>
        <path id="Trazado_192425" data-name="Trazado 192425" d="M187.619,150.493c1.733-3.813,6.189-4.547,8.674-1.543.3.367.8.724.546,1.31-.216.5-.726.336-1.114.34-2.292.021-4.584.016-6.876.007-.395,0-.788-.071-1.23-.114" transform="translate(-59.304 -46.495)" fill="#dadeec"/>
        <path id="Trazado_192426" data-name="Trazado 192426" d="M268.833,153a8.406,8.406,0,1,1-8.329,8.575A8.533,8.533,0,0,1,268.833,153" transform="translate(-82.342 -48.361)"/>
        <path id="Trazado_192427" data-name="Trazado 192427" d="M252.11,162.913c0,.763.013,1.527,0,2.29a2.371,2.371,0,0,1-2.476,2.631,2.442,2.442,0,0,1-2.6-2.556,37.376,37.376,0,0,1-.016-4.324c.071-1.667.915-2.808,2.665-2.751s2.476,1.239,2.44,2.929c-.013.594,0,1.188,0,1.782Z" transform="translate(-78.062 -50.005)" fill="#020202"/>
        <path id="Trazado_192428" data-name="Trazado 192428" d="M271.561,160.395a3.135,3.135,0,0,1,2.987,3.2,3.259,3.259,0,1,1-6.516-.013,3.328,3.328,0,0,1,3.53-3.185" transform="translate(-84.721 -50.699)" fill="#dadeec"/>
      </g>
    </g>
  </g>
</svg>
