<svg xmlns="http://www.w3.org/2000/svg" xmlns:xlink="http://www.w3.org/1999/xlink" width="60.036" height="64.371" viewBox="0 0 60.036 64.371">
  <defs>
    <clipPath id="clip-path">
      <rect id="Rectángulo_85167" data-name="Rectángulo 85167" width="60.036" height="64.371" fill="#0d2380"/>
    </clipPath>
  </defs>
  <g id="Grupo_137525" data-name="Grupo 137525" transform="translate(6734.097 4415)">
    <g id="Grupo_134920" data-name="Grupo 134920" transform="translate(-6734.097 -4415)">
      <g id="Grupo_134921" data-name="Grupo 134921" clip-path="url(#clip-path)">
        <path id="Trazado_192508" data-name="Trazado 192508" d="M52.324,41.137q0,19.8,0,39.59c0,1.156-.293,1.45-1.443,1.45H3.435c-1.08,0-1.4-.31-1.4-1.368q0-24.163,0-48.326v-.567H38.762a7.287,7.287,0,0,1-.107-1.228c-.045-.28-.085-.563-.117-.849H2.041c0-1.027-.019-2.01.007-2.991a.976.976,0,0,1,1.009-.988c.188-.013.377,0,.565,0h35a9.025,9.025,0,0,1,.589-2.009q-17.814.006-35.627-.029A3.339,3.339,0,0,0,0,27.37q.068,26.648.026,53.3c0,2.361,1.152,3.523,3.493,3.523H50.844c2.318,0,3.491-1.164,3.491-3.463q0-13.356,0-26.711V40.628a6.531,6.531,0,0,1-2.012.509" transform="translate(0 -19.818)" fill="#0d2380"/>
        <path id="Trazado_192509" data-name="Trazado 192509" d="M130.024,91.924a8.044,8.044,0,1,1-8.075-8.059,8.054,8.054,0,0,1,8.075,8.059m-3.087,3.264a5.855,5.855,0,0,0-.88-7.726,6.042,6.042,0,0,0-8.44.281c-2.346,2.443-1.9,6.019-.593,7.416a5.268,5.268,0,0,1,1.9-3.086.594.594,0,0,0,.129-.431c-.016-.625-.1-1.251-.081-1.875a3.007,3.007,0,0,1,6-.1c.037.642-.06,1.292-.064,1.938a.741.741,0,0,0,.185.523,5.269,5.269,0,0,1,1.837,3.063m-7.97,1.2c.059.3-.167.707.365.949a6.025,6.025,0,0,0,5.333-.033c.132-.063.3-.21.315-.33a3.358,3.358,0,0,0-1.064-3.184.849.849,0,0,0-.7-.119,3.383,3.383,0,0,1-2.451.009.908.908,0,0,0-.75.14,2.96,2.96,0,0,0-1.047,2.569m4.02-6c0-1.014-.333-1.5-1.02-1.489s-.991.482-.991,1.517c0,1.015.333,1.5,1.019,1.49s.993-.486.993-1.518" transform="translate(-94.8 -69.78)" fill="#0d2380"/>
        <path id="Trazado_192510" data-name="Trazado 192510" d="M182.067,301.078l1.572,1.534c-.487.433-.986.82-1.409,1.277a1.423,1.423,0,0,0-.362.856c-.035,1.591-.014,3.184-.017,4.776,0,1-.331,1.336-1.3,1.337q-2.734.005-5.467,0c-.932,0-1.273-.351-1.274-1.3q-.005-2.734,0-5.467c0-.936.347-1.273,1.3-1.275,1.571,0,3.142-.016,4.713.009a1.2,1.2,0,0,0,1.039-.43c.378-.446.789-.862,1.209-1.317m-6.2,3.763v3.976h3.929V306.4l-.165-.116-.962,1.249-1.708-1.62,1.393-.95-.124-.12Z" transform="translate(-144.614 -250.512)" fill="#0d2380"/>
        <path id="Trazado_192511" data-name="Trazado 192511" d="M39.794,302.3a2.169,2.169,0,0,1-.315.335,3.282,3.282,0,0,0-1.378,3.354c.105,1.121.026,2.26.02,3.391-.005.867-.36,1.233-1.213,1.236q-2.828.01-5.656,0a1.021,1.021,0,0,1-1.172-1.148q-.015-2.859,0-5.719c0-.813.376-1.171,1.208-1.174,1.592-.007,3.184-.019,4.776.008a1.232,1.232,0,0,0,1.09-.457c.367-.453.768-.88,1.173-1.339l1.468,1.512m-3.742,6.279v-2.421l-.2-.137-.99,1.3-1.555-1.552,1.43-1.138H32.12v3.947Z" transform="translate(-25.022 -250.268)" fill="#0d2380"/>
        <path id="Trazado_192512" data-name="Trazado 192512" d="M182.065,240.953l1.533,1.622a16.477,16.477,0,0,0-1.346,1.206,1.522,1.522,0,0,0-.385.909c-.038,1.591-.015,3.184-.019,4.776,0,.953-.342,1.305-1.269,1.307q-2.765.007-5.53,0c-.9,0-1.242-.358-1.245-1.267q-.007-2.765,0-5.53c0-.9.355-1.243,1.265-1.246,1.592,0,3.184-.013,4.776.007a1.133,1.133,0,0,0,.985-.4c.386-.465.8-.9,1.234-1.38m-2.269,7.785v-2.417l-.149-.107-.963,1.254-1.527-1.44,1.189-1.254h-2.491v3.964Z" transform="translate(-144.611 -200.485)" fill="#0d2380"/>
        <path id="Trazado_192513" data-name="Trazado 192513" d="M39.817,242.848a17.44,17.44,0,0,0-1.308,1.188,1.424,1.424,0,0,0-.361.857c-.034,1.591-.014,3.184-.017,4.776,0,.994-.332,1.333-1.3,1.335q-2.7.005-5.4,0c-1,0-1.333-.33-1.335-1.3q-.005-2.734,0-5.467c0-.933.349-1.271,1.3-1.273,1.571,0,3.142-.017,4.713.009a1.213,1.213,0,0,0,1.039-.431c.381-.442.8-.852,1.234-1.31l1.443,1.619m-7.667,2.14v3.958H36.08v-2.478l-1.216,1.151-1.587-1.5,1.444-1.13Z" transform="translate(-25.031 -200.715)" fill="#0d2380"/>
        <rect id="Rectángulo_85147" data-name="Rectángulo 85147" width="8.972" height="1.936" transform="translate(25.198 32.22)" fill="#0d2380"/>
        <rect id="Rectángulo_85148" data-name="Rectángulo 85148" width="5.945" height="1.957" transform="translate(43.323 57.374)" fill="#0d2380"/>
        <rect id="Rectángulo_85149" data-name="Rectángulo 85149" width="5.955" height="1.933" transform="translate(20.168 36.244)" fill="#0d2380"/>
        <rect id="Rectángulo_85150" data-name="Rectángulo 85150" width="5.957" height="1.935" transform="translate(28.22 36.259)" fill="#0d2380"/>
        <rect id="Rectángulo_85151" data-name="Rectángulo 85151" width="5.955" height="1.933" transform="translate(19.186 47.318)" fill="#0d2380"/>
        <rect id="Rectángulo_85152" data-name="Rectángulo 85152" width="5.945" height="1.957" transform="translate(43.323 47.317)" fill="#0d2380"/>
        <rect id="Rectángulo_85153" data-name="Rectángulo 85153" width="5.933" height="1.957" transform="translate(19.187 57.343)" fill="#0d2380"/>
        <rect id="Rectángulo_85154" data-name="Rectángulo 85154" width="3.942" height="1.934" transform="translate(19.181 43.277)" fill="#0d2380"/>
        <rect id="Rectángulo_85155" data-name="Rectángulo 85155" width="3.947" height="1.948" transform="translate(43.316 43.288)" fill="#0d2380"/>
        <rect id="Rectángulo_85156" data-name="Rectángulo 85156" width="3.966" height="1.923" transform="translate(19.158 53.347)" fill="#0d2380"/>
        <rect id="Rectángulo_85157" data-name="Rectángulo 85157" width="3.944" height="1.935" transform="translate(43.322 53.351)" fill="#0d2380"/>
        <rect id="Rectángulo_85158" data-name="Rectángulo 85158" width="2.961" height="1.927" transform="translate(20.165 32.224)" fill="#0d2380"/>
        <rect id="Rectángulo_85159" data-name="Rectángulo 85159" width="1.911" height="1.956" transform="translate(15.164 43.264)" fill="#0d2380"/>
        <rect id="Rectángulo_85160" data-name="Rectángulo 85160" width="1.948" height="1.937" transform="translate(15.149 47.305)" fill="#0d2380"/>
        <rect id="Rectángulo_85161" data-name="Rectángulo 85161" width="1.941" height="1.93" transform="translate(39.279 47.32)" fill="#0d2380"/>
        <rect id="Rectángulo_85162" data-name="Rectángulo 85162" width="1.956" height="1.929" transform="translate(15.137 53.344)" fill="#0d2380"/>
        <rect id="Rectángulo_85163" data-name="Rectángulo 85163" width="1.956" height="1.929" transform="translate(39.28 53.355)" fill="#0d2380"/>
        <rect id="Rectángulo_85164" data-name="Rectángulo 85164" width="1.933" height="1.944" transform="translate(15.145 57.359)" fill="#0d2380"/>
        <rect id="Rectángulo_85165" data-name="Rectángulo 85165" width="1.93" height="1.941" transform="translate(39.285 57.361)" fill="#0d2380"/>
        <rect id="Rectángulo_85166" data-name="Rectángulo 85166" width="1.938" height="1.934" transform="translate(39.281 43.298)" fill="#0d2380"/>
        <path id="Trazado_192514" data-name="Trazado 192514" d="M61.056,43.971a1,1,0,1,1,1.011-.991,1.01,1.01,0,0,1-1.011.991" transform="translate(-49.978 -34.921)" fill="#0d2380"/>
        <path id="Trazado_192515" data-name="Trazado 192515" d="M44.1,42.984a1,1,0,1,1-.986-1.015,1.013,1.013,0,0,1,.986,1.015" transform="translate(-35.03 -34.921)" fill="#0d2380"/>
        <path id="Trazado_192516" data-name="Trazado 192516" d="M26.136,42.944a1,1,0,1,1-1.025-.976,1.014,1.014,0,0,1,1.025.976" transform="translate(-20.082 -34.92)" fill="#0d2380"/>
        <path id="Trazado_192517" data-name="Trazado 192517" d="M243.9,20.657c-.715-.148-1.442-.252-2.142-.451A10.321,10.321,0,1,1,254.939,8.616c.045.293.1.584.147.877V11.2a2.131,2.131,0,0,0-.065.245,10.157,10.157,0,0,1-7.094,8.688,18.833,18.833,0,0,1-2.312.52Zm9.6-10.521a8.753,8.753,0,1,0-8.552,8.933,8.758,8.758,0,0,0,8.552-8.933" transform="translate(-195.05 0)" fill="#0d2380"/>
        <path id="Trazado_192518" data-name="Trazado 192518" d="M266.653,43.933,270.8,39.2c.294-.336.582-.678.886-1a.78.78,0,0,1,1.128-.106.79.79,0,0,1,.052,1.16q-2.739,3.139-5.494,6.266a.788.788,0,0,1-1.264.021q-1.535-1.517-3.055-3.049a.8.8,0,1,1,1.115-1.125c.744.73,1.478,1.468,2.213,2.208a3.641,3.641,0,0,1,.274.36" transform="translate(-218.63 -31.534)" fill="#0d2380"/>
      </g>
    </g>
  </g>
</svg>
