<svg xmlns="http://www.w3.org/2000/svg" xmlns:xlink="http://www.w3.org/1999/xlink" width="47.943" height="47.937" viewBox="0 0 47.943 47.937">
  <defs>
    <clipPath id="clip-path">
      <rect id="Rectángulo_85172" data-name="Rectángulo 85172" width="47.943" height="47.936" fill="#0d2380"/>
    </clipPath>
  </defs>
  <g id="Grupo_137520" data-name="Grupo 137520" transform="translate(-151.057 -7682.063)">
    <g id="Grupo_134928" data-name="Grupo 134928" transform="translate(151.057 7682.063)">
      <g id="Grupo_134929" data-name="Grupo 134929" clip-path="url(#clip-path)">
        <path id="Trazado_192568" data-name="Trazado 192568" d="M0,9.744a4.741,4.741,0,0,1,1.291-1.79Q4.829,4.443,8.34.9A2.876,2.876,0,0,1,10.508,0Q20.69.021,30.871.009a2.414,2.414,0,0,1,2.655,2.674q0,5.756-.007,11.513a.684.684,0,0,0,.454.732,14.031,14.031,0,0,1,8.262,11.743,13.826,13.826,0,0,1-2.376,9.275c-.059.09-.115.182-.213.338.542.531,1.079,1.067,1.633,1.587a.5.5,0,0,0,.339.065,1.609,1.609,0,0,1,1.317.482c1.37,1.365,2.758,2.714,4.1,4.109a3.183,3.183,0,0,1-1.378,5.279c-.115.036-.224.087-.337.132H44.194a7.635,7.635,0,0,1-1.642-.911c-1.414-1.317-2.754-2.713-4.12-4.081a1.627,1.627,0,0,1-.493-1.358.472.472,0,0,0-.086-.332c-.513-.54-1.042-1.066-1.573-1.6l-.393.243a14.243,14.243,0,0,1-15.444.315,2.237,2.237,0,0,0-1.04-.287C13.852,39.9,8.3,39.913,2.75,39.9a3.989,3.989,0,0,1-1.194-.154A2.539,2.539,0,0,1,0,38.014Zm31.931,4.37V13.6q0-5.428,0-10.856c0-.9-.233-1.139-1.129-1.139H10.384v.572q0,2.784,0,5.568a2.436,2.436,0,0,1-2.651,2.648q-2.808.005-5.616,0H1.594v.388q0,13.266,0,26.531c0,.735.273,1,1.028,1q7.442,0,14.883,0c.127,0,.254-.021.423-.036a14.4,14.4,0,0,1,14-24.162m-4,26.627A12.784,12.784,0,1,0,15.168,27.9,12.825,12.825,0,0,0,27.93,40.741m11.7,1.049c1.34,1.365,2.68,2.778,4.077,4.132a1.581,1.581,0,0,0,2.165-2.3c-.562-.605-1.163-1.175-1.747-1.761L41.84,39.577,39.63,41.79M8.784,2.97,2.964,8.79C4.581,8.79,6.29,8.8,8,8.783a.749.749,0,0,0,.778-.777c.018-1.708.007-3.417.007-5.036M38.9,39.962l1.118-.98-1.362-1.415-1.032,1.079L38.9,39.962" transform="translate(0 -0.001)" fill="#0d2380"/>
        <path id="Trazado_192569" data-name="Trazado 192569" d="M110.573,52.644h-7.156a3.3,3.3,0,0,1-.513-.016.726.726,0,0,1-.656-.685.712.712,0,0,1,.485-.812,1.785,1.785,0,0,1,.6-.079q7.273-.006,14.546,0c.109,0,.219-.005.327.006a.79.79,0,0,1,.778.824.764.764,0,0,1-.829.762c-1,.012-2,.005-2.993.005h-4.584" transform="translate(-89.455 -44.662)" fill="#0d2380"/>
        <path id="Trazado_192570" data-name="Trazado 192570" d="M110.594,83.074h7.25a2.657,2.657,0,0,1,.42.01.728.728,0,0,1,.667.674.718.718,0,0,1-.509.84,1.928,1.928,0,0,1-.6.064q-7.25,0-14.5,0a2.379,2.379,0,0,1-.511-.03.788.788,0,0,1,.109-1.554c.139-.014.28-.006.421-.006h7.25" transform="translate(-89.418 -72.683)" fill="#0d2380"/>
        <path id="Trazado_192571" data-name="Trazado 192571" d="M38.4,116.521q-2.6,0-5.194,0a2.337,2.337,0,0,1-.557-.043.781.781,0,0,1,.012-1.518,2.283,2.283,0,0,1,.511-.039q5.265,0,10.529,0a2.207,2.207,0,0,1,.511.042.78.78,0,0,1-.013,1.517,2.548,2.548,0,0,1-.557.041q-2.621,0-5.241,0" transform="translate(-28.047 -100.546)" fill="#0d2380"/>
        <path id="Trazado_192572" data-name="Trazado 192572" d="M36.781,148.422c-1.263,0-2.525,0-3.787,0-.618,0-.949-.274-.958-.774-.009-.517.338-.815.972-.815q3.811,0,7.622,0c.588,0,.959.308.97.782.011.5-.363.806-.984.807q-1.917,0-3.834,0" transform="translate(-28.029 -128.468)" fill="#0d2380"/>
        <path id="Trazado_192573" data-name="Trazado 192573" d="M36.039,178.824c1,0,1.993,0,2.99,0,.6,0,.959.295.969.774s-.371.818-.984.82q-3.013.007-6.027,0c-.6,0-.949-.3-.958-.788-.009-.514.335-.8.973-.806,1.012,0,2.024,0,3.037,0" transform="translate(-28.024 -156.46)" fill="#0d2380"/>
        <path id="Trazado_192574" data-name="Trazado 192574" d="M35.995,274.526c1.012,0,2.024-.005,3.036,0,.6,0,.96.3.971.775s-.366.819-.982.82q-3.013.007-6.026,0c-.606,0-.95-.293-.96-.784-.01-.512.333-.807.971-.811,1-.007,1.993,0,2.99,0" transform="translate(-28.028 -240.194)" fill="#0d2380"/>
        <path id="Trazado_192575" data-name="Trazado 192575" d="M35.615,244.179c-.887,0-1.775,0-2.662,0-.593,0-.93-.31-.92-.815.01-.482.343-.775.913-.776q2.662-.007,5.323,0c.592,0,.931.311.92.816-.011.482-.342.772-.913.775-.887.006-1.775,0-2.662,0" transform="translate(-28.027 -212.247)" fill="#0d2380"/>
        <path id="Trazado_192576" data-name="Trazado 192576" d="M35.593,212.234c-.858,0-1.716,0-2.574,0-.644,0-.987-.289-.98-.8.007-.5.344-.785.957-.786q2.621-.008,5.242,0c.613,0,.951.29.957.787.006.513-.336.8-.981.8-.874,0-1.747,0-2.621,0" transform="translate(-28.033 -184.299)" fill="#0d2380"/>
        <path id="Trazado_192577" data-name="Trazado 192577" d="M134.042,145.249a11.181,11.181,0,1,1,11.149,11.184,11.191,11.191,0,0,1-11.149-11.184m1.595-.043a9.585,9.585,0,1,0,9.69-9.531,9.608,9.608,0,0,0-9.69,9.531" transform="translate(-117.28 -117.313)" fill="#0d2380"/>
        <path id="Trazado_192578" data-name="Trazado 192578" d="M182.043,159.611a2.469,2.469,0,0,1,.326,0,.809.809,0,0,1,.725.831.767.767,0,0,1-.757.743,6.57,6.57,0,0,0-4.583,1.9.757.757,0,0,1-1.127-.038.793.793,0,0,1,.06-1.131,7.879,7.879,0,0,1,5.355-2.312" transform="translate(-154.357 -139.647)" fill="#0d2380"/>
      </g>
    </g>
  </g>
</svg>
