<svg xmlns="http://www.w3.org/2000/svg" xmlns:xlink="http://www.w3.org/1999/xlink" width="66.313" height="66.355" viewBox="0 0 66.313 66.355">
  <defs>
    <clipPath id="clip-path">
      <rect id="Rectángulo_85170" data-name="Rectángulo 85170" width="66.313" height="66.356" fill="none"/>
    </clipPath>
  </defs>
  <g id="Grupo_137519" data-name="Grupo 137519" transform="translate(-370 -7510)">
    <g id="Grupo_134926" data-name="Grupo 134926" transform="translate(370 7510)">
      <g id="Grupo_134927" data-name="Grupo 134927" clip-path="url(#clip-path)">
        <path id="Trazado_192520" data-name="Trazado 192520" d="M76.827,53.4a1.07,1.07,0,0,1-1.21.908c-4.6-.01-9.191,0-13.786-.007a1.524,1.524,0,0,1-1.7-1.664,9.657,9.657,0,0,1,.085-2.194,3,3,0,0,1,2.852-2.377c.6-.02,1.209-.027,1.812,0,.381.017.553-.073.521-.495a8.411,8.411,0,0,1,0-1.423c.045-.483-.16-.555-.587-.553-4.7.014-9.407-.04-14.11.029a3.907,3.907,0,0,1-4.107-4.106q.086-18.523,0-37.046c-.007-2,.5-3.685,3.016-4.471H97.666A4.457,4.457,0,0,1,99.8,1.227a3.843,3.843,0,0,1,.929,2.621q-.037,19.048-.079,38.1A3.618,3.618,0,0,1,96.857,45.6q-7.155.016-14.309-.009c-.528,0-.737.112-.67.665.069.573-.232,1.325.114,1.685s1.108.146,1.677.106a3.168,3.168,0,0,1,3.489,3.535c-.024.344,0,.691,0,1.036A1.54,1.54,0,0,1,85.46,54.3c-1.619.008-3.237-.009-4.856.007a1.069,1.069,0,0,1-1.211-.908c-.14-.7.25-1.174,1.083-1.217,1.075-.054,2.153-.029,3.229-.011a2.261,2.261,0,0,0,.384,0c.377-.051.916.225.964-.5.055-.815-.281-1.367-.932-1.451a3.379,3.379,0,0,0-.708,0c-6.389.024-12.776,0-19.163.011-.281,0-.561-.009-.841.008a1.171,1.171,0,0,0-1.127,1.52.418.418,0,0,0,.386.366,5.355,5.355,0,0,0,.711.026q5.859,0,11.717,0a3.369,3.369,0,0,1,1.028.087.915.915,0,0,1,.7,1.159" transform="translate(-40.549 0.001)"/>
        <path id="Trazado_192521" data-name="Trazado 192521" d="M0,442.764a1.754,1.754,0,0,1,1.856-1.2c.321.029.381-.115.4-.411a2.151,2.151,0,0,1,2.484-2.314,5.508,5.508,0,0,1,2.734.277.3.3,0,0,0,.244.006,5.07,5.07,0,0,1,2.6-.285c2.978-.02,5.957-.008,8.935-.008a2.747,2.747,0,0,1,1.386.233.431.431,0,0,0,.366.044,6.5,6.5,0,0,1,4.106.012.356.356,0,0,0,.247,0,6.352,6.352,0,0,1,3.057-.274,2.046,2.046,0,0,1,2.155,2.161c.006.466.146.619.589.56a4.732,4.732,0,0,1,.582,0,3.25,3.25,0,0,0,1.215-.045c.4-.179.111-.7.21-1.059a2.1,2.1,0,0,1,1.836-1.588,7.123,7.123,0,0,1,3.317.238.465.465,0,0,0,.307,0,6.575,6.575,0,0,1,4.108.006.364.364,0,0,0,.246.014,6.133,6.133,0,0,1,2.991-.283,2.067,2.067,0,0,1,2.24,2.148c.016.439.114.583.576.584a1.591,1.591,0,0,1,1.706,1.757c.012.885-.042,1.774.014,2.656a2.092,2.092,0,0,1-1.168,2.215H13.34a.923.923,0,0,1-.684-.846c.044-.891.386-1.243,1.261-1.3.172-.011.345-.008.518-.008H45.951a4.182,4.182,0,0,1,.58.018c.429-.009.859-.005,1.289,0,.37,0,.528-.156.558-.538.137-1.762.146-1.762-1.827-1.8a5.925,5.925,0,0,1-.777.018H3.4c-1.248,0-1.248,0-1.243,1.244,0,.043,0,.086,0,.13.01.879.048.924.9.928,1.294.006,2.588,0,3.882,0,.733,0,1.467-.024,2.2.012.88.042,1.217.4,1.262,1.294a.93.93,0,0,1-.686.847H1.166A1.38,1.38,0,0,1,0,447.04Z" transform="translate(0 -381.851)"/>
        <path id="Trazado_192522" data-name="Trazado 192522" d="M399.338,445.322a2.076,2.076,0,0,1-1.176-2.2c.06-1.074,0-2.154.018-3.231a4.43,4.43,0,0,1,4.4-4.406c1.895-.022,3.79-.015,5.684,0a4.394,4.394,0,0,1,4.422,3.813c.015.087.02.169.121.2v.259c-.151,1.369-.026,2.743-.067,4.113-.059.976-.255,1.209-1.228,1.46Z" transform="translate(-346.495 -378.966)"/>
        <path id="Trazado_192523" data-name="Trazado 192523" d="M180.481,388.776c-.15-.814-.418-1.04-1.269-1.041-4.272,0-8.545-.016-12.817.016-.6,0-.706-.173-.69-.718.039-1.346.311-1.654,1.627-1.654q9.613,0,19.226,0c.215,0,.43.019.645.029a2.115,2.115,0,0,1,.257,2.3c-1.072.007-2.144.012-3.217.023-.777.008-1.046.246-1.2,1.04h-2.566" transform="translate(-144.203 -335.376)" fill="#bebebe"/>
        <path id="Trazado_192524" data-name="Trazado 192524" d="M109.475,111.445c-.237.007-.474.021-.711.021q-23.174,0-46.349.016c-.62,0-.769-.136-.767-.763.024-8.2.016-16.41.019-24.615a1.449,1.449,0,0,1,.057-.7,1.623,1.623,0,0,1,.7-.052q23.149,0,46.3,0c.9,0,.953.037.954.939q.009,12.149,0,24.3a1.132,1.132,0,0,1-.2.858" transform="translate(-53.649 -74.267)" fill="#99e6fc"/>
        <path id="Trazado_192525" data-name="Trazado 192525" d="M109.715,22.131c-.236.012-.472.033-.708.033q-23.138,0-46.276.018c-.669,0-.826-.177-.8-.822.051-1.488.006-2.979.02-4.468a1.729,1.729,0,0,1,1.879-1.906q22.556-.005,45.111,0c.086,0,.172.013.257.021a1.482,1.482,0,0,1,.7,1.367c.042,1.718.021,3.437.011,5.156a.933.933,0,0,1-.191.6" transform="translate(-53.889 -13.039)" fill="#bebebe"/>
        <path id="Trazado_192526" data-name="Trazado 192526" d="M63.094,306.438a1.553,1.553,0,0,1-1.276-1.535c-.022-.916.006-1.834.012-2.751a1.364,1.364,0,0,1,.7-.061q23.176-.005,46.352,0c.867,0,.927.049.939.891.011.734.035,1.469-.013,2.2-.065,1.016-.4,1.31-1.405,1.31q-22.27,0-44.54,0a1.925,1.925,0,0,1-.768-.05" transform="translate(-53.79 -262.882)" fill="#bebebe"/>
        <path id="Trazado_192527" data-name="Trazado 192527" d="M109.987,111.276q0-12.626.014-25.253c0-.623-.163-.788-.786-.787q-23.069.026-46.138.013c-.28,0-.56-.009-.841-.014.194-.147.417-.069.624-.069q24.373,0,48.746-.011c.606,0,.732.17.731.747q-.028,12.372,0,24.745c0,.544-.132.714-.67.661-.556-.055-1.12-.025-1.68-.033" transform="translate(-54.161 -74.098)" fill="#64dbfb"/>
        <path id="Trazado_192528" data-name="Trazado 192528" d="M206.438,353.808c-.008-.647-.005-1.3-.027-1.942-.011-.31.108-.41.413-.409q5.374.023,10.747.03a3.176,3.176,0,0,1,.141,2.078c-.048.4-.411.3-.678.3q-5.046,0-10.091,0a.871.871,0,0,1-.5-.061" transform="translate(-179.628 -305.856)" fill="#828282"/>
        <path id="Trazado_192529" data-name="Trazado 192529" d="M63.228,305.863c.28,0,.56-.012.841-.012H108.53c.832,0,1.189-.334,1.211-1.192s-.006-1.727.011-2.59c.007-.355-.107-.533-.48-.494a2.446,2.446,0,0,1-.259,0l-47.05,0c.139-.263.383-.126.571-.126q24.478-.008,48.956-.011c.48,0,.639.109.607.6-.045.71,0,1.425-.015,2.138a1.7,1.7,0,0,1-1.738,1.782c-.539.024-1.079.013-1.619.013q-22.309,0-44.618,0a1.459,1.459,0,0,1-.881-.109" transform="translate(-53.923 -262.308)" fill="#ababab"/>
        <path id="Trazado_192530" data-name="Trazado 192530" d="M426.762,22.019c0-1.682-.03-3.364.011-5.044a3.456,3.456,0,0,0-.532-2.081c1.956-.177,3.01.186,2.871,2.692-.072,1.309-.03,2.626,0,3.939.009.429-.125.562-.544.534-.6-.04-1.2-.029-1.8-.04" transform="translate(-370.937 -12.928)" fill="#ababab"/>
        <path id="Trazado_192531" data-name="Trazado 192531" d="M206.625,353.828c3.5,0,6.992-.008,10.487.012.5,0,.7-.124.659-.65-.044-.558-.012-1.122-.013-1.684,1.443-.079,1.443-.079,1.443,1.364,0,1.066,0,1.07-1.049,1.072q-5.435.011-10.87.012c-.219,0-.478.117-.657-.126" transform="translate(-179.816 -305.875)" fill="#595959"/>
        <path id="Trazado_192532" data-name="Trazado 192532" d="M331.655,387.863a5.426,5.426,0,0,0-.257-2.3c1.366-.1,2,.706,1.669,2.094-.048.2-.151.233-.313.231l-1.1-.021" transform="translate(-288.399 -335.526)" fill="#aaa"/>
        <path id="Trazado_192533" data-name="Trazado 192533" d="M25.711,479.13c-.128-.1-.179-.284-.393-.28q-.888.015-1.777,0c-.216,0-.262.187-.393.28.052-.964-.254-1.3-1.212-1.3-2.179,0-4.359-.015-6.538.01-.458.005-.6-.115-.563-.57a9.275,9.275,0,0,0,0-1.617c-.051-.52.161-.653.617-.578a.4.4,0,0,0,.065,0H58.948c.193,0,.387.019.58.029a3.839,3.839,0,0,1,0,2.7c-.258.007-.517.019-.775.019H26.988c-1.026,0-1.323.306-1.277,1.3" transform="translate(-12.901 -413.419)" fill="#bebebe"/>
        <path id="Trazado_192534" data-name="Trazado 192534" d="M71.895,454.908q-2.553,0-5.1,0c-.248,0-.53.076-.531-.35,0-.4.218-.444.538-.444q5.1.008,10.21,0c.3,0,.556,0,.566.419.011.473-.311.372-.573.373q-2.552.006-5.1,0" transform="translate(-57.662 -395.192)" fill="#97e2f7"/>
        <path id="Trazado_192535" data-name="Trazado 192535" d="M359.336,477.795q0-1.352,0-2.7c1.934-.137,1.934-.137,1.934,1.74,0,.984,0,.986-.971.983-.322,0-.644-.012-.966-.019" transform="translate(-312.712 -413.403)" fill="#ababab"/>
        <path id="Trazado_192536" data-name="Trazado 192536" d="M33.447,454.895h-.709c-.235,0-.486.048-.487-.329,0-.319.106-.479.447-.47.537.013,1.074.009,1.611,0,.331,0,.368.187.376.46.009.313-.153.35-.4.34-.279-.012-.559,0-.838,0" transform="translate(-28.066 -395.177)" fill="#93ddf2"/>
        <path id="Trazado_192537" data-name="Trazado 192537" d="M169.491,454.9c-.256,0-.513-.011-.769,0-.279.015-.442-.046-.434-.38.008-.3.115-.426.416-.42.512.011,1.025.012,1.537,0,.314-.008.464.085.462.436s-.18.375-.445.364-.512,0-.769,0" transform="translate(-146.453 -395.182)" fill="#95dff4"/>
        <path id="Trazado_192538" data-name="Trazado 192538" d="M203.466,454.9c-.259,0-.518-.011-.777,0s-.4-.061-.4-.357.074-.45.4-.443q.809.018,1.618,0c.324-.007.392.158.394.445s-.134.368-.4.355c-.28-.014-.561,0-.841,0" transform="translate(-176.045 -395.187)" fill="#95dff4"/>
        <path id="Trazado_192539" data-name="Trazado 192539" d="M271.5,454.9c-.281,0-.562-.011-.841,0-.263.013-.4-.059-.394-.355s.071-.451.394-.444q.809.017,1.618,0c.323-.007.394.157.4.444s-.136.369-.4.355-.518,0-.777,0" transform="translate(-235.195 -395.188)" fill="#95dff4"/>
        <path id="Trazado_192540" data-name="Trazado 192540" d="M305.4,454.91c-.259,0-.519-.013-.777,0-.276.018-.388-.084-.379-.368.008-.244.039-.429.34-.427.561,0,1.123.007,1.684,0,.332-.006.381.181.385.456.005.31-.163.352-.411.342-.28-.011-.561,0-.842,0" transform="translate(-264.768 -395.193)" fill="#95dff4"/>
        <path id="Trazado_192541" data-name="Trazado 192541" d="M339.385,454.908c-.256,0-.514-.013-.769,0-.287.019-.429-.056-.423-.384.006-.307.122-.42.417-.415q.8.014,1.6,0c.317-.006.395.158.4.44s-.13.37-.392.358c-.277-.013-.555,0-.833,0" transform="translate(-294.313 -395.191)" fill="#95dff4"/>
        <path id="Trazado_192542" data-name="Trazado 192542" d="M422.03,456.823c-2.8.006-5.6.009-8.4.025-.3,0-.414-.062-.408-.387.021-1.077-.018-2.157.02-3.233a2.372,2.372,0,0,1,1.9-2.232c1.953-.11,3.907-.018,5.86-.047a.764.764,0,0,1,.636.379,2.713,2.713,0,0,1,.587,1.545c.035,1.118.02,2.237.007,3.355a.786.786,0,0,1-.2.6" transform="translate(-359.605 -392.43)" fill="#e6e6e6"/>
        <path id="Trazado_192543" data-name="Trazado 192543" d="M434.888,456.4c0-1.252,0-2.5.009-3.757a2.575,2.575,0,0,0-.228-1.064,1.4,1.4,0,0,0-1.5-1.017c-1.723.072-3.451.015-5.177.011a.875.875,0,0,1,.618-.115c1.85,0,3.7-.009,5.551.008a2.457,2.457,0,0,1,2.6,2.464c.046,1.031,0,2.067.021,3.1.006.32-.112.41-.413.4-.493-.025-.989-.018-1.483-.024" transform="translate(-372.464 -392.004)" fill="#cdcdcd"/>
        <path id="Trazado_192544" data-name="Trazado 192544" d="M99.523,168.8q3.076,0,6.151,0a1.645,1.645,0,0,1,1.883,1.851q.007,4.7,0,9.4a1.633,1.633,0,0,1-1.8,1.816q-6.248.014-12.5,0a1.626,1.626,0,0,1-1.817-1.8q-.019-4.73,0-9.46a1.629,1.629,0,0,1,1.861-1.807q3.108-.006,6.216,0" transform="translate(-79.573 -146.898)"/>
        <path id="Trazado_192545" data-name="Trazado 192545" d="M176.2,110.56c-1.725,0-3.45,0-5.174,0a2.527,2.527,0,0,1-.7-.072.869.869,0,0,1-.662-.981.878.878,0,0,1,.808-.864,4.846,4.846,0,0,1,.71-.023h10.089c.151,0,.3,0,.453,0,.672.027,1.071.376,1.082.944s-.415.979-1.109,1c-.6.015-1.207,0-1.811,0H176.2" transform="translate(-147.648 -94.521)" fill="#000101"/>
        <path id="Trazado_192546" data-name="Trazado 192546" d="M300.576,248.651c-1.317,0-2.633,0-3.95,0-.714,0-1.139-.36-1.156-.942-.018-.609.422-1,1.165-1q3.95-.007,7.9,0c.76,0,1.187.361,1.184.974s-.43.964-1.192.967c-1.317.005-2.633,0-3.95,0" transform="translate(-257.132 -214.696)"/>
        <path id="Trazado_192547" data-name="Trazado 192547" d="M145.16,139.014c-1.3,0-2.59.007-3.885,0-.75,0-1.2-.388-1.183-.984.013-.566.461-.953,1.16-.955q3.885-.011,7.771,0c.721,0,1.129.369,1.136.963s-.395.967-1.114.974c-1.3.012-2.59,0-3.885,0" transform="translate(-121.915 -119.283)" fill="#000101"/>
        <path id="Trazado_192548" data-name="Trazado 192548" d="M244.759,211.663c1.142,0,2.284-.006,3.427,0,.688.005,1.129.4,1.118.978a.987.987,0,0,1-1.083.959q-3.491.017-6.982,0a.961.961,0,0,1-1.043-.988.95.95,0,0,1,1.072-.947c1.164-.011,2.328,0,3.491,0" transform="translate(-209.03 -184.198)"/>
        <path id="Trazado_192549" data-name="Trazado 192549" d="M97.789,110.55c-.993,0-1.985.007-2.978,0-.76-.008-1.177-.373-1.168-.994s.392-.941,1.138-.944q3.01-.013,6.021,0c.714,0,1.141.371,1.149.947.009.6-.436.984-1.184.992-.993.01-1.985,0-2.978,0" transform="translate(-81.493 -94.511)" fill="#000101"/>
        <path id="Trazado_192550" data-name="Trazado 192550" d="M363.472,176.6c.9,0,1.807-.008,2.711,0a.99.99,0,0,1,1.109.918,1,1,0,0,1-1.092,1.017q-2.776.023-5.551,0a1,1,0,0,1-1.079-.967c-.007-.571.434-.961,1.126-.968.925-.01,1.851,0,2.776,0" transform="translate(-312.916 -153.684)" fill="#000101"/>
        <path id="Trazado_192551" data-name="Trazado 192551" d="M298.7,176.6c.712,0,1.425-.011,2.137,0a.942.942,0,0,1,1.042.912.958.958,0,0,1-1.017,1.018q-2.169.035-4.338,0a.972.972,0,1,1,.039-1.934c.712-.012,1.425,0,2.137,0" transform="translate(-257.136 -153.68)" fill="#000101"/>
        <path id="Trazado_192552" data-name="Trazado 192552" d="M379.892,211.657c.56,0,1.119-.013,1.678,0a.966.966,0,1,1,.027,1.929q-1.742.037-3.486,0a.965.965,0,1,1,.037-1.929c.581-.016,1.162,0,1.743,0" transform="translate(-328.21 -184.19)" fill="#000001"/>
        <path id="Trazado_192553" data-name="Trazado 192553" d="M267.915,138.961c-.517,0-1.034.02-1.55-.005a.958.958,0,0,1-.037-1.914c1.054-.038,2.11-.036,3.164,0a.963.963,0,1,1-.027,1.926c-.043,0-.086,0-.129,0h-1.421v-.006" transform="translate(-230.983 -119.236)" fill="#010101"/>
        <path id="Trazado_192554" data-name="Trazado 192554" d="M242.558,248.6c-.452,0-.9.014-1.356,0a.956.956,0,0,1-1.01-.949.94.94,0,0,1,.972-.983c.925-.022,1.852-.023,2.776,0a.952.952,0,0,1,.955.942.97.97,0,0,1-.981.985c-.451.023-.9,0-1.356.005" transform="translate(-209.027 -214.645)"/>
        <path id="Trazado_192555" data-name="Trazado 192555" d="M242.5,178.513c-.43,0-.862.021-1.291,0a.965.965,0,0,1-1.006-1.023.929.929,0,0,1,1.036-.91c.882-.014,1.764-.016,2.646,0a.96.96,0,0,1,1.018.939.975.975,0,0,1-.984.989c-.471.03-.946.006-1.42.007" transform="translate(-209.037 -153.656)" fill="#010101"/>
        <path id="Trazado_192556" data-name="Trazado 192556" d="M95.986,138.973c-.474,0-.949.023-1.421-.006a.871.871,0,0,1-.893-.911.851.851,0,0,1,.818-.981,26.358,26.358,0,0,1,2.969,0,.891.891,0,0,1,.846.973.929.929,0,0,1-.962.928c-.451.023-.9,0-1.357,0v0" transform="translate(-81.516 -119.251)" fill="#010101"/>
        <path id="Trazado_192557" data-name="Trazado 192557" d="M392.355,248.547c-.3,0-.6.022-.9,0a.953.953,0,0,1-.907-.986.917.917,0,0,1,.89-.933,14.3,14.3,0,0,1,1.931,0,.889.889,0,0,1,.869.945.905.905,0,0,1-.853.964,7.936,7.936,0,0,1-1.03.008v0" transform="translate(-339.87 -214.597)" fill="#000101"/>
        <path id="Trazado_192558" data-name="Trazado 192558" d="M331.975,211.667c.3,0,.6-.02.9.005a.892.892,0,0,1,.883.858.857.857,0,0,1-.755,1.027,9.82,9.82,0,0,1-2.115.01.861.861,0,0,1-.787-1,.887.887,0,0,1,.909-.895c.32-.022.643,0,.965,0" transform="translate(-287.268 -184.197)" fill="#000101"/>
        <path id="Trazado_192559" data-name="Trazado 192559" d="M231.233,138.783a8.823,8.823,0,0,1-.9-.007.865.865,0,0,1-.831-.839.847.847,0,0,1,.691-1.016,5.738,5.738,0,0,1,2.18,0,.844.844,0,0,1,.684.963.872.872,0,0,1-.852.89c-.321.029-.646.005-.969,0" transform="translate(-199.714 -119.066)" fill="#010101"/>
        <path id="Trazado_192560" data-name="Trazado 192560" d="M121.364,23.23a2.5,2.5,0,1,1-2.471,2.559,2.536,2.536,0,0,1,2.471-2.559" transform="translate(-103.466 -20.216)"/>
        <path id="Trazado_192561" data-name="Trazado 192561" d="M169.284,25.759a2.486,2.486,0,1,1-2.491-2.531,2.517,2.517,0,0,1,2.491,2.531" transform="translate(-142.993 -20.214)"/>
        <path id="Trazado_192562" data-name="Trazado 192562" d="M78.7,25.74a2.479,2.479,0,1,1-2.5-2.513,2.5,2.5,0,0,1,2.5,2.513" transform="translate(-64.176 -20.213)"/>
        <path id="Trazado_192563" data-name="Trazado 192563" d="M106.419,192.787a4.206,4.206,0,0,1-.053-1.22c-.008-2.437,0-4.875-.007-7.312,0-.326-.018-.556.454-.552,3.578.028,7.155.026,10.733.033a1.018,1.018,0,0,1,.208.79q.012,3.72,0,7.439c0,.834-.067.884-.874.884q-4.913,0-9.827,0a1.212,1.212,0,0,1-.634-.059" transform="translate(-92.549 -159.867)" fill="#feb409"/>
        <path id="Trazado_192564" data-name="Trazado 192564" d="M106.9,192.881c3.47,0,6.941-.014,10.411.011.56,0,.737-.131.73-.715-.031-2.782-.014-5.564-.014-8.347,1.047-.055,1.047-.055,1.047.952,0,2.548-.006,5.1.006,7.645,0,.379-.036.575-.51.572-3.755-.021-7.51-.01-11.265-.013-.137,0-.307.074-.4-.1" transform="translate(-93.026 -159.962)" fill="#feaa00"/>
        <path id="Trazado_192565" data-name="Trazado 192565" d="M135.023,38.824a.546.546,0,0,1-.559.555.512.512,0,0,1-.537-.522.52.52,0,0,1,.55-.573c.31-.006.5.207.545.54" transform="translate(-116.55 -33.317)" fill="#eebf61"/>
        <path id="Trazado_192566" data-name="Trazado 192566" d="M180.442,38.851c-.053.33-.242.542-.554.535a.5.5,0,0,1-.514-.6.49.49,0,0,1,.562-.488.534.534,0,0,1,.506.552" transform="translate(-156.098 -33.328)" fill="#00c4a8"/>
        <path id="Trazado_192567" data-name="Trazado 192567" d="M89.286,38.223c.32.059.528.216.525.556a.532.532,0,1,1-1.062-.033c.011-.344.242-.476.537-.523" transform="translate(-77.233 -33.264)" fill="#f15151"/>
      </g>
    </g>
  </g>
</svg>
