<svg xmlns="http://www.w3.org/2000/svg" width="52.208" height="52.207" viewBox="0 0 52.208 52.207">
  <g id="Grupo_137519" data-name="Grupo 137519" transform="translate(-337.792 -4540.345)">
    <g id="Grupo_129621" data-name="Grupo 129621" transform="translate(-396.748 4375.813)">
      <path id="Trazado_187978" data-name="Trazado 187978" d="M734.54,181.765c.058-.118.121-.234.174-.353a2.192,2.192,0,0,1,1.955-1.41,2.124,2.124,0,0,1,2.126,1.126.686.686,0,0,0,.72.4c1.254-.014,2.509-.006,3.815-.006.011-.228.028-.408.028-.588,0-1.291-.006-2.583,0-3.874a1.171,1.171,0,0,1,1.042-1.346,31.594,31.594,0,0,0,8.364-3.52,15,15,0,0,1,15.693-.043c.87.487,1.741.973,2.694,1.5.018-.254.038-.411.039-.569,0-1.223.012-2.447-.01-3.67a.707.707,0,0,0-.252-.524,2.268,2.268,0,0,1-1.238-2.277,2.2,2.2,0,0,1,1.643-1.991.45.45,0,0,0,.114-.088h1.02c.118.058.234.121.353.174a2.19,2.19,0,0,1,1.409,1.956,2.141,2.141,0,0,1-1.125,2.128.659.659,0,0,0-.389.673q.024,2.217,0,4.435c0,.314.075.5.4.6,1.2.374,2.38.794,3.583,1.145.967.282,1.226.561,1.227,1.575q0,3.263,0,6.525a2.238,2.238,0,0,1-.038.506.746.746,0,0,1-1.455-.017,2.787,2.787,0,0,1-.034-.558c0-2.022-.007-4.044,0-6.066,0-.321-.08-.476-.419-.562a29.831,29.831,0,0,1-8.064-3.456,13.812,13.812,0,0,0-8.471-2.026,13.081,13.081,0,0,0-5.633,1.776,32,32,0,0,1-8.607,3.73c-.366.09-.318.334-.318.585,0,2.413-.006,4.826,0,7.239s-.031,4.827.053,7.238a14.73,14.73,0,0,0,2.46,7.609c.093.142.2.277.279.426a.754.754,0,0,1-.216,1.036.721.721,0,0,1-1.035-.193,19.191,19.191,0,0,1-1.094-1.776,17.313,17.313,0,0,1-1.981-8.386c0-.607,0-1.214,0-1.886-.646,0-1.237-.026-1.822.019-.139.011-.282.249-.384.408a2.293,2.293,0,1,1-2.648-3.384,2.243,2.243,0,0,1,2.67,1.045.632.632,0,0,0,.675.384c.472-.026.946-.007,1.463-.007v-4.385h-.782c-1.054,0-2.107-.01-3.161.011a.649.649,0,0,0-.477.244,2.259,2.259,0,0,1-2.276,1.239,2.2,2.2,0,0,1-1.991-1.642.446.446,0,0,0-.089-.114ZM772.713,166.8a.752.752,0,1,0-.754.783A.756.756,0,0,0,772.713,166.8Zm-35.887,16.222a.752.752,0,1,0-.753-.734A.759.759,0,0,0,736.827,183.026Zm2.38,5.913a.751.751,0,1,0-.005-1.5.751.751,0,1,0,.005,1.5Z" fill="#0d2380"/>
      <path id="Trazado_187979" data-name="Trazado 187979" d="M907.167,383.709c-.058.117-.121.233-.174.353a2.193,2.193,0,0,1-1.955,1.41,2.137,2.137,0,0,1-2.128-1.123.657.657,0,0,0-.675-.384c-1.27.017-2.54.007-3.826.007-.083,1.48-.164,2.91-.247,4.383.641,0,1.3.022,1.96-.018.142-.009.3-.222.4-.377a2.3,2.3,0,0,1,2.394-1.095,2.291,2.291,0,0,1,.44,4.377,2.233,2.233,0,0,1-2.761-.9.8.8,0,0,0-.841-.464c-.542.027-1.089-.018-1.629.022a.608.608,0,0,0-.451.32,18.393,18.393,0,0,1-5.351,8.338,32.9,32.9,0,0,1-10.58,6.748,1.739,1.739,0,0,1-1.377-.011,34.22,34.22,0,0,1-6.169-3.223c-.108-.072-.223-.134-.424-.253v.875c0,1.121-.011,2.242.012,3.363a.706.706,0,0,0,.254.522,2.261,2.261,0,0,1,1.235,2.277,2.192,2.192,0,0,1-1.643,1.989c-.043.014-.076.059-.113.089H872.5c-.117-.058-.233-.121-.353-.174a2.2,2.2,0,0,1-1.411-1.956,2.139,2.139,0,0,1,1.126-2.128.66.66,0,0,0,.389-.674q-.023-2.447,0-4.894a.865.865,0,0,0-.35-.73q-1.4-1.222-2.757-2.5c-.588-.553-.65-.966-.276-1.345s.817-.282,1.351.265a30.647,30.647,0,0,0,10.295,6.9,1.3,1.3,0,0,0,1.1,0,30.98,30.98,0,0,0,11.034-7.68,15.573,15.573,0,0,0,4.167-10.961c0-1.156-.009-2.311.009-3.467a.769.769,0,0,1,.78-.825.789.789,0,0,1,.737.821c.01.135,0,.272.006.408,0,.117.014.233.026.434h1.063c.969,0,1.938.012,2.906-.012a.645.645,0,0,0,.468-.258,2.256,2.256,0,0,1,2.276-1.238,2.2,2.2,0,0,1,1.99,1.643c.014.043.059.076.089.113Zm-2.294-1.262a.752.752,0,1,0,.76.778A.758.758,0,0,0,904.873,382.447Zm-31.114,26.217a.751.751,0,1,0-.75.737A.756.756,0,0,0,873.759,408.663Zm28.72-20.3a.751.751,0,1,0,.047,1.5.751.751,0,1,0-.047-1.5Z" transform="translate(-120.42 -194.195)" fill="#0d2380"/>
      <path id="Trazado_187980" data-name="Trazado 187980" d="M851.033,260.914q0-3.084,0-6.168c0-1.128.162-1.305,1.208-1.707,1.266-.486,2.5-1.042,3.765-1.543a1.1,1.1,0,0,1,.764-.081.864.864,0,0,1,.461.635,1.024,1.024,0,0,1-.471.744c-1.246.575-2.522,1.086-3.791,1.61-.228.094-.413.154-.411.477.019,3.976-.031,7.953.048,11.928a11.937,11.937,0,0,0,3.366,8.088,27.266,27.266,0,0,0,8.911,6.41,1.081,1.081,0,0,0,.793-.01,26.717,26.717,0,0,0,9.365-6.97,12.209,12.209,0,0,0,2.908-8.17c.016-3.721,0-7.443.011-11.164a.517.517,0,0,0-.4-.592,37.65,37.65,0,0,1-6.8-3.209,10.537,10.537,0,0,0-10.194-.444c-.308.142-.595.326-.895.485a.778.778,0,0,1-1.145-.243.759.759,0,0,1,.37-1.072,12.164,12.164,0,0,1,6.6-1.779,11.925,11.925,0,0,1,5.959,1.682,36.156,36.156,0,0,0,7.135,3.329,1.177,1.177,0,0,1,.894,1.214c-.014,4.367.076,8.737-.086,13.1a12.993,12.993,0,0,1-3.738,8.492,29.509,29.509,0,0,1-9.678,6.9,1.6,1.6,0,0,1-1.41.007,29.4,29.4,0,0,1-9.72-6.93,14.048,14.048,0,0,1-3.812-9.922Q851.031,263.463,851.033,260.914Z" transform="translate(-104.614 -75.079)" fill="#0d2380"/>
      <path id="Trazado_187981" data-name="Trazado 187981" d="M935.036,344.959c0-.525-.041-1.051.008-1.569a3.81,3.81,0,0,1,6.1-2.684,3.74,3.74,0,0,1,1.508,3.138c0,.37,0,.74,0,1.115.138.027.219.047.3.057a1.767,1.767,0,0,1,1.735,1.931c.013,1.461,0,2.921,0,4.382,0,.51.012,1.02-.005,1.528a1.727,1.727,0,0,1-1.782,1.827q-4.076.048-8.152,0a1.71,1.71,0,0,1-1.78-1.825q-.032-3.006,0-6.013a1.739,1.739,0,0,1,1.677-1.827C934.753,345.008,934.851,344.989,935.036,344.959Zm3.839,1.587c-1.257,0-2.515.018-3.772-.009-.474-.01-.617.151-.612.615q.031,2.7,0,5.4c-.005.454.127.631.6.628q3.746-.026,7.493,0c.444,0,.59-.152.586-.593-.018-1.818-.022-3.636,0-5.454.006-.489-.182-.6-.631-.6C941.322,346.561,940.1,346.546,938.875,346.546Zm2.223-1.561c0-.528.039-1.036-.008-1.535a2.276,2.276,0,0,0-4.458-.308,12.663,12.663,0,0,0-.116,1.843Z" transform="translate(-178.189 -157.484)" fill="#0d2380"/>
      <path id="Trazado_187982" data-name="Trazado 187982" d="M972.575,409.888a2.184,2.184,0,0,1-1.158,1.958.579.579,0,0,0-.366.631,2.255,2.255,0,0,1-.021.557.7.7,0,0,1-.726.647c-.4.008-.76-.222-.732-.616a1.693,1.693,0,0,0-.861-1.58,2.169,2.169,0,0,1-.419-2.738,2.288,2.288,0,0,1,4.283,1.14Zm-1.532-.015a.753.753,0,1,0-.782.757A.761.761,0,0,0,971.043,409.873Z" transform="translate(-209.647 -218.265)" fill="#0d2380"/>
    </g>
  </g>
</svg>
