<svg xmlns="http://www.w3.org/2000/svg" xmlns:xlink="http://www.w3.org/1999/xlink" width="426.42" height="315.201" viewBox="0 0 426.42 315.201">
  <defs>
    <clipPath id="clip-path">
      <rect id="Rect치ngulo_85120" data-name="Rect치ngulo 85120" width="426.42" height="315.201" fill="none"/>
    </clipPath>
  </defs>
  <g id="Grupo_137519" data-name="Grupo 137519" transform="translate(5994.488 6987.024)">
    <g id="Grupo_134880" data-name="Grupo 134880" transform="translate(-5994.488 -6987.024)">
      <g id="Grupo_134880-2" data-name="Grupo 134880" clip-path="url(#clip-path)">
        <path id="Trazado_192322" data-name="Trazado 192322" d="M397.311,234.2a235.057,235.057,0,0,1-27.7,38.221l-.04.039c-.116.118-.232.274-.35.39-21.585,24.234-52.949,37.441-85.406,37.014l-124.953-1.637a378.554,378.554,0,0,1-79.872-35.768c-.039,0-.039-.039-.079-.039-21.351-12.935-42.7-29.532-57.78-49.715C8.269,205.521-.03,185.609.049,163.012c0,0-6.468-80.146,129.355-84.666C191.471,71.1,180.913-2.619,313.971.072a120.15,120.15,0,0,1,13.247.933,114.671,114.671,0,0,1,20.65,4.52c34.6,11.222,58.795,38.535,70.483,73.483a152.684,152.684,0,0,1,5.337,20.65c7.559,41.223-.351,89.81-26.377,134.539" transform="translate(0 0)" fill="#dadeec"/>
        <path id="Trazado_192323" data-name="Trazado 192323" d="M237.4,99.076H140.956V.433a115.994,115.994,0,0,1,20.631,4.539c34.618,11.213,58.806,38.516,70.493,73.474A149.688,149.688,0,0,1,237.4,99.076" transform="translate(186.275 0.572)" fill="#f1f3f6"/>
        <path id="Trazado_192324" data-name="Trazado 192324" d="M220.336,75.863H149.843V2.389C184.461,13.6,208.649,40.9,220.336,75.863" transform="translate(198.019 3.157)" fill="#dfeaf7"/>
        <path id="Trazado_192325" data-name="Trazado 192325" d="M199.442,142.736h-57.45q.118-19.072.239-38.145a14.031,14.031,0,0,1-3.018-2.266c-11.31-11.187.622-38.656,2.015-41.776q3.768,5.526,7.531,11.055h15.6q3.1-5.54,6.2-11.085a92.765,92.765,0,0,1,4.629,11.872,94.565,94.565,0,0,1,4.121,32.664c5.012.188,8.374,1.75,20.137,37.68" transform="translate(177.595 79.978)" fill="#12263f"/>
        <path id="Trazado_192326" data-name="Trazado 192326" d="M140.18,73.856c0,1.669-.235,3.025-.52,3.025s-.522-1.356-.522-3.025.234-3.025.522-3.025.52,1.356.52,3.025" transform="translate(183.872 93.604)" fill="#fff"/>
        <path id="Trazado_192327" data-name="Trazado 192327" d="M146.785,73.856c0,1.669-.234,3.025-.52,3.025s-.522-1.356-.522-3.025.234-3.025.522-3.025.52,1.356.52,3.025" transform="translate(192.601 93.604)" fill="#fff"/>
        <path id="Trazado_192328" data-name="Trazado 192328" d="M90.631,127.7H55.363L69.227,71.9H104.5Z" transform="translate(73.162 95.019)" fill="#002d53"/>
        <path id="Trazado_192329" data-name="Trazado 192329" d="M225.086,150.761a5.978,5.978,0,0,1-6.059,6.737H37.048a7.725,7.725,0,0,1-7.492-6.737L17.494,37.357a5.979,5.979,0,0,1,6.059-6.737H205.532a7.722,7.722,0,0,1,7.492,6.737Z" transform="translate(23.069 40.465)" fill="#fff"/>
        <path id="Trazado_192330" data-name="Trazado 192330" d="M225.086,150.761a5.978,5.978,0,0,1-6.059,6.737H37.048a7.725,7.725,0,0,1-7.492-6.737L17.494,37.357a5.979,5.979,0,0,1,6.059-6.737H205.532a7.722,7.722,0,0,1,7.492,6.737Z" transform="translate(23.069 40.465)" fill="#002d53"/>
        <path id="Trazado_192331" data-name="Trazado 192331" d="M39.3,144.219a7.725,7.725,0,0,1-7.492-6.737L21.549,41a5.976,5.976,0,0,1,6.057-6.737H192.567A7.725,7.725,0,0,1,200.059,41l10.261,96.48a5.976,5.976,0,0,1-6.057,6.737Z" transform="translate(28.427 45.282)" fill="#004072"/>
        <path id="Trazado_192332" data-name="Trazado 192332" d="M69.792,50.755H30.482l-.959-6.133h39.31Z" transform="translate(39.015 58.968)" fill="#fc502d"/>
        <path id="Trazado_192333" data-name="Trazado 192333" d="M91.171,50.755H51.861L50.9,44.622h39.31Z" transform="translate(67.268 58.968)" fill="#fff"/>
        <path id="Trazado_192334" data-name="Trazado 192334" d="M71.053,58.411H31.743l-.959-6.133h39.31Z" transform="translate(40.682 69.086)" fill="#fff"/>
        <path id="Trazado_192335" data-name="Trazado 192335" d="M83.759,64.931H44.449L43.49,58.8H82.8Z" transform="translate(57.473 77.701)" fill="#fff"/>
        <path id="Trazado_192336" data-name="Trazado 192336" d="M93.821,72.373H54.511l-.959-6.133h39.31Z" transform="translate(70.77 87.537)" fill="#fff"/>
        <path id="Trazado_192337" data-name="Trazado 192337" d="M92.935,72.373H73.279l-.956-6.133H91.976Z" transform="translate(95.575 87.537)" fill="#fc502d"/>
        <path id="Trazado_192338" data-name="Trazado 192338" d="M102.494,64.931H63.184L62.225,58.8h39.31Z" transform="translate(82.231 77.701)" fill="#fc502d"/>
        <path id="Trazado_192339" data-name="Trazado 192339" d="M324.69,117.346l-.04.039c-.116.116-.232.272-.35.39-21.585,24.234-52.949,37.441-85.406,37.014l-124.953-1.637a378.554,378.554,0,0,1-79.872-35.768c-.039,0-.039-.039-.079-.039Z" transform="translate(44.918 155.074)" fill="#97301b"/>
        <path id="Trazado_192340" data-name="Trazado 192340" d="M385.287,107.415a233.76,233.76,0,0,1-27.754,38.245H66.975C45.568,132.715,24.19,116.158,9.1,95.935H377.08Z" transform="translate(12.028 126.779)" fill="#97301b"/>
        <path id="Trazado_192341" data-name="Trazado 192341" d="M157.62,94.652c-8.48,25.534-29.994,41.374-48.053,35.378S83.742,98.471,92.22,72.935s29.994-41.374,48.055-35.378,25.824,31.561,17.344,57.1" transform="translate(117.333 47.956)" fill="#ffb3ae"/>
        <rect id="Rect치ngulo_85119" data-name="Rect치ngulo 85119" width="36.524" height="43.563" transform="translate(240.163 148.702)" fill="#ffb3ae"/>
        <path id="Trazado_192342" data-name="Trazado 192342" d="M97.877,97.943s-30.154-17.165-6.194-46.99c6.194-9.047,6.194,9.384,6.194,9.384S118.448.69,153.319,38.723c0,0,32.959,5.579,40.283,27.819,2.368,7.194,1.077,13.328-.216,19.933-.455,2.319-8.85,42.351-37.037,47.287-3.944.692-13.14,1.546-25.133-4.775L97.877,97.943" transform="translate(108.935 34.416)" fill="#12263f"/>
        <path id="Trazado_192343" data-name="Trazado 192343" d="M108.82,71.383c.717,7.967-1.388,14.667-4.7,14.967s-6.579-5.92-7.294-13.887,1.386-14.667,4.7-14.964,6.577,5.918,7.294,13.885" transform="translate(127.772 75.97)" fill="#ffb3ae"/>
        <path id="Trazado_192344" data-name="Trazado 192344" d="M263.472,203.96s-7.164,4.091-26.512,7.559c-22.14,3.977-60.215,7.136-121.728,2.426-14.3-1.073-29.869-2.6-46.79-4.627a287.88,287.88,0,0,1,16.443-48.763c15.821-36.158,44.28-80.071,90.14-85.29,45.3-5.161,67.688,37.427,78.576,74.994a282.383,282.383,0,0,1,9.871,53.7" transform="translate(90.447 98.899)" fill="#0d2380"/>
        <path id="Trazado_192345" data-name="Trazado 192345" d="M170.9,161.027s-7.164,4.091-26.512,7.559l-5.894-53.051,22.535-8.209a282.382,282.382,0,0,1,9.871,53.7" transform="translate(183.02 141.833)" fill="#ffb3ae"/>
        <path id="Trazado_192346" data-name="Trazado 192346" d="M173.222,155.763,170.8,169.385a29.751,29.751,0,0,1-32.35,24.311q-9.3-.972-19.262-2.143C97.41,189.128,55.5,127.784,55.5,127.784l-11.45,2.229c-3.724,13.2-6.516,16.557-8.545,16.443-4.288-.225-6.461-16.274-5.021-25.808.283-1.8.789-4.088,2.6-5.611a8.727,8.727,0,0,1,5.5-1.72c2.4.225,3.582.367,4.088.395a20.579,20.579,0,0,0-4.088-.395c-.283-.028-.592-.058-.931-.086,1.27-11.169,8.292-20.448,17.966-23.691,8.968-3.018,16.894.253,19.122,1.242,0,0,2.763-1.75,9.421-1.128,6.656.648,10.18,16.838,10.18,16.838l41.29,36.3c7.7,5.472,21.07,12.805,37.6,12.975" transform="translate(39.696 116.676)" fill="#ffb3ae"/>
        <path id="Trazado_192347" data-name="Trazado 192347" d="M38.914,102.522a2.216,2.216,0,0,1-.353-.03,20.631,20.631,0,0,0-3.707-.367,1.905,1.905,0,0,1-1.978-1.92A1.954,1.954,0,0,1,34.8,98.23a25.255,25.255,0,0,1,4.409.418,1.977,1.977,0,0,1,1.595,2.273,1.932,1.932,0,0,1-1.887,1.6" transform="translate(43.446 129.812)" fill="#ff7a72"/>
        <path id="Trazado_192348" data-name="Trazado 192348" d="M72.224,133.864a1.967,1.967,0,0,1-.922-.232,1.947,1.947,0,0,1-.794-2.637l10.226-19.043a1.948,1.948,0,0,1,3.434,1.841L73.94,132.836a1.947,1.947,0,0,1-1.716,1.028" transform="translate(92.87 146.591)" fill="#ff7a72"/>
        <path id="Trazado_192349" data-name="Trazado 192349" d="M143.511,133.048a1.46,1.46,0,0,1-1.43-1.161l-7.355-34.953a1.461,1.461,0,0,1,2.86-.6l7.355,34.953a1.464,1.464,0,0,1-1.131,1.732,1.657,1.657,0,0,1-.3.03" transform="translate(178.002 125.78)" fill="#002d53"/>
        <path id="Trazado_192350" data-name="Trazado 192350" d="M92.547,133.8a1.477,1.477,0,0,1-.692-.174,1.462,1.462,0,0,1-.594-1.98l13.4-24.861a1.461,1.461,0,1,1,2.572,1.386l-13.4,24.861a1.46,1.46,0,0,1-1.286.768" transform="translate(120.37 140.102)" fill="#002d53"/>
      </g>
    </g>
  </g>
</svg>
