<svg xmlns="http://www.w3.org/2000/svg" xmlns:xlink="http://www.w3.org/1999/xlink" width="66.313" height="66.924" viewBox="0 0 66.313 66.924">
  <defs>
    <clipPath id="clip-path">
      <rect id="Rect치ngulo_85304" data-name="Rect치ngulo 85304" width="66.313" height="66.924" fill="#e8e8e8"/>
    </clipPath>
    <clipPath id="clip-path-2">
      <rect id="Rect치ngulo_85342" data-name="Rect치ngulo 85342" width="37.987" height="38" fill="#0d2380"/>
    </clipPath>
  </defs>
  <g id="Grupo_137498" data-name="Grupo 137498" transform="translate(-709 -3378)">
    <g id="Grupo_135240" data-name="Grupo 135240" transform="translate(709 3378)">
      <g id="Grupo_135192" data-name="Grupo 135192" clip-path="url(#clip-path)">
        <path id="Trazado_192999" data-name="Trazado 192999" d="M77.391,44.282A33.158,33.158,0,1,1,44.235,10.82,33.31,33.31,0,0,1,77.391,44.282" transform="translate(-11.078 -10.82)" fill="#e8e8e8"/>
      </g>
    </g>
    <g id="Grupo_135255" data-name="Grupo 135255" transform="translate(723 3392)">
      <g id="Grupo_135255-2" data-name="Grupo 135255" clip-path="url(#clip-path-2)">
        <path id="Trazado_193029" data-name="Trazado 193029" d="M21.364,0c.136.7.266,1.4.416,2.1.017.079.144.154.236.194.623.267,1.246.533,1.879.775a.546.546,0,0,0,.42-.044c.559-.34,1.1-.706,1.674-1.078.091.083.182.16.266.244.91.908,1.813,1.824,2.733,2.722a.435.435,0,0,1,.123.6c-.193.382-.34.788-.493,1.153a9.855,9.855,0,0,1,1.594.345,4.28,4.28,0,0,1,2.845,3.859A5.973,5.973,0,0,1,32.7,14a4.59,4.59,0,0,1-1.206,1.576,1.658,1.658,0,0,0-.252.37,2.081,2.081,0,0,0,.389.209q1.4.407,2.811.789a.48.48,0,0,0,.305-.045,7,7,0,0,0,.948-.5,3.03,3.03,0,0,1,2.286-.423v.365c0,2.72,0,5.44.007,8.159a.527.527,0,0,1-.34.561q-5.176,2.568-10.342,5.154a.562.562,0,0,0-.384.544,1.786,1.786,0,0,1-1.492,1.656c-.236.039-.326.116-.362.361a1.842,1.842,0,0,1-1.533,1.508.419.419,0,0,0-.277.247,1.893,1.893,0,0,1-1.792,1.62c-.018.085-.038.178-.057.272A1.9,1.9,0,0,1,18.384,37.6a1.325,1.325,0,0,0-1.406-.315,1.785,1.785,0,0,1-2.22-1.472c-.037-.193-.092-.3-.305-.338A1.85,1.85,0,0,1,12.9,33.9a.348.348,0,0,0-.208-.231,1.955,1.955,0,0,1-1.666-1.8,5.347,5.347,0,0,1-.523-.129,1.826,1.826,0,0,1-1.264-1.467.582.582,0,0,0-.319-.447c-.514-.293-1.018-.6-1.529-.908-.088.167-.152.431-.244.441a3.064,3.064,0,0,1-1.212-.007c-1.986-.631-3.955-1.315-5.93-1.98V14.688A4.947,4.947,0,0,1,3.887,15.81a2.269,2.269,0,0,0,2.494.341c.125-.055.24-.131.359-.2a1.554,1.554,0,0,0-.244-.372,4.417,4.417,0,0,1-1.4-2.093,7.286,7.286,0,0,1-.182-2.575,4.094,4.094,0,0,1,2.568-3.8,11.656,11.656,0,0,1,1.865-.486C9.189,6.261,9,5.835,8.838,5.4a.4.4,0,0,1,.038-.348C9.895,4.01,10.927,2.981,11.97,1.934c.578.376,1.131.745,1.7,1.094a.509.509,0,0,0,.389.06c.655-.251,1.3-.526,1.946-.8.081-.034.185-.111.2-.185.148-.7.278-1.4.414-2.1Zm5.065,29.271c.079-.033.137-.053.192-.08q4.935-2.466,9.871-4.929a.433.433,0,0,0,.263-.462c-.006-2.064,0-4.128-.005-6.192,0-.1-.019-.205-.033-.344-.161.08-.281.136-.4.2-3.495,1.84-6.994,3.672-10.479,5.53a2.184,2.184,0,0,1-1.38.265,4.531,4.531,0,0,1-.612-.141c-1.056-.3-2.112-.6-3.166-.909a2.87,2.87,0,0,0-2.162.154c-1.094.544-2.188,1.087-3.277,1.642a.919.919,0,0,0-.436,1.279.851.851,0,0,0,1.276.248c.68-.4,1.355-.813,2.036-1.215a2.458,2.458,0,0,1,3.134.3c.711.632,1.416,1.272,2.123,1.908l3.053,2.746m-5.208-.948c1.088.906,2.148,1.792,3.212,2.673a.792.792,0,0,0,1.129.01c.271-.319.2-.69-.214-1.06q-2.425-2.183-4.851-4.365a1.341,1.341,0,0,0-1.819-.176q-1.035.615-2.066,1.237a2.1,2.1,0,0,1-2.092-3.634c.886-.488,1.8-.916,2.708-1.371.117-.059.228-.127.394-.22a6.541,6.541,0,0,0-3.444-.534c-1.544.264-3.069.632-4.6.971a.459.459,0,0,0-.29.264q-.778,2.665-1.522,5.34a.335.335,0,0,0,.087.3c.56.356,1.134.692,1.732,1.051.462-.471.88-.965,1.365-1.38A1.872,1.872,0,0,1,14.031,28.5a.367.367,0,0,0,.34.348,1.8,1.8,0,0,1,1.5,1.53c.037.23.154.263.335.3a1.866,1.866,0,0,1,1.486,1.389c.038.127.052.261.079.4a2.407,2.407,0,0,1,1.573.947,10.475,10.475,0,0,0,1.668,1.395.575.575,0,0,0,.784-.056.977.977,0,0,0,.194-.656c-.014-.161-.2-.327-.35-.452-.667-.57-1.346-1.126-2.019-1.689-.337-.282-.672-.566-1.023-.861l.787-.93c1.039.865,2.044,1.7,3.052,2.541a2.3,2.3,0,0,0,.419.3.726.726,0,0,0,.923-.231.642.642,0,0,0-.167-.862c-.163-.151-.341-.286-.511-.429l-2.665-2.224.784-.938M12.9,19.829c.131-.02.261-.037.39-.06a7.622,7.622,0,0,1,3.449.1c1.435.4,2.874.784,4.309,1.182,1.094.3,2.184.621,3.277.925a3,3,0,0,0,.472.072c.239.027.327-.085.323-.324-.011-.655.011-1.31-.008-1.965A1.834,1.834,0,0,0,23.6,17.869c-1-.258-2.009-.512-3.017-.75-.268-.063-.4-.162-.377-.464a11.4,11.4,0,0,0,0-1.26.451.451,0,0,1,.261-.471,2.825,2.825,0,0,0,1.469-1.91,5.961,5.961,0,0,0-.074-2.9,3.107,3.107,0,0,0-2.822-2.149,2.945,2.945,0,0,0-2.938,2.156,9.836,9.836,0,0,0-.156,2.239,2.446,2.446,0,0,0,1.065,2.177,1.538,1.538,0,0,1,.749,1.717,1.144,1.144,0,0,0,0,.333c.061.34-.1.469-.416.543-1.01.232-2.015.487-3.018.747A1.783,1.783,0,0,0,12.9,19.829m20.169-2.045c-.929-.234-1.743-.468-2.571-.634-.4-.081-.525-.25-.485-.638a5.551,5.551,0,0,0,0-1,.6.6,0,0,1,.346-.649,2.767,2.767,0,0,0,1.417-2.026,6.205,6.205,0,0,0-.11-2.717A3.122,3.122,0,0,0,28.85,7.967a2.951,2.951,0,0,0-2.944,2.148,9.773,9.773,0,0,0-.159,2.239,2.455,2.455,0,0,0,1.061,2.179,1.565,1.565,0,0,1,.766,1.742,1.212,1.212,0,0,0,0,.333c.051.32-.085.456-.4.519-.558.113-1.107.27-1.73.426,1.107,1.09.861,2.436.9,3.775l6.73-3.544m-20.564-.238c-.658-.168-1.241-.328-1.83-.459a.294.294,0,0,1-.272-.353c.011-.432.016-.865,0-1.3a.5.5,0,0,1,.292-.528,2.8,2.8,0,0,0,1.442-1.886,5.805,5.805,0,0,0-.084-2.93A3.093,3.093,0,0,0,9.217,7.968,2.97,2.97,0,0,0,6.29,10.143a8.721,8.721,0,0,0-.155,1.8,3.123,3.123,0,0,0,1.619,3.029.485.485,0,0,1,.194.344c.022.481,0,.963.012,1.445,0,.19-.047.286-.252.327-.354.07-.7.178-1.122.289,1.042.61,2.007,1.18,2.979,1.738a.386.386,0,0,1,.234.406c-.018.33,0,.662,0,.995.008,0,.019.015.028.013.325-.067.651-.132.976-.2.253-.055.591-.038.733-.2s.106-.5.133-.757a3.264,3.264,0,0,1,.845-1.823m2.2-5.92c0-.259-.017-.52,0-.778A4.144,4.144,0,0,1,17.372,7.07a4.059,4.059,0,0,1,4.421.762c1.762,1.485,1.767,4.414,1.147,6.053a4.022,4.022,0,0,1-1.329,1.748c-.176.137-.324.356-.044.443.752.235,1.527.4,2.295.584a.592.592,0,0,0,.252-.043c.646-.161,1.294-.319,1.937-.49.1-.027.267-.116.267-.175a.584.584,0,0,0-.163-.33,8.147,8.147,0,0,1-.973-1.1,6.275,6.275,0,0,1-.366-5.086.711.711,0,0,0,.026-.472,6.494,6.494,0,0,0-5.88-3.427,6.519,6.519,0,0,0-5.788,3.34.638.638,0,0,0-.046.613,6.368,6.368,0,0,1-.078,4.592,3.9,3.9,0,0,1-1.233,1.55c-.241.191-.252.4-.023.465.739.2,1.482.379,2.226.558a.566.566,0,0,0,.252-.027c.671-.165,1.341-.331,2.009-.507.093-.024.238-.1.241-.158a.472.472,0,0,0-.134-.306c-.236-.251-.514-.465-.733-.73a4.549,4.549,0,0,1-.952-3.3M25.838,3.507c-.511.332-1,.641-1.479.965A.361.361,0,0,1,23.9,4.5,10.065,10.065,0,0,0,21.01,3.28a.53.53,0,0,1-.3-.329,14.119,14.119,0,0,1-.3-1.411c-.041-.25-.152-.321-.393-.316-.679.013-1.36.018-2.039,0-.275-.008-.359.1-.4.35-.079.462-.2.916-.283,1.377a.386.386,0,0,1-.346.356A9.036,9.036,0,0,0,14.088,4.5a.36.36,0,0,1-.463-.022c-.386-.266-.8-.5-1.174-.776-.245-.182-.393-.143-.583.072-.261.3-.558.56-.834.843s-.705.538-.77.864.235.726.386,1.089a1.335,1.335,0,0,0,.286.545c.413.32.867.587,1.32.885a8,8,0,0,1,13.45-.035c.445-.283.871-.549,1.29-.827a.539.539,0,0,0,.173-.226c.18-.406.364-.811.516-1.228a.439.439,0,0,0-.064-.377c-.572-.6-1.163-1.177-1.783-1.8M6.078,18.5c-1.444-.84-2.858-1.67-4.282-2.483a1.882,1.882,0,0,0-.567-.1v1.98c0,2.754,0,5.508.008,8.263,0,.139.083.367.183.4.793.294,1.6.551,2.435.831L6.078,18.5m1.1.646L5.02,27.776l1.239.412c.046-.139.087-.252.12-.368q.394-1.369.785-2.739c.451-1.577.9-3.155,1.358-4.73.077-.265.052-.43-.22-.564-.364-.178-.706-.4-1.122-.645M17.764,33.657c-.187.06-.321.064-.392.133-.46.444-.932.88-1.346,1.365a.563.563,0,0,0,.112.774.577.577,0,0,0,.807.1,10.814,10.814,0,0,0,1.3-1.308.781.781,0,0,0,0-.676c-.083-.179-.338-.277-.485-.387m-4.823-4.835a2.909,2.909,0,0,0-.491-.56.583.583,0,0,0-.747.121q-.527.494-1.026,1.017a.693.693,0,0,0-.054,1.021.684.684,0,0,0,1.021-.054c.332-.314.659-.634.966-.972a3.4,3.4,0,0,0,.331-.572m2.99,3.009c-.192.053-.314.05-.376.11-.468.453-.95.9-1.373,1.389a.557.557,0,0,0,.125.771.582.582,0,0,0,.809.083,10.771,10.771,0,0,0,1.294-1.311.779.779,0,0,0-.005-.676c-.084-.176-.34-.27-.474-.366m-1.153-1.184a2.624,2.624,0,0,0-.476-.54.618.618,0,0,0-.782.125c-.35.33-.692.67-1.022,1.021a.685.685,0,1,0,.971.961c.341-.322.676-.653.99-1a3.16,3.16,0,0,0,.319-.567M18.615,36.2c.338.348.674.7,1.187.487a.763.763,0,0,0,.38-.525c.063-.526-.434-.675-.706-.963l-.86,1" fill="#0d2380"/>
      </g>
    </g>
  </g>
</svg>
