<svg xmlns="http://www.w3.org/2000/svg" xmlns:xlink="http://www.w3.org/1999/xlink" width="190" height="104.905" viewBox="0 0 190 104.905">
  <defs>
    <clipPath id="clip-path">
      <rect id="Rectángulo_85369" data-name="Rectángulo 85369" width="190" height="104.905" fill="none"/>
    </clipPath>
    <clipPath id="clip-path-3">
      <rect id="Rectángulo_85366" data-name="Rectángulo 85366" width="21.479" height="5.957" fill="none"/>
    </clipPath>
    <clipPath id="clip-path-4">
      <rect id="Rectángulo_85367" data-name="Rectángulo 85367" width="34.861" height="13.743" fill="none"/>
    </clipPath>
  </defs>
  <g id="Grupo_137494" data-name="Grupo 137494" transform="translate(1026 4720.905)">
    <g id="Grupo_135308" data-name="Grupo 135308" transform="translate(-1026 -4720.905)">
      <g id="Grupo_135307" data-name="Grupo 135307" clip-path="url(#clip-path)">
        <g id="Grupo_135306" data-name="Grupo 135306" transform="translate(0 0)">
          <g id="Grupo_135305" data-name="Grupo 135305" clip-path="url(#clip-path)">
            <path id="Trazado_193091" data-name="Trazado 193091" d="M878.328,550.309l-4.411,52.454s-.462,3.18,1.9,3.185c3.889.009,19.356,0,19.356,0s-2.927-.662-2.891-2.151c.042-1.755,5.156-53.985,5.156-53.985Z" transform="translate(-797.005 -501.446)" fill="#7599ea"/>
            <path id="Trazado_193092" data-name="Trazado 193092" d="M909.811,595.152c-.765,0-15.739.028-19.526-.021-1.651-.021-1.94-1.467-1.954-2.4a4.7,4.7,0,0,1,.05-.781l.115-1.363.292-3.475.258-3.07.332-3.945.28-3.33,3.135-37.272,19.112-.5s-2.154,21.858-3.678,37.768c-.17,1.773-.332,3.473-.482,5.059q-.073.76-.141,1.484c-.141,1.505-.271,2.888-.383,4.108-.059.643-.114,1.241-.163,1.789-.194,2.146-.308,3.516-.31,3.776a2.2,2.2,0,0,0,.037.425c.314,1.672,2.737,1.747,3.024,1.747" transform="translate(-810.185 -491.58)" fill="#90aff4"/>
            <path id="Trazado_193093" data-name="Trazado 193093" d="M396.829,230.987l10.746,43.163,1.471,5.911,5,20.1h92.981l-18.447-69.179Z" transform="translate(-361.92 -210.667)" fill="#aec3ff"/>
            <path id="Trazado_193094" data-name="Trazado 193094" d="M381.388,230.987l-1.489.5,16.731,70.184,1.98-1.5Z" transform="translate(-346.479 -210.667)" fill="#90aff4"/>
            <path id="Trazado_193095" data-name="Trazado 193095" d="M570.092,1018.882H662.5l2.552-1.5H572.072Z" transform="translate(-519.941 -927.882)" fill="#7599ea"/>
            <rect id="Rectángulo_85365" data-name="Rectángulo 85365" width="20.008" height="0.951" transform="translate(82.602 103.572)" fill="#aec3ff"/>
            <path id="Trazado_193096" data-name="Trazado 193096" d="M912.455,1034.444l-.1.727-18.816,3.8.258-3.07.123-1.458Z" transform="translate(-814.931 -943.444)" fill="#5888dd"/>
            <g id="Grupo_135301" data-name="Grupo 135301" transform="translate(78.147 97.624)" opacity="0.4">
              <g id="Grupo_135300" data-name="Grupo 135300">
                <g id="Grupo_135299" data-name="Grupo 135299" clip-path="url(#clip-path-3)">
                  <path id="Trazado_193097" data-name="Trazado 193097" d="M909.817,1115.688c-.765,0-15.739.028-19.526-.021-1.65-.021-1.94-1.467-1.953-2.4l18.728-3.524c-.194,2.146-.308,3.516-.31,3.776a2.205,2.205,0,0,0,.037.425c.314,1.672,2.737,1.747,3.024,1.747" transform="translate(-888.338 -1109.74)" fill="#5888dd"/>
                </g>
              </g>
            </g>
            <path id="Trazado_193098" data-name="Trazado 193098" d="M396.827,230.987h91.756l14.888,55.6h-92.8Z" transform="translate(-361.918 -210.667)" fill="#c2d5ff"/>
            <path id="Trazado_193099" data-name="Trazado 193099" d="M538.546,315.052H452.634l-3.07-12.23-1.188-4.732-.484-1.93-3.155-12.568-.164-.654-1.668-6.644-.746-2.973-.637-2.536-1.492-5.944H524.7l1.639,5.944.7,2.536.819,2.973,5.4,19.583h0l.458,1.659.213.77,3.727,13.52Z" transform="translate(-401.321 -241.544)" fill="#739af0"/>
            <path id="Trazado_193100" data-name="Trazado 193100" d="M526.347,270.785h-84.82l-1.492-5.945h84.673Z" transform="translate(-401.325 -241.542)" fill="#607cf4"/>
            <path id="Trazado_193101" data-name="Trazado 193101" d="M479.615,287.675a.562.562,0,0,1,.558-.743,1.015,1.015,0,0,1,.928.743.561.561,0,0,1-.558.743,1.015,1.015,0,0,1-.928-.743" transform="translate(-437.403 -261.691)" fill="#e9f3fe"/>
            <path id="Trazado_193102" data-name="Trazado 193102" d="M507.683,287.675a.562.562,0,0,1,.558-.743,1.015,1.015,0,0,1,.928.743.561.561,0,0,1-.558.743,1.015,1.015,0,0,1-.928-.743" transform="translate(-463.002 -261.691)" fill="#e9f3fe"/>
            <path id="Trazado_193103" data-name="Trazado 193103" d="M537.907,287.675a.561.561,0,0,1,.558-.743,1.015,1.015,0,0,1,.928.743.561.561,0,0,1-.558.743,1.015,1.015,0,0,1-.929-.743" transform="translate(-490.566 -261.691)" fill="#e9f3fe"/>
            <g id="Grupo_135304" data-name="Grupo 135304" transform="translate(48.75 75.918)" opacity="0.5">
              <g id="Grupo_135303" data-name="Grupo 135303">
                <g id="Grupo_135302" data-name="Grupo 135302" clip-path="url(#clip-path-4)">
                  <path id="Trazado_193104" data-name="Trazado 193104" d="M589.027,863,557.579,876.74,554.166,863Z" transform="translate(-554.166 -862.997)" fill="#90aff4"/>
                </g>
              </g>
            </g>
            <path id="Trazado_193105" data-name="Trazado 193105" d="M613.741,5.92a3.63,3.63,0,0,0-2.494,3.323V41.307a20.212,20.212,0,0,0,8.334,16.444l18.836,12.071a3.982,3.982,0,0,0,4.211,0L661.463,57.75A20.212,20.212,0,0,0,669.8,41.307V9.328a3.658,3.658,0,0,0-2.618-3.367C644.3-1.873,635.127-2.082,613.741,5.92" transform="translate(-557.476 -0.002)" fill="#fc502d"/>
            <path id="Trazado_193106" data-name="Trazado 193106" d="M970.691,6.1C959.553,2.282,951.663.281,944.033.149V70.558a3.922,3.922,0,0,0,2.106-.6l18.836-12.071a20.212,20.212,0,0,0,8.334-16.444V9.462A3.658,3.658,0,0,0,970.691,6.1" transform="translate(-860.987 -0.136)" fill="#c94024"/>
            <path id="Trazado_193107" data-name="Trazado 193107" d="M849.181,239.129H844.9a6.976,6.976,0,0,1-6.968-6.968v-.833a6.976,6.976,0,0,1,6.968-6.969h4.284a6.976,6.976,0,0,1,6.969,6.969v.833a6.976,6.976,0,0,1-6.969,6.968M844.9,227.146a4.187,4.187,0,0,0-4.182,4.183v.833a4.186,4.186,0,0,0,4.182,4.182h4.284a4.186,4.186,0,0,0,4.182-4.182v-.833a4.187,4.187,0,0,0-4.182-4.183Z" transform="translate(-764.216 -204.623)" fill="#fec2b5"/>
            <path id="Trazado_193108" data-name="Trazado 193108" d="M797.447,352.129H790.68a11.462,11.462,0,0,1-11.462-11.462V329.483a2.564,2.564,0,0,1,2.564-2.564h23.149a3.284,3.284,0,0,1,3.284,3.284v11.157a10.768,10.768,0,0,1-10.768,10.768" transform="translate(-710.67 -298.16)" fill="#fec2b5"/>
            <path id="Trazado_193109" data-name="Trazado 193109" d="M908.614,373.713a3.781,3.781,0,1,1-3.781-3.781,3.781,3.781,0,0,1,3.781,3.781" transform="translate(-821.787 -337.389)" fill="#f78248"/>
            <path id="Trazado_193110" data-name="Trazado 193110" d="M935.539,432.969h0a.822.822,0,0,1,.819.819v6.3a.819.819,0,1,1-1.639,0v-6.3a.822.822,0,0,1,.819-.819" transform="translate(-852.493 -394.881)" fill="#f78248"/>
            <path id="Trazado_193115" data-name="Trazado 193115" d="M288.667,213.9a.191.191,0,1,1-.271,0,.191.191,0,0,1,.271,0" transform="translate(-262.976 -195.035)" fill="#d5e5fb"/>
            <path id="Trazado_193116" data-name="Trazado 193116" d="M275.852,547.5a2.232,2.232,0,0,0-2.49-2.428,3.186,3.186,0,0,1,1.247.669,3.208,3.208,0,0,0-3.612.545c-1.882,1.56-.713,5.474-1.285,6.217s-2.8.892-2.529,3.294,7.075,5.412,6.638,7.4c0,0,2.666-3.919.76-5.707A3.534,3.534,0,0,1,275.6,559.4s.252-2.031-1.04-2.681a4.77,4.77,0,0,1-1.982-3.053c.1-.376,3.27-6.172,3.27-6.172" transform="translate(-243.658 -497.119)" fill="#2c3a64"/>
            <path id="Trazado_193117" data-name="Trazado 193117" d="M305.828,705.151s2.026,8.383,4.015,10.058c1.2,1.007,4.75,3.319,4.75,3.319l-1.479.537s-4.931-1.665-6.034-2.963-4.126-7.8-4.126-7.8Z" transform="translate(-276.303 -643.119)" fill="#ffb27d"/>
            <path id="Trazado_193118" data-name="Trazado 193118" d="M340.452,858.126l-.476-1.179a3.345,3.345,0,0,0-3.1-2.092H328.09v29.37h36.337v-23.8H343.864a3.681,3.681,0,0,1-3.413-2.3" transform="translate(-299.228 -779.654)" fill="#fff2bf"/>
            <path id="Trazado_193119" data-name="Trazado 193119" d="M106.046,790.406l.056.1c.443.771,1.461,2.659,2.581,4.726.53.98,1.085,2,1.611,2.961.907,1.657,1.732,3.133,2.213,3.913s.85,1.35,1,1.573h0a.368.368,0,0,1,.047.23,12.027,12.027,0,0,0,.032,2.078,15.943,15.943,0,0,0,5.209,10.326l1.348.2s-1.908-7.067-2.469-11.062a7.682,7.682,0,0,1-.1-1.584,16.549,16.549,0,0,0-.435-4.324,96.9,96.9,0,0,0-2.756-10.008c-.063-.2-1.959-7.053-1.959-7.053-1.591,1.391-7.394,1.964-7.394,1.964s-.984,2.392,1.022,5.96" transform="translate(-95.565 -713.647)" fill="#2f539b"/>
            <path id="Trazado_193120" data-name="Trazado 193120" d="M252.879,1156.259h-5.626a3.089,3.089,0,0,1,.159-1.508c.282-.624.683-.644.051-1.622a3.425,3.425,0,0,0,2.32.411,6.89,6.89,0,0,0,.975,1.485c.368.264,2.007.17,2.12,1.235" transform="translate(-225.474 -1051.688)" fill="#233862"/>
            <path id="Trazado_193121" data-name="Trazado 193121" d="M119.143,838.167l.056.1c.443.771,2.841,5.2,3.962,7.266a29.961,29.961,0,0,1-.4-10.682Z" transform="translate(-108.662 -761.408)" fill="#233862"/>
            <path id="Trazado_193122" data-name="Trazado 193122" d="M311.766,568.375a22.547,22.547,0,0,0-3.378,1.652c-1.524,1.691-1.09,3.9-.217,3.918.559.014.451.943.451.943l6.231-2.636s-.75-4.375-3.087-3.877" transform="translate(-280.339 -518.339)" fill="#2c3a64"/>
            <path id="Trazado_193123" data-name="Trazado 193123" d="M299.452,690.841a7.981,7.981,0,0,1,.83,3.431,5.962,5.962,0,0,1-4.109,2.262s2.55-5.695,3.279-5.693" transform="translate(-270.119 -630.068)" fill="#739af0"/>
            <path id="Trazado_193124" data-name="Trazado 193124" d="M22.6,772.693l.019-1.052c-2.1.264-7.228-2.505-7.228-2.505s-2.193,1.459-2.493,5.625c-.147,2.033-1.074,10.632-1.176,13.2-.037.931-.05,1.595-.054,1.86a.007.007,0,0,1,0,0,.366.366,0,0,1-.089.216,12.031,12.031,0,0,0-1.136,1.741c-3.2,5.952-1.526,14.039-1.526,14.039l.743-.189s2.7-8.384,4.473-12.01a7.591,7.591,0,0,1,.8-1.37,16.542,16.542,0,0,0,2.056-3.828c1.306-3.12,5.611-15.729,5.611-15.729" transform="translate(-7.732 -701.475)" fill="#2f539b"/>
            <path id="Trazado_193125" data-name="Trazado 193125" d="M5.656,1155.838H.031a3.089,3.089,0,0,1,.159-1.508c.282-.624.723-.908.617-1.663a2.026,2.026,0,0,0,1.753.671,6.176,6.176,0,0,0,.976,1.265c.368.264,2.007.17,2.12,1.235" transform="translate(0 -1051.267)" fill="#233862"/>
            <path id="Trazado_193126" data-name="Trazado 193126" d="M102.745,664.686c-.756.129.123.73-.916.842a18.783,18.783,0,0,0-3.807.591.859.859,0,0,0-.548.444c-.347,1.043-2.543,2.835-2.543,2.835-9.8-.446-10.427-4.812-10.427-4.812,6.358-6.175,11.767-9.54,16.237-9.957a7.952,7.952,0,0,1,3.242.341,5.831,5.831,0,0,1,2.42,2.814s-.788,6.412-3.659,6.9" transform="translate(-77.07 -597.011)" fill="#739af0"/>
            <path id="Trazado_193127" data-name="Trazado 193127" d="M241.649,696.246a18.787,18.787,0,0,0-3.807.591,15.6,15.6,0,0,1,1.979-8.561s1.5,6.121,1.828,7.969" transform="translate(-216.891 -627.729)" fill="#5a7de0"/>
            <path id="Trazado_193128" data-name="Trazado 193128" d="M249.1,678.83s-3.72-.2-4.381,2.132,1.24,11.658,1.65,12.62a68.7,68.7,0,0,0,4.507,6.969l1.206-.624s-2.421-7.638-2.962-8.394c-.849-1.186,1.094-11.687-.02-12.7" transform="translate(-223.062 -619.109)" fill="#ffb27d"/>
            <path id="Trazado_193129" data-name="Trazado 193129" d="M315.664,917.014a5.491,5.491,0,0,1,.561.576c.25.306.03.416.749,1.8,0,0-.037.192-.193.157s-.7-.572-.977-.534c0,0-.2.164-.221.706a13.093,13.093,0,0,1-.11,1.841c-.088.211-.734-.884-1.052-1.676a10.814,10.814,0,0,1-.007-3.035Z" transform="translate(-286.648 -836.196)" fill="#ffb27d"/>
            <path id="Trazado_193130" data-name="Trazado 193130" d="M237.81,676.934c.01.055,3.52.646,5.716-.469,0,0,1.834-5.747-.787-5.472s-4.174,1.1-4.24,2.356a24.153,24.153,0,0,1-.689,3.585" transform="translate(-216.89 -611.958)" fill="#739af0"/>
            <path id="Trazado_193131" data-name="Trazado 193131" d="M304.941,640.175a2.337,2.337,0,0,0,.706,1.636c.466.48,1.14.855,1.613.382a5.146,5.146,0,0,0,.732-.884c.409-.7.9-1.422.9-1.422l-2.106-1.845-.126-.11a5.365,5.365,0,0,1-1.569,1.78.489.489,0,0,0-.148.463" transform="translate(-278.111 -581.813)" fill="#ffb27d"/>
            <path id="Trazado_193132" data-name="Trazado 193132" d="M327.63,641.03s-.487.717-.9,1.421a3.258,3.258,0,0,1-1.209-3.266Z" transform="translate(-296.853 -582.955)" fill="#ed985f"/>
            <path id="Trazado_193133" data-name="Trazado 193133" d="M326.784,602.947s-3.178-1.768-2.046-3.73,1.484-3.511,3.56-2.465,2.036,2.02,1.817,2.767-2.476,3.838-3.331,3.429" transform="translate(-295.949 -543.949)" fill="#ffb27d"/>
            <path id="Trazado_193134" data-name="Trazado 193134" d="M327.19,595.62c-.145-.871-.588-.954-.9-.9a2.541,2.541,0,0,0-3.091-1.183,4.326,4.326,0,0,1-2.5,1.5s.369.686,1.888,1.111a2.6,2.6,0,0,0,1.5-.12,8.486,8.486,0,0,1-2.156.813c2,.183,3.907-1.647,4.1-1.843a2.849,2.849,0,0,1,.157,1.312c-.132.59-.656,1.659-.336,1.8,0,0,1.553-1.188,1.335-2.494" transform="translate(-292.486 -541.194)" fill="#2c3a64"/>
            <path id="Trazado_193135" data-name="Trazado 193135" d="M437.023,856.636s-.887.665-.218,1.1,1.861.552,1.866.267c.017-.957-.461-1.638-1.648-1.367" transform="translate(-398.152 -781.223)" fill="#ffb27d"/>
            <path id="Trazado_193136" data-name="Trazado 193136" d="M1621.2,803.453H1577.1c-6.149-7.067-5.895-15.67,2.5-23.483a15.87,15.87,0,0,1,6.259-3.418,56.5,56.5,0,0,1,8.385-1.167c.013,0,4.932-.69,6.336-2.4,4.359-5.3,5.479-6.06,5.479-6.06,4.443-.868,8.233-1.124,11.043.448v0c2.6,1.458,4.365,4.484,5.024,10.046.125,1.052.211,2.194.255,3.434a94.792,94.792,0,0,0,1.573,11.928h0c.762,4.925,1.3,8.67-2.744,10.667" transform="translate(-1434.482 -698.829)" fill="#fff2bf"/>
            <path id="Trazado_193137" data-name="Trazado 193137" d="M1745.127,773.014c-2.7,1.469-2.994,6.307-7.214,7.556s-11.383,1.136-15.446,5.543c-3.92,4.252-8.243-6.566-6.382-9.609a56.738,56.738,0,0,1,8.385-1.162c.013,0,6.018-.029,7.421-1.728,4.359-5.277,4.394-6.69,4.394-6.69,4.443-.865,8.233-1.118,11.043.446h0c3.1,3.2.494,4.174-2.2,5.643" transform="translate(-1564.715 -698.83)" fill="#ccc198"/>
            <path id="Trazado_193138" data-name="Trazado 193138" d="M1917.54,908.12c-6.188-7.724-18.9,2.806-22.189,2.509-3.024-.273,5.9-10.83,16.962-12.4,4.472-.635,3.4-5.257,3.4-5.4.125,1.047.211,2.184.255,3.418a93.886,93.886,0,0,0,1.573,11.874" transform="translate(-1728.074 -814.286)" fill="#ccc198"/>
            <path id="Trazado_193139" data-name="Trazado 193139" d="M1725.536,1075.178a12.83,12.83,0,0,0-.658,2.889,7.651,7.651,0,0,1-2.591,2.2c-.5-.224-.022-1.088.281-1.719.012-.025.024-.051.036-.076.3-.637.042-2.057.2-2.792a8.125,8.125,0,0,0-.589-2.709l1.253-1.582s.88,1.675,1.51,1.98a1.547,1.547,0,0,1,.307.2,1.224,1.224,0,0,1,.256,1.613" transform="translate(-1570.581 -977.139)" fill="#ffb27d"/>
            <path id="Trazado_193140" data-name="Trazado 193140" d="M1883.861,635.937a5.3,5.3,0,0,0-3.209,1.483,6.839,6.839,0,0,0-1.547,2.121c-.827,1.886-.542,4.08-1.014,5.284s-.756,1.414,0,1.959.883,1.064-.021,1.642-1.57,2.379.95,2.535,7.405-.758,8.033-1.224,2.343-1.159,3.165-2.406c1.644-2.493.334-4.167-.935-4.589-1.934-.643-1.223-7.157-5.422-6.805" transform="translate(-1712.116 -579.982)" fill="#163560"/>
            <path id="Trazado_193141" data-name="Trazado 193141" d="M1854.853,754.765s-2.5,5.641-3.019,6.132-2.958,1.449-2.739,2.271,2.054,1.616,2.821,1.424,2.712-3.506,2.712-3.506Z" transform="translate(-1686.418 -688.369)" fill="#739af0"/>
            <path id="Trazado_193142" data-name="Trazado 193142" d="M1851.551,802.785s.135-.97,2.5-1.283c1.314-.174,3.513-3.839,3.513-3.839l-2.2,5.779-2.13.921Z" transform="translate(-1688.67 -727.493)" fill="#5a7de0"/>
            <path id="Trazado_193143" data-name="Trazado 193143" d="M1712.946,874.648s-12.332-.863-14.022,1.094c-1.341,1.553,1.1,18.519,1.1,18.519s3.356.1,3.62-.791c0,0-.627-8.237-.1-9.661a7.921,7.921,0,0,0,.193-3.4s6.566.983,8.649.485.561-6.249.561-6.249" transform="translate(-1549.103 -797.532)" fill="#233862"/>
            <path id="Trazado_193144" data-name="Trazado 193144" d="M1651.239,1126.131a12.83,12.83,0,0,0-2.367,1.782,7.655,7.655,0,0,1-3.4.01c-.244-.51.761-.873,1.4-1.167l.028-.013h0c.632-.318,1.339-1.538,1.922-1.992a8.124,8.124,0,0,0,1.3-2.45l1.978-.4a6.379,6.379,0,0,0-.123,2.487,1.633,1.633,0,0,1,.068.183,1.227,1.227,0,0,1-.805,1.563" transform="translate(-1500.687 -1023.206)" fill="#ffb27d"/>
            <path id="Trazado_193145" data-name="Trazado 193145" d="M1711.9,883.462s-13.455,1.367-14.638,2.741-5.832,19.232-5.832,19.232a2.89,2.89,0,0,0,2.621.05s3.56-6.058,5.135-7.96,2.135-6.869,2.975-7.4c.225-.143,8.142.747,11.046-1.481s-1.307-5.177-1.307-5.177" transform="translate(-1542.633 -805.744)" fill="#2a4e96"/>
            <path id="Trazado_193146" data-name="Trazado 193146" d="M1863.8,750.154a15.5,15.5,0,0,1-1.123,1.845,6.131,6.131,0,0,1-3.437,2.676c-1.836.381-7.989-3.191-7.678-5.161.169-1.072,3.589-3,4.141-3.778s.883-4.678,1.177-6.27c.219-1.185.954-1.308,1.871-1.623a9.089,9.089,0,0,1,6.677.077c1.784,1,.792,7.6-1.628,12.233" transform="translate(-1688.671 -672.411)" fill="#739af0"/>
            <path id="Trazado_193147" data-name="Trazado 193147" d="M1940.174,646.813a16.984,16.984,0,0,0,.293-1.977c.06-.729-1.048-3.106-2.768-3.008a3.646,3.646,0,0,0-1.452.711c-.543.446-1.3,1.371-.146,3.6l.317.761Z" transform="translate(-1765.232 -585.363)" fill="#163560"/>
            <path id="Trazado_193148" data-name="Trazado 193148" d="M1947.625,706.762c.056.407.419.64,1.226.588s1.979-.549,1.882-.926a11.206,11.206,0,0,1-.6-3.08l-.149.042-2.5.7s.121.794.181,1.547a9.818,9.818,0,0,1-.045,1.128" transform="translate(-1776.168 -641.471)" fill="#ffb27d"/>
            <path id="Trazado_193149" data-name="Trazado 193149" d="M1947.488,704.518s.121.794.181,1.547a3.021,3.021,0,0,0,2.318-2.249Z" transform="translate(-1776.168 -641.901)" fill="#f4a269"/>
            <path id="Trazado_193150" data-name="Trazado 193150" d="M1924.449,662.821s3.271-.823,2.727-2.851-.488-3.5-2.6-3.062-2.308,1.322-2.291,2.043,1.3,4.032,2.163,3.87" transform="translate(-1753.183 -599.048)" fill="#ffb27d"/>
            <path id="Trazado_193151" data-name="Trazado 193151" d="M1931.33,654.208a4.6,4.6,0,0,0,3.169,2.318,1.811,1.811,0,0,1,1.545.931,19.02,19.02,0,0,0-.973-3.68s-3.373-.882-3.741.432" transform="translate(-1761.431 -596)" fill="#163560"/>
            <path id="Trazado_193152" data-name="Trazado 193152" d="M1920.245,661.289a5.7,5.7,0,0,0-.937,1.246,3.973,3.973,0,0,0,.574,2.717s-1.522-2.582-1.013-3.7a.769.769,0,0,1,1.376-.263" transform="translate(-1749.971 -602.804)" fill="#163560"/>
            <path id="Trazado_193153" data-name="Trazado 193153" d="M1777.376,873.644s-.651.69-.731.727a4.5,4.5,0,0,1-1.237.15c-.263.066-.218-.1-.024-.23s.671-.081.476-.129a5.3,5.3,0,0,0-1.644-.139,1.477,1.477,0,0,1-1.162-.094,5.16,5.16,0,0,1,1.853-.759c.421.024,1.63-.034,1.63-.034Z" transform="translate(-1617.078 -796.326)" fill="#ffb27d"/>
            <path id="Trazado_193154" data-name="Trazado 193154" d="M1926.546,759.135s.391,9.592-.736,10.937c-1.093,1.3-5.764.419-7.782-.019a.567.567,0,0,0-.45.13c-.157.142-.226-.96-.226-.96s6.092-.892,6.5-1.007c.588-.166.179-6.772.179-6.772Z" transform="translate(-1748.682 -692.354)" fill="#ffb27d"/>
            <path id="Trazado_193155" data-name="Trazado 193155" d="M1897.386,877.111s-.546.553-.754.836-1.659.794-1.692.643.65-.612.711-.784a3.047,3.047,0,0,1,1.259-1.133c.453-.1.475.438.475.438" transform="translate(-1728.242 -799.542)" fill="#ffb27d"/>
            <path id="Trazado_193156" data-name="Trazado 193156" d="M1880.469,873.8s-2.238.518-2.618.673-1.186,1.3-.866,1.466c.2.108,1.085-.358,1.534-.455s1.719.123,2.3-1.025c.065-.129-.35-.659-.35-.659" transform="translate(-1711.8 -796.937)" fill="#ffb27d"/>
            <path id="Trazado_193157" data-name="Trazado 193157" d="M1651.239,1153.806a12.841,12.841,0,0,0-2.367,1.782,7.655,7.655,0,0,1-3.4.01c-.244-.51.761-.873,1.4-1.167l.028-.013h0l.09-.029a3.538,3.538,0,0,0,2.27,0,27.48,27.48,0,0,0,2.782-2.144,1.227,1.227,0,0,1-.805,1.563" transform="translate(-1500.687 -1050.88)" fill="#2a4e96"/>
            <path id="Trazado_193158" data-name="Trazado 193158" d="M1725.536,1097.733a12.827,12.827,0,0,0-.658,2.889,7.655,7.655,0,0,1-2.591,2.2c-.5-.224-.022-1.088.281-1.72a1.407,1.407,0,0,0,.692-.258,5.023,5.023,0,0,0,1.614-2.644c.07-.685.026-1.667.407-2.082a1.225,1.225,0,0,1,.256,1.613" transform="translate(-1570.581 -999.695)" fill="#193b72"/>
            <path id="Trazado_193159" data-name="Trazado 193159" d="M1753.056,825.8h-9.75l-2.933-7.293h9.735Z" transform="translate(-1587.273 -746.504)" fill="#ef8035"/>
            <path id="Trazado_193160" data-name="Trazado 193160" d="M1772.413,898.183h12.875v.284h-12.76Z" transform="translate(-1616.494 -819.17)" fill="#ed7d2b"/>
            <path id="Trazado_193161" data-name="Trazado 193161" d="M1801.495,855.147a.338.338,0,0,1,.331-.464.665.665,0,0,1,.6.464.338.338,0,0,1-.331.464.665.665,0,0,1-.6-.464" transform="translate(-1643 -779.497)" fill="#fff"/>
            <path id="Trazado_193162" data-name="Trazado 193162" d="M1938.947,883.739a15.5,15.5,0,0,1-1.123,1.846c-3.125-.117-3.878-1.38-3.878-1.38Z" transform="translate(-1763.816 -805.997)" fill="#5a7de0"/>
            <path id="Trazado_193163" data-name="Trazado 193163" d="M1935.6,792.839s3.568-.819,4.011-1.586,1.064-5.874,1.064-5.874l1.489,1.908-.3,4.49a16.546,16.546,0,0,1-1.808,1.619c-.109-.061-4.454-.557-4.454-.557" transform="translate(-1765.328 -716.29)" fill="#5a7de0"/>
            <path id="Trazado_193164" data-name="Trazado 193164" d="M1938.92,744.676a3.153,3.153,0,0,1,1.172,1.022c.62,1.133,1.282,9.914-.48,11.364s-6.877,1.162-7.479.134a3.032,3.032,0,0,1,.3-1.481s4.6-.608,4.81-.9-.149-6.511.068-7.076,1.6-3.066,1.6-3.066" transform="translate(-1762.162 -679.167)" fill="#739af0"/>
            <path id="Trazado_193165" data-name="Trazado 193165" d="M1819.631,884.381s-1.329,1.245-6.891,1.424c-4.349.14-8.93,1.893-11.07,4.9a8.591,8.591,0,0,0-1.167,3.155c-.291,1.712,10.556,4.373,10.73,4.124s7.144-6.236,7.144-6.236Z" transform="translate(-1642.107 -806.582)" fill="#fffbe9"/>
            <path id="Trazado_193166" data-name="Trazado 193166" d="M1446.308,494s5.409,5.608,5.664,7.719-2.591,5.406-2.591,5.406Z" transform="translate(-1319.076 -450.54)" fill="#ed7d2b"/>
            <path id="Trazado_193167" data-name="Trazado 193167" d="M1342.689,1144.715s-.191,2.975-.767,3.016c-.077.006-2.919,0-2.919,0l-3.629-.029a1.178,1.178,0,0,1,1.087-1.057,4.92,4.92,0,0,0,3.484-2.325c.679-1.474,2.744.4,2.744.4" transform="translate(-1217.901 -1043.138)" fill="#0e2644"/>
            <path id="Trazado_193168" data-name="Trazado 193168" d="M1434.57,1144.915s-.191,2.975-.766,3.016c-.077.005-2.919,0-2.919,0l-3.629-.029a1.177,1.177,0,0,1,1.087-1.057,4.919,4.919,0,0,0,3.484-2.325c.679-1.473,2.744.4,2.744.4" transform="translate(-1301.7 -1043.32)" fill="#0e2644"/>
            <path id="Trazado_193169" data-name="Trazado 193169" d="M1373.629,744.19a119.8,119.8,0,0,0,4.453,16.856c3.517,10.783,3.99,15.451,3.99,15.451l3.8-.1s.058-11.776-1.562-17.2-.31-19.536-.31-19.536Z" transform="translate(-1252.791 -674.596)" fill="#163560"/>
            <path id="Trazado_193170" data-name="Trazado 193170" d="M1352.678,743.142a147.344,147.344,0,0,0,1.4,20.382c1.558,11.235,1.011,16,1.011,16l3.79.134s2.29-11.231,1.652-16.854,3.144-19.284,3.144-19.284Z" transform="translate(-1233.68 -677.768)" fill="#1c468a"/>
            <path id="Trazado_193171" data-name="Trazado 193171" d="M1385.449,453.092l-2.023,1.32-2.917-.55c.041-.236.236-1.212.413-2.1.011-.052.021-.1.031-.155.152-.752.283-1.4.283-1.4l2.729-1.2,1.017-.446c0,.016-.081.835-.092.955a6.949,6.949,0,0,0,.558,3.569" transform="translate(-1259.066 -409.109)" fill="#ffb27d"/>
            <path id="Trazado_193172" data-name="Trazado 193172" d="M1376.908,482.725a24.474,24.474,0,0,1,3.892-.912c.375.125.6.852.6.852l-5.659,1.267a2.809,2.809,0,0,1,1.171-1.207" transform="translate(-1254.714 -439.419)" fill="#ed7d2b"/>
            <path id="Trazado_193173" data-name="Trazado 193173" d="M1358.423,514.578c-.592,2.673-10.348,2.969-12.858.536-.285-.277-.3-1.565-.185-3.3.219-3.391.907-8.49.939-11.1a20.68,20.68,0,0,1,.424-3.714,30.186,30.186,0,0,1,1.247-4.443s4.768-1.53,5.659-1.266c4.293,1.271,5.365,20.611,4.773,23.283" transform="translate(-1226.967 -448.048)" fill="#f99746"/>
            <path id="Trazado_193174" data-name="Trazado 193174" d="M1346.062,566.147c.219-3.391.907-8.49.939-11.1a20.657,20.657,0,0,1,.424-3.714l2.867-.5s2.778,11.453-4.231,15.309" transform="translate(-1227.649 -502.381)" fill="#ed7d2b"/>
            <path id="Trazado_193175" data-name="Trazado 193175" d="M1355.319,666.568a.675.675,0,0,1-.217.78,1.307,1.307,0,0,0-.585,1.191c.093.372.992.979,1.3.882s.948-.585.88-.781.431-1.718-.329-2.305a.614.614,0,0,0-1.054.232" transform="translate(-1235.344 -607.525)" fill="#ffb27d"/>
            <path id="Trazado_193176" data-name="Trazado 193176" d="M1313.581,498.261a8.684,8.684,0,0,0-5.031,3.795c-2.234,3.278-3.705,5.715-3.3,6.9s4.139,5.3,4.784,5.3a1.729,1.729,0,0,0,1.747-1.52s-2.625-3.952-2.1-4.542c.222-.252,3.425-2.841,3.879-1.667.751,1.941.024-8.26.024-8.26" transform="translate(-1190.368 -454.429)" fill="#f99746"/>
            <path id="Trazado_193177" data-name="Trazado 193177" d="M1388.97,454.184c-.6,1.013-2.834,1.885-3.765,2.205.011-.052.021-.1.031-.155.152-.752.283-1.4.283-1.4l2.729-1.2c.6-.007.969.129.721.546" transform="translate(-1263.349 -413.732)" fill="#fca56b"/>
            <path id="Trazado_193178" data-name="Trazado 193178" d="M1371.453,390.456s4.388,1.379,5.205-1.367,1.933-4.417-.834-5.414-3.626-.112-4.121.739-1.37,5.613-.25,6.042" transform="translate(-1250.309 -349.52)" fill="#ffb27d"/>
            <path id="Trazado_193179" data-name="Trazado 193179" d="M1377.657,368.6s.273,3.2.935,3.061,1.261-.239,1.163.725-1.018,2.075,1.019,2.25,4.979-5.074,4.421-6.071c-1.609-2.875-9.865-3.472-7.538.036" transform="translate(-1256.091 -333.971)" fill="#163560"/>
            <path id="Trazado_193180" data-name="Trazado 193180" d="M1695.8,482.964a.208.208,0,1,0,.156.25.208.208,0,0,0-.156-.25" transform="translate(-1546.386 -440.473)" fill="#d5e5fb"/>
            <path id="Trazado_193181" data-name="Trazado 193181" d="M1693.34,493.638a.208.208,0,1,0,.156.25.208.208,0,0,0-.156-.25" transform="translate(-1544.145 -450.208)" fill="#d5e5fb"/>
            <path id="Trazado_193182" data-name="Trazado 193182" d="M1691.007,504.7a.208.208,0,1,0-.25.156.208.208,0,0,0,.25-.156" transform="translate(-1541.875 -460.072)" fill="#d5e5fb"/>
            <path id="Trazado_193183" data-name="Trazado 193183" d="M576.066,491.171c-.1-.4.078-.715.45-.715a.873.873,0,0,1,.791.713c.1.4-.076.715-.449.715a.87.87,0,0,1-.792-.713m.926,0c-.061-.251-.23-.44-.414-.44s-.259.184-.2.441.228.44.414.439.258-.186.2-.441" transform="translate(-525.365 -447.311)" fill="#f99746"/>
            <path id="Trazado_193184" data-name="Trazado 193184" d="M511.7,377.38l-.229.06-.124-.249.372-.119h.21l.337,1.391h-.3Z" transform="translate(-466.366 -343.901)" fill="#2f539b"/>
            <path id="Trazado_193185" data-name="Trazado 193185" d="M527.466,377.6c-.1-.4.078-.715.45-.715a.873.873,0,0,1,.791.713c.1.4-.076.715-.45.715a.87.87,0,0,1-.791-.713m.926,0c-.061-.251-.23-.44-.414-.44s-.259.184-.2.441.228.44.414.439.258-.186.2-.441" transform="translate(-481.04 -343.734)" fill="#2f539b"/>
            <path id="Trazado_193186" data-name="Trazado 193186" d="M601.814,596.107c-.1-.4.078-.715.449-.715a.873.873,0,0,1,.792.713c.1.4-.076.715-.45.715a.869.869,0,0,1-.791-.713m.926,0c-.061-.251-.23-.44-.414-.44s-.259.184-.2.441.228.44.414.439.258-.186.2-.441" transform="translate(-548.849 -543.016)" fill="#2f539b"/>
            <path id="Trazado_193187" data-name="Trazado 193187" d="M529.594,451.273l-.229.06-.124-.249.372-.119h.21l.337,1.391h-.3Z" transform="translate(-482.684 -411.293)" fill="#2f539b"/>
            <path id="Trazado_193188" data-name="Trazado 193188" d="M545.358,451.5c-.1-.4.078-.715.45-.715a.873.873,0,0,1,.791.713c.1.4-.076.715-.449.715a.87.87,0,0,1-.792-.713m.926,0c-.061-.251-.23-.44-.414-.44s-.259.184-.2.441.228.44.414.44.258-.186.2-.441" transform="translate(-497.359 -411.127)" fill="#2f539b"/>
            <path id="Trazado_193189" data-name="Trazado 193189" d="M539.9,414.1l-.229.06-.124-.249.372-.119h.21l.337,1.391h-.3Z" transform="translate(-492.084 -377.39)" fill="#f99746"/>
            <path id="Trazado_193190" data-name="Trazado 193190" d="M555.665,414.325c-.1-.4.078-.715.449-.715a.873.873,0,0,1,.791.713c.1.4-.076.715-.449.715a.869.869,0,0,1-.791-.713m.926,0c-.061-.251-.23-.44-.414-.44s-.259.184-.2.441.228.44.414.439.258-.186.2-.441" transform="translate(-506.759 -377.225)" fill="#f99746"/>
            <path id="Trazado_193191" data-name="Trazado 193191" d="M539.209,490.982l-.229.06-.124-.249.372-.119h.21l.337,1.391h-.3Z" transform="translate(-491.453 -447.509)" fill="#2f539b"/>
            <path id="Trazado_193192" data-name="Trazado 193192" d="M554.973,491.206c-.1-.4.078-.715.45-.715a.873.873,0,0,1,.792.713c.1.4-.076.715-.45.715a.869.869,0,0,1-.791-.713m.926,0c-.061-.251-.23-.44-.414-.44s-.259.184-.2.441.228.44.414.439.258-.186.2-.441" transform="translate(-506.128 -447.343)" fill="#2f539b"/>
            <path id="Trazado_193193" data-name="Trazado 193193" d="M587.3,377.586c-.1-.4.078-.715.449-.715a.873.873,0,0,1,.792.713c.1.4-.076.715-.449.715a.869.869,0,0,1-.791-.713m.926,0c-.061-.251-.23-.44-.414-.44s-.259.184-.2.441.228.44.414.44.258-.186.2-.441" transform="translate(-535.615 -343.718)" fill="#f99746"/>
            <path id="Trazado_193194" data-name="Trazado 193194" d="M550.447,377.4l-.229.06-.124-.249.372-.119h.21l.337,1.391h-.3Z" transform="translate(-501.702 -343.917)" fill="#2f539b"/>
            <path id="Trazado_193195" data-name="Trazado 193195" d="M566.211,377.622c-.1-.4.078-.715.449-.715a.873.873,0,0,1,.791.713c.1.4-.076.715-.449.715a.869.869,0,0,1-.792-.713m.926,0c-.061-.251-.23-.44-.414-.44s-.259.184-.2.441.228.44.414.44.258-.186.2-.441" transform="translate(-516.377 -343.751)" fill="#2f539b"/>
            <path id="Trazado_193196" data-name="Trazado 193196" d="M594.435,567.876c-.1-.4.078-.715.45-.715a.873.873,0,0,1,.791.713c.1.4-.076.715-.45.716a.87.87,0,0,1-.791-.713m.926,0c-.061-.251-.23-.44-.414-.44s-.259.184-.2.441.228.44.414.44.258-.186.2-.441" transform="translate(-542.119 -517.268)" fill="#f99746"/>
            <path id="Trazado_193197" data-name="Trazado 193197" d="M547.965,527.977l-.229.06-.124-.249.372-.119h.21l.337,1.391h-.3Z" transform="translate(-499.438 -481.249)" fill="#2f539b"/>
            <path id="Trazado_193198" data-name="Trazado 193198" d="M563.728,528.2c-.1-.4.078-.715.449-.716a.873.873,0,0,1,.792.713c.1.4-.076.715-.449.715a.869.869,0,0,1-.791-.713m.926,0c-.061-.251-.23-.44-.414-.44s-.259.184-.2.441.228.44.414.44.258-.186.2-.441" transform="translate(-514.112 -481.084)" fill="#2f539b"/>
            <path id="Trazado_193199" data-name="Trazado 193199" d="M584.821,528.168c-.1-.4.078-.715.449-.715a.873.873,0,0,1,.792.713c.1.4-.076.715-.449.715a.87.87,0,0,1-.791-.713m.926,0c-.061-.251-.23-.44-.414-.44s-.259.184-.2.441.228.44.414.44.258-.186.2-.441" transform="translate(-533.35 -481.052)" fill="#2f539b"/>
            <path id="Trazado_193200" data-name="Trazado 193200" d="M604.143,527.882l-.229.06-.124-.249.372-.119h.21l.337,1.391h-.3Z" transform="translate(-550.675 -481.163)" fill="#2f539b"/>
            <path id="Trazado_193201" data-name="Trazado 193201" d="M557.58,567.686l-.229.06-.124-.249.372-.119h.21l.337,1.391h-.3Z" transform="translate(-508.207 -517.465)" fill="#2f539b"/>
            <path id="Trazado_193202" data-name="Trazado 193202" d="M573.343,567.911c-.1-.4.078-.715.45-.715a.873.873,0,0,1,.791.713c.1.4-.076.715-.449.715a.869.869,0,0,1-.792-.713m.926,0c-.061-.251-.23-.44-.414-.44s-.259.184-.2.441.228.44.414.44.258-.186.2-.441" transform="translate(-522.882 -517.3)" fill="#2f539b"/>
            <path id="Trazado_193203" data-name="Trazado 193203" d="M613.087,655.923c-.1-.4.078-.715.45-.716a.873.873,0,0,1,.791.713c.1.4-.076.715-.449.715a.869.869,0,0,1-.792-.713m.926,0c-.061-.251-.23-.44-.414-.44s-.259.184-.2.441.228.44.414.44.258-.186.2-.44" transform="translate(-559.13 -597.569)" fill="#2f539b"/>
            <path id="Trazado_193204" data-name="Trazado 193204" d="M632.411,655.638l-.229.06-.124-.248.372-.119h.21l.337,1.391h-.3Z" transform="translate(-576.455 -597.68)" fill="#2f539b"/>
            <path id="Trazado_193205" data-name="Trazado 193205" d="M576.231,655.732l-.229.06-.124-.249.372-.119h.21l.337,1.391h-.3Z" transform="translate(-525.218 -597.767)" fill="#2f539b"/>
            <path id="Trazado_193206" data-name="Trazado 193206" d="M591.995,655.957c-.1-.4.078-.715.449-.715a.873.873,0,0,1,.791.713c.1.4-.076.715-.449.715a.87.87,0,0,1-.792-.713m.926,0c-.061-.251-.23-.44-.414-.44s-.259.184-.2.441.228.44.414.44.258-.186.2-.441" transform="translate(-539.893 -597.601)" fill="#2f539b"/>
            <path id="Trazado_193207" data-name="Trazado 193207" d="M648.174,655.862c-.1-.4.078-.715.45-.715a.873.873,0,0,1,.791.713c.1.4-.076.715-.449.715a.87.87,0,0,1-.792-.713m.926,0c-.061-.251-.23-.44-.414-.44s-.259.184-.2.441.228.44.414.44.258-.186.2-.441" transform="translate(-591.13 -597.514)" fill="#f99746"/>
            <path id="Trazado_193208" data-name="Trazado 193208" d="M669.267,655.827c-.1-.4.078-.715.449-.715a.873.873,0,0,1,.791.713c.1.4-.076.715-.45.715a.87.87,0,0,1-.791-.713m.926,0c-.061-.251-.23-.44-.414-.44s-.259.184-.2.441.228.44.414.439.258-.186.2-.441" transform="translate(-610.368 -597.482)" fill="#f99746"/>
            <path id="Trazado_193209" data-name="Trazado 193209" d="M587.025,684.244c-.1-.4.078-.715.45-.715a.873.873,0,0,1,.791.713c.1.4-.076.715-.449.716a.87.87,0,0,1-.792-.713m.926,0c-.061-.251-.23-.44-.414-.44s-.259.184-.2.441.228.44.414.44.258-.186.2-.441" transform="translate(-535.36 -623.399)" fill="#2f539b"/>
            <path id="Trazado_193210" data-name="Trazado 193210" d="M606.348,683.96l-.229.06-.124-.249.372-.119h.21l.337,1.391h-.3Z" transform="translate(-552.686 -623.511)" fill="#2f539b"/>
            <path id="Trazado_193211" data-name="Trazado 193211" d="M622.112,684.184c-.1-.4.078-.715.449-.715a.873.873,0,0,1,.791.713c.1.4-.076.715-.45.715a.869.869,0,0,1-.791-.713m.926,0c-.061-.251-.23-.44-.414-.44s-.259.184-.2.441.228.44.414.44.258-.186.2-.441" transform="translate(-567.361 -623.344)" fill="#2f539b"/>
            <path id="Trazado_193212" data-name="Trazado 193212" d="M643.2,684.149c-.1-.4.078-.715.449-.715a.873.873,0,0,1,.791.713c.1.4-.076.715-.449.715a.869.869,0,0,1-.792-.713m.926,0c-.061-.251-.23-.44-.414-.44s-.259.184-.2.441.228.44.414.44.258-.186.2-.441" transform="translate(-586.598 -623.313)" fill="#2f539b"/>
            <path id="Trazado_193213" data-name="Trazado 193213" d="M1251.2,655.923c-.1-.4.078-.715.449-.716a.874.874,0,0,1,.792.713c.1.4-.077.715-.45.715a.869.869,0,0,1-.792-.713m.926,0c-.061-.251-.23-.44-.414-.44s-.259.184-.2.441.228.44.414.44.258-.186.2-.44" transform="translate(-1141.11 -597.569)" fill="#2f539b"/>
            <path id="Trazado_193214" data-name="Trazado 193214" d="M1270.526,655.638l-.229.06-.124-.248.372-.119h.21l.337,1.391h-.3Z" transform="translate(-1158.436 -597.68)" fill="#2f539b"/>
            <path id="Trazado_193215" data-name="Trazado 193215" d="M1214.346,655.732l-.229.06-.124-.249.372-.119h.209l.337,1.391h-.3Z" transform="translate(-1107.198 -597.767)" fill="#2f539b"/>
            <path id="Trazado_193216" data-name="Trazado 193216" d="M1230.11,655.957c-.1-.4.078-.715.449-.715a.874.874,0,0,1,.792.713c.1.4-.076.715-.45.715a.869.869,0,0,1-.791-.713m.926,0c-.061-.251-.23-.44-.414-.44s-.259.184-.2.441.228.44.414.44.258-.186.2-.441" transform="translate(-1121.873 -597.601)" fill="#2f539b"/>
            <path id="Trazado_193217" data-name="Trazado 193217" d="M1286.29,655.862c-.1-.4.078-.715.449-.715a.873.873,0,0,1,.792.713c.1.4-.076.715-.45.715a.869.869,0,0,1-.791-.713m.926,0c-.061-.251-.23-.44-.414-.44s-.259.184-.2.441.228.44.414.44.258-.186.2-.441" transform="translate(-1173.111 -597.514)" fill="#f99746"/>
            <path id="Trazado_193218" data-name="Trazado 193218" d="M1307.383,655.827c-.1-.4.078-.715.449-.715a.873.873,0,0,1,.792.713c.1.4-.076.715-.449.715a.87.87,0,0,1-.792-.713m.926,0c-.061-.251-.23-.44-.414-.44s-.259.184-.2.441.228.44.414.439.258-.186.2-.441" transform="translate(-1192.348 -597.482)" fill="#f99746"/>
            <path id="Trazado_193219" data-name="Trazado 193219" d="M1166.849,684.244c-.1-.4.078-.715.449-.715a.873.873,0,0,1,.791.713c.1.4-.076.715-.449.716a.869.869,0,0,1-.791-.713m.926,0c-.061-.251-.23-.44-.414-.44s-.259.184-.2.441.228.44.414.44.258-.186.2-.441" transform="translate(-1064.177 -623.399)" fill="#2f539b"/>
            <path id="Trazado_193220" data-name="Trazado 193220" d="M1186.171,683.96l-.229.06-.124-.249.372-.119h.209l.337,1.391h-.3Z" transform="translate(-1081.501 -623.511)" fill="#2f539b"/>
            <path id="Trazado_193221" data-name="Trazado 193221" d="M1201.935,684.184c-.1-.4.078-.715.45-.715a.873.873,0,0,1,.792.713c.1.4-.076.715-.45.715a.87.87,0,0,1-.792-.713m.926,0c-.061-.251-.23-.44-.414-.44s-.259.184-.2.441.228.44.414.44.258-.186.2-.441" transform="translate(-1096.177 -623.344)" fill="#2f539b"/>
            <path id="Trazado_193222" data-name="Trazado 193222" d="M1223.027,684.149c-.1-.4.078-.715.45-.715a.873.873,0,0,1,.792.713c.1.4-.076.715-.45.715a.869.869,0,0,1-.792-.713m.926,0c-.061-.251-.23-.44-.414-.44s-.259.184-.2.441.228.44.414.44.258-.186.2-.441" transform="translate(-1115.413 -623.313)" fill="#2f539b"/>
            <path id="Trazado_193223" data-name="Trazado 193223" d="M639.876,758.37c-.1-.4.078-.715.45-.715a.873.873,0,0,1,.791.713c.1.4-.076.715-.45.715a.87.87,0,0,1-.791-.713m.926,0c-.061-.251-.23-.44-.414-.44s-.259.184-.2.441.228.44.414.44.258-.186.2-.441" transform="translate(-583.562 -691.004)" fill="#f99746"/>
            <path id="Trazado_193224" data-name="Trazado 193224" d="M659.2,758.086l-.229.06-.124-.249.372-.119h.21l.337,1.391h-.3Z" transform="translate(-600.887 -691.116)" fill="#f99746"/>
            <path id="Trazado_193225" data-name="Trazado 193225" d="M593.405,718.472l-.229.06-.124-.249.372-.119h.21l.337,1.391h-.3Z" transform="translate(-540.881 -654.987)" fill="#2f539b"/>
            <path id="Trazado_193226" data-name="Trazado 193226" d="M609.169,718.7c-.1-.4.078-.715.449-.715a.873.873,0,0,1,.792.713c.1.4-.076.715-.449.715a.869.869,0,0,1-.791-.713m.926,0c-.061-.251-.23-.44-.414-.44s-.259.184-.2.441.228.44.414.44.258-.186.2-.441" transform="translate(-555.556 -654.821)" fill="#2f539b"/>
            <path id="Trazado_193227" data-name="Trazado 193227" d="M630.262,718.661c-.1-.4.078-.715.449-.715a.873.873,0,0,1,.791.713c.1.4-.076.715-.449.715a.87.87,0,0,1-.792-.713m.926,0c-.061-.251-.23-.44-.414-.44s-.259.184-.2.441.228.44.414.44.258-.186.2-.441" transform="translate(-574.794 -654.788)" fill="#2f539b"/>
            <path id="Trazado_193228" data-name="Trazado 193228" d="M649.584,718.377l-.229.06-.124-.249.372-.119h.21l.337,1.391h-.3Z" transform="translate(-592.118 -654.9)" fill="#2f539b"/>
            <path id="Trazado_193229" data-name="Trazado 193229" d="M1210.852,718.472l-.229.06-.124-.249.372-.119h.209l.337,1.391h-.3Z" transform="translate(-1104.011 -654.987)" fill="#2f539b"/>
            <path id="Trazado_193230" data-name="Trazado 193230" d="M1226.615,718.7c-.1-.4.078-.715.449-.715a.873.873,0,0,1,.791.713c.1.4-.077.715-.449.715a.869.869,0,0,1-.791-.713m.926,0c-.061-.251-.23-.44-.414-.44s-.259.184-.2.441.228.44.414.44.258-.186.2-.441" transform="translate(-1118.686 -654.821)" fill="#2f539b"/>
            <path id="Trazado_193231" data-name="Trazado 193231" d="M1247.708,718.661c-.1-.4.078-.715.449-.715a.873.873,0,0,1,.791.713c.1.4-.076.715-.449.715a.87.87,0,0,1-.791-.713m.926,0c-.061-.251-.23-.44-.414-.44s-.259.184-.2.441.228.44.414.44.258-.186.2-.441" transform="translate(-1137.923 -654.788)" fill="#2f539b"/>
            <path id="Trazado_193232" data-name="Trazado 193232" d="M1267.031,718.377l-.229.06-.124-.249.372-.119h.209l.337,1.391h-.3Z" transform="translate(-1155.248 -654.9)" fill="#2f539b"/>
            <path id="Trazado_193233" data-name="Trazado 193233" d="M603.02,758.181l-.229.06-.124-.249.372-.119h.21l.337,1.391h-.3Z" transform="translate(-549.65 -691.202)" fill="#2f539b"/>
            <path id="Trazado_193234" data-name="Trazado 193234" d="M618.783,758.406c-.1-.4.078-.715.449-.715a.873.873,0,0,1,.791.713c.1.4-.076.715-.449.715a.869.869,0,0,1-.792-.713m.926,0c-.061-.251-.23-.44-.414-.44s-.259.184-.2.441.228.44.414.44.258-.186.2-.441" transform="translate(-564.325 -691.037)" fill="#2f539b"/>
            <path id="Trazado_193235" data-name="Trazado 193235" d="M674.963,758.311c-.1-.4.078-.715.449-.715a.873.873,0,0,1,.792.713c.1.4-.076.715-.45.715a.869.869,0,0,1-.791-.713m.926,0c-.061-.251-.23-.44-.414-.44s-.259.184-.2.441.228.44.414.44.258-.186.2-.441" transform="translate(-615.563 -690.95)" fill="#2f539b"/>
            <path id="Trazado_193236" data-name="Trazado 193236" d="M696.055,758.276c-.1-.4.078-.715.45-.715a.873.873,0,0,1,.792.713c.1.4-.076.715-.45.716a.87.87,0,0,1-.791-.713m.926,0c-.061-.251-.23-.44-.414-.44s-.259.184-.2.441.228.44.414.44.258-.186.2-.441" transform="translate(-634.799 -690.919)" fill="#2f539b"/>
            <path id="Trazado_193237" data-name="Trazado 193237" d="M648.009,786.406c-.1-.4.078-.715.449-.716a.873.873,0,0,1,.791.713c.1.4-.076.715-.449.715a.869.869,0,0,1-.791-.713m.926,0c-.061-.251-.23-.44-.414-.44s-.259.184-.2.441.228.44.414.44.258-.186.2-.441" transform="translate(-590.98 -716.574)" fill="#f99746"/>
            <path id="Trazado_193238" data-name="Trazado 193238" d="M667.332,786.122l-.229.06-.124-.249.372-.119h.21l.337,1.391h-.3Z" transform="translate(-608.305 -716.686)" fill="#f99746"/>
            <path id="Trazado_193239" data-name="Trazado 193239" d="M626.916,786.442c-.1-.4.078-.715.449-.715a.873.873,0,0,1,.792.713c.1.4-.076.715-.45.715a.869.869,0,0,1-.791-.713m.926,0c-.061-.251-.23-.44-.414-.44s-.259.184-.2.441.228.44.414.44.258-.186.2-.441" transform="translate(-571.742 -716.607)" fill="#2f539b"/>
            <path id="Trazado_193240" data-name="Trazado 193240" d="M683.1,786.347c-.1-.4.078-.715.449-.715a.873.873,0,0,1,.791.713c.1.4-.076.715-.449.715a.87.87,0,0,1-.792-.713m.926,0c-.061-.251-.23-.44-.414-.44s-.259.184-.2.441.228.44.414.44.258-.186.2-.441" transform="translate(-622.981 -716.52)" fill="#2f539b"/>
            <path id="Trazado_193241" data-name="Trazado 193241" d="M704.188,786.311c-.1-.4.078-.715.449-.715a.873.873,0,0,1,.791.713c.1.4-.076.715-.449.715a.87.87,0,0,1-.791-.713m.926,0c-.061-.251-.23-.44-.414-.44s-.259.184-.2.441.228.44.414.44.258-.186.2-.441" transform="translate(-642.217 -716.487)" fill="#2f539b"/>
            <path id="Trazado_193242" data-name="Trazado 193242" d="M776.765,786.406c-.1-.4.078-.715.449-.716a.874.874,0,0,1,.792.713c.1.4-.076.715-.449.715a.869.869,0,0,1-.792-.713m.926,0c-.061-.251-.23-.44-.414-.44s-.259.184-.2.441.228.44.414.44.258-.186.2-.441" transform="translate(-708.409 -716.574)" fill="#f99746"/>
            <path id="Trazado_193243" data-name="Trazado 193243" d="M796.087,786.122l-.229.06-.124-.249.372-.119h.21l.337,1.391h-.3Z" transform="translate(-725.734 -716.686)" fill="#f99746"/>
            <path id="Trazado_193244" data-name="Trazado 193244" d="M755.672,786.442c-.1-.4.078-.715.449-.715a.873.873,0,0,1,.791.713c.1.4-.076.715-.449.715a.87.87,0,0,1-.791-.713m.926,0c-.061-.251-.23-.44-.414-.44s-.259.184-.2.441.228.44.414.44.258-.186.2-.441" transform="translate(-689.171 -716.607)" fill="#2f539b"/>
            <path id="Trazado_193245" data-name="Trazado 193245" d="M811.852,786.347c-.1-.4.078-.715.449-.715a.873.873,0,0,1,.791.713c.1.4-.076.715-.45.715a.869.869,0,0,1-.791-.713m.926,0c-.061-.251-.23-.44-.414-.44s-.259.184-.2.441.228.44.414.44.258-.186.2-.441" transform="translate(-740.409 -716.52)" fill="#2f539b"/>
            <path id="Trazado_193246" data-name="Trazado 193246" d="M832.944,786.311c-.1-.4.078-.715.449-.715a.873.873,0,0,1,.791.713c.1.4-.076.715-.449.715a.87.87,0,0,1-.791-.713m.926,0c-.061-.251-.23-.44-.414-.44s-.259.184-.2.441.228.44.414.44.258-.186.2-.441" transform="translate(-759.646 -716.487)" fill="#2f539b"/>
            <path id="Trazado_193247" data-name="Trazado 193247" d="M1069.9,786.406c-.1-.4.078-.715.449-.716a.873.873,0,0,1,.792.713c.1.4-.076.715-.449.715a.869.869,0,0,1-.792-.713m.926,0c-.061-.251-.23-.44-.414-.44s-.259.184-.2.441.228.44.414.44.258-.186.2-.441" transform="translate(-975.754 -716.574)" fill="#f99746"/>
            <path id="Trazado_193248" data-name="Trazado 193248" d="M1089.219,786.122l-.229.06-.124-.249.373-.119h.21l.337,1.391h-.3Z" transform="translate(-993.079 -716.686)" fill="#f99746"/>
            <path id="Trazado_193249" data-name="Trazado 193249" d="M1048.8,786.442c-.1-.4.078-.715.449-.715a.873.873,0,0,1,.792.713c.1.4-.077.715-.45.715a.869.869,0,0,1-.791-.713m.926,0c-.061-.251-.23-.44-.414-.44s-.259.184-.2.441.228.44.414.44.258-.186.2-.441" transform="translate(-956.517 -716.607)" fill="#2f539b"/>
            <path id="Trazado_193250" data-name="Trazado 193250" d="M1104.984,786.347c-.1-.4.078-.715.45-.715a.873.873,0,0,1,.792.713c.1.4-.076.715-.45.715a.87.87,0,0,1-.792-.713m.926,0c-.061-.251-.23-.44-.414-.44s-.259.184-.2.441.228.44.414.44.258-.186.2-.441" transform="translate(-1007.754 -716.52)" fill="#2f539b"/>
            <path id="Trazado_193251" data-name="Trazado 193251" d="M1126.076,786.311c-.1-.4.078-.715.45-.715a.873.873,0,0,1,.792.713c.1.4-.076.715-.449.715a.87.87,0,0,1-.792-.713m.926,0c-.061-.251-.23-.44-.414-.44s-.259.184-.2.441.228.44.414.44.258-.186.2-.441" transform="translate(-1026.991 -716.487)" fill="#2f539b"/>
            <path id="Trazado_193252" data-name="Trazado 193252" d="M1198.652,786.406c-.1-.4.078-.715.449-.716a.874.874,0,0,1,.792.713c.1.4-.076.715-.45.715a.869.869,0,0,1-.791-.713m.926,0c-.061-.251-.23-.44-.414-.44s-.259.184-.2.441.228.44.414.44.258-.186.2-.441" transform="translate(-1093.182 -716.574)" fill="#f99746"/>
            <path id="Trazado_193253" data-name="Trazado 193253" d="M1217.975,786.122l-.229.06-.124-.249.372-.119h.209l.337,1.391h-.3Z" transform="translate(-1110.508 -716.686)" fill="#f99746"/>
            <path id="Trazado_193254" data-name="Trazado 193254" d="M1177.559,786.442c-.1-.4.078-.715.45-.715a.873.873,0,0,1,.791.713c.1.4-.076.715-.449.715a.87.87,0,0,1-.792-.713m.926,0c-.061-.251-.23-.44-.414-.44s-.259.184-.2.441.228.44.414.44.258-.186.2-.441" transform="translate(-1073.946 -716.607)" fill="#2f539b"/>
            <path id="Trazado_193255" data-name="Trazado 193255" d="M1233.739,786.347c-.1-.4.079-.715.45-.715a.873.873,0,0,1,.792.713c.1.4-.076.715-.449.715a.87.87,0,0,1-.792-.713m.926,0c-.061-.251-.23-.44-.414-.44s-.259.184-.2.441.228.44.414.44.258-.186.2-.441" transform="translate(-1125.183 -716.52)" fill="#2f539b"/>
            <path id="Trazado_193256" data-name="Trazado 193256" d="M1254.832,786.311c-.1-.4.078-.715.449-.715a.873.873,0,0,1,.791.713c.1.4-.076.715-.449.715a.869.869,0,0,1-.791-.713m.926,0c-.061-.251-.23-.44-.414-.44s-.259.184-.2.441.228.44.414.44.258-.186.2-.441" transform="translate(-1144.42 -716.487)" fill="#2f539b"/>
            <path id="Trazado_193257" data-name="Trazado 193257" d="M717.148,758.241c-.1-.4.078-.715.45-.715a.873.873,0,0,1,.791.713c.1.4-.076.715-.449.715a.87.87,0,0,1-.792-.713m.926,0c-.061-.251-.23-.44-.414-.44s-.259.184-.2.441.228.44.414.44.258-.186.2-.441" transform="translate(-654.037 -690.886)" fill="#2f539b"/>
            <path id="Trazado_193258" data-name="Trazado 193258" d="M738.242,758.205c-.1-.4.078-.715.449-.715a.873.873,0,0,1,.791.713c.1.4-.076.715-.449.716a.87.87,0,0,1-.791-.713m.926,0c-.061-.251-.23-.44-.414-.44s-.259.184-.2.441.228.44.414.44.258-.186.2-.441" transform="translate(-673.275 -690.854)" fill="#2f539b"/>
            <path id="Trazado_193259" data-name="Trazado 193259" d="M1123.823,758.241c-.1-.4.078-.715.449-.715a.873.873,0,0,1,.791.713c.1.4-.076.715-.449.715a.869.869,0,0,1-.791-.713m.926,0c-.061-.251-.23-.44-.414-.44s-.259.184-.2.441.228.44.414.44.258-.186.2-.441" transform="translate(-1024.937 -690.886)" fill="#2f539b"/>
            <path id="Trazado_193260" data-name="Trazado 193260" d="M1144.917,758.205c-.1-.4.078-.715.449-.715a.873.873,0,0,1,.792.713c.1.4-.076.715-.449.716a.869.869,0,0,1-.791-.713m.926,0c-.061-.251-.23-.44-.414-.44s-.259.184-.2.441.228.44.414.44.258-.186.2-.441" transform="translate(-1044.174 -690.854)" fill="#2f539b"/>
          </g>
        </g>
      </g>
    </g>
  </g>
</svg>
