<svg xmlns="http://www.w3.org/2000/svg" xmlns:xlink="http://www.w3.org/1999/xlink" width="65.941" height="66.355" viewBox="0 0 65.941 66.355">
  <defs>
    <clipPath id="clip-path">
      <rect id="Rectángulo_85355" data-name="Rectángulo 85355" width="65.941" height="66.355" fill="none"/>
    </clipPath>
  </defs>
  <g id="Grupo_137499" data-name="Grupo 137499" transform="translate(604 -17)">
    <g id="Grupo_135289" data-name="Grupo 135289" transform="translate(-604 17)" clip-path="url(#clip-path)">
      <path id="Trazado_193048" data-name="Trazado 193048" d="M45.147,66.355H3.367A4,4,0,0,1,.009,62.1Q0,39.135,0,16.169a1.851,1.851,0,0,1,.571-1.388Q7.7,7.636,14.835.487A2.17,2.17,0,0,1,15.656,0H45.147a4.035,4.035,0,0,1,3.538,4.3c.061,4.6.031,9.195.01,13.792,0,.935-.289,1.281-1.094,1.518-.872-.067-1.195-.374-1.219-1.249-.035-1.273-.011-2.546-.011-3.82q0-4.823,0-9.646a5.431,5.431,0,0,0-.062-1.032,1.953,1.953,0,0,0-1.911-1.7,5.709,5.709,0,0,0-.968-.01q-12.513.013-25.026.005c-1.244,0-1.245,0-1.245,1.236,0,3.153-.058,6.308.018,9.459a3.988,3.988,0,0,1-4.212,4.214c-3.233-.023-6.467-.007-9.7,0-.954,0-.981.026-.981.978q0,21.737,0,43.475a5.489,5.489,0,0,0,.042.776A1.972,1.972,0,0,0,4.444,64.2c.3.012.6.005.905.005q18.981.007,37.96,0c2.371.149,3.081-.518,3.081-2.9,0-.669-.011-1.338,0-2.006a.863.863,0,0,0-.589-.9c-.578-.237-1.141-.507-1.7-.78a27.728,27.728,0,0,1-4.9-3.361,1.875,1.875,0,0,0-1.321-.407q-3.4.006-6.791,0H8.84A4.71,4.71,0,0,1,7.808,53.8a1.175,1.175,0,0,1-.965-1.073A1.13,1.13,0,0,1,7.73,51.6a4.278,4.278,0,0,1,1.221-.091q13.193,0,26.386,0a1.851,1.851,0,0,0,.865-.084c-.005-.231-.188-.365-.314-.52A22.929,22.929,0,0,1,33.11,46.93a1.72,1.72,0,0,0-1.8-1c-7.351.031-14.7.019-22.053.015a4.378,4.378,0,0,1-1.6-.13,1.117,1.117,0,0,1-.786-.941,1.1,1.1,0,0,1,.444-1.021,1.119,1.119,0,0,1,.659-.235c.3-.023.6-.016.9-.016H30.087c.194,0,.388.008.582,0,.539-.031.616-.125.416-.637a32.738,32.738,0,0,1-1.433-4.435.687.687,0,0,0-.771-.612c-.236.008-.474,0-.711,0H8.769a7.4,7.4,0,0,1-.84-.018,1.155,1.155,0,0,1-1.06-.969,1.2,1.2,0,0,1,.719-1.193,2.894,2.894,0,0,1,1.271-.164q9.475,0,18.949,0c1.2,0,1.187,0,1.235-1.207a3.012,3.012,0,0,1,1.677-2.723,16.711,16.711,0,0,0,2.662-1.554,1.463,1.463,0,0,0-.712-.073q-11.9,0-23.8,0a5.2,5.2,0,0,1-1.032-.045,1.133,1.133,0,0,1-.026-2.246,5.1,5.1,0,0,1,1.1-.053c8.623,0,17.246-.012,25.869.016a1.782,1.782,0,0,0,1.776-.978,14.844,14.844,0,0,0,1.236-2.56,3.392,3.392,0,0,1,3.154-2.458c1.091-.106,2.174-.289,3.27-.358,1.049.035,2.085-.221,3.136-.132a57.659,57.659,0,0,1,6.878.537A3.191,3.191,0,0,1,57,23.757a16.179,16.179,0,0,0,1.491,3.08,11.983,11.983,0,0,0,5.211,4.5,3.447,3.447,0,0,1,2.213,3.681,31.148,31.148,0,0,1-1.8,7.267c-.2.544-.506,1.018-1.2.984-1.049-.281-1.315-.785-.917-1.818a26.07,26.07,0,0,0,1.62-6.57c.089-.813-.021-1.027-.749-1.381a15.291,15.291,0,0,1-3.807-2.516,13.779,13.779,0,0,1-3.852-5.65A1.841,1.841,0,0,0,53.288,23.9c-.474,0-.933-.168-1.41-.137a38.147,38.147,0,0,0-5.025-.255,49.644,49.644,0,0,0-5.912.526c-.647.1-.865.575-1.058,1.092a15.111,15.111,0,0,1-2.142,3.9,14.255,14.255,0,0,1-5.489,4.406c-.818.373-1,.74-.875,1.716a27.959,27.959,0,0,0,2.148,7.644A27.6,27.6,0,0,0,39.4,51.324a23.824,23.824,0,0,0,7.163,4.913,1.831,1.831,0,0,0,1.832.039A25.54,25.54,0,0,0,59.812,45.94c.135-.221.265-.445.4-.664a1.131,1.131,0,1,1,1.952,1.11,29.013,29.013,0,0,1-8.212,9.279,25.252,25.252,0,0,1-4.644,2.671.969.969,0,0,0-.645,1.039A21.2,21.2,0,0,1,48.58,62.8a3.872,3.872,0,0,1-3.432,3.553" transform="translate(0)"/>
      <path id="Trazado_193049" data-name="Trazado 193049" d="M54.318,30.747c-1.155.137-2.309.283-3.465.409a3.011,3.011,0,0,0-2.729,2.131,14.072,14.072,0,0,1-1.652,3.28,1.108,1.108,0,0,1-1.044.556q-13.419-.028-26.837-.013c-1.034,0-1.52.32-1.5.989.016.65.485.954,1.479.954H44.082a7.782,7.782,0,0,1-1.863,1.313c-.3.169-.607.326-.917.475a2.929,2.929,0,0,0-1.947,3.513c.093.671-.128.715-.675.713q-9.991-.022-19.982-.01c-1.122,0-1.594.281-1.608.957s.485.988,1.638.988c6.79,0,13.58.008,20.37-.015.544,0,.735.159.842.673a23.46,23.46,0,0,0,1.542,4.722c.226.509.205.666-.424.664q-11.252-.03-22.5-.013c-.99,0-1.463.309-1.464.956s.48.986,1.456.986q11.77,0,23.539-.012a.926.926,0,0,1,.945.561,27.723,27.723,0,0,0,3.494,4.96c.108.123.21.252.4.486h-.8q-13.774,0-27.548,0a2.171,2.171,0,0,0-.831.067.917.917,0,0,0-.644,1.006.9.9,0,0,0,.833.853,4.844,4.844,0,0,0,.646.012q14.841,0,29.682-.007a1.488,1.488,0,0,1,1.1.4,28.807,28.807,0,0,0,4.97,3.457,1.2,1.2,0,0,1,.18.74c0,1.336.037,2.673-.014,4.007a2.29,2.29,0,0,1-.959,2.13c-.215.007-.43.02-.645.02H14.741c-1.8,0-2.542-.752-2.542-2.568q0-22.161-.014-44.321c0-.57.132-.713.7-.708,3.406.03,6.812.016,10.218.014a3.66,3.66,0,0,0,3.94-3.964q.006-5.184-.005-10.368c0-.38.036-.565.5-.564q12.9.024,25.8.013a1.814,1.814,0,0,1,.192.02,1.131,1.131,0,0,1,.613.63,4.019,4.019,0,0,1,.371,1.819q0,8.05,0,16.1a1.325,1.325,0,0,1-.206.985" transform="translate(-10.079 -9.247)" fill="#eaebef"/>
      <path id="Trazado_193050" data-name="Trazado 193050" d="M195.575,168.146a23.134,23.134,0,0,1-7.807-5.514,27.922,27.922,0,0,1-7.5-15.521c-.208-1.438-.151-1.54,1.158-2.187a14.245,14.245,0,0,0,7.261-7.972,1.913,1.913,0,0,1,1.781-1.438,42.707,42.707,0,0,1,10.433-.161c.466.236.5.735.657,1.142a13.641,13.641,0,0,0,5.3,6.589,18.21,18.21,0,0,0,2.032,1.127,2.2,2.2,0,0,1,1.274,2.434,29.288,29.288,0,0,1-7.239,16.083,24.727,24.727,0,0,1-6.252,5.161,1.29,1.29,0,0,1-1.092.257" transform="translate(-149.027 -111.748)" fill="#97b98a"/>
      <path id="Trazado_193051" data-name="Trazado 193051" d="M269.275,169.34a7.23,7.23,0,0,0,2.637-1.441,28.711,28.711,0,0,0,11.275-17.071c.264-1.087.386-2.2.564-3.3a1.991,1.991,0,0,0-1.139-1.934,15.274,15.274,0,0,1-4.663-3.295,14.526,14.526,0,0,1-3.067-5.109c-.081-.221-.19-.433-.286-.648a15.865,15.865,0,0,1,2.43.279c.514.077.709.5.868.942a14.656,14.656,0,0,0,7.918,8.584,1.141,1.141,0,0,1,.736,1.333,27.824,27.824,0,0,1-1.658,6.757c-.359.94-.21,1.276.7,1.636-.149.044-.325-.007-.41.213-.2.508-.427,1-.644,1.5-.807-.254-1.078-.15-1.521.614a26.133,26.133,0,0,1-10.942,10.541c-.326.165-.677.281-.993.462a1.575,1.575,0,0,1-1.806-.068" transform="translate(-222.726 -112.942)" fill="#6f8d55"/>
      <path id="Trazado_193052" data-name="Trazado 193052" d="M33.1,20.889v.43q0,4.372,0,8.744c0,1.473-.617,2.1-2.065,2.1q-4.4,0-8.792,0h-.4L33.1,20.889" transform="translate(-18.072 -17.278)" fill="#c8cad0"/>
      <path id="Trazado_193053" data-name="Trazado 193053" d="M252.211,30.807q0-8.568.009-17.136a3.815,3.815,0,0,0-.783-2.4c.258-.007.516-.022.774-.02a2.1,2.1,0,0,1,2.289,2.3c.012,2.268,0,4.536,0,6.8,0,2.4,0,4.8,0,7.193,0,.853.243,1.114,1.074,1.219a6.008,6.008,0,0,0-.13,1.912l-3.239.126" transform="translate(-207.971 -9.306)" fill="#c8cad0"/>
      <path id="Trazado_193054" data-name="Trazado 193054" d="M251.431,339.577a3.728,3.728,0,0,0,.784-2.382c-.021-1.5,0-3,.008-4.5.664.3,1.321.608,1.994.882.3.12.283.332.282.572,0,1.032.005,2.064,0,3.1a2.134,2.134,0,0,1-2.36,2.347c-.235,0-.471-.013-.706-.02" transform="translate(-207.967 -275.187)" fill="#c8cad0"/>
      <path id="Trazado_193055" data-name="Trazado 193055" d="M103.9,101.758q3.231,0,6.462,0c.807,0,1.249.365,1.231.991-.017.587-.468.949-1.225.95q-6.462.006-12.924,0a1.1,1.1,0,0,1-1.135-.574.934.934,0,0,1,.092-.983,1.121,1.121,0,0,1,1.038-.391q3.231.006,6.462,0" transform="translate(-79.58 -84.166)" fill="#010101"/>
      <path id="Trazado_193056" data-name="Trazado 193056" d="M237.35,230.709c-1.681,0-3.363.006-5.044,0a2.533,2.533,0,0,1-2.7-2.721,18.877,18.877,0,0,1,.247-4.771,7.8,7.8,0,0,1,.846-2.021,2.442,2.442,0,0,1,3.551-.936,5.984,5.984,0,0,0,4.6.712,6.207,6.207,0,0,0,1.656-.71,2.455,2.455,0,0,1,3.557.923,7.3,7.3,0,0,1,1.084,3.618c.025,1.123.033,2.246.008,3.369a2.513,2.513,0,0,1-2.562,2.534c-1.746.017-3.492,0-5.238,0" transform="translate(-189.888 -181.84)"/>
      <path id="Trazado_193057" data-name="Trazado 193057" d="M256.489,163.46a4.785,4.785,0,1,1-9.518.933,8.618,8.618,0,0,1,.153-2.893,4.764,4.764,0,0,1,9.364,1.055c.013.3,0,.6,0,.905" transform="translate(-204.236 -130.662)"/>
      <path id="Trazado_193058" data-name="Trazado 193058" d="M246.6,238.042q-2.423,0-4.845,0c-.817,0-.974-.135-.955-.927a23.212,23.212,0,0,1,.122-3.873,5.068,5.068,0,0,1,.641-1.683c.411-.679.9-.678,1.318.01.743,1.213,1.472,2.434,2.213,3.649a1.712,1.712,0,0,0,3.08.033c.736-1.167,1.435-2.356,2.148-3.537.192-.319.385-.658.812-.648s.54.372.705.675a5.514,5.514,0,0,1,.644,2.675c0,.928-.017,1.856,0,2.783.014.609-.246.856-.849.85-1.68-.016-3.359-.006-5.039-.006" transform="translate(-199.159 -191.109)" fill="#5d6687"/>
      <path id="Trazado_193059" data-name="Trazado 193059" d="M269.787,240.294l-1.035-1.717h2.063l-1.028,1.717" transform="translate(-222.294 -197.335)" fill="#e4e5e9"/>
      <path id="Trazado_193060" data-name="Trazado 193060" d="M263.807,172.663a10.046,10.046,0,0,1-.074,1.223,2.823,2.823,0,0,1-5.557.006,6.978,6.978,0,0,1-.007-2.38,2.767,2.767,0,0,1,3-2.342,2.8,2.8,0,0,1,2.609,2.716c.013.258,0,.517,0,.775h.026" transform="translate(-213.458 -139.92)" fill="#d9b893"/>
    </g>
  </g>
</svg>
