<svg xmlns="http://www.w3.org/2000/svg" xmlns:xlink="http://www.w3.org/1999/xlink" width="68.167" height="68.144" viewBox="0 0 68.167 68.144">
  <defs>
    <clipPath id="clip-path">
      <rect id="Rectángulo_85375" data-name="Rectángulo 85375" width="68.167" height="68.144" fill="#0d2380"/>
    </clipPath>
  </defs>
  <g id="Grupo_137496" data-name="Grupo 137496" transform="translate(374 2599)">
    <g id="Grupo_135317" data-name="Grupo 135317" transform="translate(-374 -2599)">
      <g id="Grupo_135316" data-name="Grupo 135316" clip-path="url(#clip-path)">
        <path id="Trazado_193286" data-name="Trazado 193286" d="M68.167,36.068c-.17,1.268-.3,2.545-.519,3.8A33.5,33.5,0,0,1,56.266,59.921a33.22,33.22,0,0,1-17.7,7.925,34.057,34.057,0,0,1-13.2-66.683C27.344.641,29.414.456,31.443.114c.217-.037.433-.076.65-.114h4.127a3.818,3.818,0,0,0,.512.109A32.811,32.811,0,0,1,52.934,5.7a33.576,33.576,0,0,1,14.71,22.5c.228,1.237.351,2.494.522,3.742ZM34.152,2.828A31.232,31.232,0,1,0,65.329,34.2,31.309,31.309,0,0,0,34.152,2.828" transform="translate(0)" fill="#0d2380"/>
        <path id="Trazado_193287" data-name="Trazado 193287" d="M166.082,87.752q4.724,0,9.448,0c2.967,0,4.707,1.747,4.709,4.715q0,1.031,0,2.062a4.3,4.3,0,0,1-4.625,4.6q-7.02.008-14.04,0c-1.73,0-3.46.007-5.19,0a4.267,4.267,0,0,1-4.531-4.549c0-.8-.008-1.6,0-2.4a4.243,4.243,0,0,1,4.446-4.429c3.26-.017,6.521,0,9.781,0m-.028,8.517c3.239,0,6.477.005,9.716,0a1.437,1.437,0,0,0,1.635-1.575c.02-.865.028-1.731,0-2.595a1.394,1.394,0,0,0-1.526-1.477q-9.85-.013-19.7,0a1.384,1.384,0,0,0-1.491,1.5c-.015.776,0,1.552,0,2.329,0,1.34.464,1.813,1.789,1.815q4.792.006,9.583,0" transform="translate(-124.852 -72.147)" fill="#0d2380"/>
        <path id="Trazado_193288" data-name="Trazado 193288" d="M166.059,159.622q4.757,0,9.515,0a4.307,4.307,0,0,1,4.669,4.689c0,.732,0,1.464,0,2.2a4.272,4.272,0,0,1-4.466,4.49c-3.5.018-7.009,0-10.513,0q-4.391,0-8.783,0a4.279,4.279,0,0,1-4.624-4.59c0-.776-.006-1.552,0-2.329a4.252,4.252,0,0,1,4.487-4.457c3.238-.013,6.476,0,9.715,0m.007,8.517c3.239,0,6.478.005,9.716,0a1.413,1.413,0,0,0,1.619-1.451c.037-.93.039-1.864,0-2.794a1.383,1.383,0,0,0-1.461-1.4c-.2-.009-.4,0-.6,0H156.77c-1.73,0-2.085.361-2.085,2.118q0,.865,0,1.73c0,1.334.467,1.805,1.8,1.807q4.792.005,9.583,0" transform="translate(-124.855 -131.24)" fill="#0d2380"/>
        <path id="Trazado_193289" data-name="Trazado 193289" d="M165.942,242.867c-3.238,0-6.476.012-9.714,0a4.041,4.041,0,0,1-4.267-3.266,16.236,16.236,0,0,1-.006-4.821c.313-2.061,2.129-3.283,4.386-3.286q7.785-.009,15.57,0c1.264,0,2.529-.009,3.793,0a4.28,4.28,0,0,1,4.477,4.479c0,.776,0,1.552,0,2.328a4.293,4.293,0,0,1-4.59,4.568c-3.216.007-6.432,0-9.648,0m.043-2.862c3.239,0,6.478.005,9.716,0a1.447,1.447,0,0,0,1.647-1.631c.015-.843.025-1.687-.005-2.528a1.4,1.4,0,0,0-1.516-1.487q-9.849-.014-19.7,0a1.391,1.391,0,0,0-1.5,1.56c-.01.776,0,1.553,0,2.329,0,1.279.483,1.758,1.779,1.759q4.792.006,9.583,0" transform="translate(-124.793 -190.329)" fill="#0d2380"/>
        <path id="Trazado_193290" data-name="Trazado 193290" d="M83.291,93.406a16.9,16.9,0,0,1-.128,2.252,4.022,4.022,0,0,1-3.6,3.32,21.154,21.154,0,0,1-4.044-.015,4.126,4.126,0,0,1-3.6-4.057c-.023-.953-.013-1.906-.005-2.86a4.173,4.173,0,0,1,3.866-4.305,20.031,20.031,0,0,1,3.848.037,4.092,4.092,0,0,1,3.618,3.964c.024.553,0,1.108,0,1.662l.045,0M77.6,96.2c.466,0,.932.017,1.4,0a1.382,1.382,0,0,0,1.422-1.437c.023-.909.02-1.819,0-2.728a1.381,1.381,0,0,0-1.452-1.475q-1.4-.034-2.794,0a1.331,1.331,0,0,0-1.41,1.3,28.454,28.454,0,0,0-.005,2.991A1.357,1.357,0,0,0,76.206,96.2c.465.018.931,0,1.4,0" transform="translate(-59.119 -72.08)" fill="#0d2380"/>
        <path id="Trazado_193291" data-name="Trazado 193291" d="M83.187,165.29a13.8,13.8,0,0,1-.019,2.189,4.014,4.014,0,0,1-3.553,3.366,21.5,21.5,0,0,1-4.11-.007,4.117,4.117,0,0,1-3.592-4c-.03-.974-.016-1.951-.008-2.926a4.161,4.161,0,0,1,3.809-4.286,19.906,19.906,0,0,1,3.913.03,4.089,4.089,0,0,1,3.609,3.971c.023.553,0,1.108,0,1.662h-.054M77.6,162.432v0c-.466,0-.932-.014-1.4,0a1.357,1.357,0,0,0-1.446,1.342,28.8,28.8,0,0,0,.005,2.992,1.308,1.308,0,0,0,1.341,1.3c1,.031,2,.031,2.993,0A1.31,1.31,0,0,0,80.4,166.8c.044-1.018.042-2.041,0-3.059a1.339,1.339,0,0,0-1.343-1.3c-.486-.026-.976,0-1.463,0" transform="translate(-59.112 -131.179)" fill="#0d2380"/>
        <path id="Trazado_193292" data-name="Trazado 193292" d="M83.187,237.155a13.8,13.8,0,0,1-.019,2.189,4.014,4.014,0,0,1-3.552,3.366,21.476,21.476,0,0,1-4.11-.007,4.116,4.116,0,0,1-3.592-4c-.03-.975-.016-1.951-.008-2.926a4.16,4.16,0,0,1,3.808-4.287,19.919,19.919,0,0,1,3.913.029,4.09,4.09,0,0,1,3.61,3.971c.023.553,0,1.108,0,1.662h-.053m-5.618,2.787v0c.488,0,.977.02,1.464,0a1.37,1.37,0,0,0,1.382-1.406c.026-.931.024-1.863,0-2.794a1.37,1.37,0,0,0-1.422-1.435c-.931-.025-1.863-.023-2.794,0a1.35,1.35,0,0,0-1.444,1.342c-.05.973-.05,1.952,0,2.926a1.378,1.378,0,0,0,1.486,1.374c.443.015.887,0,1.331,0" transform="translate(-59.113 -190.268)" fill="#0d2380"/>
      </g>
    </g>
  </g>
</svg>
