<svg xmlns="http://www.w3.org/2000/svg" xmlns:xlink="http://www.w3.org/1999/xlink" width="85" height="84.984" viewBox="0 0 85 84.984">
  <defs>
    <clipPath id="clip-path">
      <rect id="Rectángulo_85269" data-name="Rectángulo 85269" width="85" height="84.984" fill="none"/>
    </clipPath>
  </defs>
  <g id="Grupo_137494" data-name="Grupo 137494" transform="translate(890 8619.984)">
    <g id="Grupo_135091" data-name="Grupo 135091" transform="translate(-890 -8619.984)">
      <g id="Grupo_135090" data-name="Grupo 135090" clip-path="url(#clip-path)">
        <path id="Trazado_192911" data-name="Trazado 192911" d="M31.2,28.32c-.01,1.327-.032,2.655-.026,3.982a2.867,2.867,0,0,1-1.714,2.842,1.367,1.367,0,0,0-.544.425q-1.585,2.128-3.186,4.244a1.08,1.08,0,0,0-.231.731,12.56,12.56,0,0,1,0,1.416,2.922,2.922,0,0,0,1.295,3.046,4.048,4.048,0,0,1-.707,6.847.946.946,0,0,0-.592,1c.031,1.209.023,2.42.006,3.63a1.422,1.422,0,1,1-2.825-.018c-.015-1.239-.01-2.479,0-3.718a.74.74,0,0,0-.446-.824,3.994,3.994,0,0,1-2.375-3.74,4.04,4.04,0,0,1,2.386-3.827.688.688,0,0,0,.439-.737c-.02-1.239.006-2.479-.014-3.718A2.012,2.012,0,0,1,23.1,38.6c.768-1.007,1.522-2.024,2.284-3.039-.172-.285-.434-.149-.64-.15-2.479-.011-4.958,0-7.437-.009a2.869,2.869,0,0,1-3.14-3.124c-.008-.82.279-1.936-.139-2.382-.487-.519-1.61-.141-2.455-.153-1.653-.023-1.654-.007-1.654,1.618s-.029,3.247.013,4.869a2.855,2.855,0,0,1-.665,1.943C8.191,39.54,7.179,40.956,6.12,42.335A2.059,2.059,0,0,0,5.654,43.7c.031,2.3.016,4.6.012,6.905,0,1.132-.5,1.771-1.387,1.79-.912.019-1.442-.643-1.444-1.821,0-2.568.01-5.135-.009-7.7a2.366,2.366,0,0,1,.519-1.546c1.1-1.424,2.148-2.885,3.251-4.3a2.257,2.257,0,0,0,.5-1.532c-.034-1.711-.031-3.423,0-5.134.009-.493-.13-.611-.624-.653a6.981,6.981,0,0,1,.575-13.944c1.3-.015,1.3-.015,1.3-1.364C8.355,8.433,12.015,3.948,17.8,2.926a10.522,10.522,0,0,1,7.618,1.549c.506.318.724.309,1.105-.178A11.127,11.127,0,0,1,45.092,5.832c.222.407.394.68.952.722A11.641,11.641,0,0,1,56.4,20.643c-.037.171-.063.345-.107.592,1.412,0,2.791-.023,4.169.01.627.016.451-.4.451-.708q.011-4.958,0-9.916c0-1.758.373-2.136,2.107-2.137,1.062,0,2.125.025,3.187-.009a2.076,2.076,0,0,1,1.648.683c1.468,1.5,2.971,2.955,4.431,4.457a1.629,1.629,0,0,0,1.3.549c3.187-.028,6.374-.016,9.562-.013,1.377,0,1.844.474,1.845,1.867q0,6.64,0,13.28c0,1.38-.474,1.851-1.862,1.851q-10.181,0-20.362,0c-1.386,0-1.854-.47-1.857-1.855,0-1.535-.021-3.069.011-4.6.01-.5-.127-.632-.63-.638-2.216-.025-2.215-.043-2.215,2.139,0,7.053.01,14.106-.017,21.159,0,.661.151.83.815.817,2.035-.041,2.035-.009,2.035-2.057q0-4.471,0-8.942c0-1.271.5-1.761,1.764-1.768,1.18-.006,2.362.023,3.541-.011a2.083,2.083,0,0,1,1.644.692c1.489,1.516,3.012,3,4.5,4.518a1.452,1.452,0,0,0,1.153.476c3.216-.019,6.433-.012,9.65-.009,1.338,0,1.831.48,1.832,1.79Q85,49.587,85,56.316c0,1.259-.5,1.749-1.784,1.75q-10.27,0-20.539,0c-1.263,0-1.75-.5-1.755-1.778-.006-1.564-.024-3.129.011-4.692.011-.516-.158-.619-.643-.624-2.2-.023-2.2-.039-2.2,2.15,0,7.024.014,14.047-.02,21.071,0,.758.2.913.919.893,1.934-.052,1.934-.016,1.934-1.981q0-4.471,0-8.942c0-1.38.47-1.842,1.865-1.845,1.564,0,3.129.034,4.692-.015a2.424,2.424,0,0,1,1.947.827c1.416,1.463,2.889,2.871,4.3,4.336a1.621,1.621,0,0,0,1.31.529c2.715-.024,5.43-.014,8.145-.01,1.334,0,1.818.479,1.82,1.8Q85,76.472,85,83.156c0,1.336-.481,1.825-1.8,1.826q-10.225,0-20.451,0c-1.372,0-1.829-.474-1.832-1.879s-.062-2.837.022-4.248c.051-.856-.261-1.018-1.021-.97-.97.062-1.947.021-2.921.014-1.224-.009-1.727-.5-1.748-1.7-.015-.82.282-1.931-.134-2.386-.483-.528-1.608-.152-2.452-.157-3.571-.018-7.142.02-10.712-.029-.773-.011-.9.226-.885.928.042,2.832.019,5.666.017,8.5,0,1.459-.453,1.927-1.875,1.927q-18.681,0-37.361,0C.468,84.982,0,84.509,0,83.116Q0,69.393,0,55.671c0-1.387.467-1.851,1.857-1.853,2.538,0,5.076.018,7.614-.013a2.3,2.3,0,0,1,1.8.758c1.463,1.5,2.968,2.958,4.432,4.457a1.457,1.457,0,0,0,1.154.473q6.773-.024,13.545,0c.6,0,.82-.109.784-.755-.06-1.059-.021-2.124-.015-3.186.007-1.106.548-1.751,1.439-1.735.86.016,1.382.643,1.39,1.7.009,1.092.026,2.185-.009,3.275-.016.5.061.708.651.708,2.193,0,2.193.028,2.193-2.166,0-3.866-.007-7.732.009-11.6A.886.886,0,0,0,36.3,44.8a4.188,4.188,0,0,1,.044-7.481.812.812,0,0,0,.5-.88c-.022-1.593-.01-3.187-.009-4.781,0-1.262.506-1.93,1.439-1.914s1.393.665,1.394,1.96c0,1.564.015,3.128-.009,4.692a.876.876,0,0,0,.541.945,4.188,4.188,0,0,1-.036,7.48.818.818,0,0,0-.505.878q.022,6.551,0,13.1c0,.426.049.669.523.818.715.226.909.839.907,1.551-.01,2.98.012,5.961-.019,8.941-.006.581.152.725.726.721,4.249-.025,8.5-.019,12.748-.006.472,0,.723-.014.723-.632q-.031-22.93-.018-45.86a2.912,2.912,0,0,0-.055-.346c-.3.447-.539.836-.814,1.2A11.067,11.067,0,0,1,45.5,29.728c-.885.025-1.771.011-2.656.005-1.131-.007-1.492-.3-1.788-1.414a1.316,1.316,0,0,1,1.322-1.634,20.918,20.918,0,0,1,2.553-.036A9.509,9.509,0,0,0,48.7,25.9a8.542,8.542,0,0,0,3.248-12.8,8.181,8.181,0,0,0-6.8-3.492,2.281,2.281,0,0,1-2.367-1.485A8.073,8.073,0,0,0,33.5,3.277a7.984,7.984,0,0,0-5.311,4.065c-.892,1.622-1.96,1.789-3.34.559a7.624,7.624,0,0,0-8.087-1.527,7.662,7.662,0,0,0-5.207,6.283,25.731,25.731,0,0,0-.156,3.97c-.033,1.626-.564,2.171-2.19,2.191-.737.009-1.475-.021-2.212.01a3.935,3.935,0,0,0-3.913,3.885,3.871,3.871,0,0,0,3.939,3.933c2,.049,4.011,0,6.016.019.646.007.915-.249.888-.891-.023-.559-.018-1.121,0-1.681a2.965,2.965,0,0,1,1.981-2.869,1.474,1.474,0,0,0,1-1.2,5.885,5.885,0,0,1,9.721-3.172,5.586,5.586,0,0,1,1.761,3.1,1.522,1.522,0,0,0,1.043,1.272,2.761,2.761,0,0,1,1.9,2.358,29.2,29.2,0,0,1,.03,4.329.743.743,0,0,1-.175.4" transform="translate(0 0)"/>
        <path id="Trazado_192912" data-name="Trazado 192912" d="M58.02,35.884a7.388,7.388,0,0,1-3.643.856c-.8.015-1.592,0-2.389,0-1.13.009-1.49.3-1.783,1.417H40.343q-.015-1.991-.029-3.982a2.79,2.79,0,0,0-2.372-3.043c-.55-.12-.446-.42-.495-.739a5.664,5.664,0,0,0-11-1.1.91.91,0,0,0-.086.249,1.778,1.778,0,0,1-1.506,1.912,2.361,2.361,0,0,0-1.53,2.379c-.029.766-.028,1.535,0,2.3.015.432-.071.626-.57.62-2.272-.028-4.545.027-6.816-.03a4.145,4.145,0,0,1,0-8.281c.854-.04,1.711-.006,2.567-.011,1.355-.009,1.8-.458,1.825-1.792a27.119,27.119,0,0,1,.125-4.152,7.982,7.982,0,0,1,5.17-6.442,8.042,8.042,0,0,1,8.249,1.238c.21.161.4.353.6.525a1.44,1.44,0,0,0,2.5-.49,8.179,8.179,0,0,1,5.644-4.427,8.7,8.7,0,0,1,6.136,4.462,5.408,5.408,0,0,1,.437.868,1.185,1.185,0,0,0,1.244.767,10.468,10.468,0,0,1,8.386,15.959,7.534,7.534,0,0,1-.8.935" transform="translate(-9.148 -9.842)" fill="#0d2380"/>
        <path id="Trazado_192913" data-name="Trazado 192913" d="M56.677,165.827c0,.912.019,1.824,0,2.736a1.41,1.41,0,0,1-1.4,1.5,1.394,1.394,0,0,1-1.422-1.473q-.034-2.779,0-5.559A1.408,1.408,0,1,1,56.67,163c.031.94.007,1.882.008,2.824" transform="translate(-41.096 -123.337)"/>
        <path id="Trazado_192914" data-name="Trazado 192914" d="M56.707,205.582c0,1.452-.425,2.11-1.38,2.137-.986.027-1.454-.665-1.454-2.15v-.176c0-1.262.492-1.92,1.423-1.915s1.408.658,1.411,1.928c0,.059,0,.117,0,.176" transform="translate(-41.123 -155.323)" fill="#010101"/>
        <path id="Trazado_192915" data-name="Trazado 192915" d="M11.908,264.319c-.205-.843.1-1.086.978-1.083q16.726.045,33.452,0c.775,0,.979.179.974.967q-.054,8.982,0,17.965c0,.72-.16.953-.913.937-2.653-.056-5.308-.038-7.963-.048a28.085,28.085,0,0,1-7.048-2.2c-.377-.153-.8-.357-.467-.913.371-.482.695-.984.367-1.615s-.928-.644-1.531-.658c-1.414-.032-2.829.075-4.241-.06a18.054,18.054,0,0,1-4.235-2.847,44.509,44.509,0,0,1-8.513-8.907,5.346,5.346,0,0,1-.858-1.534" transform="translate(-9.043 -200.938)" fill="#707070"/>
        <path id="Trazado_192916" data-name="Trazado 192916" d="M31.052,283.584c-.123.59.421.539.7.66,2.183.941,4.469,1.59,6.731,2.309q-7.03.015-14.059.029-5.837.007-11.673,0c-.451,0-.844.074-.84-.644.037-6.042.036-12.085.046-18.127,1,1.186,1.836,2.488,2.818,3.689a44.358,44.358,0,0,0,8.294,7.809c.756.55,1.546,1.055,2.32,1.58-.348.378-.815.291-1.245.293-2.33.012-4.66,0-6.989.006a6.191,6.191,0,0,0-.971.039c-.618.1-1.065.4-1.073,1.079a1.073,1.073,0,0,0,1.033,1.118,5.435,5.435,0,0,0,.971.047c4.423-.018,8.847.041,13.27-.031a.868.868,0,0,1,.671.14" transform="translate(-9.091 -204.432)" fill="#606060"/>
        <path id="Trazado_192917" data-name="Trazado 192917" d="M269.373,72.442c-.1-.481-.031-.736.591-.733q8.575.037,17.151,0c.483,0,.661.107.657.629q-.034,5.039,0,10.078c0,.5-.131.664-.64.646-1.207-.043-2.415-.031-3.623-.04a20.66,20.66,0,0,1-6.5-3.129,28.527,28.527,0,0,1-7.156-6.526,2.67,2.67,0,0,1-.481-.93" transform="translate(-205.596 -54.738)" fill="#c94024"/>
        <path id="Trazado_192918" data-name="Trazado 192918" d="M269.369,186.168c-.1-.477-.042-.732.585-.73q8.583.039,17.165.005c.486,0,.652.114.649.628q-.033,5.043,0,10.087c0,.5-.133.657-.639.639-1.207-.044-2.417-.031-3.625-.04a20.7,20.7,0,0,1-6.5-3.131,28.549,28.549,0,0,1-7.156-6.528,2.65,2.65,0,0,1-.478-.931" transform="translate(-205.591 -141.552)" fill="#fff2bf"/>
        <path id="Trazado_192919" data-name="Trazado 192919" d="M269.369,299.906c-.106-.509.025-.727.618-.725q8.54.032,17.079,0c.531,0,.71.129.705.687-.025,3.333-.021,6.666,0,10,0,.48-.109.685-.634.667-1.208-.043-2.417-.03-3.626-.04a20.756,20.756,0,0,1-6.547-3.159,28.555,28.555,0,0,1-7.117-6.505,2.8,2.8,0,0,1-.475-.927" transform="translate(-205.595 -228.377)" fill="#fc502d"/>
        <path id="Trazado_192920" data-name="Trazado 192920" d="M77.385,110.159c-1.651,0-3.3-.017-4.954.01-.478.008-.657-.094-.651-.618.028-2.418.025-4.837,0-7.255,0-.479.1-.653.619-.65q5.043.036,10.086,0c.477,0,.657.093.651.618-.028,2.418-.036,4.837,0,7.255.01.6-.221.655-.714.647-1.681-.026-3.362-.01-5.043-.01" transform="translate(-54.792 -77.591)" fill="#dfdfdf"/>
        <path id="Trazado_192921" data-name="Trazado 192921" d="M156.831,35.244c.334-.613.687-1.218,1-1.842a10.114,10.114,0,0,0-1.7-11.684,9.6,9.6,0,0,0-7.141-3.147c-.427,0-.8.005-1-.494a10.015,10.015,0,0,0-6.56-5.824,8.2,8.2,0,0,1,9.489,4.923,2.045,2.045,0,0,0,2.169,1.377,8.333,8.333,0,0,1,7.809,4.985,8.521,8.521,0,0,1-.863,9.169,6.914,6.914,0,0,1-3.2,2.537" transform="translate(-107.959 -9.202)" fill="#7face7"/>
        <path id="Trazado_192922" data-name="Trazado 192922" d="M269.373,74.807a30.878,30.878,0,0,0,13.686,10.316,3.015,3.015,0,0,1,.45.268q-6.806.015-13.612.037c-.413,0-.563-.114-.56-.545.024-3.359.027-6.717.036-10.076" transform="translate(-205.596 -57.103)" fill="#97301b"/>
        <path id="Trazado_192923" data-name="Trazado 192923" d="M269.371,188.521a30.813,30.813,0,0,0,13.6,10.287,4.037,4.037,0,0,1,.531.3q-6.81.015-13.62.037c-.419,0-.555-.117-.552-.545.025-3.36.028-6.721.037-10.081" transform="translate(-205.593 -143.906)" fill="#ccc198"/>
        <path id="Trazado_192924" data-name="Trazado 192924" d="M269.364,302.245a30.842,30.842,0,0,0,13.607,10.29,4.108,4.108,0,0,1,.532.3c-4.505.01-9.01.013-13.515.038-.493,0-.663-.141-.659-.648.027-3.327.027-6.654.035-9.982" transform="translate(-205.589 -230.716)" fill="#c94024"/>
        <path id="Trazado_192925" data-name="Trazado 192925" d="M21.13,242.207c-3.033,0-5.906,0-8.778,0-.333,0-.5-.12-.468-.461a1.418,1.418,0,0,0,0-.177c-.09-2.2-.09-2.2,2.085-2.2h1.236c3.444,0,3.444,0,5.925,2.832" transform="translate(-9.05 -182.725)" fill="#707070"/>
        <path id="Trazado_192926" data-name="Trazado 192926" d="M275.769,278.032c-2.195,0-4.1-.007-6.012.006-.377,0-.554-.124-.509-.508a.523.523,0,0,0,0-.088c-.114-2.242-.112-2.186,2.125-2.266a2.842,2.842,0,0,1,2.6,1.071,21.826,21.826,0,0,0,1.794,1.786" transform="translate(-205.498 -210.049)" fill="#fc502d"/>
        <path id="Trazado_192927" data-name="Trazado 192927" d="M86.645,80.6c-.764,0-1.529-.023-2.292.009-.476.02-.528-.179-.448-.578a2.846,2.846,0,0,1,5.572,0c.082.4.02.594-.451.576-.792-.031-1.587-.009-2.38-.009" transform="translate(-64.024 -59.361)" fill="#0d2380"/>
        <path id="Trazado_192928" data-name="Trazado 192928" d="M274.3,50.387c-1.757,0-3.24,0-4.722,0-.3,0-.434-.1-.415-.408a5.422,5.422,0,0,1,.009-.7c.112-.567-.366-1.494.252-1.642a2.349,2.349,0,0,1,2.655.559,27.6,27.6,0,0,0,2.222,2.19" transform="translate(-205.413 -36.237)" fill="#f34747"/>
        <path id="Trazado_192929" data-name="Trazado 192929" d="M274.053,164.069c-1.438,0-2.877-.015-4.314.009-.429.007-.587-.133-.539-.552.023-.2-.024-.416.009-.617.09-.551-.3-1.241.215-1.634.492-.379,2.134.085,2.654.589.693.673,1.4,1.335,2.1,2l-.121.2" transform="translate(-205.456 -123.002)" fill="#fff2bf"/>
        <path id="Trazado_192930" data-name="Trazado 192930" d="M158.48,169.009a1.412,1.412,0,1,1-1.351-1.451,1.422,1.422,0,0,1,1.351,1.451" transform="translate(-118.818 -127.903)" fill="#4b92f9"/>
        <path id="Trazado_192931" data-name="Trazado 192931" d="M97.191,200.309a1.413,1.413,0,1,1,1.424-1.38,1.42,1.42,0,0,1-1.424,1.38" transform="translate(-73.121 -150.746)" fill="#4b92f9"/>
        <path id="Trazado_192932" data-name="Trazado 192932" d="M155.635,97.841c0-1.437.443-2.1,1.407-2.106s1.427.667,1.427,2.088c0,1.483-.468,2.177-1.453,2.151-.956-.025-1.382-.682-1.381-2.133" transform="translate(-118.802 -73.078)" fill="#000101"/>
        <path id="Trazado_192933" data-name="Trazado 192933" d="M40.257,325.766a4.531,4.531,0,0,1-1.3.171q-6.5-.013-13-.005c-.089,0-.177,0-.265,0-1.118-.015-1.74-.538-1.721-1.448.018-.87.627-1.38,1.694-1.383,2.652-.007,5.305,0,7.958,0,.324,0,.647-.016.971-.024,1.533.008,3.066.031,4.6.019a1.525,1.525,0,0,1,1.656.9,1.423,1.423,0,0,1-.59,1.774" transform="translate(-18.297 -246.615)"/>
        <path id="Trazado_192934" data-name="Trazado 192934" d="M89.777,110.458c0-.47-.028-.942.006-1.409a1.4,1.4,0,0,1,2.806.014c.042.967.039,1.939,0,2.906a1.385,1.385,0,0,1-1.412,1.39,1.4,1.4,0,0,1-1.4-1.4c-.029-.5-.005-1-.005-1.5h0" transform="translate(-68.522 -82.214)"/>
      </g>
    </g>
  </g>
</svg>
