<svg xmlns="http://www.w3.org/2000/svg" xmlns:xlink="http://www.w3.org/1999/xlink" width="431.961" height="1505.48" viewBox="0 0 431.961 1505.48">
  <defs>
    <clipPath id="clip-path">
      <rect id="Rectángulo_85306" data-name="Rectángulo 85306" width="3" height="1505.48" fill="none"/>
    </clipPath>
    <clipPath id="clip-path-2">
      <rect id="Rectángulo_85302" data-name="Rectángulo 85302" width="339.222" height="1427.245" fill="none"/>
    </clipPath>
    <clipPath id="clip-path-4">
      <rect id="Rectángulo_85270" data-name="Rectángulo 85270" width="191.022" height="230.273" fill="none"/>
    </clipPath>
    <clipPath id="clip-path-5">
      <rect id="Rectángulo_85271" data-name="Rectángulo 85271" width="157.713" height="32.783" fill="none"/>
    </clipPath>
    <clipPath id="clip-path-6">
      <rect id="Rectángulo_85272" data-name="Rectángulo 85272" width="57.219" height="243.713" fill="none"/>
    </clipPath>
    <clipPath id="clip-path-7">
      <rect id="Rectángulo_85273" data-name="Rectángulo 85273" width="23.788" height="229.341" fill="none"/>
    </clipPath>
    <clipPath id="clip-path-8">
      <rect id="Rectángulo_85274" data-name="Rectángulo 85274" width="26.153" height="42.684" fill="none"/>
    </clipPath>
    <clipPath id="clip-path-9">
      <rect id="Rectángulo_85275" data-name="Rectángulo 85275" width="35.53" height="82.78" fill="none"/>
    </clipPath>
    <clipPath id="clip-path-10">
      <rect id="Rectángulo_85276" data-name="Rectángulo 85276" width="16.262" height="63.771" fill="none"/>
    </clipPath>
    <clipPath id="clip-path-11">
      <rect id="Rectángulo_85278" data-name="Rectángulo 85278" width="63.898" height="110.028" fill="none"/>
    </clipPath>
    <clipPath id="clip-path-12">
      <rect id="Rectángulo_85279" data-name="Rectángulo 85279" width="61.535" height="113.96" fill="none"/>
    </clipPath>
    <clipPath id="clip-path-13">
      <rect id="Rectángulo_85280" data-name="Rectángulo 85280" width="138.853" height="634.465" fill="none"/>
    </clipPath>
    <clipPath id="clip-path-14">
      <rect id="Rectángulo_85281" data-name="Rectángulo 85281" width="58.688" height="256.383" fill="none"/>
    </clipPath>
    <clipPath id="clip-path-15">
      <rect id="Rectángulo_85282" data-name="Rectángulo 85282" width="1.926" height="14.838" fill="none"/>
    </clipPath>
    <clipPath id="clip-path-16">
      <rect id="Rectángulo_85283" data-name="Rectángulo 85283" width="149.743" height="431.265" fill="none"/>
    </clipPath>
    <clipPath id="clip-path-17">
      <rect id="Rectángulo_85284" data-name="Rectángulo 85284" width="80.464" height="325.628" fill="none"/>
    </clipPath>
    <clipPath id="clip-path-18">
      <rect id="Rectángulo_85285" data-name="Rectángulo 85285" width="30.136" height="322.288" fill="none"/>
    </clipPath>
    <clipPath id="clip-path-19">
      <rect id="Rectángulo_85286" data-name="Rectángulo 85286" width="105.764" height="360.913" fill="none"/>
    </clipPath>
    <clipPath id="clip-path-20">
      <rect id="Rectángulo_85287" data-name="Rectángulo 85287" width="64.453" height="347.662" fill="none"/>
    </clipPath>
    <clipPath id="clip-path-21">
      <rect id="Rectángulo_85288" data-name="Rectángulo 85288" width="41.027" height="339.901" fill="none"/>
    </clipPath>
    <clipPath id="clip-path-22">
      <rect id="Rectángulo_85289" data-name="Rectángulo 85289" width="58.977" height="63.81" fill="none"/>
    </clipPath>
    <clipPath id="clip-path-23">
      <rect id="Rectángulo_85290" data-name="Rectángulo 85290" width="131.938" height="290.205" fill="none"/>
    </clipPath>
    <clipPath id="clip-path-24">
      <rect id="Rectángulo_85291" data-name="Rectángulo 85291" width="44.196" height="52.712" fill="none"/>
    </clipPath>
    <clipPath id="clip-path-25">
      <rect id="Rectángulo_85292" data-name="Rectángulo 85292" width="156.865" height="309.047" fill="none"/>
    </clipPath>
    <clipPath id="clip-path-26">
      <rect id="Rectángulo_85293" data-name="Rectángulo 85293" width="46.928" height="43.543" fill="none"/>
    </clipPath>
    <clipPath id="clip-path-27">
      <rect id="Rectángulo_85294" data-name="Rectángulo 85294" width="39.408" height="96.562" fill="none"/>
    </clipPath>
    <clipPath id="clip-path-28">
      <rect id="Rectángulo_85295" data-name="Rectángulo 85295" width="110.119" height="157.986" fill="none"/>
    </clipPath>
    <clipPath id="clip-path-29">
      <rect id="Rectángulo_85296" data-name="Rectángulo 85296" width="134.724" height="158.416" fill="none"/>
    </clipPath>
    <clipPath id="clip-path-30">
      <rect id="Rectángulo_85297" data-name="Rectángulo 85297" width="48.388" height="104.049" fill="none"/>
    </clipPath>
    <clipPath id="clip-path-31">
      <rect id="Rectángulo_85298" data-name="Rectángulo 85298" width="15.249" height="88.358" fill="none"/>
    </clipPath>
    <clipPath id="clip-path-32">
      <rect id="Rectángulo_85299" data-name="Rectángulo 85299" width="101.884" height="96.694" fill="none"/>
    </clipPath>
    <clipPath id="clip-path-33">
      <rect id="Rectángulo_85300" data-name="Rectángulo 85300" width="126.799" height="140.826" fill="none"/>
    </clipPath>
  </defs>
  <g id="Grupo_137496" data-name="Grupo 137496" transform="translate(1169.187 8049.928)">
    <g id="Grupo_135209" data-name="Grupo 135209" transform="translate(-740.226 -8049.928)">
      <g id="Grupo_135208" data-name="Grupo 135208" clip-path="url(#clip-path)">
        <line id="Línea_161" data-name="Línea 161" y2="8.185" transform="translate(0.475 -0.001)" fill="none" stroke="#2b3033" stroke-miterlimit="10" stroke-width="0.949"/>
        <line id="Línea_162" data-name="Línea 162" y2="1464.565" transform="translate(0.475 24.548)" fill="none" stroke="#2b3033" stroke-miterlimit="10" stroke-width="0.949" stroke-dasharray="5.692 5.692"/>
        <line id="Línea_163" data-name="Línea 163" y2="8.185" transform="translate(0.475 1497.296)" fill="none" stroke="#2b3033" stroke-miterlimit="10" stroke-width="0.949"/>
      </g>
    </g>
    <path id="Trazado_193002" data-name="Trazado 193002" d="M40.5-8529.935s-56.483,57.953-82,584.774-159.486,867.344-256.3,834.134-75.984,81.49-75.984,81.49,412.574-5.481,414.284,0S40.5-8529.935,40.5-8529.935Z" transform="translate(-793.512 480.007)" fill="#f0f0f0"/>
    <g id="Grupo_135229" data-name="Grupo 135229" transform="translate(-1112.324 -8016.737)">
      <g id="Grupo_135187" data-name="Grupo 135187" clip-path="url(#clip-path-2)">
        <g id="Grupo_135186" data-name="Grupo 135186">
          <g id="Grupo_135185" data-name="Grupo 135185" clip-path="url(#clip-path-2)">
            <path id="Trazado_192935" data-name="Trazado 192935" d="M132.814,295.822s22.731-5.141,37.807,15.082-10.075,28-10.075,28-13.953-23.936-35.31-11.071S113.35,373.9,113.35,373.9l-7.923.9s-.69-50.261,4.3-55.947,23.082-23.036,23.082-23.036" transform="translate(99.987 704.021)" fill="#963e35"/>
            <path id="Trazado_192936" data-name="Trazado 192936" d="M253.512,558.659c3.975-5.523,7.226-12.58,9.486-21.631,6.778-27.182,3.048-59.058,3.079-86.869.021-26.1,3.7-104.13-20.036-115.658-33.453-16.239-73.339-18.256-108.168-15.789-13.352.944-33.122.772-41.955,17.245-10.724,20.027-12.5,53.544-15.482,77.487-2.268,18.253-3.685,38.212-4.238,56.286-.76,25.168,1.265,55.44,10.406,77.707,13.158,32.035,45.482,29.118,68.21,31.328a288.42,288.42,0,0,0,47.778.755c18.579-1.276,38.37-3.439,50.921-20.859" transform="translate(72.149 757.914)" fill="#963e35"/>
            <g id="Grupo_135094" data-name="Grupo 135094" transform="translate(148.201 1107.814)" opacity="0.5" style="mix-blend-mode: multiply;isolation: isolate">
              <g id="Grupo_135093" data-name="Grupo 135093">
                <g id="Grupo_135092" data-name="Grupo 135092" clip-path="url(#clip-path-4)">
                  <path id="Trazado_192937" data-name="Trazado 192937" d="M266.078,427.57c.018-17.648,1.67-58.99-4.574-87.512.172,3.391.335,6.783.335,10.2,0,34.719-9.151,68.392-25.23,92.927q-.327.5-.661,1.005c-16.079,24.538-38.148,38.493-60.9,38.493s-44.822-13.955-60.9-38.493-25.23-58.208-25.23-92.927a196.836,196.836,0,0,1,1.512-23.953c-5.945,19.543-7.629,44.521-10,63.546-2.268,18.253-3.685,38.212-4.238,56.282-.76,25.171,1.265,55.44,10.406,77.71,13.158,32.035,45.482,29.118,68.21,31.328a288.832,288.832,0,0,0,47.778.755c18.579-1.279,38.37-3.442,50.921-20.863,3.975-5.524,7.226-12.577,9.486-21.631,6.778-27.182,3.048-59.058,3.079-86.869" transform="translate(-76.052 -327.31)" fill="#c87568"/>
                </g>
              </g>
            </g>
            <g id="Grupo_135097" data-name="Grupo 135097" transform="translate(165.15 1076.077)" opacity="0.5" style="mix-blend-mode: screen;isolation: isolate">
              <g id="Grupo_135096" data-name="Grupo 135096">
                <g id="Grupo_135095" data-name="Grupo 135095" clip-path="url(#clip-path-5)">
                  <path id="Trazado_192938" data-name="Trazado 192938" d="M84.749,342.257c15.771-4.772,42.635-10.794,73.162-8.391,48.427,3.8,66.688,16.852,66.688,16.852l17.864-12.878a17.015,17.015,0,0,0-4.673-3.564,154.482,154.482,0,0,0-34.268-11.531,343.655,343.655,0,0,0-66.62-4.64c-2.436.122-4.9.213-7.28.383l-.187.01c-11.573.8-21.679,2.5-28.973,5.256a27.4,27.4,0,0,0-12.8,11.978,64.973,64.973,0,0,0-2.915,6.526" transform="translate(-84.749 -317.935)" fill="#963e35"/>
                </g>
              </g>
            </g>
            <g id="Grupo_135100" data-name="Grupo 135100" transform="translate(281.268 1091.157)" opacity="0.7" style="mix-blend-mode: multiply;isolation: isolate">
              <g id="Grupo_135099" data-name="Grupo 135099">
                <g id="Grupo_135098" data-name="Grupo 135098" clip-path="url(#clip-path-6)">
                  <path id="Trazado_192939" data-name="Trazado 192939" d="M200.751,442.982c.082-18.487,1.865-61.606-4.116-91.611-3-13.46-7.766-24.027-15.377-27.723-.969-.467-1.992-.812-2.962-1.259-4.3,2.613-8.4,7.605-11.505,16.571-11.043,31.934-35.254,182.694-14.009,219.1a44.8,44.8,0,0,0,5.959,8.042c11.447-2.474,22.137-7.4,29.988-18.3,3.975-5.524,7.226-12.58,9.486-21.631a126.391,126.391,0,0,0,2.584-14.746c1.775-22.687-.154-46.728-.049-68.447" transform="translate(-144.337 -322.391)" fill="#c87568"/>
                </g>
              </g>
            </g>
            <g id="Grupo_135103" data-name="Grupo 135103" transform="translate(301.507 1103.237)" opacity="0.5" style="mix-blend-mode: screen;isolation: isolate">
              <g id="Grupo_135102" data-name="Grupo 135102">
                <g id="Grupo_135101" data-name="Grupo 135101" clip-path="url(#clip-path-7)">
                  <path id="Trazado_192940" data-name="Trazado 192940" d="M177.125,529.744c.493-4.772.815-9.727,1.074-14.747.737-22.687-.064-46.728-.02-68.446.037-18.483.776-61.606-1.711-91.611-1.249-13.46-3.233-24.027-6.4-27.723-.4-.467-.828-.809-1.232-1.259-1.789,2.613-3.5,7.605-4.786,16.571-4.365,30.346-13.666,167.906-7,212.772a44.9,44.9,0,0,0,17.936-11.386c.842-4.1,1.565-8.736,2.132-14.171" transform="translate(-154.723 -325.96)" fill="#963e35"/>
                </g>
              </g>
            </g>
            <path id="Trazado_192941" data-name="Trazado 192941" d="M151.675,372.667c2.169.166,4.338.311,6.565.311a82.875,82.875,0,0,0,33.662-6.932c-.589-5.1-1.306-10.056-2.229-14.676-3-13.46-7.764-24.027-15.375-27.723-.97-.467-1.994-.809-2.962-1.259-4.3,2.613-8.4,7.605-11.505,16.571-2.319,6.7-5.217,18.686-8.155,33.707" transform="translate(143.893 768.766)" fill="#4052a0"/>
            <g id="Grupo_135106" data-name="Grupo 135106" transform="translate(295.568 1099.061)" opacity="0.4" style="mix-blend-mode: multiply;isolation: isolate">
              <g id="Grupo_135105" data-name="Grupo 135105">
                <g id="Grupo_135104" data-name="Grupo 135104" clip-path="url(#clip-path-8)">
                  <path id="Trazado_192942" data-name="Trazado 192942" d="M175.6,349.828c-2.473-11.1-6.181-20.172-11.669-25.1a42.7,42.7,0,0,0-4.1,8.668c-2.319,6.7-5.217,18.686-8.155,33.707,2.169.163,4.338.308,6.565.308a86.277,86.277,0,0,0,16.057-1.557c1.173-.45,2.4-.843,3.531-1.347-.588-5.1-1.3-10.056-2.227-14.676" transform="translate(-151.675 -324.724)" fill="#1d255b"/>
                </g>
              </g>
            </g>
            <path id="Trazado_192943" data-name="Trazado 192943" d="M138.2,295.245c-19.041.274-25,16.93-29.215,26.332-7.752,17.319-2.259,59.359-2.259,59.359l10.657.931a276.629,276.629,0,0,1,.3-30.786c-4.745-9.474-4.587-24.186.589-33.183.1-.166.195-.332.29-.5,2.409-4.18,5.536-6.39,8.742-6.844,3.348-5.317,8.35-7.213,12.807-5.486.158-1.09.425-2.119.661-3.161a30.208,30.208,0,0,1-2.572-6.661" transform="translate(99.46 704.039)" fill="#963e35"/>
            <path id="Trazado_192944" data-name="Trazado 192944" d="M139.807,298c1.8,11.3-.612,24.89-7.3,29.818a25.4,25.4,0,0,1,4.194,9.44c6.3,26.9,2.422,40.812,2.422,40.812s14.054,9.277,14.054-4.634c0,0,5.774-46.332-8.27-69.127a29.862,29.862,0,0,0-5.1-6.309" transform="translate(125.704 710.611)" fill="#963e35"/>
            <g id="Grupo_135109" data-name="Grupo 135109" transform="translate(204.299 1002.723)" opacity="0.8" style="mix-blend-mode: multiply;isolation: isolate">
              <g id="Grupo_135108" data-name="Grupo 135108">
                <g id="Grupo_135107" data-name="Grupo 135107" clip-path="url(#clip-path-9)">
                  <path id="Trazado_192945" data-name="Trazado 192945" d="M114.764,339.1c-1.255-8.177-.123-17.305,3.51-23.618.1-.169.195-.335.288-.5,2.411-4.184,5.544-6.39,8.75-6.847,3.35-5.327,8.368-7.219,12.832-5.469.09-.623.109-1.276.226-1.878a50.183,50.183,0,0,0-15.264-4.522c-9.137,5.476-13.068,16.107-16.12,22.893-7.752,17.319-2.259,59.359-2.259,59.359l6.045.531c-4.311-11.836-3.64-30.1,1.992-39.948" transform="translate(-104.839 -296.263)" fill="#c87568"/>
                </g>
              </g>
            </g>
            <g id="Grupo_135112" data-name="Grupo 135112" transform="translate(258.207 1027.934)" opacity="0.8" style="mix-blend-mode: multiply;isolation: isolate">
              <g id="Grupo_135111" data-name="Grupo 135111">
                <g id="Grupo_135110" data-name="Grupo 135110" clip-path="url(#clip-path-10)">
                  <path id="Trazado_192946" data-name="Trazado 192946" d="M148.02,341.421c-1.146-9.575-2.925-23.547-6.008-31.382a39.084,39.084,0,0,0-3.2-6.329c-1.3,4.552-3.393,8.35-6.308,10.5a25.423,25.423,0,0,1,4.194,9.443c6.3,26.9,2.422,40.811,2.422,40.811s5.361,3.527,9.463,2.961c.553-.081-.308-23.939-.561-26" transform="translate(-132.503 -303.71)" fill="#c87568"/>
                </g>
              </g>
            </g>
            <path id="Trazado_192947" data-name="Trazado 192947" d="M115.091,341.194s14.366-46.9,42.355-14.889l5.858-9.873s-11.885-29.916-36.69-10.472-18.259,60.733-18.259,60.733Z" transform="translate(102.054 713.926)" fill="#963e35"/>
            <path id="Trazado_192949" data-name="Trazado 192949" d="M105.548,375.8c.1,3.608,3.087,37.308,3.087,37.308s49.078,61.474,44.428,70.332-50.358-31.084-57.073-47.5l-6.518-61.261Z" transform="translate(84.88 893.447)" fill="#1b205e"/>
            <g id="Grupo_135118" data-name="Grupo 135118" transform="translate(174.351 1268.123)" opacity="0.4" style="mix-blend-mode: multiply;isolation: isolate">
              <g id="Grupo_135117" data-name="Grupo 135117">
                <g id="Grupo_135116" data-name="Grupo 135116" clip-path="url(#clip-path-11)">
                  <path id="Trazado_192950" data-name="Trazado 192950" d="M105.548,375.8c.1,3.608,3.087,37.308,3.087,37.308s.129.166.314.393a43.931,43.931,0,0,0,4,25.476c1.8,6.6,4.591,12.249,8.553,16.168a17.792,17.792,0,0,0,2.391,1.97c3.63,4.728,7.639,8.33,12.152,9.342a11.206,11.206,0,0,0,9.64-1.831c5.392,8.9,8.755,16.175,7.382,18.815-4.65,8.851-50.358-31.084-57.073-47.5l-6.518-61.261Z" transform="translate(-89.47 -374.676)" fill="#1d255b"/>
                </g>
              </g>
            </g>
            <path id="Trazado_192951" data-name="Trazado 192951" d="M56.5,384.2c-.018,3.628-2.272,37.488-2.272,37.488S6.512,486.329,11.344,494.875,61,460.515,67.35,443.676l5.189-61.65Z" transform="translate(10.436 910.976)" fill="#1b205e"/>
            <g id="Grupo_135121" data-name="Grupo 135121" transform="translate(21.438 1293.005)" opacity="0.4" style="mix-blend-mode: multiply;isolation: isolate">
              <g id="Grupo_135120" data-name="Grupo 135120">
                <g id="Grupo_135119" data-name="Grupo 135119" clip-path="url(#clip-path-12)">
                  <path id="Trazado_192952" data-name="Trazado 192952" d="M16.331,479.222c4.41,1.019,9.147-.741,13.072-3.926,9.543-7.754,18.629-19.654,24.185-35.481,2.243-6.4,2.276-14.06.815-20.822.532-8.032,2.081-31.785,2.093-34.79l16.042-2.176-5.187,61.65c-6.351,16.838-51.167,59.731-56.007,51.2-1.237-2.193,1-8.1,4.989-15.654" transform="translate(-11.002 -382.026)" fill="#1d255b"/>
                </g>
              </g>
            </g>
            <path id="Trazado_192953" data-name="Trazado 192953" d="M159.2,226.095s6.6,208.46,7.376,237.487c.778,29.006,3.077,76.075,4.044,112.345S165.308,769,163.049,801.882c0,0-9.157,9.829-18.842-.3,0,0-13.122-138.887-15.621-193.213-2.49-54.306-20.835-192.763-20.835-192.763S82.482,566.659,80.125,595.929,55.84,823.242,55.84,823.242s-17.074,26.806-24.156-3.524c0,0,3.95-165.686,5.488-225.8,1.534-60.09,14.566-199.247,12.651-231.807s7.538-109.647,7.713-142.383c.175-32.712,87.315-21.56,101.667,6.363" transform="translate(30.058 476.228)" fill="#4052a0"/>
            <g id="Grupo_135124" data-name="Grupo 135124" transform="translate(61.743 675.94)" opacity="0.2" style="mix-blend-mode: multiply;isolation: isolate">
              <g id="Grupo_135123" data-name="Grupo 135123">
                <g id="Grupo_135122" data-name="Grupo 135122" clip-path="url(#clip-path-13)">
                  <path id="Trazado_192954" data-name="Trazado 192954" d="M37.5,584.073c8.925,8.3,21.593,3.537,28.7-8.455C92.788,530.731,92.6,452.134,93.86,392.491c.458-21.766-12.292-38.96-24.012-38.009a13.671,13.671,0,0,0-2.81.535c-5.992-1.922-12.312-.105-17.273,5.811-1.614-33.223,7.594-108.777,7.769-141.094.175-32.715,87.315-21.563,101.667,6.36,0,0,1.951,61.721,3.864,122.664-11.123-3.134-22.829,8.7-29.01,26.342-12.347,35.254-7.489,73.006-5.556,111.532,1.684,33.494.292,74.052,13.522,101.456,7.011,14.527,18.75,22.6,28.515,15.312-.955,58.164-5.61,171.125-7.489,198.483,0,0-9.157,9.829-18.842-.3,0,0-13.122-138.89-15.621-193.213-2.49-54.306-20.835-192.763-20.835-192.763S82.482,566.659,80.124,595.932c-2.36,29.256-24.285,227.309-24.285,227.309s-17.074,26.806-24.154-3.523c0,0,3.948-165.686,5.486-225.8.08-3.06.193-6.387.327-9.849" transform="translate(-31.684 -199.712)" fill="#1d255b"/>
                </g>
              </g>
            </g>
            <g id="Grupo_135127" data-name="Grupo 135127" transform="translate(103.477 841.877)" opacity="0.5">
              <g id="Grupo_135126" data-name="Grupo 135126">
                <g id="Grupo_135125" data-name="Grupo 135125" clip-path="url(#clip-path-14)">
                  <path id="Trazado_192955" data-name="Trazado 192955" d="M53.838,497.062c-.524,3.476-.793,5.48-.729,5.513a54.234,54.234,0,0,0,1.111-5.32c.624-3.432,1.522-8.323,2.6-14.2,2.058-11.785,5.037-27.385,7.906-43.045,5.895-31.236,11.419-62.71,11.419-62.71s1.245-7.923,3.108-19.789c1.992-11.826,3.995-27.886,6.187-43.861.5-4.847,1.025-9.653,1.541-14.378.133.694.308,1.547.538,2.63.528,2.745,1.516,6.532,2.356,11.291,1.9,9.362,3.948,22.132,5.686,35.01,1.633,12.922,2.989,25.967,3.864,35.782.846,9.829,1.411,16.375,1.411,16.375s2.294,26.329,4.591,52.651c1.239,13.142,2.607,26.264,3.9,36.009.581,4.891,1.253,8.9,1.662,11.728a39.167,39.167,0,0,0,.778,4.376,40.552,40.552,0,0,0-.388-4.535c-.288-2.877-.838-6.908-1.3-11.833-1.056-9.815-2.216-22.937-3.276-36.114-2.007-26.383-4.016-52.779-4.016-52.779s-.627-6.556-1.573-16.395c-.982-9.836-2.479-22.89-4.3-35.826-1.925-12.892-4.184-25.638-6.32-34.912-.953-4.711-2.056-8.421-2.7-11.1-.351-1.323-.631-2.359-.834-3.053,1.179-10.79,2.26-21.015,2.693-29.446.411-6.1.746-11.2.986-14.781.222-3.564.32-5.612.247-5.612-.068-.02-.3,2-.643,5.554-.325,3.53-.793,8.58-1.35,14.655-.855,12.181-3.075,28.14-4.907,44.182-2.36,15.847-4.488,31.792-6.575,43.539-1.949,11.8-3.245,19.671-3.245,19.671s-5.308,31.521-10.86,62.953c-2.7,15.759-5.476,31.47-7.315,43.384-.933,5.95-1.705,10.915-2.249,14.385" transform="translate(-53.101 -248.738)" fill="#1d255b"/>
                </g>
              </g>
            </g>
            <g id="Grupo_135130" data-name="Grupo 135130" transform="translate(167.091 343.401)" style="mix-blend-mode: multiply;isolation: isolate">
              <g id="Grupo_135129" data-name="Grupo 135129">
                <g id="Grupo_135128" data-name="Grupo 135128" clip-path="url(#clip-path-15)">
                  <path id="Trazado_192956" data-name="Trazado 192956" d="M87.67,109.547c-.684-2.664-1.323-5.351-1.925-8.086a79.639,79.639,0,0,1,.462,14.838s.655-2.549,1.463-6.752" transform="translate(-85.745 -101.458)" fill="#d2e4ff"/>
                </g>
              </g>
            </g>
            <path id="Trazado_192957" data-name="Trazado 192957" d="M27.171,132.321s38.025-42.2,82.391-42.2,68.658,27.52,79.222,42.2,6.337,152.273-4.225,198.137c-8.089,35.119-12.676,86.229-13.732,108.246s2.639,101.815,2.639,101.815-24.822-5.507-43.836-42.2c0,0-30.633,45.868-78.164,29.354,0,0,7.4-87.14,6.339-155.021S28.227,169.013,27.171,132.321" transform="translate(25.777 214.911)" fill="#1b205e"/>
            <g id="Grupo_135133" data-name="Grupo 135133" transform="translate(52.948 324.166)" opacity="0.4" style="mix-blend-mode: multiply;isolation: isolate">
              <g id="Grupo_135132" data-name="Grupo 135132">
                <g id="Grupo_135131" data-name="Grupo 135131" clip-path="url(#clip-path-16)">
                  <path id="Trazado_192958" data-name="Trazado 192958" d="M170.827,425.226c.657-13.731,2.689-38.767,6.088-64.185-16.558,17.434-37.058,23-56.812,15.407C84.957,362.957,58.59,299.881,53.237,240.353c-4.268-47.51-4.712-87.221.031-134.673q.512-5.077,1.339-9.9-1.529,1.026-2.993,2.051c-.269.186-.526.379-.8.569-.688.494-1.372.982-2.034,1.469-.355.261-.69.518-1.039.772-.557.42-1.115.836-1.656,1.246-.362.281-.717.558-1.072.836-.491.386-.988.772-1.465,1.151-.366.291-.717.579-1.072.866-.44.359-.881.714-1.31,1.066-.351.291-.688.575-1.029.863-.4.335-.8.674-1.187,1-.333.284-.655.565-.972.839-.366.322-.731.636-1.082.944-.3.267-.6.535-.891.8-.333.3-.663.6-.98.883-.279.257-.555.508-.818.751l-.869.806c-.246.234-.5.464-.733.69-.271.257-.53.5-.779.748-.214.2-.425.41-.622.6-.238.227-.452.443-.665.653-.191.186-.382.372-.553.548-.2.2-.382.379-.561.562-.146.149-.3.3-.433.44-.177.176-.329.335-.479.494-.1.1-.218.223-.31.315l-.351.372c-.072.081-.162.173-.226.24-.115.122-.2.217-.273.291-.019.017-.053.058-.066.071l-.119.132C28.227,155.535,56.746,291.3,57.8,359.176S51.465,514.2,51.465,514.2c1.728.606,3.43,1.1,5.113,1.533.495.132.978.237,1.469.355,1.23.278,2.449.541,3.654.755.477.091.957.173,1.432.237,1.358.2,2.7.372,4.022.477.249.02.5.054.752.071,1.652.115,3.285.159,4.887.139-.2-3.06-.3-6.16-.3-9.3v-.687c0-47.1,22.628-86.392,49.746-86.392s49.742,39.292,49.742,86.392v.687a144.243,144.243,0,0,1-1.1,17.756c1.232.457,2.062.691,2.407.782h.016c.1.027.16.041.16.041s-3.695-79.805-2.639-101.815" transform="translate(-27.171 -95.777)" fill="#1d255b"/>
                </g>
              </g>
            </g>
            <path id="Trazado_192959" data-name="Trazado 192959" d="M79.85,263.776c-.55-.054-.148-37.725-.148-37.725s.173-9.372.351-18.754c.2-9.385.472-18.791.744-18.8s.5,9.385.659,18.8c.066,4.715.133,9.43.181,12.956s.051,5.9.051,5.9-1.292,37.67-1.838,37.623" transform="translate(75.478 449.477)" fill="#4052a0"/>
            <path id="Trazado_192960" data-name="Trazado 192960" d="M53.731,101.45s16.9,75.223,25.351,108.239S89.643,316.1,92.814,332.611,103.023,411,103.023,411s19.364-45.374,27.814-111.414,0-154.111-14.787-188.965S73.8,81.274,53.731,101.45" transform="translate(50.974 203.587)" fill="#d2e4ff"/>
            <g id="Grupo_135136" data-name="Grupo 135136" transform="translate(104.706 288.963)" style="mix-blend-mode: multiply;isolation: isolate">
              <g id="Grupo_135135" data-name="Grupo 135135">
                <g id="Grupo_135134" data-name="Grupo 135134" clip-path="url(#clip-path-17)">
                  <path id="Trazado_192961" data-name="Trazado 192961" d="M53.731,101.45s16.9,75.223,25.351,108.239S89.643,316.1,92.814,332.611,103.023,411,103.023,411s19.364-45.374,27.814-111.414,0-154.111-14.787-188.965S73.8,81.274,53.731,101.45" transform="translate(-53.732 -85.376)" fill="#d2e4ff"/>
                </g>
              </g>
            </g>
            <path id="Trazado_192962" data-name="Trazado 192962" d="M69.451,121.433S74.73,144.367,82.125,151.7c0,0-2.112,50.451-3.169,88.978s9.858,170.925,9.858,170.925,17.6-86.531,20.773-125.057-15.845-136.68-15.845-136.68,7.921-5.5,5.811-33.023-26.937-46.785-30.1,4.586" transform="translate(65.888 212.958)" fill="#cc5252"/>
            <g id="Grupo_135139" data-name="Grupo 135139" transform="translate(135.339 302.278)" opacity="0.5" style="mix-blend-mode: multiply;isolation: isolate">
              <g id="Grupo_135138" data-name="Grupo 135138">
                <g id="Grupo_135137" data-name="Grupo 135137" clip-path="url(#clip-path-18)">
                  <path id="Trazado_192963" data-name="Trazado 192963" d="M92.837,265.948c-1.409-34.225-6.783-69.594-1.643-103.525.6-3.977,1.795-6.81,3.289-8.661-.47-2.488-.741-3.9-.741-3.9s4.587-3.229,5.844-16.909c-2.512,2.9-5.135,4.7-8.368,5.209-2.564.4-5.743-.924-7.886-3.466Q78,128.353,77.528,117.151a37.3,37.3,0,0,1,2.623-14.814c1.446-3.517,3.032-6.177,5.509-7.358,2.42-1.154,4.928-.494,7.1,1.611A13.491,13.491,0,0,1,93.9,97.856c-8.11-13.769-22.12-14.168-24.444,23.567,0,0,5.279,22.934,12.674,30.272,0,0-2.112,50.451-3.169,88.978S88.815,411.6,88.815,411.6s2.855-14.033,6.472-33.3c-1.4-37.41-.914-74.945-2.449-112.348" transform="translate(-69.451 -89.31)" fill="#cc5252"/>
                </g>
              </g>
            </g>
            <g id="Grupo_135142" data-name="Grupo 135142" transform="translate(91.395 290.818)" opacity="0.4" style="mix-blend-mode: multiply;isolation: isolate">
              <g id="Grupo_135141" data-name="Grupo 135141">
                <g id="Grupo_135140" data-name="Grupo 135140" clip-path="url(#clip-path-19)">
                  <path id="Trazado_192964" data-name="Trazado 192964" d="M144.977,165.005C125.26,81.372,114.17,95.133,114.17,95.133s19.01,72.515,15.49,165.75c-2.919,77.355-15.046,147.531-19.093,169.2-1.8-37.335-6.6-127.653-13.072-180.906C89.178,180.8,61.068,120.1,65.227,85.924c0,0-19,17.2-18.308,50.342s7.617,102.55,15.239,117.053,23.56,7.253,23.56,7.253S71.163,302,76.709,329.97c3.827,19.316,9.847,37.447,15.451,55.314,3.379,10.766,6.832,21.455,10.2,32.231,3.073,9.839,4.529,20.707,8.847,29.321,2.872-9.274,9.009-17.265,12.653-26.291a304.547,304.547,0,0,0,11.053-33.558,501.869,501.869,0,0,0,13.234-65.725c5.714-42.934-5.809-68.6-5.809-68.6,9.155-3.886,16.484-28.942,2.64-87.654" transform="translate(-46.901 -85.924)" fill="#1d255b"/>
                </g>
              </g>
            </g>
            <path id="Trazado_192965" data-name="Trazado 192965" d="M65.229,85.924s-19,16.561-18.31,48.471,7.619,98.729,15.241,112.693,23.56,6.982,23.56,6.982-14.555,39.887-9.009,66.815,23.556,75.8,34.644,112.7c0,0-5.546-124.668-13.857-190.488S61.07,118.836,65.229,85.924" transform="translate(44.494 204.894)" fill="#4052a0"/>
            <g id="Grupo_135145" data-name="Grupo 135145" transform="translate(91.395 290.818)" opacity="0.2" style="mix-blend-mode: multiply;isolation: isolate">
              <g id="Grupo_135144" data-name="Grupo 135144">
                <g id="Grupo_135143" data-name="Grupo 135143" clip-path="url(#clip-path-20)">
                  <path id="Trazado_192966" data-name="Trazado 192966" d="M91.285,275.809a129.572,129.572,0,0,1,6.166-33.047c-.086-.633-.175-1.262-.261-1.9-7.912-2.017-14.085-8.695-20.635-17.756C61,201.588,57.45,168.5,55.37,136.377c-.949-14.679,3.806-31.568,9.469-42.426a58.185,58.185,0,0,1,.39-8.028s-19,16.561-18.31,48.471,7.619,98.732,15.241,112.7,23.56,6.979,23.56,6.979-14.555,39.891-9.009,66.819,23.556,75.795,34.644,112.7c0,0-.456-10.2-1.3-26.271-13-39.931-21.726-85.234-18.774-131.5" transform="translate(-46.901 -85.926)" fill="#1d255b"/>
                </g>
              </g>
            </g>
            <path id="Trazado_192967" data-name="Trazado 192967" d="M78.891,418.24s16.9-79.788,20.422-169.544-15.49-159.58-15.49-159.58,11.09-13.244,30.807,67.272c13.842,56.526,6.514,80.648-2.642,84.391,0,0,11.525,24.714,5.811,66.047-4.772,34.526-17.782,93.963-38.2,121.389Z" transform="translate(74.843 210.57)" fill="#4052a0"/>
            <g id="Grupo_135148" data-name="Grupo 135148" transform="translate(153.733 298.883)" opacity="0.2" style="mix-blend-mode: multiply;isolation: isolate">
              <g id="Grupo_135147" data-name="Grupo 135147">
                <g id="Grupo_135146" data-name="Grupo 135146" clip-path="url(#clip-path-21)">
                  <path id="Trazado_192968" data-name="Trazado 192968" d="M102.082,310.056c1.651-13.694,4.94-49.686,14.025-56.123a73.782,73.782,0,0,0-4.12-13.163c3.108-1.266,6-4.894,7.929-11.325-7.052-9.081-10.975-27.764-12.793-42.822-1.734-14.341-2.777-28.322-6.425-41.783-5.061-18.676-10.917-36.6-14.5-56.364-.01-.051-.016-.1-.023-.152a2.786,2.786,0,0,0-2.356.785s19.009,69.814,15.488,159.577-20.42,169.544-20.42,169.544l.705,9.978c6.945-9.331,13.009-22.4,18.212-36.9-2.771-26.4,1.339-56.919,4.273-81.254" transform="translate(-78.89 -88.308)" fill="#1d255b"/>
                </g>
              </g>
            </g>
            <path id="Trazado_192969" data-name="Trazado 192969" d="M62.478,82.7s-17.076,23.239-2.29,55.04c0,0,7.216,23.851,26.935,38.527,0,0-4.924-34.858,10.566-55.649,0,0,20.6,16.513,18.483,51.981,0,0,6.162-23.848,4.049-47.09S92.758,64.359,62.478,82.7" transform="translate(51.382 185.64)" fill="#d2e4ff"/>
            <g id="Grupo_135151" data-name="Grupo 135151" transform="translate(105.574 263.491)" style="mix-blend-mode: multiply;isolation: isolate">
              <g id="Grupo_135150" data-name="Grupo 135150">
                <g id="Grupo_135149" data-name="Grupo 135149" clip-path="url(#clip-path-22)">
                  <path id="Trazado_192970" data-name="Trazado 192970" d="M111.108,125.011c-.012-.217-.037-.44-.045-.657a68.691,68.691,0,0,1,2.091-20.643C103.239,85.232,84.113,69.588,62.463,82.7c0,0-10.03,13.711-8.019,34.459,1.485-3.006,3.685-5.07,6.612-5.212,10.957-.525,21.977-.1,27.159,20.494.474,1.889.881,3.787,1.261,5.69a52.783,52.783,0,0,1,8.2-17.512s8.469,6.806,13.99,21.039a77.776,77.776,0,0,1-.555-16.649" transform="translate(-54.176 -77.85)" fill="#d2e4ff"/>
                </g>
              </g>
            </g>
            <path id="Trazado_192971" data-name="Trazado 192971" d="M92.242,105.734c6.534-1.161,12.666-5.239,12.561-5.659-.086-.474-6.285,2.718-12.682,3.222a33.849,33.849,0,0,1-8.736-.223c-1.179-.21-2.157-.491-2.841-.64a5.52,5.52,0,0,1-1.076-.3s-.384-.112-1.064-.315a16.372,16.372,0,0,1-2.791-.978,28.068,28.068,0,0,1-8.1-5.145,39.17,39.17,0,0,1-6.949-8.925c-1.641-2.975-2.623-5.212-2.767-5.04a29.736,29.736,0,0,0,2.194,5.943,40.221,40.221,0,0,0,6.832,10.15,30.229,30.229,0,0,0,8.327,6.1,17.82,17.82,0,0,0,2.9,1.225c.7.251,1.1.4,1.1.4a6,6,0,0,0,1.124.244c.719.1,1.74.328,2.97.46a32.183,32.183,0,0,0,8.993-.514" transform="translate(54.827 194.872)" fill="#65a1ff"/>
            <path id="Trazado_192972" data-name="Trazado 192972" d="M164.2,102.412s16.9,49.293,23.942,115.317,4.93,162.058-8.452,175.261-86.615,1.2-126.045-28.81c0,0-4.229-33.609,10.56-54.015,0,0,66.9-2.406,94.361,8.4,0,0,21.122-144.729,5.634-216.154" transform="translate(50.36 244.211)" fill="#1d255b"/>
            <g id="Grupo_135154" data-name="Grupo 135154" transform="translate(103.444 346.623)" opacity="0.4" style="mix-blend-mode: multiply;isolation: isolate">
              <g id="Grupo_135153" data-name="Grupo 135153">
                <g id="Grupo_135152" data-name="Grupo 135152" clip-path="url(#clip-path-23)">
                  <path id="Trazado_192973" data-name="Trazado 192973" d="M124.266,370.233c18.423-21.729,42.947-8.184,59.521,15.261.427-1.2.844-2.5,1.235-3.916a37.674,37.674,0,0,1-3.825-11.42c-11.782-64.158-15.171-140.369-.988-204.687-7.469-38.134-16.01-63.058-16.01-63.058,15.488,71.425-5.632,216.154-5.632,216.154-27.465-10.81-94.363-8.4-94.363-8.4-14.789,20.406-10.56,54.018-10.56,54.018,17.236,13.119,40.938,22.8,63.27,28.434.191-8.275,2.381-16.517,7.352-22.382" transform="translate(-53.084 -102.41)" fill="#1d255b"/>
                </g>
              </g>
            </g>
            <path id="Trazado_192974" data-name="Trazado 192974" d="M94.913,164.972s16.9-13.758,26.409-5.5,16.9,45.865,13.732,45.865-7.393-7.338-11.618-4.586-15.847,13.758-22.712,11.924-13.2-41.278-5.811-47.7" transform="translate(86.9 373.977)" fill="#fad0bf"/>
            <g id="Grupo_135157" data-name="Grupo 135157" transform="translate(178.5 534.143)" opacity="0.2">
              <g id="Grupo_135156" data-name="Grupo 135156">
                <g id="Grupo_135155" data-name="Grupo 135155" clip-path="url(#clip-path-24)">
                  <path id="Trazado_192975" data-name="Trazado 192975" d="M131.133,176.716c-2.562,6.752-6.885,11.518-12.98,11.518-11.041,0-16.283-15.583-15.749-30.417a49.012,49.012,0,0,0-7.491,4.806c-7.393,6.421-1.056,45.868,5.813,47.7s18.483-9.176,22.71-11.927,8.45,4.586,11.618,4.586c1.906,0-.016-13.62-3.921-26.268" transform="translate(-91.6 -157.816)" fill="#fa7296"/>
                </g>
              </g>
            </g>
            <path id="Trazado_192976" data-name="Trazado 192976" d="M120.413,179.453c-.331.21-1.134-3.178-2.529-5.585a12.911,12.911,0,0,0-1.082-1.591c-.171-.244-.339-.481-.495-.7-.185-.162-.361-.315-.52-.46-.627-.579-1.048-.961-1.048-.961l-1.089-.88a12.336,12.336,0,0,0-2.57-1.547c-1.96-.836-4.047-1.208-4.047-1.726,0-.43,2.1-.937,4.272-.684a11.266,11.266,0,0,1,4.314,1.736s.47.565,1.181,1.411l.563.694c.17.308.345.636.532.975a16.489,16.489,0,0,1,1.078,2.19,22.472,22.472,0,0,1,1.273,4.772,6.2,6.2,0,0,1,.17,2.359" transform="translate(101.539 394.049)" fill="#fa7296"/>
            <path id="Trazado_192977" data-name="Trazado 192977" d="M118.855,175.452c-.255.21-1.347-2.664-2.736-4.979a22.1,22.1,0,0,0-2.95-4.034,10.755,10.755,0,0,0-3.2-2.982c-1.756-1.032-3.7-.382-3.794-.846-.117-.406,1.859-2.071,4.071-1.547a6.882,6.882,0,0,1,2.847,1.435,8.587,8.587,0,0,1,1.193,1.093s.431.575,1.023,1.506a27.129,27.129,0,0,1,1.882,3.8c1.226,2.955,1.9,6.363,1.662,6.549" transform="translate(100.724 383.831)" fill="#fa7296"/>
            <path id="Trazado_192978" data-name="Trazado 192978" d="M116.55,171.387c-.251.206-1.347-2.664-2.732-4.979a22.157,22.157,0,0,0-2.952-4.034,10.756,10.756,0,0,0-3.2-2.982c-1.756-1.036-3.7-.382-3.8-.849-.117-.4,1.861-2.068,4.073-1.543a6.933,6.933,0,0,1,2.851,1.432,9.177,9.177,0,0,1,1.191,1.09s.429.582,1.021,1.509a27.949,27.949,0,0,1,1.882,3.8c1.226,2.958,1.906,6.363,1.66,6.553" transform="translate(98.537 374.138)" fill="#fa7296"/>
            <path id="Trazado_192979" data-name="Trazado 192979" d="M37.07,102.456S24.491,140.225,18.854,208.712,19.9,397.677,47.369,411.131c40.488,4.278,92.955-29.355,125.7-56.875,0,0,5.636-61.149-12.676-66.044L68.5,335.912s-.44-218.777-31.427-233.456" transform="translate(16.141 244.316)" fill="#1d255b"/>
            <g id="Grupo_135160" data-name="Grupo 135160" transform="translate(33.154 346.772)" opacity="0.4" style="mix-blend-mode: multiply;isolation: isolate">
              <g id="Grupo_135159" data-name="Grupo 135159">
                <g id="Grupo_135158" data-name="Grupo 135158" clip-path="url(#clip-path-25)">
                  <path id="Trazado_192980" data-name="Trazado 192980" d="M158.082,347.119c-13.614,16.415-31.643,29.239-47.875,34.966-11.158,3.933-21.293,4.451-30.37-9-7.561-11.2-7.454-26.989-4.082-40.947L68.5,335.913s-.008-4.041-.1-11.024c-4.162,2.291-8.666,2.383-13.44-1.073-12.374-8.945-18.084-30.4-21.044-52.038-6.175-45.2-6.341-94.907,5.02-137.54A182.848,182.848,0,0,1,44.38,110.5c-2.225-3.99-4.652-6.783-7.311-8.042,0,0-12.579,37.765-18.214,106.256S19.9,397.678,47.369,411.132c40.486,4.278,92.955-29.355,125.7-56.875a234.021,234.021,0,0,0,.191-35.883c-2.734,12.008-9.767,22.223-15.174,28.745" transform="translate(-17.014 -102.454)" fill="#1d255b"/>
                </g>
              </g>
            </g>
            <path id="Trazado_192981" data-name="Trazado 192981" d="M81.312,171.186c-7.317-9.382-16.948-15.833-25.7-9.534-9.823,7.07-18.725,43.678-15.562,44.071,4.03.5,10.583-4.19,14.372-6.647,7.349-4.762,14.14-9.145,21.72-13.471a117.807,117.807,0,0,0,10.188-6.272,90.767,90.767,0,0,0-5.022-8.147" transform="translate(37.383 379.491)" fill="#fad0bf"/>
            <g id="Grupo_135163" data-name="Grupo 135163" transform="translate(76.789 541.707)" opacity="0.2">
              <g id="Grupo_135162" data-name="Grupo 135162">
                <g id="Grupo_135161" data-name="Grupo 135161" clip-path="url(#clip-path-26)">
                  <path id="Trazado_192982" data-name="Trazado 192982" d="M81.312,169.02A40.557,40.557,0,0,0,72,160.051c-.3,15.044-7.58,27.439-16.3,27.439h-.526c-4.172,0-8.011-2.857-10.92-7.46-3.915,11.5-5.99,23.306-4.2,23.526,4.03.5,10.583-4.19,14.372-6.647,7.349-4.762,14.14-9.145,21.72-13.471a117.777,117.777,0,0,0,10.188-6.272,90.769,90.769,0,0,0-5.022-8.147" transform="translate(-39.406 -160.051)" fill="#fa7296"/>
                </g>
              </g>
            </g>
            <path id="Trazado_192983" data-name="Trazado 192983" d="M58.858,167.82c.031.484-2.773,1.462-5.456,3.022a34.654,34.654,0,0,0-5.2,3.578s-.633.47-1.582,1.185a19.844,19.844,0,0,0-3.221,3.314,18.233,18.233,0,0,0-2.561,4.667c-.567,1.482-.834,2.657-.994,2.582a8.459,8.459,0,0,1,.3-3.188,20.155,20.155,0,0,1,2.331-5.906,22.7,22.7,0,0,1,3.287-4.285c.967-.954,1.633-1.53,1.633-1.53a24.318,24.318,0,0,1,5.653-2.782c2.87-1,5.78-1.12,5.805-.657" transform="translate(37.748 399.566)" fill="#fa7296"/>
            <path id="Trazado_192984" data-name="Trazado 192984" d="M58.7,165.425c-.066.267-.739-.068-1.723-.217a6.636,6.636,0,0,0-3.578.46,12.892,12.892,0,0,0-3.369,2.139c-.869.785-1.432,1.361-1.43,1.364s-.583.514-1.428,1.377a25.651,25.651,0,0,0-2.915,3.723c-2.064,2.975-3.266,7.185-3.513,7.053a8.181,8.181,0,0,1,.392-3.023,27.581,27.581,0,0,1,2.114-5.737,27.1,27.1,0,0,1,4.386-6.417s.655-.559,1.666-1.259a10.62,10.62,0,0,1,3.878-1.631,5.894,5.894,0,0,1,3.954.633c1.033.592,1.615,1.371,1.567,1.533" transform="translate(38.611 389.116)" fill="#fa7296"/>
            <path id="Trazado_192985" data-name="Trazado 192985" d="M59.808,162.666c-.136.542-2.335-.775-4.531-.5a8.388,8.388,0,0,0-2.913,1.1l-1.273.8-1.259.907a20.757,20.757,0,0,0-2.716,2.437c-1.9,2.119-3.64,4.786-3.856,4.441-.191-.288,1.21-3.608,3.019-6.4a22.715,22.715,0,0,1,2.73-3.327c.818-.765,1.36-1.276,1.36-1.276s.61-.261,1.52-.653a7.426,7.426,0,0,1,3.4-.464c2.527.383,4.628,2.65,4.519,2.945" transform="translate(41.023 380.869)" fill="#fa7296"/>
            <g id="Grupo_135166" data-name="Grupo 135166" transform="translate(75.965 84.943)" opacity="0.8" style="mix-blend-mode: multiply;isolation: isolate">
              <g id="Grupo_135165" data-name="Grupo 135165">
                <g id="Grupo_135164" data-name="Grupo 135164" clip-path="url(#clip-path-27)">
                  <path id="Trazado_192986" data-name="Trazado 192986" d="M78.39,65.438C62.97,60.815,48.182,51.639,38.982,25.1a77.651,77.651,0,0,0,4.1,14.618S45.894,76.411,48,92.308c0,0,6.341,0,11.269,11.007S63.5,121.663,63.5,121.663l10.562-3.672L70.89,72.739s3.447-1.811,7.5-7.3" transform="translate(-38.983 -25.097)" fill="#c87568"/>
                </g>
              </g>
            </g>
            <path id="Trazado_192987" data-name="Trazado 192987" d="M105.306,45.59s13.619-17.749,16.609,1.242-1.428,67.421-11.965,56.2-4.644-57.44-4.644-57.44" transform="translate(98.348 90.751)" fill="#fad0bf"/>
            <path id="Trazado_192988" data-name="Trazado 192988" d="M121.425,6.949s33.28,10.58,42.48,47.614,7.374,96.8,7.374,96.8,2.847,33.761-.452,59.22c-1.037,14.879-4.6,23.78-9.512,29.175-8.968,9.842-22.453,8-33.36,9.463-6.778,5.534-.637,17.244-3.309,28.241-15.938,13.23-29.579,3.3-39.753-9.67-6.579-8.38-2.833-42.02-14.662-62.348a15.452,15.452,0,0,1-1-2.488S49.984,216.591,39.72,189.934,34.6,122.482,56.95,138.112c0,0-8.847-129.1,64.474-131.163" transform="translate(32.877 16.571)" fill="#fad0bf"/>
            <g id="Grupo_135169" data-name="Grupo 135169" transform="translate(88.528 23.52)" opacity="0.2">
              <g id="Grupo_135168" data-name="Grupo 135168">
                <g id="Grupo_135167" data-name="Grupo 135167" clip-path="url(#clip-path-28)">
                  <path id="Trazado_192989" data-name="Trazado 192989" d="M155.55,63.181c-.553-2.863-1.156-5.733-1.869-8.617-9.2-37.034-42.48-47.614-42.48-47.614C37.88,9.01,46.727,138.112,46.727,138.112c-.44-.311-.865-.558-1.3-.829.232,2.061.466,3.97.684,5.639,0,0,6.343,0,11.271,11.007s0,11.007,0,11.007l13.2-3.06L69,123.352S86.6,114.176,89.07,73.818c0,0,21.652,5.5,48.591-7.954a32.949,32.949,0,0,0,17.889-2.684" transform="translate(-45.43 -6.949)" fill="#fa7296"/>
                </g>
              </g>
            </g>
            <path id="Trazado_192990" data-name="Trazado 192990" d="M43.526,99.556s2.816,36.7,4.926,52.593c0,0,6.341,0,11.271,11.013S65.834,187.1,65.834,187.1L76.065,185.4l-2.436-52.461s15.315-9.531,17.778-49.892c0,0,21.656,5.5,48.591-7.95,0,0,10.915,1.851,20.247-3.967,0,0,6.513,27.205,5.809,45.55a293.48,293.48,0,0,0,1.409,42.8l4.93-6.113L170.629,128s11.62-27.52-1.054-55.954c0,0,26.759-20.182,2.818-71.55,0,0-15.492,17.119-34.5,7.338s-77.462-19.573-84.5,31.795c0,0-25.352,19.573-9.858,59.931" transform="translate(36.534 0.002)" fill="#963e35"/>
            <g id="Grupo_135172" data-name="Grupo 135172" transform="translate(84.148 1.076)" opacity="0.8" style="mix-blend-mode: multiply;isolation: isolate">
              <g id="Grupo_135171" data-name="Grupo 135171">
                <g id="Grupo_135170" data-name="Grupo 135170" clip-path="url(#clip-path-29)">
                  <path id="Trazado_192991" data-name="Trazado 192991" d="M168.22.318c-18.277,39.911-51.732,61.224-79.7,40.926a34.488,34.488,0,0,1-3.621-3.07C76.152,33.2,71.27,19.783,70.265,5.368c-10.644,5.747-18.926,16.107-21.313,33.5a34.369,34.369,0,0,0-5.77,6.268C56.121,65.881,69.984,81.166,86.2,90.5c.323-2.593.6-5.3.776-8.211,0,0,21.654,5.5,48.589-7.95,0,0,10.917,1.851,20.249-3.967,0,0,6.513,27.205,5.807,45.55a293.281,293.281,0,0,0,1.411,42.812l4.928-6.119L166.2,127.237s11.622-27.52-1.054-55.954c0,0,26.537-20.037,3.077-70.965" transform="translate(-43.181 -0.318)" fill="#c87568"/>
                </g>
              </g>
            </g>
            <g id="Grupo_135175" data-name="Grupo 135175" transform="translate(79.554 83.048)" opacity="0.8" style="mix-blend-mode: multiply;isolation: isolate">
              <g id="Grupo_135174" data-name="Grupo 135174">
                <g id="Grupo_135173" data-name="Grupo 135173" clip-path="url(#clip-path-30)">
                  <path id="Trazado_192992" data-name="Trazado 192992" d="M64.567,48.382C51.053,51.622,44.043,44.7,40.824,39.637c.173.474.323.934.507,1.408,0,0,2.816,36.7,4.928,52.593,0,0,6.339,0,11.269,11.013s6.111,23.932,6.111,23.932l10.231-1.692-.879-18.92-3.847-33.9s17.6-9.172,20.068-49.534c0,0-4.223,18.957-24.645,23.844" transform="translate(-40.824 -24.535)" fill="#c87568"/>
                </g>
              </g>
            </g>
            <g id="Grupo_135178" data-name="Grupo 135178" transform="translate(196.779 71.134)" opacity="0.8" style="mix-blend-mode: multiply;isolation: isolate">
              <g id="Grupo_135177" data-name="Grupo 135177">
                <g id="Grupo_135176" data-name="Grupo 135176" clip-path="url(#clip-path-31)">
                  <path id="Trazado_192993" data-name="Trazado 192993" d="M106.788,66.567a293.235,293.235,0,0,0,1.411,42.808l4.928-6.116-1.764-25.378s11.569-27.405-.98-55.781c-6.748,2.007-9.4-1.083-9.4-1.083s6.511,27.205,5.807,45.55" transform="translate(-100.979 -21.017)" fill="#c87568"/>
                </g>
              </g>
            </g>
            <g id="Grupo_135181" data-name="Grupo 135181" transform="translate(103.397 200.744)" opacity="0.2">
              <g id="Grupo_135180" data-name="Grupo 135180">
                <g id="Grupo_135179" data-name="Grupo 135179" clip-path="url(#clip-path-32)">
                  <path id="Trazado_192994" data-name="Trazado 192994" d="M110.493,124.354c10.909-1.459,24.394.379,33.36-9.463,4.919-5.4,8.477-14.3,9.512-29.179a225.841,225.841,0,0,0,1.578-26.4c-.984,12.09-2.72,25.916-5.778,36.009-6.729,22.206-27.925,28.052-59.554,22.206s-36-42.659-36-42.659l-.551,6.275c11.451,20.382,7.853,53.477,14.372,61.782,4.207,5.365,9.019,10.181,14.331,13.081,3.958-12.482,9.264-25.418,13.908-23.868,4.829,1.611,7.606,12.665,9.124,22.247.793-.555,1.588-1.124,2.393-1.79,2.67-11-3.471-22.707,3.307-28.241" transform="translate(-53.06 -59.309)" fill="#fa7296"/>
                </g>
              </g>
            </g>
            <path id="Trazado_192995" data-name="Trazado 192995" d="M165.806,40.367c-.226.041-5.028-.281-5.252-.257l.123,1.11s.115-.366.288-.988l-.645,61.85s-8.88-12.015-35.1-7.889a82.007,82.007,0,0,0-42.2,20.23S80.775,76.014,68.549,55.916L43.865,57.043c4.92,3.818,15.724,17.251,15.915,34.973.263,24.555-.974,27.8-.974,27.8C56.549,126.441,65.72,152.543,68.5,157c5.608,9.017,13.017,15.965,20.411,19.5,14.239,6.79,35.09,4.667,49.5,1.046,30.222-7.6,32.524-27.76,32.237-54.549-.351-32.336-3.287-72.863-4.839-82.628" transform="translate(41.614 95.643)" fill="#963e35"/>
            <g id="Grupo_135184" data-name="Grupo 135184" transform="translate(85.48 135.753)" opacity="0.8" style="mix-blend-mode: multiply;isolation: isolate">
              <g id="Grupo_135183" data-name="Grupo 135183">
                <g id="Grupo_135182" data-name="Grupo 135182" clip-path="url(#clip-path-33)">
                  <path id="Trazado_192996" data-name="Trazado 192996" d="M170.647,123c-.353-32.336-3.287-72.863-4.839-82.628-.228.041-5.03-.281-5.254-.257l.125,1.11s.113-.366.286-.988l-.4,38.588a72.722,72.722,0,0,1,3.075,48.6C155,156.8,137.784,165.55,120.577,164.047c-11.523-1.005-21.666-1.482-32.027-11.805-7-6.976-11.417-18.341-14.818-30.739A114.157,114.157,0,0,1,69.714,92.49c-.037-9.829,2.524-14.181,5.755-20.555Q74.8,69.8,74.04,67.725c-.025-.071-.053-.139-.076-.21q-.731-2-1.539-3.913c-.049-.108-.1-.217-.144-.328-.534-1.246-1.093-2.461-1.68-3.632-.051-.1-.1-.2-.154-.294-.606-1.188-1.234-2.342-1.9-3.432l-3.013.135c-5.039.234-15.114.694-19.526.894l-.362.017-1.171.054-.415.02-.2.007c4.922,3.818,15.726,17.251,15.915,34.973.263,24.555-.974,27.8-.974,27.8C56.549,126.441,65.72,152.543,68.5,157c5.608,9.017,13.017,15.965,20.411,19.5,14.237,6.79,35.088,4.667,49.5,1.046.943-.24,1.861-.487,2.752-.748,27.611-8.116,29.745-27.852,29.486-53.8" transform="translate(-43.865 -40.11)" fill="#c87568"/>
                </g>
              </g>
            </g>
          </g>
        </g>
      </g>
    </g>
  </g>
</svg>
