<svg xmlns="http://www.w3.org/2000/svg" xmlns:xlink="http://www.w3.org/1999/xlink" width="72.25" height="58.128" viewBox="0 0 72.25 58.128">
  <defs>
    <clipPath id="clip-path">
      <rect id="Rectángulo_85185" data-name="Rectángulo 85185" width="72.25" height="58.128" fill="#ccc198"/>
    </clipPath>
  </defs>
  <g id="Grupo_137502" data-name="Grupo 137502" transform="translate(5323.125 9404.128)">
    <g id="Grupo_134963" data-name="Grupo 134963" transform="translate(-5323.125 -9404.128)">
      <g id="Grupo_134935" data-name="Grupo 134935" clip-path="url(#clip-path)">
        <path id="Trazado_192610" data-name="Trazado 192610" d="M0,40.9a2.473,2.473,0,0,1,2.645-1.531c1.809.054,3.621.014,5.432.014h.844c0-1.1,0-2.123,0-3.15,0-1.2.36-1.551,1.562-1.552q11.781,0,23.563,0h.895V31.806a16.217,16.217,0,1,1,2.366-.049v2.916H61.634c1.391,0,1.692.3,1.7,1.7q0,1.376.01,2.751a1.713,1.713,0,0,0,.057.243h.717c1.834,0,3.669.039,5.5-.014A2.447,2.447,0,0,1,72.25,40.9V52.33a2.56,2.56,0,0,1-2.714,1.426c-1.166-.07-2.339-.015-3.541-.015v2.128c.749,0,1.452-.008,2.154,0,.833.013,1.314.447,1.3,1.153-.013.674-.481,1.1-1.28,1.1q-5.961.011-11.923,0c-.817,0-1.337-.467-1.325-1.141s.541-1.1,1.362-1.112c.7-.008,1.395,0,2.1,0V53.741c-1.315,0-2.582,0-3.849,0-1.622,0-2.4-.752-2.41-2.353q-.016-4.833,0-9.665a2.08,2.08,0,0,1,2.36-2.337c1.928-.007,3.857,0,5.785,0,.249,0,.5-.023.754-.036V36.984H37.3v2.4h.8c1.952,0,3.9-.011,5.856,0a1.981,1.981,0,0,1,2.208,2.035q.034,5.15,0,10.3a1.961,1.961,0,0,1-2.011,2.014c-.352.014-.705,0-1.058,0H39.965V55.82a.887.887,0,0,0,.127.033c.658.006,1.316.007,1.974.018.817.014,1.336.461,1.331,1.137s-.515,1.116-1.345,1.117q-5.926.008-11.852,0c-.835,0-1.325-.435-1.323-1.129s.5-1.114,1.333-1.124c.7-.008,1.4,0,2.1,0V53.8a.988.988,0,0,0-.187-.05c-1.223,0-2.446-.005-3.668-.01a2.071,2.071,0,0,1-2.373-2.372q-.008-4.8,0-9.595c0-1.656.75-2.387,2.431-2.39q2.857-.005,5.714,0h.725V36.99H11.232v2.393c2.143,0,4.234,0,6.325,0,1.85,0,2.573.715,2.575,2.551q0,4.621,0,9.242c0,1.848-.717,2.563-2.555,2.564h-3.7v2.081a1.249,1.249,0,0,0,.189.039c.635,0,1.27,0,1.9.008.831.01,1.353.432,1.372,1.1.02.7-.508,1.153-1.382,1.154q-5.891.007-11.782,0c-.895,0-1.383-.428-1.365-1.157.017-.692.5-1.089,1.358-1.1.7-.007,1.393,0,2.092,0V53.741c-1.255,0-2.455-.044-3.651.012A2.366,2.366,0,0,1,0,52.189Zm2.307.752v6.307c.069.042.088.065.108.065q7.506.014,15.012.03c.474,0,.449-.289.448-.606q0-2.22,0-4.441c0-.44,0-.88,0-1.354ZM54.417,48H69.955V41.666H54.417ZM28.366,48H43.858V41.66H28.366Zm-4.524-37.89c-1.781,2.737-1.772,9,.012,11.53,1.132-.524,2.262-1.032,3.371-1.58a.646.646,0,0,0,.26-.533,29.481,29.481,0,0,1,0-7.313.648.648,0,0,0-.282-.524c-1.108-.548-2.235-1.056-3.363-1.58M48.465,21.7a13.718,13.718,0,0,0,0-11.626c-1.107.524-2.127,1.044-3.18,1.487a.732.732,0,0,0-.527.88c.095,1.732.142,3.467.156,5.2.006.768-.109,1.536-.165,2.244L48.465,21.7M29.747,19.232l5.2-.693v-5.32l-5.217-.691a23.973,23.973,0,0,0,.021,6.7m12.762-6.7-5.213.689v5.32l5.216.692a23.8,23.8,0,0,0,0-6.7M37.3,20.8V29.22c2.054-.653,4.762-5.086,4.7-7.758L37.3,20.8m-2.342-9.842V2.555C32.9,3.2,30.334,7.369,30.219,10.31l4.737.652m0,18.4V20.816l-4.879.689c.929,3.159,1.814,6.11,4.879,7.86m2.3-26.818c0,2.723,0,5.4,0,8.069a1.714,1.714,0,0,0,.1.326l4.68-.632c-.471-3.376-2.743-7.3-4.782-7.763M2.294,51.418H17.817V50.342H2.294Zm67.671-1.071H54.425v1.069H69.964Zm-41.587,1.08h15.5V50.37h-15.5ZM42.04,28.164a13.529,13.529,0,0,0,5.263-4.5l-2.829-1.41L42.04,28.164M44.486,9.528,47.3,8.075a13.746,13.746,0,0,0-5.251-4.468l2.441,5.921M24.948,23.686a13.637,13.637,0,0,0,5.243,4.472l-2.418-5.905-2.825,1.434M27.775,9.531,30.2,3.615a13.444,13.444,0,0,0-5.253,4.5l2.824,1.417m6.9,46.263H37.59V53.762H34.672ZM8.619,55.8h2.892V53.755H8.619Zm55.016-2.027H60.748v2.03h2.888Z" transform="translate(0 0)" fill="#ccc198"/>
      </g>
    </g>
  </g>
</svg>
