<svg xmlns="http://www.w3.org/2000/svg" xmlns:xlink="http://www.w3.org/1999/xlink" width="57.028" height="57.013" viewBox="0 0 57.028 57.013">
  <defs>
    <clipPath id="clip-path">
      <rect id="Rectángulo_85211" data-name="Rectángulo 85211" width="57.028" height="57.013" fill="#ccc198"/>
    </clipPath>
  </defs>
  <g id="Grupo_137505" data-name="Grupo 137505" transform="translate(1200.514 9596.013)">
    <g id="Grupo_134970" data-name="Grupo 134970" transform="translate(-1200.514 -9596.013)">
      <g id="Grupo_134951" data-name="Grupo 134951" clip-path="url(#clip-path)">
        <path id="Trazado_192613" data-name="Trazado 192613" d="M113.813,22.833h1.9c0,.591-.008,1.159,0,1.727a.968.968,0,0,0,1.1,1.1q7.452.008,14.9,0c.667,0,1.08-.324,1.089-.916.025-1.62.009-3.24.009-4.836h-17.1v1.091h-1.9v-.616q0-8.609,0-17.219A2.878,2.878,0,0,1,116.985,0q7.3,0,14.606,0a2.868,2.868,0,0,1,3.127,3.143q0,20.128,0,40.256a2.878,2.878,0,0,1-3.168,3.163q-7.3,0-14.606,0a2.872,2.872,0,0,1-3.13-3.141q0-9.975,0-19.95Zm10.4-12.379q3.712,0,7.423,0c.85,0,1.183-.337,1.185-1.19q.007-3.088,0-6.176c0-.85-.336-1.183-1.191-1.183q-7.364,0-14.728,0c-.852,0-1.182.334-1.183,1.189q-.006,3.058,0,6.117c0,.929.316,1.243,1.25,1.244q3.623,0,7.245,0M115.719,12.3c0,1.607-.017,3.227.009,4.845.009.589.424.906,1.1.907q7.445.006,14.89,0a.967.967,0,0,0,1.1-1.089c.011-.87,0-1.74,0-2.61,0-.7,0-1.4,0-2.053Zm17.1,22.806h-17.1c0,1.492,0,2.992,0,4.493,0,.958.311,1.261,1.29,1.261q4.36,0,8.72,0c1.977,0,3.955,0,5.932,0,.72,0,1.139-.305,1.148-.915.026-1.619.009-3.238.009-4.838m0-7.6h-17.1c0,1.5,0,3.02,0,4.54,0,.89.325,1.212,1.218,1.214q3.47,0,6.941,0,3.886,0,7.771,0c.748,0,1.156-.316,1.165-.963.021-1.6.007-3.2.007-4.791m-17.055,15.2c-.188,1.514.023,1.992,1.691,1.971,4.131-.051,8.264-.017,12.4-.017.653,0,1.305.013,1.957-.005a.946.946,0,0,0,1.009-1c.015-.331,0-.663,0-.948Z" transform="translate(-95.752 0)" fill="#ccc198"/>
        <path id="Trazado_192614" data-name="Trazado 192614" d="M1.949,78.648c0,1.613-.022,3.272.013,4.93.011.538.454.82,1.112.823,1.623.006,3.246,0,4.869,0h8.215V86.25H1.975a3.731,3.731,0,0,0-.036.39q0,2.078,0,4.157c0,.884.329,1.206,1.227,1.207q6.146,0,12.291,0h.691v1.847H1.938c0,.251,0,.544,0,.838.015.769.356,1.111,1.14,1.114,1.841.007,3.681,0,5.522,0h7.559v1.9h-.614q-6.175,0-12.351,0A2.88,2.88,0,0,1,.037,94.532q0-14.31,0-28.621v-.6h1.9c0,.883,0,1.765,0,2.647,0,.929.317,1.243,1.25,1.243q6.146,0,12.291,0h.676v1.847H1.977a3.488,3.488,0,0,0-.037.386q0,2.078,0,4.157c0,.888.326,1.211,1.222,1.211q6.146,0,12.291,0h.694v1.847Z" transform="translate(-0.031 -54.943)" fill="#ccc198"/>
        <path id="Trazado_192615" data-name="Trazado 192615" d="M273.849,52.553h-1.9V51.459H257.738V49.613H270.6c1.057,0,1.346-.285,1.346-1.327q0-2.168-.008-4.335c0-.037-.022-.074-.011-.039h-14.2v-1.9h12.857c1.089,0,1.366-.277,1.367-1.367q0-2.195,0-4.387H257.731V34.409H270.62c1.042,0,1.327-.29,1.328-1.347q0-2.969,0-5.939c0-.962-.311-1.266-1.288-1.266q-6.117,0-12.234,0h-.689V23.983c.193-.009.384-.026.576-.026q6.206,0,12.412,0a2.864,2.864,0,0,1,3.123,3.089q0,12.472,0,24.944Z" transform="translate(-216.826 -20.153)" fill="#ccc198"/>
        <path id="Trazado_192616" data-name="Trazado 192616" d="M91.956,290.129V281.64h1.853c.011.166.033.336.033.506q0,4.334,0,8.668c0,.931-.317,1.249-1.245,1.249q-7.718,0-15.436-.006a.79.79,0,0,0-.825.465,2.809,2.809,0,0,1-4.913-.019.747.747,0,0,0-.775-.447q-7.688.017-15.377.007c-1.054,0-1.34-.284-1.34-1.332,0-3.008,0-6.015,0-9.072h1.882v8.47c.233.014.4.032.576.033q7.124,0,14.249.009a.816.816,0,0,0,.789-.432,10.324,10.324,0,0,1,1.151-1.159,1.074,1.074,0,0,0,.343-.576c.038-.844.016-1.69.016-2.563h1.9c0,.843.013,1.686-.007,2.527a.7.7,0,0,0,.367.647,16.083,16.083,0,0,1,1.214,1.177c.163.152.377.356.569.356,4.888.019,9.776.015,14.664.014.076,0,.152-.015.311-.032m-17.123.965a.946.946,0,1,0-.915.964.956.956,0,0,0,.915-.964" transform="translate(-45.373 -236.947)" fill="#ccc198"/>
        <path id="Trazado_192617" data-name="Trazado 192617" d="M257.678,224.1v-1.869h.649c3.937,0,7.875-.035,11.811.016,1.724.022,1.89-.455,1.733-1.969H257.692v-1.847h12.882c1.048,0,1.333-.287,1.335-1.338,0-.474,0-.948,0-1.513h1.9c0,.583,0,1.129,0,1.675,0,1.345.015,2.691-.005,4.036a2.815,2.815,0,0,1-2.831,2.834c-4.353.017-8.705.006-13.058,0-.058,0-.116-.014-.238-.029" transform="translate(-216.787 -181.373)" fill="#ccc198"/>
        <path id="Trazado_192618" data-name="Trazado 192618" d="M16.147,24.034v1.829H3.218c-1.015,0-1.309.293-1.312,1.3,0,.531,0,1.063,0,1.631H.021c0-.783-.056-1.554.012-2.314a2.758,2.758,0,0,1,2.659-2.5c4.434-.028,8.868-.008,13.3-.005a.62.62,0,0,1,.153.06" transform="translate(0 -20.161)" fill="#ccc198"/>
        <rect id="Rectángulo_85191" data-name="Rectángulo 85191" width="9.416" height="1.849" transform="translate(25.701 21.888)" fill="#ccc198"/>
        <rect id="Rectángulo_85192" data-name="Rectángulo 85192" width="8.483" height="1.845" transform="translate(7.648 18.089)" fill="#ccc198"/>
        <rect id="Rectángulo_85193" data-name="Rectángulo 85193" width="8.498" height="1.821" transform="translate(44.692 18.091)" fill="#ccc198"/>
        <rect id="Rectángulo_85194" data-name="Rectángulo 85194" width="8.477" height="1.828" transform="translate(7.656 25.7)" fill="#ccc198"/>
        <rect id="Rectángulo_85195" data-name="Rectángulo 85195" width="8.492" height="1.833" transform="translate(44.694 25.697)" fill="#ccc198"/>
        <rect id="Rectángulo_85196" data-name="Rectángulo 85196" width="8.477" height="1.827" transform="translate(44.695 33.292)" fill="#ccc198"/>
        <rect id="Rectángulo_85197" data-name="Rectángulo 85197" width="8.477" height="1.83" transform="translate(7.636 33.29)" fill="#ccc198"/>
        <rect id="Rectángulo_85198" data-name="Rectángulo 85198" width="1.837" height="1.827" transform="translate(3.834 33.303)" fill="#ccc198"/>
        <rect id="Rectángulo_85199" data-name="Rectángulo 85199" width="1.806" height="1.848" transform="translate(40.918 33.273)" fill="#ccc198"/>
        <rect id="Rectángulo_85200" data-name="Rectángulo 85200" width="1.823" height="1.834" transform="translate(40.912 25.697)" fill="#ccc198"/>
        <rect id="Rectángulo_85201" data-name="Rectángulo 85201" width="1.823" height="1.834" transform="translate(3.851 25.697)" fill="#ccc198"/>
        <rect id="Rectángulo_85202" data-name="Rectángulo 85202" width="1.806" height="1.848" transform="translate(21.912 21.87)" fill="#ccc198"/>
        <rect id="Rectángulo_85203" data-name="Rectángulo 85203" width="1.829" height="1.827" transform="translate(40.899 18.102)" fill="#ccc198"/>
        <rect id="Rectángulo_85204" data-name="Rectángulo 85204" width="1.806" height="1.848" transform="translate(3.857 18.069)" fill="#ccc198"/>
        <rect id="Rectángulo_85205" data-name="Rectángulo 85205" width="9.449" height="1.807" transform="translate(25.678 14.299)" fill="#ccc198"/>
        <rect id="Rectángulo_85206" data-name="Rectángulo 85206" width="1.834" height="1.823" transform="translate(21.901 14.288)" fill="#ccc198"/>
        <rect id="Rectángulo_85207" data-name="Rectángulo 85207" width="9.428" height="1.83" transform="translate(25.711 37.102)" fill="#ccc198"/>
        <rect id="Rectángulo_85208" data-name="Rectángulo 85208" width="1.83" height="1.841" transform="translate(21.903 37.097)" fill="#ccc198"/>
        <rect id="Rectángulo_85209" data-name="Rectángulo 85209" width="9.428" height="1.83" transform="translate(25.711 29.5)" fill="#ccc198"/>
        <rect id="Rectángulo_85210" data-name="Rectángulo 85210" width="1.827" height="1.837" transform="translate(21.905 29.496)" fill="#ccc198"/>
      </g>
    </g>
  </g>
</svg>
