<svg xmlns="http://www.w3.org/2000/svg" xmlns:xlink="http://www.w3.org/1999/xlink" width="58.113" height="58.128" viewBox="0 0 58.113 58.128">
  <defs>
    <clipPath id="clip-path">
      <rect id="Rectángulo_85186" data-name="Rectángulo 85186" width="58.113" height="58.128" fill="#ccc198"/>
    </clipPath>
  </defs>
  <g id="Grupo_137504" data-name="Grupo 137504" transform="translate(2901.109 9564.182)">
    <g id="Grupo_137503" data-name="Grupo 137503" transform="translate(-3.052 -147)">
      <g id="Grupo_134959" data-name="Grupo 134959" transform="translate(-2898.057 -9417.182)">
        <g id="Grupo_134937" data-name="Grupo 134937" clip-path="url(#clip-path)">
          <path id="Trazado_192611" data-name="Trazado 192611" d="M44.037,0H54.706a2.366,2.366,0,0,1,1.487,2.575c-.063,1.51-.015,3.026-.015,4.539V8.678a2.029,2.029,0,0,1,1.933,2.278c0,.511.005,1.022,0,1.532a1.935,1.935,0,0,1-2.028,2.037c-1.1.01-2.194,0-3.291,0H50.372v.728q0,4.823,0,9.646a4.954,4.954,0,0,1-1.786,4,.908.908,0,0,0-.125.164,5.158,5.158,0,0,1,1.91,4.547q0,4.653,0,9.306v.664c1.263,0,2.469,0,3.674,0A1.967,1.967,0,0,1,56.175,45.7c.008,1.778,0,3.556,0,5.334V52.26a2.04,2.04,0,0,1,1.934,2.334c0,.473,0,.946,0,1.419a1.94,1.94,0,0,1-2.083,2.1q-6.638.008-13.277,0a1.943,1.943,0,0,1-2.077-2.05c-.012-.454,0-.908,0-1.362,0-1.493.433-2.055,1.941-2.469v-.6c0-1.929,0-3.858,0-5.788a1.987,1.987,0,0,1,2.261-2.262c1.167,0,2.334,0,3.493,0a1.047,1.047,0,0,0,.062-.216c0-3.5.033-7-.013-10.5a2.814,2.814,0,0,0-2.875-2.833c-1.172-.034-2.345,0-3.518-.015-.34,0-.448.122-.484.454a12.158,12.158,0,0,1-3.4,7.256,12.444,12.444,0,0,1-7.653,3.824c-.165.021-.427.211-.44.341-.05.539-.021,1.085-.021,1.686,1.226,0,2.394,0,3.562,0a2.008,2.008,0,0,1,2.251,2.229c0,1.948,0,3.9,0,5.844v.6A2.067,2.067,0,0,1,37.78,54.6c0,.492.009.984,0,1.475a1.942,1.942,0,0,1-2.042,2.029q-6.7.01-13.391,0a1.935,1.935,0,0,1-2.012-2c-.012-.454,0-.908,0-1.362,0-1.543.424-2.1,1.936-2.514v-.6q0-2.809,0-5.617c0-1.75.683-2.428,2.442-2.428h3.375c0-.559-.019-1.049.006-1.537.019-.371-.131-.474-.486-.512A12.56,12.56,0,0,1,16.576,30.513c-.041-.4-.195-.5-.564-.492-1.021.019-2.043,0-3.064.007a2.947,2.947,0,0,0-3.272,3.258q0,4.823,0,9.646v.652H13.2a2.014,2.014,0,0,1,2.3,2.29c0,1.929,0,3.858,0,5.788,0,.2.017.406.025.594a2.06,2.06,0,0,1,1.915,2.357c0,.416,0,.832,0,1.248a2,2,0,0,1-2.279,2.25c-4.218,0-8.436-.026-12.653.017A2.333,2.333,0,0,1,0,56.635V53.8a2.141,2.141,0,0,1,1.934-1.519c0-2.15,0-4.264,0-6.378,0-1.6.717-2.316,2.317-2.317H7.738V42.85q0-4.819,0-9.638a4.926,4.926,0,0,1,1.782-4,1.1,1.1,0,0,0,.132-.16c-1.647-1.7-1.913-2.37-1.913-4.768v-9.76c-1.8,0-3.517-.044-5.232.015A2.3,2.3,0,0,1,0,13.052V10.215A2.137,2.137,0,0,1,1.934,8.7c0-2.086.04-4.14-.015-6.192A2.313,2.313,0,0,1,3.4,0H13.96a2.241,2.241,0,0,1,1.552,2.466c-.047,1.87-.013,3.743-.011,5.614,0,.2.017.405.026.593,1.258.282,1.849.883,1.9,1.959a18.907,18.907,0,0,1,0,1.984,1.918,1.918,0,0,1-2.038,1.909c-1.437.009-2.873,0-4.31,0H9.744a1.044,1.044,0,0,0-.062.216c0,3.5-.032,6.995.011,10.491a2.818,2.818,0,0,0,2.87,2.837c1.171.036,2.344,0,3.516.017.333,0,.457-.105.491-.445a11.755,11.755,0,0,1,2.046-5.577,12.456,12.456,0,0,1,9.047-5.511c.147-.019.389-.168.4-.269.038-.573.019-1.149.019-1.759-1.956,0-3.826.007-5.695,0A1.944,1.944,0,0,1,20.332,12.5c-.01-.416,0-.832,0-1.248,0-1.656.337-2.12,1.936-2.622,0-2.027.038-4.068-.014-6.106A2.357,2.357,0,0,1,23.721,0H34.39a2.417,2.417,0,0,1,1.47,2.591c-.058,1.833-.015,3.668-.015,5.5v.593a2.028,2.028,0,0,1,1.935,2.239c0,.492,0,.983,0,1.475a1.963,1.963,0,0,1-2.118,2.126c-1.551.006-3.1,0-4.652,0h-.982c0,.566.02,1.058-.007,1.547-.021.382.151.467.5.5A12.553,12.553,0,0,1,41.535,27.606c.044.413.211.49.572.484,1.021-.017,2.042,0,3.063-.007a2.949,2.949,0,0,0,3.264-3.267q0-4.822,0-9.644v-.644h-.694c-1.645,0-3.29,0-4.936,0a1.96,1.96,0,0,1-2.134-2.109c-.008-.416,0-.832,0-1.248,0-1.557.413-2.107,1.941-2.525v-.6c0-1.815.043-3.632-.015-5.446A2.411,2.411,0,0,1,44.037,0M25.953,8.695h7.908V2.626c-.425.339-.776.621-1.129.9-.573.454-1.128.471-1.512.048s-.313-.948.2-1.49c.019-.02.011-.066.019-.123H24.246V7.579c.244-.2.417-.336.588-.479C26,6.133,27.153,5.162,28.318,4.2a.968.968,0,0,1,1.458.008.989.989,0,0,1-.187,1.449c-.139.128-.288.244-.433.365l-3.2,2.674M33.883,46.2c-.522.409-.949.773-1.406,1.093a.935.935,0,0,1-1.276-.168.926.926,0,0,1,.007-1.245c.083-.106.173-.207.274-.327H24.236V51.17c.243-.2.414-.332.581-.471q1.742-1.451,3.483-2.9a.977.977,0,1,1,1.261,1.463c-1.035.883-2.087,1.745-3.131,2.617-.13.109-.248.231-.417.388h7.868ZM3.895,7.576c.17-.131.26-.2.346-.267,1.251-1.04,2.5-2.085,3.753-3.118a.963.963,0,0,1,1.6.272A1.023,1.023,0,0,1,9.2,5.71C8.175,6.552,7.16,7.4,6.144,8.25c-.146.122-.28.259-.478.443h7.848V2.645c-.5.394-.915.743-1.355,1.055a.95.95,0,0,1-1.284-.136.977.977,0,0,1,.017-1.293c.077-.093.163-.18.277-.3H3.895Zm1.729,44.7H13.51V46.22c-.445.355-.8.65-1.173.935a.975.975,0,1,1-1.319-1.424,1.439,1.439,0,0,0,.12-.179H3.919V51.16C5.325,49.991,6.658,48.875,8,47.77a.953.953,0,0,1,1.453.041,1,1,0,0,1-.22,1.447c-.326.287-.669.556-1,.835L5.624,52.274M44.6,1.96V7.543c.211-.16.361-.265.5-.381,1.177-.979,2.349-1.964,3.528-2.94.563-.466,1.114-.46,1.5,0s.3,1.007-.252,1.479Q48.3,7.037,46.7,8.351a2.238,2.238,0,0,1-.378.208l.126.134H54.2v-6a.678.678,0,0,0-.148.053c-.327.256-.652.516-.979.773-.575.454-1.129.473-1.512.052s-.328-.932.195-1.491c.019-.02.012-.065.021-.125Zm0,49.166c.212-.16.361-.264.5-.379,1.177-.979,2.349-1.964,3.528-2.94.564-.467,1.113-.463,1.5-.006a.977.977,0,0,1-.248,1.48c-1.053.892-2.115,1.773-3.177,2.652a2.431,2.431,0,0,1-.375.213l.119.131H54.2V46.282a.611.611,0,0,0-.147.049q-.447.349-.889.7c-.638.506-1.154.562-1.562.167-.439-.425-.385-.9.182-1.578.007-.008-.007-.034-.016-.073H44.6ZM22.3,56.144H35.8V54.287H22.3Zm0-43.579H35.806V10.7H22.3ZM42.65,56.137H56.132V54.271H42.65Zm0-43.583H56.132V10.688H42.65ZM15.469,10.7H1.963v1.859H15.469ZM1.962,56.137H15.469V54.274H1.962ZM22.7,33.905c-.132-1.247-.248-2.406-.39-3.562a.441.441,0,0,0-.3-.3c-1.162-.022-2.325-.013-3.548-.013a9.75,9.75,0,0,0,1.037,3.68.416.416,0,0,0,.306.186c.958.014,1.916.008,2.9.008m13.153-3.84L35.4,33.9c1,0,1.979,0,2.956-.008a.36.36,0,0,0,.255-.177,9.573,9.573,0,0,0,1.027-3.653Zm-7.81,3.813V30.067H24.182l.536,3.811Zm2.019-3.821v3.817H33.4l.514-3.817ZM18.372,28.046h3.9l.284-2.857c-1.077,0-2.131-.005-3.185.008a.375.375,0,0,0-.291.188c-.244.859-.464,1.725-.711,2.661m17.191-2.856c.077.882.138,1.707.23,2.528.014.127.165.341.257.343,1.181.023,2.362.015,3.7.015-.252-.96-.468-1.811-.705-2.655a.37.37,0,0,0-.265-.221c-1.072-.016-2.143-.01-3.214-.01m-11.045.029-.293,2.821h3.829V25.22Zm5.546-.009v2.833h3.829l-.315-2.833Zm0-6.556v4.56h2.994a8.318,8.318,0,0,0-2.994-4.56M28.039,23.22V18.665a8.237,8.237,0,0,0-2.984,4.555Zm9.925.01a10.568,10.568,0,0,0-4.372-3.782l1.6,3.782Zm-13.437-3.8a10.481,10.481,0,0,0-4.357,3.8h2.745l1.613-3.8M25.4,35.867A6.668,6.668,0,0,0,28.037,39.4V35.867Zm4.657,3.56A6.78,6.78,0,0,0,32.694,35.9H30.06Zm3.483-.727a10.537,10.537,0,0,0,3.694-2.854c-.813,0-1.5-.013-2.193.012a.511.511,0,0,0-.346.269c-.389.83-.755,1.672-1.155,2.572m-9-.02c-.418-.954-.779-1.793-1.157-2.624a.4.4,0,0,0-.283-.2c-.7-.017-1.407-.009-2.239-.009a10.641,10.641,0,0,0,3.679,2.832" fill="#ccc198"/>
        </g>
      </g>
    </g>
  </g>
</svg>
