<svg xmlns="http://www.w3.org/2000/svg" xmlns:xlink="http://www.w3.org/1999/xlink" width="44.557" height="43.292" viewBox="0 0 44.557 43.292">
  <defs>
    <clipPath id="clip-path">
      <rect id="Rectángulo_85184" data-name="Rectángulo 85184" width="44.557" height="43.292" fill="#0d2380"/>
    </clipPath>
  </defs>
  <g id="Grupo_137498" data-name="Grupo 137498" transform="translate(-76.792 -1560.5)">
    <g id="Grupo_137497" data-name="Grupo 137497" transform="translate(-265 21.5)">
      <g id="Grupo_134933" data-name="Grupo 134933" transform="translate(341.792 1539)">
        <g id="Grupo_134933-2" data-name="Grupo 134933" clip-path="url(#clip-path)">
          <path id="Trazado_192596" data-name="Trazado 192596" d="M40.032,43.292H28.284c-.036-.021-.07-.056-.109-.062a5.128,5.128,0,0,1-4.417-5.305c.023-.6,0-1.2,0-1.841H4.055A3.7,3.7,0,0,1,0,32.127Q0,17.945,0,3.763A3.655,3.655,0,0,1,3.856,0q16.206,0,32.413,0a4.479,4.479,0,0,1,1.074.126,3.615,3.615,0,0,1,2.763,3.61q.01,6.341,0,12.681a1.2,1.2,0,0,0,.312.873,6.867,6.867,0,0,1,1.793,3.869c.122,1.215.086,2.446.115,3.67.009.363,0,.726,0,1.06a4.621,4.621,0,0,1,1.349.243,3.952,3.952,0,0,1,.885.92V38.9c-.03.091-.068.18-.089.273a5.07,5.07,0,0,1-3.405,3.838c-.334.122-.687.192-1.032.286M26,25.97c0-.2,0-.35,0-.5,0-1.1-.019-2.2.01-3.3.158-6.033,6.844-9.675,12.233-6.671.107.06.22.11.348.174V7.238H1.483v.528q0,12.194,0,24.388a2.248,2.248,0,0,0,2.54,2.485H23.761v-.5c0-2.212,0-4.424,0-6.636a1.47,1.47,0,0,1,1.547-1.531c.213-.005.427,0,.688,0m-.732,5.776h.487c.594,0,1.19-.012,1.782.02a.673.673,0,0,1,.67.695.685.685,0,0,1-.654.712,7.174,7.174,0,0,1-.782.02c-.5,0-1,0-1.5,0V34.64h.5c.58,0,1.16-.01,1.739.012a.679.679,0,0,1,.7.67.7.7,0,0,1-.627.739,3.252,3.252,0,0,1-.52.023c-.59,0-1.18,0-1.781,0v1.445c.742,0,1.45-.009,2.158,0a.7.7,0,0,1,.771.73.732.732,0,0,1-.811.7c-.677.012-1.354,0-2.037,0a3.637,3.637,0,0,0,3.664,2.88c3.422.009,6.843.012,10.265-.008a4.208,4.208,0,0,0,1.4-.249,3.542,3.542,0,0,0,2.308-2.622c-.683,0-1.306.007-1.928,0a1.433,1.433,0,0,1-.548-.092.646.646,0,0,1-.392-.769.668.668,0,0,1,.7-.571c.735-.009,1.47,0,2.215,0V36.084c-.712,0-1.392.008-2.072,0-.55-.009-.869-.3-.859-.745.01-.419.307-.685.812-.693.706-.011,1.412,0,2.128,0V33.217c-.16-.008-.3-.021-.442-.022-.507,0-1.015,0-1.522,0-.646,0-.97-.244-.976-.714s.319-.726.956-.733c.29,0,.58,0,.87,0h1.11V30.3h-.538c-.58,0-1.16.007-1.739-.016a.7.7,0,0,1-.242-1.339,1.483,1.483,0,0,1,.551-.085c.649-.01,1.3,0,1.964,0V27.437H25.276v1.419c.726,0,1.421-.011,2.115,0,.521.011.826.3.816.741s-.3.687-.81.7c-.706.011-1.412,0-2.129,0ZM1.494,5.74h37.13c0-.627,0-1.229,0-1.832a2.25,2.25,0,0,0-2.559-2.467H4.009c-.116,0-.232,0-.348,0A2.175,2.175,0,0,0,1.505,3.386c-.059.768-.011,1.544-.011,2.354M40.831,25.949c0-1.291.027-2.543-.005-3.793a6.55,6.55,0,0,0-5.941-6.247,6.662,6.662,0,0,0-7.212,4.94,6.064,6.064,0,0,0-.175,1.292c-.023,1.262-.008,2.525-.008,3.808Z" transform="translate(0 0)" fill="#0d2380"/>
          <path id="Trazado_192597" data-name="Trazado 192597" d="M39.734,90.859v5.72h5.9c.008-.134.022-.282.024-.431.007-.591-.009-1.184.021-1.774a.664.664,0,0,1,.681-.638c.381-.011.715.163.73.521a19.243,19.243,0,0,1-.037,2.777,1.326,1.326,0,0,1-1.382,1.015q-2.979.019-5.959,0a1.428,1.428,0,0,1-1.479-1.419q-.031-2.915,0-5.832A1.378,1.378,0,0,1,39.6,89.413c1.027-.042,2.058-.029,3.087-.011a.711.711,0,0,1,.742.726.724.724,0,0,1-.772.7c-.811.019-1.624.007-2.436.01-.155,0-.31.012-.487.02" transform="translate(-33.776 -79.291)" fill="#0d2380"/>
          <path id="Trazado_192598" data-name="Trazado 192598" d="M39.733,199.487v5.743h5.931c0-.554,0-1.113,0-1.673a3.623,3.623,0,0,1,.025-.59.658.658,0,0,1,.687-.583c.382-.014.708.173.721.532a19.6,19.6,0,0,1-.044,2.777,1.307,1.307,0,0,1-1.347,1c-2.015.013-4.031.018-6.046,0a1.418,1.418,0,0,1-1.425-1.426q-.028-2.895,0-5.79a1.413,1.413,0,0,1,1.465-1.424c.971-.024,1.943-.015,2.914,0a.732.732,0,0,1,.816.7.746.746,0,0,1-.828.737c-.941.013-1.882,0-2.87,0" transform="translate(-33.779 -175.672)" fill="#0d2380"/>
          <path id="Trazado_192599" data-name="Trazado 192599" d="M139.7,127.838c1.55,0,3.1-.006,4.649.007a1.237,1.237,0,0,1,.651.161.684.684,0,0,1-.177,1.2,1.471,1.471,0,0,1-.51.072q-4.606.006-9.212,0a2.1,2.1,0,0,1-.217-.005.752.752,0,0,1-.739-.74.721.721,0,0,1,.775-.692c1.593-.009,3.186,0,4.78,0Z" transform="translate(-118.554 -113.399)" fill="#0d2380"/>
          <path id="Trazado_192600" data-name="Trazado 192600" d="M59.752,93.517,62.53,90.28c.139-.162.273-.329.42-.484A.762.762,0,0,1,64,89.663a.7.7,0,0,1,.089,1.051c-.74.884-1.5,1.754-2.248,2.63-.426.5-.851,1-1.279,1.492-.491.568-.879.587-1.409.073-.421-.407-.845-.811-1.258-1.225a.71.71,0,0,1-.047-1.082.779.779,0,0,1,1.088.06c.138.124.271.255.4.388s.249.274.422.466" transform="translate(-50.918 -79.402)" fill="#0d2380"/>
          <path id="Trazado_192601" data-name="Trazado 192601" d="M59.809,202.054l1.875-2.179c.408-.475.81-.956,1.225-1.425a.764.764,0,0,1,1.105-.152.719.719,0,0,1,.02,1.089q-1.76,2.064-3.532,4.117a.783.783,0,0,1-1.32.057c-.432-.416-.865-.831-1.289-1.255a.712.712,0,0,1-.063-1.083.78.78,0,0,1,1.118.074c.262.242.518.49.778.734.009.008.026.008.083.023" transform="translate(-50.913 -175.749)" fill="#0d2380"/>
          <path id="Trazado_192602" data-name="Trazado 192602" d="M137.855,97.272c-.942,0-1.884,0-2.825,0-.542,0-.889-.287-.891-.716s.348-.721.886-.722q2.825,0,5.651,0c.551,0,.882.276.883.718s-.329.718-.879.72c-.942,0-1.884,0-2.825,0" transform="translate(-118.545 -85.009)" fill="#0d2380"/>
          <path id="Trazado_192603" data-name="Trazado 192603" d="M137.835,205.861c-.942,0-1.884,0-2.825,0-.518,0-.851-.278-.864-.7s.335-.74.867-.741q2.847-.006,5.694,0c.54,0,.87.3.856.743-.013.428-.331.691-.858.694-.956,0-1.912,0-2.869,0" transform="translate(-118.551 -181.334)" fill="#0d2380"/>
          <path id="Trazado_192604" data-name="Trazado 192604" d="M137.527,236.455c.811,0,1.622,0,2.433,0,.546,0,.879.289.869.728a.759.759,0,0,1-.856.71q-2.476.01-4.953,0c-.534,0-.882-.309-.872-.739s.338-.695.859-.7c.84-.006,1.68,0,2.52,0" transform="translate(-118.553 -209.751)" fill="#0d2380"/>
          <path id="Trazado_192605" data-name="Trazado 192605" d="M276.174,279.865a2.292,2.292,0,0,1,0-.3.744.744,0,0,0-.467-.855,2.048,2.048,0,0,1-.91-2.461,2.224,2.224,0,0,1,2.19-1.483,2.191,2.191,0,0,1,2.078,1.62,2.058,2.058,0,0,1-1.029,2.379.612.612,0,0,0-.387.688c.025.336.012.675,0,1.012a.746.746,0,0,1-.725.79.754.754,0,0,1-.754-.806c-.005-.2,0-.394,0-.591m.762-2.217a.729.729,0,0,0,.717-.746.738.738,0,1,0-.717.746" transform="translate(-242.756 -243.742)" fill="#0d2380"/>
          <path id="Trazado_192606" data-name="Trazado 192606" d="M138.6,26.959h-9.608a3.244,3.244,0,0,1-.477-.012.664.664,0,0,1-.619-.608.645.645,0,0,1,.474-.758,2.017,2.017,0,0,1,.6-.06q9.673,0,19.346,0h.043q1.053,0,1.044.735c-.006.479-.332.706-1.02.706H138.6" transform="translate(-113.02 -22.636)" fill="#0d2380"/>
          <path id="Trazado_192607" data-name="Trazado 192607" d="M65.006,26.944c-.75,0-1.1-.225-1.109-.708s.361-.732,1.094-.732c.13,0,.261-.006.39,0a.745.745,0,0,1,.74.735.735.735,0,0,1-.768.7c-.115.006-.231,0-.347,0" transform="translate(-56.469 -22.622)" fill="#0d2380"/>
          <path id="Trazado_192608" data-name="Trazado 192608" d="M33.132,26.927c-.072,0-.145,0-.217,0-.554-.01-.868-.274-.863-.726.005-.432.319-.7.841-.714.2-.005.405-.01.607,0a.722.722,0,0,1,.754.753.712.712,0,0,1-.775.683c-.115,0-.231,0-.347,0" transform="translate(-28.326 -22.605)" fill="#0d2380"/>
          <path id="Trazado_192609" data-name="Trazado 192609" d="M96.954,26.919c-.116,0-.232,0-.347,0a.725.725,0,0,1-.755-.71.739.739,0,0,1,.749-.724c.216-.014.434-.01.651,0a.725.725,0,1,1,.006,1.439c-.1,0-.2,0-.3,0" transform="translate(-84.709 -22.597)" fill="#0d2380"/>
        </g>
      </g>
    </g>
  </g>
</svg>
