<svg xmlns="http://www.w3.org/2000/svg" xmlns:xlink="http://www.w3.org/1999/xlink" width="54.752" height="43.824" viewBox="0 0 54.752 43.824">
  <defs>
    <clipPath id="clip-path">
      <rect id="Rectángulo_85220" data-name="Rectángulo 85220" width="54.752" height="43.824" fill="#0d2380"/>
    </clipPath>
  </defs>
  <g id="Grupo_137494" data-name="Grupo 137494" transform="translate(5303.208 8768.5)">
    <g id="Grupo_134972" data-name="Grupo 134972" transform="translate(-5303.208 -8768.5)">
      <g id="Grupo_134973" data-name="Grupo 134973" clip-path="url(#clip-path)">
        <path id="Trazado_192621" data-name="Trazado 192621" d="M54.752,39.772a11.7,11.7,0,0,1-.916,2.183,4.512,4.512,0,0,1-4.036,1.87q-13.821,0-27.641,0H4.943a4.934,4.934,0,0,1-3.158-.951A4.668,4.668,0,0,1,0,38.943Q.007,27.235,0,15.526c0-.5,0-1,0-1.5A4.552,4.552,0,0,1,4.871,9.143c2.067-.011,4.135,0,6.2,0q15.692,0,31.384,0a5.023,5.023,0,0,1,3.17.909,4.744,4.744,0,0,1,1.835,4.066q-.005,12.377-.005,24.754a3.146,3.146,0,0,0,.5,1.981,2.644,2.644,0,0,0,2.828,1.059A2.505,2.505,0,0,0,52.833,39.9a4.591,4.591,0,0,0,.094-1.06q.007-14.649,0-29.3c0-2.1-1.044-3.137-3.163-3.137H28.292V5.176c0-.731.01-1.462,0-2.192-.015-.859-.307-1.149-1.174-1.151-2.638-.006-5.275,0-7.913,0H7.814C6.6,1.831,6.4,2.039,6.4,3.268c0,1.014,0,2.029,0,3.09H4.639a38.109,38.109,0,0,1,.035-4.241A2.562,2.562,0,0,1,7.486.007c1.568-.013,3.137,0,4.7,0q7.458,0,14.917,0A2.749,2.749,0,0,1,30.12,2.985c.006.356,0,.713,0,1.069,0,.156.017.312.03.528h.652q9.544,0,19.087,0a4.436,4.436,0,0,1,3.937,1.846,11.768,11.768,0,0,1,.924,2.122ZM46.576,42c-1.107-1.462-.941-3.053-.941-4.613q0-11.652,0-23.3c0-2.05-1.047-3.108-3.082-3.108q-18.814,0-37.628,0a4.458,4.458,0,0,0-1.059.092,2.692,2.692,0,0,0-2.041,2.885q0,11.678,0,23.357c0,.659-.019,1.319.008,1.977a2.555,2.555,0,0,0,1.6,2.443,4.186,4.186,0,0,0,1.563.258q20.444.02,40.888.011Z" transform="translate(0 0)" fill="#0d2380"/>
        <rect id="Rectángulo_85218" data-name="Rectángulo 85218" width="1.748" height="28.2" transform="translate(49.324 10.998)" fill="#0d2380"/>
        <path id="Trazado_192622" data-name="Trazado 192622" d="M115.066,125.381A13.685,13.685,0,1,1,101.4,111.71a13.723,13.723,0,0,1,13.669,13.671m-1.824.025a11.862,11.862,0,1,0-11.889,11.843,11.856,11.856,0,0,0,11.889-11.843" transform="translate(-77.647 -98.91)" fill="#0d2380"/>
        <path id="Trazado_192623" data-name="Trazado 192623" d="M145.95,149.927c.039-.821.038-1.588.117-2.346a4.524,4.524,0,0,1,9,.123c.049.723.008,1.452.008,2.219.438.021.772.025,1.1.056a1.752,1.752,0,0,1,1.665,1.76q.026,4.142,0,8.284a1.736,1.736,0,0,1-1.711,1.767c-.8.044-1.6.022-2.4.023q-4.115,0-8.23,0c-1.583,0-2.231-.653-2.232-2.242,0-2.423.051-4.847-.018-7.268-.048-1.677.908-2.473,2.306-2.35a2.7,2.7,0,0,0,.4-.026m10.051,1.9H145.125v8.122H156Zm-2.74-1.912c0-.725.039-1.417-.008-2.1a2.71,2.71,0,0,0-5.313-.4,19.585,19.585,0,0,0-.165,2.507Z" transform="translate(-126.833 -127.128)" fill="#0d2380"/>
        <rect id="Rectángulo_85219" data-name="Rectángulo 85219" width="1.749" height="3.591" transform="translate(22.85 26.527)" fill="#0d2380"/>
      </g>
    </g>
  </g>
</svg>
