<svg xmlns="http://www.w3.org/2000/svg" xmlns:xlink="http://www.w3.org/1999/xlink" width="43.269" height="48.849" viewBox="0 0 43.269 48.849">
  <defs>
    <clipPath id="clip-path">
      <rect id="Rect치ngulo_85831" data-name="Rect치ngulo 85831" width="43.269" height="48.849" transform="translate(0 -0.001)" fill="none"/>
    </clipPath>
    <clipPath id="clip-path-2">
      <path id="Trazado_198202" data-name="Trazado 198202" d="M17.777,33.883c-4.3-.817-6.961-5.838-5.94-11.215s5.336-9.074,9.637-8.257,6.96,5.838,5.939,11.214C26.487,30.5,22.853,34,18.977,34a6.43,6.43,0,0,1-1.2-.113M20.468,0,17.951,5.537h0A14,14,0,0,0,16.406,6L12.665,2.33,9.5,5.037,6.344,7.745l1.267,5.789h0c-.326.53-.632,1.082-.918,1.651v0l-4.981.885L.858,20.583,0,25.1l4.309,2.65v0c.058.634.14,1.26.25,1.873h0l-3.3,4.922L3.2,38.216l1.948,3.678,4.826-2.042h0a13.766,13.766,0,0,0,1.272,1h0l.313,6.075,3.611.686,3.612.686L21.3,42.756h0a13.586,13.586,0,0,0,1.548-.462h0l3.742,3.668,3.16-2.707,3.16-2.708-1.267-5.789h0q.489-.795.918-1.651v0l4.98-.886.858-4.514.857-4.516-4.309-2.649v0c-.058-.634-.14-1.26-.25-1.873h0l3.3-4.922-1.947-3.677L34.1,6.4,29.272,8.442h0a13.765,13.765,0,0,0-1.272-1h0l-.311-6.075L24.079.685Z" fill="none"/>
    </clipPath>
    <radialGradient id="radial-gradient" cx="0.724" cy="0.619" r="0.517" gradientTransform="matrix(0, 1, 0.834, 0, -0.79, 0.97)" gradientUnits="objectBoundingBox">
      <stop offset="0" stop-color="#fff"/>
      <stop offset="0.994" stop-color="#d0cfd1"/>
      <stop offset="1" stop-color="#d0cfd1"/>
    </radialGradient>
  </defs>
  <g id="Grupo_137512" data-name="Grupo 137512" transform="translate(11587.601 12242.425)">
    <g id="Grupo_137506" data-name="Grupo 137506" transform="translate(-11587.601 -12242.424)">
      <g id="Grupo_136414" data-name="Grupo 136414">
        <g id="Grupo_136413" data-name="Grupo 136413" clip-path="url(#clip-path)">
          <path id="Trazado_198201" data-name="Trazado 198201" d="M39.081,22.142v0c-.056-.611-.137-1.214-.244-1.805h0l3.2-4.736-1.9-3.546-1.9-3.545-4.683,1.96a13.388,13.388,0,0,0-1.236-.962h0L32.012,3.66,28.5,2.994,25,2.328,22.561,7.659h0a13.151,13.151,0,0,0-1.5.442L17.422,4.56l-3.064,2.6-3.065,2.6L6.81,17.778l-.825,4.348-.826,4.348,2.226,1.361-.6,1.078c.056.611,1.105,2.728,1.212,3.319l.369.414L6.393,35.571l1.9,3.546,1.9,3.545,4.684-1.96h0a13.524,13.524,0,0,0,1.236.962h0l.312,5.853,3.508.666,3.508.666,2.435-5.331h0a13.65,13.65,0,0,0,1.5-.442h0l3.639,3.54,3.065-2.6,3.064-2.6L35.9,35.829h0q.474-.767.889-1.59v0l4.835-.846.826-4.348.825-4.348ZM22.5,34.615c-4.023-.764-6.516-5.425-5.569-10.41s4.975-8.408,9-7.644,6.516,5.424,5.569,10.41-4.975,8.408-9,7.644" fill="#636263" fill-rule="evenodd"/>
        </g>
      </g>
      <g id="Grupo_136416" data-name="Grupo 136416">
        <g id="Grupo_136415" data-name="Grupo 136415" clip-path="url(#clip-path-2)">
          <rect id="Rect치ngulo_85832" data-name="Rect치ngulo 85832" width="50.786" height="42.361" transform="translate(-3.19 48.083) rotate(-86.204)" fill="url(#radial-gradient)"/>
        </g>
      </g>
      <g id="Grupo_136418" data-name="Grupo 136418">
        <g id="Grupo_136417" data-name="Grupo 136417" clip-path="url(#clip-path)">
          <path id="Trazado_198203" data-name="Trazado 198203" d="M34.1,6.4l4.143,2.114L42.035,15.6l-4.042-1.85Z" fill="#959399" fill-rule="evenodd"/>
          <path id="Trazado_198204" data-name="Trazado 198204" d="M34.692,18.677l4.145,1.665,3.2-4.736-4.042-1.851Z" fill="#7a7a7c" fill-rule="evenodd"/>
          <path id="Trazado_198205" data-name="Trazado 198205" d="M41.618,33.4l-4.083-1.172-4.98.883-.917,1.651L35.9,35.83l.888-1.586Z" fill="#7a7a7c" fill-rule="evenodd"/>
          <path id="Trazado_198206" data-name="Trazado 198206" d="M34.692,18.677l.248,1.873,4.141,1.593-.244-1.8Z" fill="#7a7a7c" fill-rule="evenodd"/>
          <path id="Trazado_198207" data-name="Trazado 198207" d="M37.135,41.409l-4.229-.86L31.637,34.76,35.9,35.831Z" fill="#959399" fill-rule="evenodd"/>
          <path id="Trazado_198208" data-name="Trazado 198208" d="M31.006,46.616l-4.421-.652,6.32-5.415,4.23.86Z" fill="#7a7a7c" fill-rule="evenodd"/>
          <path id="Trazado_198209" data-name="Trazado 198209" d="M23.432,48.848l-4.65-.554L21.3,42.756l4.019,1.965Z" fill="#7a7a7c" fill-rule="evenodd"/>
          <path id="Trazado_198210" data-name="Trazado 198210" d="M11.316,42.19l-1.128.472-5.036-.768,4.826-2.043,1.272,1Z" fill="#7a7a7c" fill-rule="evenodd"/>
          <path id="Trazado_198211" data-name="Trazado 198211" d="M12.665,2.33l5.926,1.8-.636,1.407L16.405,6Z" fill="#959399" fill-rule="evenodd"/>
          <path id="Trazado_198212" data-name="Trazado 198212" d="M27.692,1.372l4.321,2.289L32.2,7.2l-2.93,1.24L28,7.446Z" fill="#7a7a7c" fill-rule="evenodd"/>
        </g>
      </g>
    </g>
  </g>
</svg>
