<svg xmlns="http://www.w3.org/2000/svg" xmlns:xlink="http://www.w3.org/1999/xlink" width="66.313" height="66.924" viewBox="0 0 66.313 66.924">
  <defs>
    <clipPath id="clip-path">
      <rect id="Rect치ngulo_85304" data-name="Rect치ngulo 85304" width="66.313" height="66.924" fill="#e8e8e8"/>
    </clipPath>
    <clipPath id="clip-path-2">
      <rect id="Rect치ngulo_85328" data-name="Rect치ngulo 85328" width="40.804" height="40.814" fill="#0d2380"/>
    </clipPath>
  </defs>
  <g id="Grupo_137501" data-name="Grupo 137501" transform="translate(-709 -3588)">
    <g id="Grupo_135246" data-name="Grupo 135246" transform="translate(709 3588)">
      <g id="Grupo_135192" data-name="Grupo 135192" clip-path="url(#clip-path)">
        <path id="Trazado_192999" data-name="Trazado 192999" d="M77.391,44.282A33.158,33.158,0,1,1,44.235,10.82,33.31,33.31,0,0,1,77.391,44.282" transform="translate(-11.078 -10.82)" fill="#e8e8e8"/>
      </g>
    </g>
    <g id="Grupo_135252" data-name="Grupo 135252" transform="translate(722 3601)">
      <g id="Grupo_135252-2" data-name="Grupo 135252" clip-path="url(#clip-path-2)">
        <path id="Trazado_193018" data-name="Trazado 193018" d="M22.474,0a3.142,3.142,0,0,1,.4.733c.25,1.058.467,2.124.675,3.192a.458.458,0,0,0,.41.435,12.787,12.787,0,0,1,1.422.375.412.412,0,0,0,.512-.146c.736-.839,1.481-1.668,2.224-2.5.376-.421.574-.456,1.07-.172q1.416.812,2.827,1.631c.517.3.575.464.384,1.045-.339,1.033-.669,2.069-1.024,3.1a.477.477,0,0,0,.144.616,9.536,9.536,0,0,1,.986.984.477.477,0,0,0,.615.145c1.039-.361,2.087-.7,3.132-1.04.527-.173.71-.107.985.366q.84,1.445,1.671,2.9a.659.659,0,0,1-.16,1.01c-.831.744-1.66,1.491-2.5,2.224a.457.457,0,0,0-.167.577,13.574,13.574,0,0,1,.369,1.383.433.433,0,0,0,.394.4c1.107.21,2.208.455,3.311.687.506.106.65.275.651.786q0,1.694,0,3.387c0,.483-.155.665-.63.765-1.116.235-2.23.48-3.35.695a.407.407,0,0,0-.371.374c-.114.49-.24.979-.392,1.459a.392.392,0,0,0,.141.48c.838.737,1.667,1.483,2.5,2.225.442.394.475.586.178,1.1q-.8,1.4-1.612,2.792c-.312.539-.467.594-1.072.4-1.033-.339-2.068-.673-3.1-1.023a.457.457,0,0,0-.584.136A10.247,10.247,0,0,1,31.5,32.522a.455.455,0,0,0-.134.583c.356,1.041.694,2.089,1.037,3.134.18.55.115.73-.377,1.015q-1.446.839-2.9,1.669a.643.643,0,0,1-.977-.156c-.753-.841-1.507-1.681-2.251-2.53a.435.435,0,0,0-.545-.156,12.777,12.777,0,0,1-1.383.366.46.46,0,0,0-.425.421c-.208,1.094-.449,2.182-.676,3.273-.11.529-.276.669-.81.67q-1.673,0-3.347,0c-.511,0-.681-.146-.786-.651-.231-1.1-.474-2.2-.685-3.312a.437.437,0,0,0-.4-.394c-.477-.111-.954-.232-1.42-.383a.417.417,0,0,0-.513.152c-.736.838-1.482,1.668-2.225,2.5-.376.421-.581.455-1.071.172q-1.431-.825-2.859-1.654c-.47-.273-.539-.458-.367-.985.343-1.046.679-2.094,1.039-3.133a.477.477,0,0,0-.144-.616,10.593,10.593,0,0,1-.985-.985.454.454,0,0,0-.577-.155c-1.051.367-2.112.7-3.171,1.05-.526.172-.711.1-.985-.367q-.839-1.446-1.671-2.9a.656.656,0,0,1,.161-1.008c.832-.743,1.659-1.492,2.5-2.224a.457.457,0,0,0,.167-.578A9.96,9.96,0,0,1,4.37,24a.516.516,0,0,0-.484-.461c-1.054-.205-2.108-.416-3.153-.662a3.13,3.13,0,0,1-.733-.4V18.334a3.129,3.129,0,0,1,.733-.4c1.045-.246,2.1-.457,3.153-.662a.516.516,0,0,0,.483-.461,9.915,9.915,0,0,1,.355-1.345.457.457,0,0,0-.166-.578c-.841-.733-1.668-1.481-2.5-2.225A.657.657,0,0,1,1.9,11.656q.832-1.45,1.671-2.9c.274-.473.457-.539.985-.366,1.071.351,2.143.7,3.208,1.063a.411.411,0,0,0,.511-.139A12.283,12.283,0,0,1,9.286,8.3a.478.478,0,0,0,.145-.615c-.361-1.04-.7-2.088-1.04-3.134-.173-.528-.1-.712.366-.984q1.429-.829,2.859-1.654c.491-.283.695-.25,1.071.172.743.832,1.489,1.662,2.225,2.5a.415.415,0,0,0,.512.152,13.2,13.2,0,0,1,1.421-.379.459.459,0,0,0,.41-.435c.207-1.068.425-2.134.675-3.192A3.142,3.142,0,0,1,18.33,0ZM9.622,4.452c.367,1.12.724,2.214,1.083,3.307.212.647.185.692-.321,1.167s-.992.96-1.462,1.464-.52.53-1.168.317l-3.3-1.085-1.362,2.36c.917.819,1.8,1.62,2.7,2.406a.782.782,0,0,1,.253.918c-.236.786-.437,1.583-.635,2.38a.71.71,0,0,1-.6.606c-.456.085-.909.188-1.363.284l-2.236.471v2.725c1.168.242,2.32.493,3.478.716a.835.835,0,0,1,.74.751c.143.7.336,1.391.543,2.075.213.706.215.749-.332,1.236-.85.757-1.7,1.518-2.555,2.285l1.365,2.359C5.635,30.8,6.77,30.438,7.9,30.05a.774.774,0,0,1,.918.248c.534.571,1.081,1.133,1.659,1.66a.84.84,0,0,1,.27,1.019c-.36,1.026-.693,2.061-1.019,3.1a.426.426,0,0,0,.083.381c.711.435,1.438.843,2.173,1.267C12.8,36.8,13.608,35.9,14.408,35a.711.711,0,0,1,.808-.255c.827.239,1.661.452,2.495.664a.685.685,0,0,1,.572.581c.061.339.139.676.21,1.013l.548,2.6h2.7a2.307,2.307,0,0,0,.078-.238q.329-1.577.654-3.156c.13-.636.209-.691.83-.834.709-.164,1.412-.36,2.11-.567.581-.173.656-.167,1.069.3l2.344,2.622c.71-.41,1.392-.817,2.088-1.2.22-.121.256-.232.175-.468-.366-1.066-.7-2.141-1.064-3.208a.685.685,0,0,1,.2-.787q.926-.9,1.829-1.829a.674.674,0,0,1,.787-.2c.385.141.78.259,1.17.386l2.344.766,1.358-2.354C36.8,28.014,35.907,27.2,35,26.409a.749.749,0,0,1-.245-.882c.225-.734.432-1.475.612-2.222.151-.628.2-.7.837-.827,1.129-.232,2.256-.469,3.391-.705V19.058c-.118-.031-.23-.065-.345-.089q-1.558-.324-3.116-.646c-.549-.113-.629-.22-.759-.768-.175-.734-.357-1.47-.592-2.186a.828.828,0,0,1,.269-1.015c.893-.772,1.765-1.57,2.664-2.374L36.353,9.624c-1.165.384-2.3.747-3.425,1.134a.794.794,0,0,1-.951-.256c-.5-.548-1.026-1.075-1.567-1.584-.495-.466-.525-.509-.308-1.169.358-1.093.716-2.187,1.079-3.3L28.825,3.09C28,4.013,27.2,4.9,26.411,5.8a.759.759,0,0,1-.881.257c-.8-.236-1.608-.443-2.417-.645a.711.711,0,0,1-.6-.6c-.084-.456-.186-.91-.281-1.364-.157-.747-.316-1.494-.47-2.224H19.046c-.03.121-.058.223-.079.326-.218,1.052-.441,2.1-.65,3.157a.792.792,0,0,1-.637.713c-.811.192-1.617.409-2.418.643a.734.734,0,0,1-.85-.239c-.5-.572-1-1.133-1.509-1.7-.307-.343-.616-.683-.928-1.029L9.622,4.452" fill="#0d2380"/>
        <path id="Trazado_193019" data-name="Trazado 193019" d="M62.886,78.157c.849-1.357,1.018-1.492,2.723-2.184a3.962,3.962,0,0,1-1.1-3.244,3.891,3.891,0,0,1,1.3-2.486,3.989,3.989,0,0,1,5.477.166,3.993,3.993,0,0,1,7.75.024,4.029,4.029,0,0,1,3.013-1.193,3.886,3.886,0,0,1,2.878,1.417,4,4,0,0,1-.2,5.347A3.759,3.759,0,0,1,87.4,78.125l.116-.011c.1-.754.259-1.5.3-2.262a12.594,12.594,0,0,0-2.669-8.629c-.307-.4-.335-.663-.1-.926a.611.611,0,0,1,.984.116,13.4,13.4,0,0,1,2.029,3.5,13.879,13.879,0,1,1-16.36-8.3,13.616,13.616,0,0,1,11.968,2.466c.116.087.288.177.313.292a1.168,1.168,0,0,1,0,.7.486.486,0,0,1-.691.191,2.116,2.116,0,0,1-.36-.245A12.694,12.694,0,0,0,62.866,71.96a12.518,12.518,0,0,0-.054,5.956c.014.061.036.12.073.241m14.2,9.521v-.583q0-3.726,0-7.451a1.814,1.814,0,0,1,.024-.435.589.589,0,0,1,1.162.064,3.306,3.306,0,0,1,.008.4q0,3.606,0,7.212c0,.14,0,.279,0,.482.476-.156.894-.277,1.3-.437a.422.422,0,0,0,.2-.319c.02-.544.007-1.089.01-1.633,0-.466.226-.742.591-.744s.6.279.6.739c0,.43,0,.86,0,1.354.308-.175.561-.292.785-.45.574-.4,1.133-.831,1.7-1.241a.831.831,0,0,0,.36-.778c-.025-.929-.014-1.859,0-2.789a.589.589,0,0,1,.565-.644.6.6,0,0,1,.619.636c.014.238,0,.478.005.717,0,.373,0,.745,0,1.219,1.08-1.432,1.555-2,1.5-3.219A2.475,2.475,0,0,0,83.9,77.155c-.876-.009-1.753,0-2.629,0a2.667,2.667,0,0,0-.29.031.679.679,0,0,0-.023.108c.007,1.554.02,3.107.021,4.661,0,.457-.3.737-.7.662s-.5-.342-.5-.7c.005-1.368.008-2.736,0-4.1a2.415,2.415,0,0,0-2.407-2.5q-2.21-.049-4.421,0a2.418,2.418,0,0,0-2.4,2.5c0,.518.005,1.036-.005,1.554,0,.141-.012.346-.1.407a1.119,1.119,0,0,1-.645.255c-.308-.026-.446-.3-.447-.615,0-.74,0-1.479,0-2.235a1.672,1.672,0,0,0-.2-.024c-1.049.007-2.1-.021-3.146.034a2.327,2.327,0,0,0-2.087,1.751c-.451,1.622.355,2.814,1.4,4.054,0-.692-.007-1.271,0-1.85.007-.465.245-.733.615-.721.353.011.569.271.575.718.008.6,0,1.2,0,1.793,0,1.5-.006,1.512,1.223,2.384.5.356,1.034.667,1.616,1.038v-.544c0-1.142,0-2.285,0-3.427a.626.626,0,0,1,.5-.707c.391-.085.69.223.691.708,0,1.381,0,2.763.007,4.144,0,.127.047.335.128.367.433.173.883.3,1.369.461v-.52q0-3.586,0-7.172a3.241,3.241,0,0,1,.008-.4.554.554,0,0,1,.555-.525.547.547,0,0,1,.594.429,1.615,1.615,0,0,1,.037.433q0,3.586,0,7.172c0,.807,0,.854.788.892,1,.048,2.005.008,3.051.007M75.144,74.1a2.758,2.758,0,1,0-2.746-2.78,2.767,2.767,0,0,0,2.746,2.78m3.994-.948a2.758,2.758,0,1,0,2.8-2.726,2.743,2.743,0,0,0-2.8,2.726m-7.941.059a2.758,2.758,0,1,0-2.774,2.741A2.763,2.763,0,0,0,71.2,73.213" transform="translate(-54.765 -54.639)" fill="#0d2380"/>
      </g>
    </g>
  </g>
</svg>
