<svg xmlns="http://www.w3.org/2000/svg" xmlns:xlink="http://www.w3.org/1999/xlink" width="66.313" height="66.924" viewBox="0 0 66.313 66.924">
  <defs>
    <clipPath id="clip-path">
      <rect id="Rectángulo_85304" data-name="Rectángulo 85304" width="66.313" height="66.924" fill="#e8e8e8"/>
    </clipPath>
    <clipPath id="clip-path-2">
      <rect id="Rectángulo_85340" data-name="Rectángulo 85340" width="35.357" height="40.815" fill="#0d2380"/>
    </clipPath>
  </defs>
  <g id="Grupo_137495" data-name="Grupo 137495" transform="translate(-709 -3156)">
    <g id="Grupo_137494" data-name="Grupo 137494" transform="translate(0 -14)">
      <g id="Grupo_135234" data-name="Grupo 135234" transform="translate(709 3170)">
        <g id="Grupo_135192" data-name="Grupo 135192" clip-path="url(#clip-path)">
          <path id="Trazado_192999" data-name="Trazado 192999" d="M77.391,44.282A33.158,33.158,0,1,1,44.235,10.82,33.31,33.31,0,0,1,77.391,44.282" transform="translate(-11.078 -10.82)" fill="#e8e8e8"/>
        </g>
      </g>
      <g id="Grupo_135253" data-name="Grupo 135253" transform="translate(724 3183)">
        <g id="Grupo_135253-2" data-name="Grupo 135253" clip-path="url(#clip-path-2)">
          <path id="Trazado_193020" data-name="Trazado 193020" d="M29.018,0a4.24,4.24,0,0,1,1.719.768A3.338,3.338,0,0,1,31.957,3.1c.022.237.02.478.02.717q0,14.823,0,29.646v.552h3.379c0,1.263,0,2.48,0,3.7a2.133,2.133,0,0,1-.087.548,3.339,3.339,0,0,1-3.218,2.549c-.106.005-.212,0-.319,0q-11.318,0-22.637,0a3.488,3.488,0,0,1-2.957-1.355,3.769,3.769,0,0,1-.69-2.4q0-13.807,0-27.614V8.854H.033C.021,8.714,0,8.612,0,8.51c0-1.647-.011-3.294,0-4.941A3.34,3.34,0,0,1,1.936.348,7.536,7.536,0,0,1,3.028,0ZM10.9,34H30.618v-.4q0-15,0-30.01a3,3,0,0,0-.048-.633,2.018,2.018,0,0,0-2.173-1.6q-10.922,0-21.844,0c-.115,0-.229.01-.426.019.85,1.134.682,2.405.683,3.644q.005,15.961,0,31.923c0,.225.007.452.029.676a1.984,1.984,0,0,0,2,1.832,1.956,1.956,0,0,0,2.012-1.768c.063-.659.039-1.326.046-1.989.006-.542,0-1.083,0-1.7M33.993,35.4H12.279c-.1,1.376.252,2.8-.7,4.051H31.789a3.676,3.676,0,0,0,.4-.016,1.907,1.907,0,0,0,1.792-1.73c.072-.747.014-1.507.014-2.3M5.407,7.466c0-1.515.038-3.011-.019-4.5a1.65,1.65,0,0,0-.929-1.317,2.04,2.04,0,0,0-3.09,1.822c-.025,1.26-.006,2.521,0,3.781a1.116,1.116,0,0,0,.042.217Z" transform="translate(0)" fill="#0d2380"/>
          <path id="Trazado_193021" data-name="Trazado 193021" d="M168.978,35.764a8.884,8.884,0,0,1-1.466,5.265,9.79,9.79,0,0,1-3.141,2.943.4.4,0,0,1-.341-.027,8.972,8.972,0,0,1-4.565-8.05c0-.558.008-1.116,0-1.673a.318.318,0,0,1,.264-.366c1.426-.459,2.846-.937,4.273-1.395a.86.86,0,0,1,.493.013c1.389.445,2.771.912,4.161,1.353a.406.406,0,0,1,.331.484c-.022.424-.006.85-.006,1.453m-1.362.28a7.447,7.447,0,0,1,.006-.8c.03-.283-.092-.392-.345-.474-.933-.3-1.857-.635-2.79-.936a.926.926,0,0,0-.529,0c-.72.227-1.432.481-2.147.726-.99.339-.994.339-.985,1.4a7.436,7.436,0,0,0,3.142,6.295.418.418,0,0,0,.609-.019,7.5,7.5,0,0,0,3.039-6.191" transform="translate(-145.844 -29.66)" fill="#0d2380"/>
          <rect id="Rectángulo_85329" data-name="Rectángulo 85329" width="16.956" height="1.31" transform="translate(12.282 27.231)" fill="#0d2380"/>
          <rect id="Rectángulo_85330" data-name="Rectángulo 85330" width="14.24" height="1.307" transform="translate(8.204 21.787)" fill="#0d2380"/>
          <rect id="Rectángulo_85331" data-name="Rectángulo 85331" width="13.554" height="1.308" transform="translate(15.674 19.07)" fill="#0d2380"/>
          <rect id="Rectángulo_85332" data-name="Rectángulo 85332" width="13.566" height="1.309" transform="translate(15.674 24.51)" fill="#0d2380"/>
          <rect id="Rectángulo_85333" data-name="Rectángulo 85333" width="10.828" height="1.319" transform="translate(8.208 29.95)" fill="#0d2380"/>
          <rect id="Rectángulo_85334" data-name="Rectángulo 85334" width="9.46" height="1.308" transform="translate(13.64 15.665)" fill="#0d2380"/>
          <rect id="Rectángulo_85335" data-name="Rectángulo 85335" width="8.813" height="1.312" transform="translate(20.432 29.954)" fill="#0d2380"/>
          <rect id="Rectángulo_85336" data-name="Rectángulo 85336" width="6.073" height="1.305" transform="translate(8.187 19.079)" fill="#0d2380"/>
          <rect id="Rectángulo_85337" data-name="Rectángulo 85337" width="6.068" height="1.306" transform="translate(8.191 24.513)" fill="#0d2380"/>
          <rect id="Rectángulo_85338" data-name="Rectángulo 85338" width="5.383" height="1.309" transform="translate(23.856 21.783)" fill="#0d2380"/>
          <rect id="Rectángulo_85339" data-name="Rectángulo 85339" width="2.666" height="1.304" transform="translate(8.204 27.224)" fill="#0d2380"/>
          <path id="Trazado_193022" data-name="Trazado 193022" d="M204.017,83.05l-.748-1.155a4.365,4.365,0,0,0,1.706-2.917l1.345.125a5.632,5.632,0,0,1-2.3,3.947" transform="translate(-185.91 -72.233)" fill="#0d2380"/>
        </g>
      </g>
    </g>
  </g>
</svg>
