<svg xmlns="http://www.w3.org/2000/svg" xmlns:xlink="http://www.w3.org/1999/xlink" width="66.313" height="66.924" viewBox="0 0 66.313 66.924">
  <defs>
    <clipPath id="clip-path">
      <rect id="Rectángulo_85304" data-name="Rectángulo 85304" width="66.313" height="66.924" fill="#e8e8e8"/>
    </clipPath>
    <clipPath id="clip-path-2">
      <rect id="Rectángulo_85314" data-name="Rectángulo 85314" width="39.444" height="39.6" fill="#0d2380"/>
    </clipPath>
  </defs>
  <g id="Grupo_137495" data-name="Grupo 137495" transform="translate(-709 -3749)">
    <g id="Grupo_135248" data-name="Grupo 135248" transform="translate(709 3749)">
      <g id="Grupo_135192" data-name="Grupo 135192" clip-path="url(#clip-path)">
        <path id="Trazado_192999" data-name="Trazado 192999" d="M77.391,44.282A33.158,33.158,0,1,1,44.235,10.82,33.31,33.31,0,0,1,77.391,44.282" transform="translate(-11.078 -10.82)" fill="#e8e8e8"/>
      </g>
    </g>
    <g id="Grupo_135249" data-name="Grupo 135249" transform="translate(722 3762)">
      <g id="Grupo_135250" data-name="Grupo 135250" clip-path="url(#clip-path-2)">
        <path id="Trazado_193006" data-name="Trazado 193006" d="M2.781,338.753A3.512,3.512,0,0,1,.715,337.58a2.873,2.873,0,0,1-.7-1.723c-.03-1.132-.008-2.265-.008-3.429H12.039v1.215H1.215a23.105,23.105,0,0,0,.131,2.423,1.759,1.759,0,0,0,1.614,1.386,5.224,5.224,0,0,0,.539.029q16.214,0,32.429.005a2.015,2.015,0,0,0,2.005-1.029,1.919,1.919,0,0,0,.22-.77c.031-.654.01-1.31.01-2.017H27.38v-1.251H39.439c0,.7.014,1.394,0,2.085a8.644,8.644,0,0,1-.127,1.879,3.015,3.015,0,0,1-2.521,2.313.765.765,0,0,0-.139.057Z" transform="translate(0 -299.154)" fill="#0d2380"/>
        <path id="Trazado_193007" data-name="Trazado 193007" d="M203.3,2.677A14.9,14.9,0,0,0,212.817,0a14.915,14.915,0,0,0,9.544,2.674v.474c0,2.951-.009,5.9,0,8.852a9.4,9.4,0,0,1-2.672,6.83,9.065,9.065,0,0,1-7.179,2.914,9.3,9.3,0,0,1-8.394-5.617,8.96,8.96,0,0,1-.847-3.933c-.016-3.067-.005-6.134,0-9.2,0-.087.016-.174.03-.318m1.272,1.338c0,.049-.015.123-.015.2,0,2.693,0,5.385,0,8.078a8.273,8.273,0,1,0,16.543-.24c.008-2.564,0-5.127,0-7.691,0-.125-.011-.25-.016-.361a.6.6,0,0,0-.1-.037c-.064-.006-.128-.009-.193-.011a15.607,15.607,0,0,1-7.656-2.239.519.519,0,0,0-.623,0,14.76,14.76,0,0,1-5.239,1.976c-.884.151-1.781.221-2.7.331" transform="translate(-182.922)" fill="#0d2380"/>
        <path id="Trazado_193008" data-name="Trazado 193008" d="M81.9,170.544c-1.211,0-2.421,0-3.632,0a1.911,1.911,0,0,1-2.086-2.089c-.007-2.009,0-4.018,0-6.027a1.967,1.967,0,0,1,1.074-1.867.489.489,0,0,0,.186-.357c.038-.809-.014-1.628.087-2.428a4.426,4.426,0,0,1,8.726-.177,17.74,17.74,0,0,1,.1,2.541.461.461,0,0,0,.277.478,1.8,1.8,0,0,1,1.008,1.664c.016,2.112.025,4.224,0,6.336a1.882,1.882,0,0,1-1.983,1.924c-1.249.012-2.5,0-3.748,0m0-8.9c-1.21,0-2.42,0-3.631,0-.593,0-.825.227-.826.813q-.005,2.993,0,5.987c0,.61.229.839.844.84q3.611,0,7.223,0c.617,0,.837-.223.838-.838q0-2.974,0-5.948c0-.649-.207-.853-.855-.854q-1.8,0-3.592,0m3.134-1.3c0-.783.052-1.544-.012-2.294a3.008,3.008,0,0,0-2.3-2.647,3.051,3.051,0,0,0-3.237,1.01c-1.032,1.164-.71,2.572-.761,3.931Z" transform="translate(-68.557 -138.588)" fill="#0d2380"/>
        <path id="Trazado_193009" data-name="Trazado 193009" d="M13.767,113.347H12.48v-.433q0-9.491,0-18.982a3.225,3.225,0,0,1,3.477-3.467H30.287v1.243c-.158.007-.319.021-.48.021q-6.939,0-13.879,0a1.932,1.932,0,0,0-2.1,1.454,3.388,3.388,0,0,0-.062.8q0,9.413,0,18.827Z" transform="translate(-11.23 -81.412)" fill="#0d2380"/>
        <path id="Trazado_193010" data-name="Trazado 193010" d="M53.208,115.915v1.243H39.231v19.093H37.939v-.418q0-9.179,0-18.357c0-1.094.461-1.56,1.543-1.56H53.208" transform="translate(-34.142 -104.315)" fill="#0d2380"/>
        <path id="Trazado_193011" data-name="Trazado 193011" d="M133.449,332.39h12.678a18.2,18.2,0,0,1-.019,2.283,1.836,1.836,0,0,1-1.925,1.5c-1.713.008-3.425,0-5.138,0-1.185,0-2.369,0-3.554,0a1.9,1.9,0,0,1-2.04-2.02c-.008-.577,0-1.155,0-1.767m11.454,1.272h-10.17c-.086,1.051.1,1.253,1.1,1.253h7.141c.347,0,.695,0,1.042,0,.665-.005.886-.225.889-.876,0-.115,0-.23,0-.376" transform="translate(-120.093 -299.127)" fill="#0d2380"/>
        <rect id="Rectángulo_85309" data-name="Rectángulo 85309" width="1.235" height="12.04" transform="translate(36.916 19.895)" fill="#0d2380"/>
        <rect id="Rectángulo_85310" data-name="Rectángulo 85310" width="1.24" height="10.122" transform="translate(34.369 21.814)" fill="#0d2380"/>
        <rect id="Rectángulo_85311" data-name="Rectángulo 85311" width="1.217" height="1.211" transform="translate(5.103 35.812)" fill="#0d2380"/>
        <rect id="Rectángulo_85312" data-name="Rectángulo 85312" width="1.218" height="1.218" transform="translate(7.648 35.813)" fill="#0d2380"/>
        <rect id="Rectángulo_85313" data-name="Rectángulo 85313" width="1.217" height="1.218" transform="translate(10.203 35.808)" fill="#0d2380"/>
        <path id="Trazado_193012" data-name="Trazado 193012" d="M228.654,33.088c1.148-.245,2.278-.4,3.351-.738,1.159-.365,2.262-.9,3.394-1.357a.58.58,0,0,1,.414-.041,18.26,18.26,0,0,0,6.632,2.042,1.6,1.6,0,0,1,.166.038,1.034,1.034,0,0,1,.031.18c0,2.4.029,4.791-.018,7.186a6.99,6.99,0,0,1-13.972-.3c-.044-2.291-.009-4.584-.008-6.877a1.282,1.282,0,0,1,.011-.129m12.677,4.343h.051c0-.992-.006-1.984,0-2.976,0-.233-.053-.334-.306-.375a18.469,18.469,0,0,1-5.2-1.666.6.6,0,0,0-.46,0,18.378,18.378,0,0,1-5.159,1.66c-.281.045-.346.157-.344.424.011,1.816-.007,3.633.014,5.449a6.856,6.856,0,0,0,.185,1.565,5.7,5.7,0,0,0,11.194-.8c.1-1.085.017-2.187.017-3.281" transform="translate(-205.751 -27.832)" fill="#0d2380"/>
        <path id="Trazado_193013" data-name="Trazado 193013" d="M116.926,248.187h-1.277c0-.352-.013-.694,0-1.033a.444.444,0,0,0-.28-.476,1.849,1.849,0,0,1-.925-2.129,1.9,1.9,0,0,1,3.681,0,1.857,1.857,0,0,1-.932,2.129.432.432,0,0,0-.276.472c.018.331,0,.664,0,1.036m-.651-3.792a.626.626,0,0,0-.607.66.612.612,0,0,0,.633.588.628.628,0,0,0,.618-.614.65.65,0,0,0-.644-.634" transform="translate(-102.937 -218.79)" fill="#0d2380"/>
        <path id="Trazado_193014" data-name="Trazado 193014" d="M270.047,74.078l1.043.728-4.831,6.9-3.07-2.3.757-1.019,2.022,1.507,4.078-5.82" transform="translate(-236.851 -66.665)" fill="#0d2380"/>
      </g>
    </g>
  </g>
</svg>
