<svg xmlns="http://www.w3.org/2000/svg" xmlns:xlink="http://www.w3.org/1999/xlink" width="66.313" height="66.924" viewBox="0 0 66.313 66.924">
  <defs>
    <clipPath id="clip-path">
      <rect id="Rect치ngulo_85304" data-name="Rect치ngulo 85304" width="66.313" height="66.924" fill="#e8e8e8"/>
    </clipPath>
    <clipPath id="clip-path-2">
      <rect id="Rect치ngulo_85346" data-name="Rect치ngulo 85346" width="39.804" height="19.263" fill="#0d2380"/>
    </clipPath>
  </defs>
  <g id="Grupo_137499" data-name="Grupo 137499" transform="translate(-709 -3449)">
    <g id="Grupo_135242" data-name="Grupo 135242" transform="translate(709 3449)">
      <g id="Grupo_135192" data-name="Grupo 135192" clip-path="url(#clip-path)">
        <path id="Trazado_192999" data-name="Trazado 192999" d="M77.391,44.282A33.158,33.158,0,1,1,44.235,10.82,33.31,33.31,0,0,1,77.391,44.282" transform="translate(-11.078 -10.82)" fill="#e8e8e8"/>
      </g>
    </g>
    <g id="Grupo_135257" data-name="Grupo 135257" transform="translate(722 3473)">
      <g id="Grupo_135257-2" data-name="Grupo 135257" clip-path="url(#clip-path-2)">
        <path id="Trazado_193037" data-name="Trazado 193037" d="M0,2.086A2.469,2.469,0,0,1,1.32.314a3.377,3.377,0,0,1,1.3-.3Q19.9-.012,37.174,0A2.473,2.473,0,0,1,39.8,2.638c0,1.749.01,3.5-.01,5.246a.957.957,0,0,1-.26.64.551.551,0,0,1-.889-.453c-.023-.3-.007-.6-.007-.893q0-2.254,0-4.508a1.334,1.334,0,0,0-1.512-1.5q-9.133,0-18.266,0H2.8c-1.187,0-1.637.454-1.637,1.649q0,3.42,0,6.84c0,1.087.473,1.566,1.559,1.566l21.1,0a3.01,3.01,0,0,1,.58.036.459.459,0,0,1,.407.529,1.1,1.1,0,0,1-.392.547c-.1.082-.3.055-.452.055q-10.629,0-21.258,0c-1.436,0-2.122-.531-2.713-2.068Z" transform="translate(0 0.001)" fill="#0d2380"/>
        <path id="Trazado_193038" data-name="Trazado 193038" d="M274.944,54c-1.347,0-2.694-.03-4.04.009a1.961,1.961,0,0,1-2.17-2.142c.048-1.889.025-3.781.006-5.671a1.961,1.961,0,0,1,1.083-1.944.53.53,0,0,0,.162-.413,5.268,5.268,0,0,1,.729-2.971,4.943,4.943,0,0,1,9.158,2.327,1.319,1.319,0,0,1,.006.233.939.939,0,0,0,.527,1.083,1.521,1.521,0,0,1,.715,1.391c.009,2.085.017,4.17,0,6.254a1.836,1.836,0,0,1-1.98,1.843c-1.4.009-2.8,0-4.2,0m-.006-8.727c-1.386,0-2.772,0-4.158,0-.651,0-.863.216-.864.863q0,2.9,0,5.791c0,.683.221.9.911.9q4.1,0,8.2,0c.706,0,.93-.227.93-.931q0-2.837,0-5.674c0-.747-.2-.951-.939-.952q-2.04,0-4.081,0m3.762-1.19a3.853,3.853,0,0,0-1.786-3.833,3.545,3.545,0,0,0-4.126.1,3.769,3.769,0,0,0-1.6,3.73Z" transform="translate(-242.569 -34.743)" fill="#0d2380"/>
        <path id="Trazado_193039" data-name="Trazado 193039" d="M198.81,34.263c.442-.255.8-.464,1.154-.664.395-.219.74-.158.914.153s.057.622-.343.861c-.355.212-.714.417-1.131.66l.886.528c.133.079.274.15.4.241a.575.575,0,0,1-.606.976c-.409-.214-.805-.451-1.273-.715,0,.456.009.84,0,1.224-.006.177,0,.41-.1.516a.789.789,0,0,1-.576.259.685.685,0,0,1-.445-.436,5.1,5.1,0,0,1-.044-1.043c0-.149,0-.3,0-.526-.433.247-.788.451-1.146.651-.4.222-.744.173-.92-.125-.193-.328-.074-.641.346-.89.353-.209.71-.412,1.127-.653-.442-.258-.832-.475-1.211-.71a.582.582,0,1,1,.577-1c.387.206.763.432,1.226.7,0-.357,0-.647,0-.936,0-.181-.006-.364.011-.544a.572.572,0,0,1,1.144-.005c.022.31.012.621.015.932,0,.154,0,.308,0,.553" transform="translate(-176.452 -29.079)" fill="#0d2380"/>
        <path id="Trazado_193040" data-name="Trazado 193040" d="M120.843,34.553c0-.461-.018-.859.007-1.254a.914.914,0,0,1,.173-.568.672.672,0,0,1,.579-.147.727.727,0,0,1,.383.5,13.371,13.371,0,0,1,.018,1.5l.781-.447c.168-.1.332-.2.507-.285a.57.57,0,0,1,.8.227.546.546,0,0,1-.225.77c-.39.249-.8.472-1.256.743.388.227.731.422,1.068.628a1.341,1.341,0,0,1,.366.279.523.523,0,0,1-.023.712.558.558,0,0,1-.74.115c-.405-.218-.8-.45-1.274-.715,0,.5.006.917,0,1.338-.008.464-.221.711-.59.7-.349-.007-.561-.25-.574-.691-.012-.424,0-.848,0-1.347-.415.236-.77.439-1.126.639-.4.225-.746.184-.925-.1-.2-.32-.078-.653.329-.9.354-.211.712-.415,1.137-.662-.388-.226-.727-.42-1.063-.621a1.354,1.354,0,0,1-.345-.246.571.571,0,0,1,.691-.886c.314.15.609.342.913.513.108.061.219.114.388.2" transform="translate(-107.141 -29.392)" fill="#0d2380"/>
        <path id="Trazado_193041" data-name="Trazado 193041" d="M45.238,34.578c.441-.253.816-.472,1.194-.686a.607.607,0,0,1,.787.042.572.572,0,0,1-.167.943c-.379.237-.772.452-1.22.711.412.237.768.439,1.121.647.425.251.549.559.365.885-.176.311-.532.359-.949.124-.356-.2-.711-.4-1.129-.641,0,.509.006.944,0,1.379s-.233.674-.588.668A.59.59,0,0,1,44.076,38c-.013-.439,0-.878,0-1.387-.415.235-.781.445-1.148.65-.391.218-.749.163-.918-.137s-.053-.639.33-.868c.363-.217.73-.425,1.151-.669-.422-.246-.788-.454-1.15-.671-.384-.23-.508-.563-.33-.866s.523-.36.92-.138c.359.2.713.411,1.144.66,0-.483-.02-.9.009-1.318a.853.853,0,0,1,.2-.556.672.672,0,0,1,.589-.111.763.763,0,0,1,.354.529,13.641,13.641,0,0,1,.016,1.462" transform="translate(-37.847 -29.387)" fill="#0d2380"/>
        <path id="Trazado_193042" data-name="Trazado 193042" d="M313.71,123.6a1.819,1.819,0,0,1,3.539-.6,1.777,1.777,0,0,1-.847,2.188.459.459,0,0,0-.288.508,1.919,1.919,0,0,1-.038.539.52.52,0,0,1-.571.424c-.3-.016-.559-.2-.531-.507a1.12,1.12,0,0,0-.633-1.2,1.516,1.516,0,0,1-.631-1.352m1.829.649a.677.677,0,0,0,.649-.643.656.656,0,0,0-.667-.656.638.638,0,0,0-.641.673.657.657,0,0,0,.659.625" transform="translate(-283.167 -109.921)" fill="#0d2380"/>
      </g>
    </g>
  </g>
</svg>
