<svg xmlns="http://www.w3.org/2000/svg" xmlns:xlink="http://www.w3.org/1999/xlink" width="66.313" height="66.924" viewBox="0 0 66.313 66.924">
  <defs>
    <clipPath id="clip-path">
      <rect id="Rect치ngulo_85304" data-name="Rect치ngulo 85304" width="66.313" height="66.924" fill="#e8e8e8"/>
    </clipPath>
    <clipPath id="clip-path-2">
      <rect id="Rect치ngulo_85308" data-name="Rect치ngulo 85308" width="39.477" height="40.814" fill="#0d2380"/>
    </clipPath>
  </defs>
  <g id="Grupo_137502" data-name="Grupo 137502" transform="translate(-709 -3659)">
    <g id="Grupo_135232" data-name="Grupo 135232" transform="translate(709 3659)">
      <g id="Grupo_135192" data-name="Grupo 135192" clip-path="url(#clip-path)">
        <path id="Trazado_192999" data-name="Trazado 192999" d="M77.391,44.282A33.158,33.158,0,1,1,44.235,10.82,33.31,33.31,0,0,1,77.391,44.282" transform="translate(-11.078 -10.82)" fill="#e8e8e8"/>
      </g>
    </g>
    <g id="Grupo_135233" data-name="Grupo 135233" transform="translate(722.348 3673.607)">
      <g id="Grupo_135230" data-name="Grupo 135230" transform="translate(-0.348 -1.607)" clip-path="url(#clip-path-2)">
        <path id="Trazado_193003" data-name="Trazado 193003" d="M0,14.983a6.161,6.161,0,0,1,.405-.843,1.975,1.975,0,0,1,1.625-.922c.372-.014.745-.013,1.117,0a.581.581,0,0,1,.628.557.591.591,0,0,1-.607.629c-.333.019-.668,0-1,.01a.982.982,0,0,0-1.008,1.063q-.007,7.132,0,14.263a.955.955,0,0,0,.932,1.056c2.375.02,4.751.009,7.162.009l.2-.995c-.444,0-.849,0-1.253,0-.483,0-.74-.22-.734-.611s.251-.583.718-.583q4.1,0,8.209,0c.46,0,.718.21.726.579.009.384-.259.611-.734.615-.409,0-.819,0-1.22,0a.361.361,0,0,0-.014.071c.123.934.123.934,1.029.934q2.987,0,5.974,0c.93,0,1.273-.36,1.273-1.328q0-6.873,0-13.745c0-.992-.331-1.33-1.3-1.33q-7.939,0-15.879,0a2.006,2.006,0,0,1-.5-.042.532.532,0,0,1-.418-.588.539.539,0,0,1,.506-.553,3.551,3.551,0,0,1,.423-.01H18.914a3.325,3.325,0,0,1-.7-2.992A2.063,2.063,0,0,1,20.6,8.8c.036-.7.075-1.369.1-2.04,0-.063-.1-.141-.161-.195a.653.653,0,0,1-.24-.744,8.922,8.922,0,0,1,2.463-4.152,1.781,1.781,0,0,1,1.821-.454C24.894.312,25.67.155,26.446,0h1.465a1.169,1.169,0,0,0,.212.071,6.75,6.75,0,0,1,2.63.957A8.1,8.1,0,0,1,34.07,5.8a.686.686,0,0,1-.241.782.372.372,0,0,0-.139.244c.019.645.056,1.288.09,1.979.147,0,.312,0,.476,0a2.054,2.054,0,0,1,2.009,2.345,3.433,3.433,0,0,1-2.588,3.14.456.456,0,0,0-.39.433,5.9,5.9,0,0,1-1.794,3.353,1.563,1.563,0,0,0-.541,1.37,1.885,1.885,0,0,0,1.537,1.989c1.058.268,2.117.536,3.173.815a4.981,4.981,0,0,1,3.813,5.074q0,6.275,0,12.551c0,.713-.21.933-.89.933q-18.848,0-37.7.007A.9.9,0,0,1,0,40.329V36.742a.95.95,0,0,1,.919-.432c.615.026,1.232.007,1.849.007H4.215A2.125,2.125,0,0,1,6.694,34.1c.636.048,1.278.008,1.925.008l.4-2.1h-.5c-2.08,0-4.16,0-6.24,0a2.156,2.156,0,0,1-2.132-1.4L0,30.206V14.983m38.319,15.8c0-1.219,0-2.386,0-3.554a3.787,3.787,0,0,0-2.865-3.8c-.969-.257-1.943-.494-2.908-.765a.473.473,0,0,0-.6.226,5.621,5.621,0,0,1-5.369,2.455,15.085,15.085,0,0,1-1.969-.458c-.093.7-.082.749.556,1.041a4.553,4.553,0,0,0,4.756-.422c.383-.263.713-.247.921.043s.123.661-.263.938a5.55,5.55,0,0,1-4.314,1.021c-.561-.1-1.106-.294-1.682-.453,0,.8,0,1.61,0,2.419A2.234,2.234,0,0,1,22.126,32H20.349v2.087h1.988A2.367,2.367,0,0,1,24.969,31.9c.694,0,1.387,0,2.081,0a2.319,2.319,0,0,1,1.839.758.828.828,0,0,0,.709.359.482.482,0,0,1,.527.472.86.86,0,0,1-.253.6,1.429,1.429,0,0,1-1.621-.328c-.211-.258-.52-.576-.8-.6a25.759,25.759,0,0,0-3.036-.019c-.485.022-.768.405-.859.96h.418c.989,0,1.979-.01,2.968.006a1.913,1.913,0,0,1,1.841,1.571c.042.192.056.391.086.606h9.427V32.026H35.249V33c.164,0,.3-.01.443,0a.594.594,0,0,1,.585.612.573.573,0,0,1-.609.576c-.437.01-.874,0-1.31,0-.681,0-1.362.006-2.043,0a.583.583,0,0,1-.614-.576.6.6,0,0,1,.588-.612c.153-.013.308,0,.462-.005h1.318v-.494c0-1.434,0-2.869,0-4.3,0-.43.233-.7.574-.7s.573.274.579.7c.008.651,0,1.3,0,1.952v.625ZM1.17,39.583H38.294V37.512H24.552a2.9,2.9,0,0,1-.423-.015.587.587,0,0,1-.533-.618.565.565,0,0,1,.589-.555c.963-.011,1.927-.005,2.891-.006h.566c.061-.663-.242-1.01-.868-1.011q-4.163-.005-8.326,0a1.7,1.7,0,0,0-.24.031v.979h.434c.912,0,1.825-.006,2.737.006a.567.567,0,0,1,.591.554.588.588,0,0,1-.532.619,3.217,3.217,0,0,1-.461.016H1.17ZM24.6,15.364a2.218,2.218,0,0,1,.792.084,3.4,3.4,0,0,0,3.595-.016.565.565,0,0,1,.831.2.609.609,0,0,1-.276.841,4.4,4.4,0,0,1-2.075.663,4.58,4.58,0,0,1-2.887-.819c0,.459.026.856-.008,1.247a.546.546,0,0,0,.368.6,5.064,5.064,0,0,0,7.2-3.551,2.442,2.442,0,0,0-.061-1.4c-.328-.905-.623-1.825-.893-2.751a2.635,2.635,0,0,0-.773-1.294A1.839,1.839,0,0,1,29.8,7.681c.007-.316,0-.632,0-.967H24.579c0,.346,0,.674,0,1a1.617,1.617,0,0,1-.457,1.269,3.855,3.855,0,0,0-1.1,2c-.182.635-.4,1.258-.6,1.887-.03.1-.047.2-.071.3A2.258,2.258,0,0,1,24.6,15.364m8.113-9.872c-.1-.267-.182-.488-.273-.7a5.656,5.656,0,0,0-6.23-3.507c-.447.076-.561.212-.571.686a3.947,3.947,0,0,1-.036.909.733.733,0,0,1-.428.469.877.877,0,0,1-.587-.237c-.089-.067-.087-.265-.125-.4-.1-.359-.431-.519-.716-.3a5.919,5.919,0,0,0-2.066,3.09ZM24.581,19.319c0,1.357-.007,2.63.011,3.9a.525.525,0,0,0,.256.338,4.448,4.448,0,0,0,3.118.577A4.674,4.674,0,0,0,31.079,22.1a3.254,3.254,0,0,1-1.3-2.783,6.179,6.179,0,0,1-5.2,0M13.947,29.825H10.628L9.8,34.089h4.963l-.822-4.263m3.042,6.469c.149-.89.074-.99-.727-.99H9.792c-.6,0-1.208-.018-1.81.013a.545.545,0,0,0-.41.282,2.307,2.307,0,0,0-.018.694Zm-.92-2.217h3.057V32.042H16.069ZM33.449,13.121a2.248,2.248,0,0,0,1.586-1.607c.32-1.106-.267-1.727-1.395-1.455l-.191,3.062m-12.526-.046-.189-3.051a5.623,5.623,0,0,0-.791.007.771.771,0,0,0-.665.678,2.194,2.194,0,0,0,1.645,2.366M21.9,6.709a14.139,14.139,0,0,0,.049,3.686,1.545,1.545,0,0,0,.183-.423,2.456,2.456,0,0,1,.774-1.386c.665-.5.525-1.186.489-1.877Zm10.5,3.717a12.566,12.566,0,0,0,.076-3.71H30.96a5.509,5.509,0,0,0,.01.845,1.387,1.387,0,0,0,.26.742A3.688,3.688,0,0,1,32.3,10.145a2.845,2.845,0,0,0,.1.281M6.374,35.334a.765.765,0,0,0-.918.957h.918Z" transform="translate(0 0.001)" fill="#0d2380"/>
        <path id="Trazado_193004" data-name="Trazado 193004" d="M40.118,147.985c-2.454,0-4.907.005-7.361,0a1.7,1.7,0,1,1-.007-3.4c.706-.011,1.413,0,2.12,0q6.282,0,12.563,0a1.7,1.7,0,1,1,.084,3.4c-2.467.006-4.933,0-7.4,0m6.386-1.2c.334,0,.668.007,1,0,.363-.009.573-.2.562-.507a.478.478,0,0,0-.531-.5c-.668-.01-1.336-.008-2,0a.5.5,0,0,0-.55.491c-.026.292.212.509.557.519.321.009.642,0,.963,0m-12.749,0c.334,0,.668,0,1,0a.482.482,0,0,0,.54-.493.473.473,0,0,0-.517-.516q-1.021-.017-2.042,0a.472.472,0,0,0-.52.512.478.478,0,0,0,.535.5c.334,0,.668,0,1,0m6.366,0c.334,0,.668.007,1,0,.359-.009.573-.2.559-.512a.481.481,0,0,0-.536-.5c-.668-.008-1.335-.007-2,0a.5.5,0,0,0-.547.495c-.025.289.217.506.562.516.321.009.642,0,.963,0m3.725-.991H42.83v.972h1.015Zm-7.4.963h1.015v-.971H36.442Z" transform="translate(-27.856 -129.181)" fill="#0d2380"/>
        <path id="Trazado_193005" data-name="Trazado 193005" d="M255.383,104.906c0,.212.01.425,0,.636a1.529,1.529,0,0,1-1.65,1.459.6.6,0,0,1-.567-.59.568.568,0,0,1,.556-.592c.42,0,.532-.214.512-.6-.017-.33-.013-.663,0-.994a.576.576,0,1,1,1.15.005c.01.225,0,.451,0,.676Z" transform="translate(-227.088 -92.577)" fill="#0d2380"/>
      </g>
    </g>
  </g>
</svg>
