<svg xmlns="http://www.w3.org/2000/svg" xmlns:xlink="http://www.w3.org/1999/xlink" width="66.313" height="66.924" viewBox="0 0 66.313 66.924">
  <defs>
    <clipPath id="clip-path">
      <rect id="Rect치ngulo_85304" data-name="Rect치ngulo 85304" width="66.313" height="66.924" fill="#e8e8e8"/>
    </clipPath>
    <clipPath id="clip-path-2">
      <rect id="Rect치ngulo_85341" data-name="Rect치ngulo 85341" width="40.804" height="40" fill="#0d2380"/>
    </clipPath>
  </defs>
  <g id="Grupo_137497" data-name="Grupo 137497" transform="translate(-709 -3309)">
    <g id="Grupo_135238" data-name="Grupo 135238" transform="translate(709 3309)">
      <g id="Grupo_135192" data-name="Grupo 135192" clip-path="url(#clip-path)">
        <path id="Trazado_192999" data-name="Trazado 192999" d="M77.391,44.282A33.158,33.158,0,1,1,44.235,10.82,33.31,33.31,0,0,1,77.391,44.282" transform="translate(-11.078 -10.82)" fill="#e8e8e8"/>
      </g>
    </g>
    <g id="Grupo_135254" data-name="Grupo 135254" transform="translate(722 3323)">
      <g id="Grupo_135254-2" data-name="Grupo 135254" clip-path="url(#clip-path-2)">
        <path id="Trazado_193023" data-name="Trazado 193023" d="M76.832,70.429a2.209,2.209,0,0,1,1.654.8c.247.25.448.7.922.485.44-.2.249-.644.254-.982a2.115,2.115,0,0,1,2.359-2.365c.623,0,1.246-.006,1.869,0a2.064,2.064,0,0,1,2.144,2.161,4.734,4.734,0,0,0,.014.773.452.452,0,0,0,.764.323,5.209,5.209,0,0,0,.591-.565,2.1,2.1,0,0,1,3.022,0q.754.729,1.486,1.479A2.02,2.02,0,0,1,91.9,75.5a4.245,4.245,0,0,0-.507.522.735.735,0,0,0-.16.543.685.685,0,0,0,.487.29c.358.053.73.007,1.089.052A2,2,0,0,1,94.6,78.842c.027.789.026,1.581,0,2.37a2,2,0,0,1-1.78,1.938c-.375.047-.761,0-1.135.056a.451.451,0,0,0-.325.792c.19.252.45.451.663.688a2,2,0,0,1-.013,2.733c-.54.576-1.1,1.133-1.679,1.672a2.045,2.045,0,0,1-2.845-.009,7.185,7.185,0,0,0-.657-.629.66.66,0,0,0-.528-.092.585.585,0,0,0-.254.423c-.04.3,0,.607-.017.91a2.051,2.051,0,0,1-2.029,2c-.759.018-1.519.016-2.279,0a2.052,2.052,0,0,1-2.05-2.022,8.568,8.568,0,0,0-.017-.91.586.586,0,0,0-.274-.409.6.6,0,0,0-.491.09,6.475,6.475,0,0,0-.624.6,2.057,2.057,0,0,1-2.946,0q-.789-.758-1.552-1.542a2.01,2.01,0,0,1,.025-2.933,6.93,6.93,0,0,0,.6-.621.527.527,0,0,0,.086-.445.6.6,0,0,0-.4-.292c-.359-.049-.729-.006-1.091-.043A2.029,2.029,0,0,1,71.1,81.095c-.01-.7-.008-1.4,0-2.1a2.039,2.039,0,0,1,1.953-2.112c.287-.025.582.022.863-.026.2-.034.5-.136.54-.27a.9.9,0,0,0-.2-.616,4.077,4.077,0,0,0-.507-.521,2.01,2.01,0,0,1-.007-2.868c.517-.536,1.053-1.053,1.583-1.576a2.016,2.016,0,0,1,1.505-.579m14.1,3.624a1.189,1.189,0,0,0-.139-.305c-.534-.54-1.06-1.09-1.629-1.591-.1-.091-.434-.035-.587.065a7.167,7.167,0,0,0-.7.652,1.989,1.989,0,0,1-2.247.341,1.95,1.95,0,0,1-1.244-1.852c-.007-.273,0-.547,0-.82,0-.348-.15-.543-.518-.541-.684,0-1.367,0-2.051,0a.45.45,0,0,0-.5.507c0,.289,0,.578-.006.866a1.943,1.943,0,0,1-1.253,1.845,2,2,0,0,1-2.247-.355c-.216-.191-.418-.4-.618-.606a.476.476,0,0,0-.782-.02c-.47.475-.948.942-1.423,1.413a.447.447,0,0,0-.006.714c.214.216.44.42.643.646a1.946,1.946,0,0,1,.39,2.2A1.967,1.967,0,0,1,74.187,78.5c-.3.014-.607.007-.911.009a.471.471,0,0,0-.535.53c0,.669,0,1.337,0,2.006a.459.459,0,0,0,.5.514c.3.008.608,0,.911.008a2.081,2.081,0,0,1,1.456,3.5c-.193.214-.4.412-.612.613a.458.458,0,0,0,0,.746q.715.7,1.424,1.412a.46.46,0,0,0,.747-.007c.2-.206.4-.413.617-.607a1.985,1.985,0,0,1,2.24-.39A1.956,1.956,0,0,1,81.31,88.7c.007.273,0,.547,0,.82,0,.349.152.544.518.543.684,0,1.367,0,2.051,0a.453.453,0,0,0,.5-.51c0-.289,0-.578.005-.866a1.947,1.947,0,0,1,1.254-1.845,1.989,1.989,0,0,1,2.212.325c.23.2.443.416.653.635a.475.475,0,0,0,.781.023c.47-.475.948-.943,1.422-1.414a.46.46,0,0,0-.022-.747c-.229-.222-.462-.442-.669-.684a1.927,1.927,0,0,1-.336-2.126,1.953,1.953,0,0,1,1.778-1.283c.318-.02.638-.007.957-.011a.474.474,0,0,0,.538-.529c0-.668,0-1.337,0-2.006,0-.364-.2-.517-.546-.518-.319,0-.639.006-.957-.012a2.087,2.087,0,0,1-1.885-2.541A3.155,3.155,0,0,1,90.6,74.484a4.691,4.691,0,0,0,.334-.431" transform="translate(-62.435 -60.038)" fill="#0d2380"/>
        <path id="Trazado_193024" data-name="Trazado 193024" d="M183.887,186.7a11.229,11.229,0,0,0,3.386-1.3,16.492,16.492,0,0,0,8.407-11.682c.046-.238.065-.482.115-.719a.8.8,0,0,1,.968-.671.824.824,0,0,1,.647.953,17.262,17.262,0,0,1-1.745,5.669,18.242,18.242,0,0,1-11.632,9.507c-.058.017-.116.031-.259.069.138.131.234.23.339.319.417.353.848.691,1.253,1.058a.777.777,0,0,1,.118,1.1.811.811,0,0,1-1.14.155q-1.592-1.29-3.148-2.625a.747.747,0,0,1-.072-1.1q1.247-1.511,2.527-2.993a.81.81,0,0,1,1.178-.1.79.79,0,0,1,.074,1.142c-.326.417-.676.814-1.015,1.22" transform="translate(-158.885 -151.334)" fill="#0d2380"/>
        <path id="Trazado_193025" data-name="Trazado 193025" d="M201.562,28.391c.368-.637.706-1.228,1.05-1.815a.709.709,0,0,1,.83-.414,1.215,1.215,0,0,1,.651.538.915.915,0,0,1-.09.72c-.612,1.118-1.254,2.22-1.9,3.321a.809.809,0,0,1-1.234.34q-1.653-.915-3.29-1.859a.814.814,0,0,1-.367-1.157.834.834,0,0,1,1.195-.253c.466.252.924.52,1.464.825-.073-.3-.113-.525-.184-.743a16.308,16.308,0,0,0-12.649-11.512c-.133-.03-.269-.051-.4-.086a.814.814,0,1,1,.341-1.592,17.677,17.677,0,0,1,6.153,2.278,17.871,17.871,0,0,1,8.3,11.075c.026.1.069.188.124.334" transform="translate(-163.332 -12.899)" fill="#0d2380"/>
        <path id="Trazado_193026" data-name="Trazado 193026" d="M2.608,172.625c-.372.5-.7.957-1.036,1.4a.845.845,0,0,1-1.252.29.826.826,0,0,1-.078-1.247q1.1-1.511,2.209-3.011a.822.822,0,0,1,1.3-.218q1.523,1.079,3.027,2.186a.815.815,0,0,1,.279,1.182.845.845,0,0,1-1.246.133,12.082,12.082,0,0,0-1.578-1c.22.685.4,1.386.667,2.051a16.416,16.416,0,0,0,11.672,10.23c.073.019.15.026.223.047a.822.822,0,1,1-.4,1.584,19.812,19.812,0,0,1-2.093-.612A17.967,17.967,0,0,1,2.71,172.923c-.02-.072-.048-.142-.1-.3" transform="translate(0 -148.967)" fill="#0d2380"/>
        <path id="Trazado_193027" data-name="Trazado 193027" d="M32.035,2.25c-.6-.22-1.187-.427-1.767-.648A.819.819,0,1,1,30.825.076q1.8.632,3.594,1.293a.815.815,0,0,1,.551,1.156q-.631,1.779-1.3,3.546a.82.82,0,1,1-1.54-.557c.179-.531.378-1.055.605-1.685-.329.109-.594.185-.849.284A16.411,16.411,0,0,0,21.057,17.1c-.138.729-.724,1.062-1.275.708a.82.82,0,0,1-.359-.913A18.056,18.056,0,0,1,31.053,2.676c.308-.125.625-.227.937-.342.01,0,.014-.025.046-.084" transform="translate(-17.039 0)" fill="#0d2380"/>
        <path id="Trazado_193028" data-name="Trazado 193028" d="M130.147,131.423a4.568,4.568,0,1,1,4.57,4.533,4.565,4.565,0,0,1-4.57-4.533m7.491,0a2.923,2.923,0,1,0-2.952,2.894,2.92,2.92,0,0,0,2.952-2.894" transform="translate(-114.3 -111.415)" fill="#0d2380"/>
      </g>
    </g>
  </g>
</svg>
