<svg xmlns="http://www.w3.org/2000/svg" xmlns:xlink="http://www.w3.org/1999/xlink" width="66.313" height="66.924" viewBox="0 0 66.313 66.924">
  <defs>
    <clipPath id="clip-path">
      <rect id="Rectángulo_85304" data-name="Rectángulo 85304" width="66.313" height="66.924" fill="#e8e8e8"/>
    </clipPath>
    <clipPath id="clip-path-2">
      <rect id="Rectángulo_85327" data-name="Rectángulo 85327" width="39.477" height="39.448" fill="#0d2380"/>
    </clipPath>
  </defs>
  <g id="Grupo_137500" data-name="Grupo 137500" transform="translate(-709 -3519)">
    <g id="Grupo_135244" data-name="Grupo 135244" transform="translate(709 3519)">
      <g id="Grupo_135192" data-name="Grupo 135192" clip-path="url(#clip-path)">
        <path id="Trazado_192999" data-name="Trazado 192999" d="M77.391,44.282A33.158,33.158,0,1,1,44.235,10.82,33.31,33.31,0,0,1,77.391,44.282" transform="translate(-11.078 -10.82)" fill="#e8e8e8"/>
      </g>
    </g>
    <g id="Grupo_135251" data-name="Grupo 135251" transform="translate(722 3532)">
      <g id="Grupo_135251-2" data-name="Grupo 135251" clip-path="url(#clip-path-2)">
        <path id="Trazado_193015" data-name="Trazado 193015" d="M12.744,20.349h-.437q-3.817,0-7.635,0A3.189,3.189,0,0,0,1.291,23.74q0,2.366,0,4.733A3.185,3.185,0,0,0,4.614,31.8c.569,0,1.138,0,1.767,0,0-.222,0-.428,0-.634a1.892,1.892,0,0,1,1.89-1.907q5.11-.016,10.22,0a1.892,1.892,0,0,1,1.886,1.871c.006.209,0,.418,0,.648h5.106A6.987,6.987,0,0,1,29.132,26.3a6.791,6.791,0,0,1,4.808-.7,7.024,7.024,0,0,1,5.522,7.187,7.018,7.018,0,0,1-14,.31H20.377c0,.227.006.447,0,.667a1.888,1.888,0,0,1-1.861,1.854q-5.13.02-10.259,0a1.89,1.89,0,0,1-1.874-1.882c-.005-.2,0-.4,0-.657-.417,0-.822-.008-1.227,0a5.234,5.234,0,0,1-2.63-.461,4.3,4.3,0,0,1-2.492-3.87C-.022,27,0,25.247.023,23.5a4.434,4.434,0,0,1,4.443-4.416c2.6-.019,5.2,0,7.794,0h.485c0-.23,0-.437,0-.644a1.893,1.893,0,0,1,1.9-1.9q5.09-.014,10.18,0a1.9,1.9,0,0,1,1.917,1.921c0,.185,0,.371,0,.62h.428q3.837,0,7.674,0a3.187,3.187,0,0,0,3.35-3.344q0-2.088,0-4.176a3.182,3.182,0,0,0-3.316-3.3c-.57,0-1.139,0-1.774,0,0,.216,0,.422,0,.627A1.9,1.9,0,0,1,31.179,10.8q-5.07.012-10.14,0a1.9,1.9,0,0,1-1.933-1.946c0-.183,0-.366,0-.572H15.3a7.107,7.107,0,0,1-.011.861.452.452,0,0,1-.24.314c-.373.132-.763.217-1.145.326a.463.463,0,0,0-.315.744c.232.416.469.828.683,1.2l-2.511,2.512c-.36-.2-.773-.439-1.187-.672a.476.476,0,0,0-.768.325c-.107.382-.2.77-.323,1.146a.367.367,0,0,1-.25.22c-1.1.015-2.2.01-3.315.01-.138-.491-.266-.961-.4-1.429a.451.451,0,0,0-.691-.3c-.371.2-.732.428-1.11.619a.365.365,0,0,1-.332-.026c-.789-.765-1.564-1.544-2.354-2.33l.658-1.158c.29-.51.2-.736-.354-.889-.357-.1-.719-.184-1.067-.309a.4.4,0,0,1-.225-.289C.028,8.09.034,7.016.034,5.894.491,5.769.945,5.647,1.4,5.52s.564-.4.34-.8-.457-.8-.665-1.17L3.59,1.042c.356.2.766.441,1.18.673.382.214.646.1.768-.328C5.668.931,5.794.474,5.926,0c1.112,0,2.2-.006,3.283.011a.4.4,0,0,1,.277.239c.131.388.221.79.336,1.184a.462.462,0,0,0,.732.3c.417-.231.828-.47,1.2-.683l2.514,2.514c-.206.364-.448.786-.684,1.211a.453.453,0,0,0,.3.717c.063.019.126.042.19.059.369.1.845.1,1.077.34.21.214.153.688.219,1.074h3.736c0-.214,0-.422,0-.63a1.888,1.888,0,0,1,1.869-1.887q5.13-.019,10.259,0A1.888,1.888,0,0,1,33.1,6.295c.008.211,0,.422,0,.691.636,0,1.253,0,1.87,0a4.462,4.462,0,0,1,4.486,4.374c.028,1.5.018,3,.006,4.494a4.442,4.442,0,0,1-4.491,4.492c-2.585.014-5.169,0-7.754,0h-.478c0,.235,0,.443,0,.65a1.89,1.89,0,0,1-1.867,1.889q-5.13.019-10.26,0A1.888,1.888,0,0,1,12.745,21c0-.2,0-.4,0-.652m14,12.072a5.726,5.726,0,1,0,5.763-5.709,5.738,5.738,0,0,0-5.763,5.709M2.643,3.632a.706.706,0,0,0,.025.143,8.357,8.357,0,0,0,.454.792c.195.273.117.492.032.792A1.724,1.724,0,0,1,1.518,6.815c-.073.005-.2.118-.2.184a3.873,3.873,0,0,0,.053,1.373c.072.2.606.225.931.328.063.02.142.017.189.055a.922.922,0,0,1,.282.285,3.187,3.187,0,0,1,.488,1.276c-.021.417-.39.816-.606,1.224-.005.01,0,.025,0,.015L3.769,12.67a2.4,2.4,0,0,0,.4-.217,1.172,1.172,0,0,1,1.6-.1c.132.1.335.1.476.189a.856.856,0,0,1,.342.362c.133.353.214.725.318,1.1.171,0,.3,0,.434,0,.369-.009.838.112,1.079-.07s.225-.675.367-1.013a.826.826,0,0,1,.369-.385,2.809,2.809,0,0,1,1.234-.481c.418.03.812.4,1.163.6l1.15-1.123a1.869,1.869,0,0,0-.142-.254A1.3,1.3,0,0,1,12.41,9.5a.483.483,0,0,0,.082-.222.69.69,0,0,1,.616-.6c.927-.231.922-.251.922-1.2,0-.634.007-.673-.619-.789-.549-.1-.91-.317-1.01-.905a5.461,5.461,0,0,0-.272-.614.635.635,0,0,1,.013-.427c.173-.354.384-.69.55-.982L11.575,2.616c-.252.144-.528.277-.777.45a.888.888,0,0,1-.868.046,1.709,1.709,0,0,1-1.42-1.623.315.315,0,0,0-.226-.205c-.461-.02-.922-.01-1.388-.01a4.847,4.847,0,0,0-.19.684c-.066.53-.382.738-.849.978A1.49,1.49,0,0,1,4.038,2.76c-.224-.184-.378-.125-.562.077-.267.292-.572.549-.833.8m23.443,5.9q2.485,0,4.97,0c.544,0,.771-.23.774-.776q.007-1.133,0-2.267c0-.545-.23-.773-.776-.773q-4.95,0-9.9,0c-.545,0-.77.229-.773.775,0,.729,0,1.458,0,2.187,0,.649.205.853.856.854q2.426,0,4.851,0M19.7,21.622c1.67,0,3.34,0,5.01,0,.519,0,.751-.235.755-.754q.008-1.153,0-2.307c0-.519-.236-.754-.755-.754q-4.97,0-9.941,0c-.52,0-.751.234-.754.754-.005.742,0,1.485,0,2.227,0,.623.212.834.835.835q2.426,0,4.851,0m-6.288,8.909q-2.465,0-4.931,0c-.605,0-.827.214-.829.8,0,.756,0,1.511,0,2.267,0,.517.237.749.759.749q4.97,0,9.941,0c.516,0,.746-.238.75-.76.005-.742,0-1.485,0-2.227,0-.619-.214-.829-.84-.829q-2.426,0-4.851,0" transform="translate(0 0)" fill="#0d2380"/>
        <path id="Trazado_193016" data-name="Trazado 193016" d="M278.3,276.841l.9.889-5.484,5.485-1.652-1.659.9-.839.661.8,4.673-4.68" transform="translate(-243.161 -247.432)" fill="#0d2380"/>
        <path id="Trazado_193017" data-name="Trazado 193017" d="M43.913,39.813a3.815,3.815,0,0,1-7.63-.023,3.815,3.815,0,1,1,7.63.023m-3.8,2.526a2.543,2.543,0,0,0-.007-5.086,2.573,2.573,0,0,0-2.555,2.553,2.546,2.546,0,0,0,2.562,2.533" transform="translate(-32.428 -32.158)" fill="#0d2380"/>
        <rect id="Rectángulo_85315" data-name="Rectángulo 85315" width="1.216" height="1.237" transform="translate(21.683 7.014)" fill="#0d2380"/>
        <rect id="Rectángulo_85316" data-name="Rectángulo 85316" width="1.22" height="1.237" transform="translate(24.219 7.005)" fill="#0d2380"/>
        <rect id="Rectángulo_85317" data-name="Rectángulo 85317" width="1.232" height="1.226" transform="translate(26.758 7.013)" fill="#0d2380"/>
        <rect id="Rectángulo_85318" data-name="Rectángulo 85318" width="1.237" height="1.217" transform="translate(29.294 7.018)" fill="#0d2380"/>
        <rect id="Rectángulo_85319" data-name="Rectángulo 85319" width="1.228" height="1.235" transform="translate(15.315 19.099)" fill="#0d2380"/>
        <rect id="Rectángulo_85320" data-name="Rectángulo 85320" width="1.228" height="1.235" transform="translate(17.853 19.092)" fill="#0d2380"/>
        <rect id="Rectángulo_85321" data-name="Rectángulo 85321" width="1.226" height="1.219" transform="translate(20.399 19.107)" fill="#0d2380"/>
        <rect id="Rectángulo_85322" data-name="Rectángulo 85322" width="1.209" height="1.237" transform="translate(22.957 19.085)" fill="#0d2380"/>
        <rect id="Rectángulo_85323" data-name="Rectángulo 85323" width="1.237" height="1.216" transform="translate(8.947 31.836)" fill="#0d2380"/>
        <rect id="Rectángulo_85324" data-name="Rectángulo 85324" width="1.226" height="1.223" transform="translate(11.491 31.834)" fill="#0d2380"/>
        <rect id="Rectángulo_85325" data-name="Rectángulo 85325" width="1.222" height="1.223" transform="translate(14.045 31.821)" fill="#0d2380"/>
        <rect id="Rectángulo_85326" data-name="Rectángulo 85326" width="1.223" height="1.23" transform="translate(16.59 31.829)" fill="#0d2380"/>
      </g>
    </g>
  </g>
</svg>
