<svg xmlns="http://www.w3.org/2000/svg" xmlns:xlink="http://www.w3.org/1999/xlink" width="66.313" height="66.924" viewBox="0 0 66.313 66.924">
  <defs>
    <clipPath id="clip-path">
      <rect id="Rectángulo_85304" data-name="Rectángulo 85304" width="66.313" height="66.924" fill="#e8e8e8"/>
    </clipPath>
    <clipPath id="clip-path-2">
      <rect id="Rectángulo_85345" data-name="Rectángulo 85345" width="39.477" height="39.463" fill="#0d2380"/>
    </clipPath>
  </defs>
  <g id="Grupo_137496" data-name="Grupo 137496" transform="translate(-709 -3241)">
    <g id="Grupo_135236" data-name="Grupo 135236" transform="translate(709 3241)">
      <g id="Grupo_135192" data-name="Grupo 135192" clip-path="url(#clip-path)">
        <path id="Trazado_192999" data-name="Trazado 192999" d="M77.391,44.282A33.158,33.158,0,1,1,44.235,10.82,33.31,33.31,0,0,1,77.391,44.282" transform="translate(-11.078 -10.82)" fill="#e8e8e8"/>
      </g>
    </g>
    <g id="Grupo_135256" data-name="Grupo 135256" transform="translate(722 3255)">
      <g id="Grupo_135256-2" data-name="Grupo 135256" clip-path="url(#clip-path-2)">
        <path id="Trazado_193030" data-name="Trazado 193030" d="M38.16,39.463H1.31c-.119-1.95-.1-3.875,1.042-5.6L2,33.627A4.4,4.4,0,0,1,.153,31.068C.1,30.886.051,30.7,0,30.522V21.658c.025-.1.058-.192.074-.291a5.606,5.606,0,0,1,2.189-3.635.666.666,0,0,0,.288-.607Q2.539,9.34,2.545,1.556C2.545.451,3,0,4.119,0h31.26c1.083,0,1.547.463,1.547,1.545q0,7.264,0,14.529v.484c.417,0,.787,0,1.157,0a1.268,1.268,0,0,1,1.388,1.387c0,1.7.016,3.391-.006,5.087-.01.768-.1,1.536-.139,2.3a2.368,2.368,0,0,0,.057.71,2.556,2.556,0,0,1-1.746,3.125c-.244.07-.5.1-.7.137a12.4,12.4,0,0,1-.573,1.451,12.109,12.109,0,0,1-.894,1.259c2.463,1.9,2.946,4.542,2.69,7.446m-26.7-25.346a1.718,1.718,0,0,0,1.567-1.02,1.755,1.755,0,0,0-.376-1.738l2.532-2.521c.04.022.109.055.173.1,1.226.749,2.178.359,2.534-1.049.052-.206.146-.258.344-.256.925.009,1.85.027,2.774-.007.392-.014.542.09.632.486a1.469,1.469,0,0,0,2.281.949c.132-.078.262-.158.371-.224l2.526,2.553a1.669,1.669,0,0,0-.358,1.745,1.777,1.777,0,0,0,1.564,1v2.6c2.547-.36,5.066-.069,7.6-.2V6.395H3.847V16.806c2.524-.5,5.06-.115,7.611-.279ZM14.011,5.07H35.616V1.308H3.849V5.057H5.108V2.568h8.9ZM11.483,22.888A7.053,7.053,0,0,1,13.4,18.652a3.556,3.556,0,0,0-1.947-.767c-2.039-.045-4.087-.14-6.119-.014A4.26,4.26,0,0,0,1.3,22.152c-.064,2.1-.022,4.21-.021,6.316a18,18,0,0,0,.038,1.847,2.973,2.973,0,0,0,1.623,2.378.361.361,0,0,0,.327-.021c.264-.218.5-.467.764-.716a4.74,4.74,0,0,1-1.49-3.867c.039-1.09,0-2.182.011-3.273a3.169,3.169,0,0,1,2.483-3.08c.094-.022.185-.055.248-.075l-.216-1.3c.379,0,.674.017.966,0,.266-.02.343.081.371.34A2.445,2.445,0,0,0,8.56,22.874c.957.064,1.921.013,2.923.013m3.792,3.86c0,.629-.01,1.259,0,1.888a3.1,3.1,0,0,0,2.73,3.13,22.7,22.7,0,0,0,2.923.06A3.189,3.189,0,0,0,24.2,28.558c.01-1.181,0-2.363,0-3.544,0-.6-.216-.819-.806-.82-1,0-2,.008-3.006,0a3.62,3.62,0,0,1-2.556-1,.935.935,0,0,0-.9-.259,1.913,1.913,0,0,0-1.651,1.888c-.016.642,0,1.284,0,1.926m-2.477-2.3a5.851,5.851,0,0,1,.956-.233c.257-.02.338-.123.411-.343a3.1,3.1,0,0,1,2.315-2.148c.084-.021.167-.051.24-.073l-.179-1.266H17.8c.014.072.025.122.033.172a2.545,2.545,0,0,0,2.781,2.347c.951,0,1.9,0,2.852,0a1.936,1.936,0,0,1,1.793,1.06.444.444,0,0,0,.227.217c.39.094.787.159,1.181.235a5.6,5.6,0,0,0-4.849-6.531,25.993,25.993,0,0,0-3.81-.044,5.389,5.389,0,0,0-4.4,2.6,5.657,5.657,0,0,0-.809,4m-1.3-.257c-.852,0-1.672,0-2.491,0a3.88,3.88,0,0,1-2.755-1.1.647.647,0,0,0-.354-.183,1.876,1.876,0,0,0-2.052,1.792c-.037,1.412-.042,2.827.012,4.237A2.966,2.966,0,0,0,6.4,31.735a19.727,19.727,0,0,0,3.724.005,3.014,3.014,0,0,0,2.545-2.548.394.394,0,0,0-.183-.445,2.32,2.32,0,0,1-.959-2.474,8.477,8.477,0,0,0-.03-2.082m16.549-1.223c-.053.788-.1,1.478-.144,2.168a2.568,2.568,0,0,0-.01.79,2.594,2.594,0,0,1-.919,2.854.517.517,0,0,0-.153.4,3.009,3.009,0,0,0,2.523,2.56,25.166,25.166,0,0,0,3,.08,3.166,3.166,0,0,0,3.306-3.255c.019-1.194.007-2.388,0-3.581,0-.6-.213-.8-.823-.8-.963,0-1.926,0-2.889,0a2.581,2.581,0,0,1-2.158-1.065c-.065-.086-.164-.207-.247-.207-.506,0-1.012.031-1.486.05m10.115-5.116a.507.507,0,0,0-.121-.034c-2.837,0-5.674-.016-8.51.02a5.074,5.074,0,0,0-3.106,1.14c.281.453.579.873.811,1.326s.4.937.59,1.4l1.435-.085c.254-1.6,1.4-2.7,2.554-2.459v1.165a.979.979,0,0,1-.093.036c-.822.21-1.244.734-1.148,1.428A1.284,1.284,0,0,0,32.028,22.9c.963,0,1.926,0,2.888,0a1.93,1.93,0,0,1,1.793,1.055.448.448,0,0,0,.224.221c.394.095.794.16,1.225.243Zm-12.684.2c.36-.227.727-.439,1.07-.685a.529.529,0,0,0,.19-.362c.021-.526,0-1.053.015-1.579a.468.468,0,0,0-.281-.478,2.419,2.419,0,0,1-1.353-2.557,1.575,1.575,0,0,0-.671-1.678.489.489,0,0,1-.082-.082.454.454,0,0,0-.562-.158,2.477,2.477,0,0,1-2.79-.9,1.422,1.422,0,0,0-1.521-.667.9.9,0,0,1-.231,0,.438.438,0,0,0-.484.268,2.412,2.412,0,0,1-2.559,1.346,1.629,1.629,0,0,0-1.727.729c-.025.029-.068.05-.079.083-.047.144-.145.3-.116.433A2.79,2.79,0,0,1,12.95,15a.466.466,0,0,0-.213.307c-.023.461-.019.924,0,1.386a.364.364,0,0,0,.17.252c.5.277,1.014.536,1.546.813a5.243,5.243,0,0,1,.7-.4c.28-.112.294-.262.242-.531a4.245,4.245,0,0,1,1.553-4.366,4.224,4.224,0,0,1,4.629-.6,4.409,4.409,0,0,1,2.51,5.022.441.441,0,0,0,.1.375c.413.28.849.524,1.294.79M14.03,38.184c1.079,0,2.118.007,3.156-.011.091,0,.224-.148.262-.255q.453-1.287.868-2.588a1.261,1.261,0,0,0-.015-.419l-.152-.055L16.76,36.28l-.552-3.242a5.842,5.842,0,0,0-2.179,5.147m22.862,0A5.591,5.591,0,0,0,34.708,33.1l-.556,3.271-1.507-1.532c-.028.184-.085.308-.055.4q.438,1.373.91,2.734a.363.363,0,0,0,.264.2c1.038.014,2.075.009,3.128.009M22.721,36.232l-.11.08-1.352-1.43-.107.045a1.414,1.414,0,0,0,.006.412c.274.854.571,1.7.842,2.556a.359.359,0,0,0,.41.3c.912-.012,1.824,0,2.735-.006a2.335,2.335,0,0,0,.283-.034,5.458,5.458,0,0,0-2.184-5.03l-.523,3.112M6.677,38.165A7.451,7.451,0,0,1,5.1,32.839,5.666,5.666,0,0,0,2.59,38.165ZM16.695,16.741l1.229-.2a1.875,1.875,0,0,1,.724-2.192,1.77,1.77,0,0,1,2.064-.07,1.892,1.892,0,0,1,.84,2.267l1.216.185a3.077,3.077,0,0,0-1.127-3.368,3.163,3.163,0,0,0-3.737-.054,3.111,3.111,0,0,0-1.209,3.427M29.763,34.794l-1.536,1.534-.549-3.233-.119-.054-1.142,1.375a.674.674,0,0,0-.108.773,4.338,4.338,0,0,1,.292,1.07c.091.629.133,1.265.2,1.925.611,0,1.225.009,1.839-.01a.368.368,0,0,0,.257-.212q.467-1.341.9-2.695a1.686,1.686,0,0,0-.031-.474m-17.08,3.377a.819.819,0,0,0,.041-.184,7.608,7.608,0,0,1,.5-3.017.336.336,0,0,0,0-.254,5.578,5.578,0,0,0-1.777-1.9,7.51,7.51,0,0,1-1.579,5.359ZM14,29.3a4.924,4.924,0,0,1-1.445,2.633l1.567,1.419,1.343-1.416A4.91,4.91,0,0,1,14,29.3m10.04,2.68,1.3,1.364,1.582-1.415A4.664,4.664,0,0,1,25.5,29.262a12.858,12.858,0,0,1-.58,1.473,11.985,11.985,0,0,1-.872,1.241M6.416,34.343h3.732V33.079H6.416Zm.3,1.317a5.628,5.628,0,0,0,1.571,2.33,5.526,5.526,0,0,0,1.537-2.33Zm14.037,2.5c-.27-.815-.526-1.6-.8-2.379a.307.307,0,0,0-.235-.131.25.25,0,0,0-.2.127c-.27.781-.527,1.566-.8,2.383Zm11.459,0c-.273-.82-.529-1.607-.8-2.387a.283.283,0,0,0-.239-.12.3.3,0,0,0-.2.17c-.161.445-.3.9-.453,1.345-.106.319-.214.638-.333.992ZM13.993,25.484a1.26,1.26,0,0,0-1.261,1.343,1.188,1.188,0,0,0,1.261,1.123Zm11.49,2.476a1.216,1.216,0,0,0,1.257-1.192A1.233,1.233,0,0,0,25.484,25.5Zm11.457.012a1.24,1.24,0,1,0,0-2.479ZM11.494,5.069H12.7V3.835H11.494ZM8.94,5.062h1.221V3.851H8.94Zm-2.534.007h1.2V3.834h-1.2ZM20.362,15.912a.626.626,0,1,0-.637.636.634.634,0,0,0,.637-.636m-1.182,18c.113.327.286.553.622.448a2.2,2.2,0,0,0,.521-.339l-.6-.615-.541.506m11.448.022c.369.633.765.631,1.118.025l-.553-.6-.565.571m-1.566-.354.536-.493-.631-.079.1.572m-10.911-.488L17.5,33l.114.63.538-.539m3.113,0,.6.561L21.957,33l-.692.092m11.528,0,.531.573L33.408,33l-.615.09" transform="translate(0 0.001)" fill="#0d2380"/>
        <path id="Trazado_193031" data-name="Trazado 193031" d="M278.28,99.108v1.241c-.129.006-.251.018-.373.018-1.862,0-3.723-.006-5.585.008-.314,0-.443-.075-.412-.4.026-.277.005-.559.005-.862Z" transform="translate(-243.91 -88.904)" fill="#0d2380"/>
        <rect id="Rectángulo_85343" data-name="Rectángulo 85343" width="6.319" height="1.234" transform="translate(28.041 7.661)" fill="#0d2380"/>
        <rect id="Rectángulo_85344" data-name="Rectángulo 85344" width="5.039" height="1.245" transform="translate(29.319 12.744)" fill="#0d2380"/>
        <path id="Trazado_193032" data-name="Trazado 193032" d="M74.472,105.021c.082-.008.143-.018.205-.02,1.119-.038,1.217.083,1,1.26h-1.2Z" transform="translate(-66.804 -94.185)" fill="#0d2380"/>
        <path id="Trazado_193033" data-name="Trazado 193033" d="M49.609,106.289v-1.26c.356,0,.71-.012,1.062.01a.29.29,0,0,1,.191.206c.021.34.009.683.009,1.044Z" transform="translate(-44.501 -94.212)" fill="#0d2380"/>
        <path id="Trazado_193034" data-name="Trazado 193034" d="M100.367,81.58h-1.26V80.319c.359,0,.723-.009,1.087.009.061,0,.162.123.166.192.017.342.008.685.008,1.06" transform="translate(-88.903 -72.047)" fill="#0d2380"/>
        <path id="Trazado_193035" data-name="Trazado 193035" d="M74.264,81.566V80.32c.371,0,.736-.009,1.1.009.06,0,.161.124.164.194.017.342.008.685.008,1.044Z" transform="translate(-66.618 -72.048)" fill="#0d2380"/>
        <path id="Trazado_193036" data-name="Trazado 193036" d="M49.693,80.285c.368,0,.7-.012,1.029.009.078,0,.209.115.213.183.022.353.01.707.01,1.075H49.693Z" transform="translate(-44.577 -72.016)" fill="#0d2380"/>
      </g>
    </g>
  </g>
</svg>
