<svg xmlns="http://www.w3.org/2000/svg" xmlns:xlink="http://www.w3.org/1999/xlink" width="66.334" height="66.356" viewBox="0 0 66.334 66.356">
  <defs>
    <clipPath id="clip-path">
      <rect id="Rectángulo_85374" data-name="Rectángulo 85374" width="66.334" height="66.356" fill="none"/>
    </clipPath>
  </defs>
  <g id="Grupo_137495" data-name="Grupo 137495" transform="translate(556.167 2589)">
    <g id="Grupo_135315" data-name="Grupo 135315" transform="translate(-556.167 -2589)">
      <g id="Grupo_135315-2" data-name="Grupo 135315" clip-path="url(#clip-path)">
        <path id="Trazado_193264" data-name="Trazado 193264" d="M46.174,66.356H6.079c-.207-.135-.438-.036-.655-.067a5.6,5.6,0,0,1-4.3-2.489A5.328,5.328,0,0,1,0,60.913V9.331A6.1,6.1,0,0,1,3.234,4.493,5.607,5.607,0,0,1,6.126,3.7c4.263.008,8.526-.009,12.79.016A1.6,1.6,0,0,0,20.44,2.9,5.561,5.561,0,0,1,24.888.067c.239-.032.491.07.721-.067h1.035c.225.137.473.035.708.067A5.519,5.519,0,0,1,31.8,2.9a1.562,1.562,0,0,0,1.516.817c4.18-.025,8.362.057,12.54-.034a6.63,6.63,0,0,1,6.57,6.54c.04,2.569.006,5.138.009,7.708,0,.86,0,.883.872.975a14.222,14.222,0,0,1,7.739,3.122A13.461,13.461,0,0,1,66.138,30.7,14.222,14.222,0,0,1,53.95,47.355l-.64.088c-.873.123-.875.121-.875,1.032,0,3.822.009,7.643,0,11.465a6.671,6.671,0,0,1-4.155,6.109,4.166,4.166,0,0,1-1.39.24c-.236.032-.486-.07-.712.067"/>
        <path id="Trazado_193265" data-name="Trazado 193265" d="M192.4.117A.1.1,0,0,0,192.419,0h.647a.7.7,0,0,1-.664.117" transform="translate(-167.456)" fill="#444"/>
        <path id="Trazado_193266" data-name="Trazado 193266" d="M206.152,0a.1.1,0,0,0,.017.117A.7.7,0,0,1,205.505,0Z" transform="translate(-178.861)" fill="#444"/>
        <path id="Trazado_193267" data-name="Trazado 193267" d="M41.777,510.873a.169.169,0,0,0-.018-.113.774.774,0,0,1,.665.113Z" transform="translate(-36.345 -444.517)" fill="#5c5c5c"/>
        <path id="Trazado_193268" data-name="Trazado 193268" d="M356.808,510.759a.159.159,0,0,0-.018.113h-.647a.776.776,0,0,1,.665-.113" transform="translate(-309.969 -444.517)" fill="#5c5c5c"/>
        <path id="Trazado_193269" data-name="Trazado 193269" d="M81.207,143.624c-.216-.982-.6-1.293-1.612-1.293-3.75,0-7.5-.012-11.249.013-.517,0-.621-.143-.62-.636q.02-21.8,0-43.6c0-.579.148-.692.7-.691q16.648.027,33.3,0c.567,0,.7.132.7.7-.033,2.72-.022,5.441-.007,8.162a1.008,1.008,0,0,1-.39.877,13.775,13.775,0,0,0-4.714,7.82c-.114.532-.327.615-.806.612-3.642-.02-7.284-.012-10.926-.009a4.577,4.577,0,0,0-.773.04,1.271,1.271,0,0,0-.076,2.475,4.136,4.136,0,0,0,.9.072c3.577,0,7.155.014,10.732-.01.506,0,.612.14.646.631a13.9,13.9,0,0,0,4.928,9.906,1.214,1.214,0,0,1,.483,1.031q-.029,6.025,0,12.049c0,.446-.095.571-.556.568-3.771-.021-7.543-.013-11.314-.011-1.015,0-1.4.313-1.611,1.293a4.716,4.716,0,0,1-2.419.134c-.28-.1-.327-.371-.441-.593a1.1,1.1,0,0,0-1.992-.016c-.116.22-.161.5-.438.6a4.648,4.648,0,0,1-2.433-.128" transform="translate(-58.942 -84.787)" fill="#fefefe"/>
        <path id="Trazado_193270" data-name="Trazado 193270" d="M39.461,101.82h2.549c.186.105.221.309.308.477a1.113,1.113,0,0,0,2.01,0c.085-.169.122-.372.307-.478h2.549a1.364,1.364,0,0,0,1.61,1.3q6.433,0,12.867,0c1.108,0,1.578-.467,1.579-1.57q0-5.928,0-11.856v-.765a15.773,15.773,0,0,0,3.374,1.089c.295.052.246.248.246.432,0,4.211.029,8.423-.019,12.633a3.828,3.828,0,0,1-3.611,3.656c-.236.014-.474.009-.711.009H24.113c-2.765,0-4.33-1.563-4.33-4.323,0-16.24.022-32.48-.026-48.721a4.1,4.1,0,0,1,4.312-4.313c2.389.088,4.784.024,7.176.013.387,0,.54.02.483.52a17.242,17.242,0,0,0-.036,2.587c.016.438-.127.54-.542.536-2.026-.019-4.052-.011-6.078-.008-1.25,0-1.668.421-1.668,1.668q0,23.356,0,46.712c0,1.279.423,1.7,1.709,1.7q6.369,0,12.737,0a1.366,1.366,0,0,0,1.61-1.3" transform="translate(-17.195 -42.984)" fill="#feca7c"/>
        <path id="Trazado_193271" data-name="Trazado 193271" d="M333.745,185.657a10.315,10.315,0,0,0-3.168-3.532,15.515,15.515,0,0,0-1.449-.842c-.24-.126-.328-.2-.125-.457a6.413,6.413,0,0,0,.966-5.49,5.279,5.279,0,0,0-5.606-4.078,5.368,5.368,0,0,0-4.847,5.115,6.271,6.271,0,0,0,1.172,4.519c.121.145.137.244-.069.338a10.141,10.141,0,0,0-2.72,1.833,11.085,11.085,0,0,0-2.006,2.608,11.486,11.486,0,1,1,17.853-.015" transform="translate(-272.699 -145.306)" fill="#60a3fe"/>
        <path id="Trazado_193272" data-name="Trazado 193272" d="M140.63,27.454c-2.821,0-5.642-.014-8.463.013-.5,0-.625-.138-.594-.614.043-.666,0-1.338.015-2.006a.913.913,0,0,1,1-1.015c.883-.021,1.766,0,2.649-.009.968-.011,1.286-.248,1.617-1.166a4.025,4.025,0,0,1,7.58.013,1.4,1.4,0,0,0,1.627,1.153c.818.009,1.637,0,2.455,0,.858.008,1.172.32,1.179,1.163.006.647-.029,1.3.012,1.941.028.445-.134.534-.543.531-2.843-.016-5.685-.008-8.528-.008" transform="translate(-114.51 -17.401)" fill="#d2d6de"/>
        <path id="Trazado_193273" data-name="Trazado 193273" d="M299.095,63.367V56.3c0-.6.005-1.208,0-1.813a1.3,1.3,0,0,0-1.467-1.477c-2.024-.011-4.049-.023-6.073.009-.559.009-.791-.094-.754-.722a18.046,18.046,0,0,0-.051-2.584c-.044-.521.3-.325.488-.327,2.175-.014,4.35-.01,6.525-.008.452,0,.906-.013,1.356.018a3.819,3.819,0,0,1,3.585,3.733c.034,2.891.013,5.783.008,8.675,0,.17.1.405-.206.459a16.281,16.281,0,0,0-3.412,1.1" transform="translate(-253.05 -42.957)" fill="#feca7b"/>
        <path id="Trazado_193274" data-name="Trazado 193274" d="M355.854,297.188a11.669,11.669,0,0,1-6.623-2.086c-.352-.241-.359-.429-.181-.77a7.516,7.516,0,0,1,13.527-.029c.2.371.178.565-.2.819a11.659,11.659,0,0,1-6.528,2.066" transform="translate(-303.696 -252.47)" fill="#90ddf4"/>
        <path id="Trazado_193275" data-name="Trazado 193275" d="M386.237,223.308c0,1.974-1.06,3.232-2.728,3.216a2.534,2.534,0,0,1-.822-.133c-1.841-.664-2.208-2.288-1.747-4.374a2.626,2.626,0,0,1,3.348-1.832c1.294.374,1.95,1.424,1.949,3.124" transform="translate(-331.394 -191.54)" fill="#fedcce"/>
        <path id="Trazado_193276" data-name="Trazado 193276" d="M198.991,133.5c2.044,0,4.089-.008,6.133,0a1.288,1.288,0,0,1,.687,2.415,1.437,1.437,0,0,1-.747.166c-4.024.006-8.049.013-12.073,0a1.294,1.294,0,0,1-1.43-1.326c.018-.766.578-1.251,1.49-1.255,1.98-.009,3.96,0,5.94,0" transform="translate(-166.725 -116.188)"/>
        <path id="Trazado_193277" data-name="Trazado 193277" d="M199.052,342.42h6.069a1.292,1.292,0,0,1,.906,2.275,1.4,1.4,0,0,1-.961.311c-4.024.005-8.049.013-12.073,0a1.3,1.3,0,0,1-1.433-1.324c.016-.766.576-1.254,1.487-1.258,2-.009,4,0,6,0" transform="translate(-166.725 -298.023)"/>
        <path id="Trazado_193278" data-name="Trazado 193278" d="M104.3,140.4a1.478,1.478,0,0,1-.994-.454c-.517-.52-1.046-1.03-1.551-1.561a1.3,1.3,0,0,1-.047-1.9,1.316,1.316,0,0,1,1.858.058c.774.692.773.691,1.51-.048.823-.825,1.641-1.655,2.472-2.471a1.319,1.319,0,0,1,1.948-.123,1.3,1.3,0,0,1-.123,1.951c-1.349,1.366-2.713,2.718-4.066,4.081a1.511,1.511,0,0,1-1.007.472" transform="translate(-88.184 -116.213)"/>
        <path id="Trazado_193279" data-name="Trazado 193279" d="M104.316,244.379a1.416,1.416,0,0,1-.982-.426c-.536-.532-1.078-1.058-1.6-1.607a1.293,1.293,0,1,1,1.8-1.853c.812.707.811.707,1.557-.041.807-.81,1.612-1.622,2.426-2.426a1.33,1.33,0,0,1,1.993-.131,1.308,1.308,0,0,1-.16,1.951c-1.335,1.35-2.683,2.687-4.02,4.035a1.556,1.556,0,0,1-1.019.5" transform="translate(-88.181 -206.711)"/>
        <path id="Trazado_193280" data-name="Trazado 193280" d="M104.287,349.326a1.382,1.382,0,0,1-.943-.418c-.537-.531-1.078-1.059-1.6-1.607a1.3,1.3,0,1,1,1.833-1.824c.759.685.758.684,1.465-.024.823-.825,1.643-1.653,2.472-2.472a1.311,1.311,0,1,1,1.8,1.851c-1.307,1.317-2.623,2.625-3.929,3.944a1.624,1.624,0,0,1-1.105.55" transform="translate(-88.184 -298.052)"/>
        <path id="Trazado_193281" data-name="Trazado 193281" d="M195.756,176.06c-.9,0-1.806.015-2.709,0-.936-.02-1.507-.551-1.486-1.336.021-.764.58-1.245,1.494-1.249q2.741-.013,5.482,0a1.3,1.3,0,1,1,.056,2.579c-.945.029-1.891.007-2.837.007Z" transform="translate(-166.725 -150.975)"/>
        <path id="Trazado_193282" data-name="Trazado 193282" d="M195.7,280c-1.01,0-2.02.024-3.029-.009A1.169,1.169,0,0,1,191.55,279a1.235,1.235,0,0,1,.491-1.314,1.3,1.3,0,0,1,.849-.249c1.892,0,3.784-.011,5.675,0a1.288,1.288,0,1,1,.041,2.573c-.966.036-1.934.008-2.9.008V280" transform="translate(-166.681 -241.466)"/>
        <path id="Trazado_193283" data-name="Trazado 193283" d="M195.823,382.392c.9,0,1.806-.009,2.709,0s1.451.507,1.451,1.284a1.271,1.271,0,0,1-1.385,1.294q-2.837.038-5.675,0a1.277,1.277,0,0,1-1.362-1.322,1.291,1.291,0,0,1,1.424-1.253c.946-.014,1.892,0,2.838,0" transform="translate(-166.725 -332.811)"/>
        <path id="Trazado_193284" data-name="Trazado 193284" d="M194.016,445.143c-.195.878-.646,1.312-1.345,1.294-.673-.017-1.092-.441-1.28-1.294.187-.85.607-1.273,1.28-1.291.7-.018,1.15.415,1.345,1.291" transform="translate(-166.577 -386.306)" fill="#010101"/>
        <path id="Trazado_193285" data-name="Trazado 193285" d="M192.845,38.865a1.272,1.272,0,0,1,1.3,1.305,1.29,1.29,0,1,1-2.58-.053,1.274,1.274,0,0,1,1.284-1.253" transform="translate(-166.724 -33.826)" fill="#010101"/>
      </g>
    </g>
  </g>
</svg>
