<svg xmlns="http://www.w3.org/2000/svg" xmlns:xlink="http://www.w3.org/1999/xlink" width="85" height="84.923" viewBox="0 0 85 84.923">
  <defs>
    <clipPath id="clip-path">
      <rect id="Rectángulo_85360" data-name="Rectángulo 85360" width="85" height="84.923" fill="none"/>
    </clipPath>
  </defs>
  <g id="Grupo_137499" data-name="Grupo 137499" transform="translate(960 5780)">
    <g id="Grupo_135296" data-name="Grupo 135296" transform="translate(-960 -5780)">
      <g id="Grupo_135295" data-name="Grupo 135295" clip-path="url(#clip-path)">
        <path id="Trazado_193065" data-name="Trazado 193065" d="M58.795,125.353H26.287a2.752,2.752,0,0,1-2.487-2.311,4.2,4.2,0,0,1,1.411-4.266,4.74,4.74,0,0,1,3.129-1.14c.8-.01,1.6-.007,2.4-.006a.925.925,0,0,0,.982-.709c.337-1.024.695-2.041,1.016-3.069.217-.7.121-.807-.633-.843-.276-.013-.553,0-.829,0q-13.556,0-27.111,0a4.29,4.29,0,0,1-3.142-1.03A3.033,3.033,0,0,1,0,109.791c-.008-.248,0-.5,0-.746Q0,82.472,0,55.9c0-2.561,1.358-3.929,3.925-3.945.94-.006,1.88-.031,2.819.016a1.44,1.44,0,0,1,1.5,1.173,1.551,1.551,0,0,1-1.675,1.789c-.854.051-1.711-.006-2.565.026-.931.035-1.169.271-1.179,1.21-.019,1.6-.014,3.2,0,4.8.007.846.094.921.974.939.938.018,1.877-.037,2.813.025,1.156.076,1.651.652,1.628,1.829a1.5,1.5,0,0,1-1.616,1.145c-.967.032-1.935.022-2.9.009-.634-.008-.915.261-.883.89.013.248,0,.5,0,.746q0,15.919,0,31.838c0,.249.014.5,0,.746-.029.621.239.928.878.9.331-.013.663,0,.995,0H65.983c.414,0,.83-.016,1.243.016a1.509,1.509,0,0,1,1.568,1.4,1.577,1.577,0,0,1-1.66,1.592c-.441.036-.884.019-1.325.019H4.569c-1.831,0-1.722-.083-1.731,1.7,0,.552.022,1.1-.022,1.656.047.8-.006,1.6.029,2.4.039.89.258,1.1,1.158,1.153.3.018.608.009.912.009H80.253c1.947,0,1.989-.043,1.991-2,0-1.188,0-2.376,0-3.564,0-1.333-.029-1.353-1.325-1.364-.829-.007-1.657.03-2.485-.021-1.668.018-3.337.038-5-.005a1.566,1.566,0,0,1-1.745-1.56,1.5,1.5,0,0,1,1.7-1.413q2.511-.041,5.022,0c.994-.051,1.988-.022,2.983-.02.586,0,.878-.23.857-.831-.009-.248,0-.5,0-.746q0-16,0-31.99c0-.166,0-.332,0-.5-.024-.961-.1-1.045-1.041-1.063-.884-.018-1.768.018-2.651-.02-.748-.018-1.407-.186-1.675-1.005-.2-1.319.231-1.844,1.616-1.967.967-.035,1.934-.023,2.9-.012.572.007.875-.176.87-.8-.015-1.685.019-3.371-.016-5.057-.017-.837-.272-1.065-1.118-1.1-.883-.035-1.768.027-2.652-.035-1.044-.254-1.321-.55-1.464-1.566A1.554,1.554,0,0,1,78.7,51.987c.881-.034,1.763-.017,2.645-.009A3.468,3.468,0,0,1,85,54.863v55.23a3.47,3.47,0,0,1-3.828,2.9c-4.887.018-9.775.005-14.662.006q-6.586,0-13.172,0c-1.258,0-1.284.04-.882,1.263.284.866.589,1.725.862,2.594a1.008,1.008,0,0,0,1.1.792c.856-.012,1.713-.033,2.568.011a4.417,4.417,0,0,1,4.378,4.481,2.937,2.937,0,0,1-2.567,3.216" transform="translate(0 -40.429)"/>
        <path id="Trazado_193066" data-name="Trazado 193066" d="M87.322,139.741c-1.68.009-3.361.025-5.041.023a1.285,1.285,0,0,0-1.453,1.152,4.241,4.241,0,0,1-3.257,0,1.276,1.276,0,0,0-1.458-1.151c-.221.005-.442,0-.663,0q-31.5,0-63,.018c-.756,0-.938-.189-.936-.939q.038-16.952,0-33.9c0-.7.178-.882.86-.844,1.1.061,2.209.021,3.315.014a1.242,1.242,0,0,0,1.347-.983,2.524,2.524,0,0,1,2.373-.262.735.735,0,0,1,.292.567,9.73,9.73,0,0,1,.026,1.076q0,12.713,0,25.426a2.932,2.932,0,0,0,.121,1.224,1.277,1.277,0,0,0,1.345.888c3.113.027,6.227,0,9.34.018.81,0,1.1-.639,1.594-1.039a7.628,7.628,0,0,1,3.323.034,2.528,2.528,0,0,0,2.371,1q21.612-.033,43.224-.019c.79,0,1.647.117,2.069-.825a2.657,2.657,0,0,0,.161-1.3q0-12.6,0-25.2c0-.221-.013-.443,0-.663.034-.45-.14-1.036.434-1.225a2.487,2.487,0,0,1,2.081.1c.128.073.115.244.185.361a1.345,1.345,0,0,0,1.341.85,1.415,1.415,0,0,1,.272,1.094q.009,16.708,0,33.416a1.387,1.387,0,0,1-.272,1.093" transform="translate(-8.962 -79.894)" fill="#aab2d3"/>
        <path id="Trazado_193067" data-name="Trazado 193067" d="M87.39,281.294c1.16-.008,2.321,0,3.481-.031.487-.014.686.121.678.647-.026,1.906-.014,3.814-.008,5.721a.973.973,0,0,1-1.113,1.116c-.166,0-.332,0-.5,0H13.238c-1.514,0-1.643-.129-1.64-1.664,0-.718.012-1.437.019-2.155a1.854,1.854,0,0,1,1.348-.255q9.445-.011,18.89,0,25.311,0,50.623.021c2.207.005,3.719-.8,4.521-2.87a1.408,1.408,0,0,1,.391-.526" transform="translate(-9.027 -218.919)" fill="#404a59"/>
        <path id="Trazado_193068" data-name="Trazado 193068" d="M87.353,276.655a4.242,4.242,0,0,1-1.9,2.964,3.465,3.465,0,0,1-2,.682q-35.937-.01-71.875-.011c-.006-1.021.007-2.044-.028-3.064-.017-.485.171-.645.626-.6a6.538,6.538,0,0,0,.662,0H75.8c1.269,0,1.593-.242,1.8-1.327a19.186,19.186,0,0,0,3.257,0c.193,1.012.54,1.318,1.543,1.327,1.651.014,3.3.018,4.953.026" transform="translate(-8.99 -214.28)" fill="#566173"/>
        <path id="Trazado_193069" data-name="Trazado 193069" d="M353.523,144.867q0-17.8,0-35.6c1.215-.008,2.43,0,3.644-.032.4-.01.56.118.509.515a3.306,3.306,0,0,0,0,.414q0,16.9.018,33.808c0,.753-.18.994-.942.941-1.072-.075-2.152-.034-3.228-.043" transform="translate(-275.163 -85.02)" fill="#7e7e7e"/>
        <path id="Trazado_193070" data-name="Trazado 193070" d="M19.649,54.876c-.232-.294-.127-.639-.127-.96q-.009-13.261.014-26.522c0-.776-.223-1.054-.967-.935-.5.08-1.054-.185-1.51.217-.046-1.1-.421-1.487-1.514-1.5s-2.211-.032-3.314.009c-.559.021-.7-.18-.688-.709.028-1.85.005-3.7.014-5.552,0-.939.288-1.206,1.258-1.213.912-.006,1.824.01,2.735,0,1.075-.017,1.47-.423,1.5-1.506.7.493,1.49.2,2.235.2.4,0,.239-.431.239-.67.012-3.284,0-6.569.015-9.853a2.909,2.909,0,0,1,.116-1.459c.408.406.29.93.291,1.412q.014,9.03.006,18.06,0,14.746-.006,29.492c0,.507.137,1.062-.3,1.491" transform="translate(-8.984 -3.442)" fill="#566172"/>
        <path id="Trazado_193071" data-name="Trazado 193071" d="M148.683,360.784c1.583-.1,2.312.333,2.547,1.467.129.621-.07.965-.727.988-.138,0-.276,0-.414,0H120.12c-1.26,0-1.437-.282-.957-1.508a6.313,6.313,0,0,1,1.153-.085c8.314,0,16.629-.008,24.943.015a4.793,4.793,0,0,0,3.423-.878" transform="translate(-92.559 -280.805)" fill="#404a59"/>
        <path id="Trazado_193072" data-name="Trazado 193072" d="M337.222,26.84a3.567,3.567,0,0,0-2.307-.332c-.205.127-.159.333-.161.517-.008.5,0,.993,0,1.49q0,12.7,0,25.406c0,.32.1.665-.129.958-.416-.4-.3-.927-.3-1.409q-.015-8.118-.006-16.236,0-15.656.006-31.312c0-.508-.133-1.061.289-1.5.211.269.12.585.121.88.007,3.454.019,6.909-.01,10.363-.005.609.139.857.775.782a17.475,17.475,0,0,0,1.9-.076,1.323,1.323,0,0,0,1.172,1.343,1.268,1.268,0,0,1,.264.925q.016,2.8,0,5.592a1.2,1.2,0,0,1-.268.921c-1.156.169-1.437.522-1.339,1.683" transform="translate(-260.202 -3.446)" fill="#566172"/>
        <path id="Trazado_193073" data-name="Trazado 193073" d="M167.361,326.159c2.383-.138,2.385-.138,3.1,2.053.324.993.639,1.988.987,3.074-2.618,0-5.151.007-7.685,0-.682,0-1.268.12-1.556.829a.727.727,0,0,1-.876.743c-.805-.058-1.65.239-2.41-.253-.338-1.114-.59-1.306-1.741-1.314-.656,0-1.312,0-1.968-.008a.62.62,0,0,1-.174-.068,6.924,6.924,0,0,1,.527-1.61c2.012-.119,4.025-.022,6.037-.049.91-.012,1.821,0,2.731,0a2.633,2.633,0,0,0,2.934-2.824,1.179,1.179,0,0,1,.091-.564" transform="translate(-120.675 -253.826)" fill="#9eadb7"/>
        <path id="Trazado_193074" data-name="Trazado 193074" d="M169.213,326.218a2.75,2.75,0,0,1-2.406,3.622c-2.929.045-5.859.013-8.789.012-.22,0-.449.024-.6-.194.32-1.022.655-2.04.949-3.07.1-.343.283-.4.594-.4q5.125.025,10.251.033" transform="translate(-122.526 -253.885)" fill="#b8c6d1"/>
        <path id="Trazado_193075" data-name="Trazado 193075" d="M131.67,353.674c.82,0,1.642-.042,2.459,0a.786.786,0,0,0,.826-.489c-.033,1.3.311,1.658,1.634,1.662q6.478.019,12.956.033a2.1,2.1,0,0,1-2.1,1.143q-13.243-.028-26.486-.017c-.315,0-.67.127-.933-.179a1.817,1.817,0,0,1,1.762-.983c2.692.009,5.385-.021,8.077.016a1.574,1.574,0,0,0,1.806-1.186" transform="translate(-93.422 -274.899)" fill="#566173"/>
        <path id="Trazado_193076" data-name="Trazado 193076" d="M353.518,71.81q0-3.719.005-7.438c.993,0,1.986-.012,2.978,0,.855.008,1.161.3,1.166,1.131.011,1.9-.007,3.806.011,5.709,0,.453-.121.642-.6.629-1.185-.033-2.371-.022-3.557-.029" transform="translate(-275.159 -50.099)" fill="#404a59"/>
        <path id="Trazado_193077" data-name="Trazado 193077" d="M111.858.981c-.009,3.976-.026,7.952-.025,11.928,0,3.231.039,6.462.037,9.693q-.008,14.293-.034,28.586a2.114,2.114,0,0,0,.028.246c-.209.786-.781.975-1.516.974q-6.5-.015-13,0-15.858,0-31.716.012A1.522,1.522,0,0,1,63.9,51.25a1.173,1.173,0,0,1,.977-1.5,5.78,5.78,0,0,1,1.485-.09q20.517,0,41.035,0c1.683,0,1.684,0,1.684-1.665q0-21.8,0-43.6c0-1.627,0-1.627-1.641-1.626-.359,0-.719.006-1.077-.022-.441.04-.883.023-1.325.023q-26.342,0-52.684,0a3.12,3.12,0,0,0-1.385.134c-.3.245-.262.588-.262.918q0,21.184.009,42.368c0,.934.247,1.857.207,2.8-.027.643.442.668.907.67,2.211.008,4.422,0,6.633,0a4.111,4.111,0,0,1,1.234.11,1.162,1.162,0,0,1,.9,1.478,1.473,1.473,0,0,1-1.644,1.165c-3.108-.03-6.216-.018-9.324-.007-.733,0-1.3-.192-1.51-.973.01-.413.029-.827.029-1.24q0-12.016,0-24.031,0-12.138.013-24.275c0-.3-.024-.6-.037-.907A1.206,1.206,0,0,1,49.458,0h.332q30.2,0,60.4,0c.766,0,1.449.079,1.666.981" transform="translate(-37.45 0)"/>
        <path id="Trazado_193078" data-name="Trazado 193078" d="M114.864,11.235c.856-.009,1.713,0,2.567-.036.41-.018.554.125.5.517a3.267,3.267,0,0,0,0,.414q0,22.8.019,45.6c0,.776-.221.929-.954.927q-21.388-.033-42.776-.016c-1.27,0-1.53.193-1.82,1.328H69.1c-.277-1.09-.559-1.324-1.653-1.326-2.569,0-5.137-.016-7.706.01-.53.005-.694-.122-.694-.678q.018-23.118,0-46.236c0-.158-.051-.333.092-.467.4.479.26,1.056.26,1.593q.013,20.354.007,40.708c0,.332.014.664,0,.995-.022.608.275.853.857.823.165-.009.331,0,.5,0q25.2,0,50.408.006a3.216,3.216,0,0,0,2.444-.8,3.11,3.11,0,0,0,.952-1.971c.043-.441.028-.884.028-1.326q0-19.276.006-38.552c0-.512-.124-1.06.261-1.511" transform="translate(-45.954 -8.715)" fill="#d3e7f1"/>
        <path id="Trazado_193079" data-name="Trazado 193079" d="M115.2,11.272c0,13.681-.015,27.361.022,41.041a3.55,3.55,0,0,1-3.378,3.417q-25.661-.086-51.322-.015c-.839,0-1.053-.2-1.052-1.049q.042-21.184.019-42.368c0-.332-.009-.663-.014-.995.217-.02.435-.057.653-.057q27.288,0,54.576,0c.165,0,.33.017.495.026" transform="translate(-46.287 -8.752)" fill="#e7f8f7"/>
        <path id="Trazado_193080" data-name="Trazado 193080" d="M176.141,167.216H163.128a5.082,5.082,0,0,1-.745-.02,1.227,1.227,0,0,1-.237-2.378,2.563,2.563,0,0,1,.983-.085q13.013,0,26.025,0a5.318,5.318,0,0,1,.663.012,1.244,1.244,0,0,1,1.156,1.28,1.206,1.206,0,0,1-1.24,1.182c-1.464.026-2.928.011-4.393.012h-9.2" transform="translate(-125.557 -128.214)"/>
        <path id="Trazado_193081" data-name="Trazado 193081" d="M176.214,37.97q6.506,0,13.011,0a2.769,2.769,0,0,1,.98.1,1.13,1.13,0,0,1,.752,1.09,1.183,1.183,0,0,1-.76,1.171,2.541,2.541,0,0,1-1.061.125H163.114a5.373,5.373,0,0,1-.58-.01,1.251,1.251,0,0,1-1.238-1.291,1.217,1.217,0,0,1,1.326-1.181c1.6-.019,3.2-.006,4.807-.006h8.785" transform="translate(-125.544 -29.551)" fill="#000101"/>
        <path id="Trazado_193082" data-name="Trazado 193082" d="M176.142,103.775q-6.505,0-13.011,0a4.652,4.652,0,0,1-.825-.04,1.211,1.211,0,0,1-.147-2.342,3.415,3.415,0,0,1,.981-.1q13.011-.008,26.022,0a3.983,3.983,0,0,1,.743.037,1.225,1.225,0,0,1-.089,2.438,7.323,7.323,0,0,1-.745.013H176.142" transform="translate(-125.562 -78.835)" fill="#010101"/>
        <path id="Trazado_193083" data-name="Trazado 193083" d="M174.053,60.477q5.427,0,10.853,0a5.459,5.459,0,0,1,.827.029,1.148,1.148,0,0,1,1.029,1.126,1.168,1.168,0,0,1-.793,1.23,2.038,2.038,0,0,1-.814.1h-22.2c-.111,0-.221.006-.331,0a1.255,1.255,0,0,1-1.321-1.289,1.227,1.227,0,0,1,1.322-1.188c1.74-.02,3.48-.008,5.22-.009h6.214" transform="translate(-125.545 -47.07)"/>
        <path id="Trazado_193084" data-name="Trazado 193084" d="M173.989,189.766q-5.426,0-10.852,0a4.41,4.41,0,0,1-.825-.039,1.138,1.138,0,0,1-.985-1.072,1.116,1.116,0,0,1,.825-1.272,3.03,3.03,0,0,1,.9-.1q11.018-.007,22.036,0a2.234,2.234,0,0,1,.9.1,1.169,1.169,0,0,1,.8,1.227,1.145,1.145,0,0,1-1.027,1.126,5.606,5.606,0,0,1-.826.032q-5.468,0-10.935,0" transform="translate(-125.561 -145.766)" fill="#000101"/>
        <path id="Trazado_193085" data-name="Trazado 193085" d="M174.021,123.9q5.467,0,10.935,0a4.291,4.291,0,0,1,.905.063,1.209,1.209,0,0,1,.1,2.324,3.356,3.356,0,0,1-.981.1q-10.935.007-21.869,0a3.432,3.432,0,0,1-.9-.082,1.212,1.212,0,0,1,.057-2.346,4.341,4.341,0,0,1,.906-.058q5.426-.005,10.852,0" transform="translate(-125.566 -96.433)" fill="#010101"/>
        <path id="Trazado_193086" data-name="Trazado 193086" d="M92.689,172.053a1.464,1.464,0,0,1-1.16-.5c-.78-.783-1.57-1.556-2.341-2.347a1.246,1.246,0,1,1,1.74-1.756,11.607,11.607,0,0,1,1.108,1.117c.387.479.641.375,1.024-.025,1.146-1.2,2.332-2.357,3.508-3.525.742-.737,1.462-.834,2.021-.289s.492,1.295-.232,2.023q-2.338,2.351-4.687,4.691a1.674,1.674,0,0,1-.982.608" transform="translate(-69.037 -127.949)"/>
        <path id="Trazado_193087" data-name="Trazado 193087" d="M92.539,108.591a1.315,1.315,0,0,1-1.015-.473c-.782-.778-1.57-1.549-2.336-2.342a1.256,1.256,0,0,1-.116-1.9c.528-.518,1.23-.446,1.907.163.544.49,1,1.464,1.609,1.384.588-.076,1.073-.946,1.6-1.471.84-.836,1.671-1.682,2.519-2.509a1.248,1.248,0,1,1,1.747,1.744c-1.629,1.645-3.273,3.276-4.909,4.915a1.351,1.351,0,0,1-1.008.486" transform="translate(-69.033 -78.559)"/>
        <path id="Trazado_193088" data-name="Trazado 193088" d="M98.936,38.5a1.44,1.44,0,0,1-.472,1.2c-1.658,1.655-3.306,3.321-4.973,4.967a1.251,1.251,0,0,1-1.959.009q-1.219-1.177-2.4-2.4a1.218,1.218,0,0,1-.1-1.83,1.244,1.244,0,0,1,1.834.063c.062.055.115.119.177.173.515.45.933,1.359,1.5,1.3.536-.055,1-.869,1.485-1.354.919-.914,1.83-1.834,2.75-2.747a1.189,1.189,0,0,1,1.431-.3,1.152,1.152,0,0,1,.726.919" transform="translate(-69.016 -29.156)"/>
      </g>
    </g>
  </g>
</svg>
