<svg xmlns="http://www.w3.org/2000/svg" xmlns:xlink="http://www.w3.org/1999/xlink" width="303.554" height="229" viewBox="0 0 303.554 229">
  <defs>
    <clipPath id="clip-path">
      <rect id="Rectángulo_85131" data-name="Rectángulo 85131" width="190.831" height="190.835" fill="none"/>
    </clipPath>
  </defs>
  <g id="Grupo_137521" data-name="Grupo 137521" transform="translate(-1117 -5877)">
    <g id="Image_Place_Holder" data-name="Image Place Holder" transform="translate(1117 5893.999)" opacity="0.599">
      <path id="Image_Place_Holder-2" data-name="Image Place Holder" d="M10,0H293.554a10,10,0,0,1,10,10V195.482a10,10,0,0,1-10,10H10a10,10,0,0,1-10-10V10A10,10,0,0,1,10,0Z" transform="translate(0 0)" fill="#0d2380"/>
      <rect id="Rectángulo_85175" data-name="Rectángulo 85175" width="303" height="17" transform="translate(0 -16.999)" fill="#fff"/>
    </g>
    <rect id="Rectángulo_41171" data-name="Rectángulo 41171" width="250" height="11" rx="5" transform="translate(1137 6095)" fill="#0d2380"/>
    <g id="Grupo_134905" data-name="Grupo 134905" transform="translate(1173 5877)">
      <g id="Grupo_134904" data-name="Grupo 134904" clip-path="url(#clip-path)">
        <path id="Trazado_192429" data-name="Trazado 192429" d="M190.831,55.911c-.558.252-.41.849-.593,1.275a8.138,8.138,0,0,1-7.414,5.293,7.74,7.74,0,0,1-7.548-4.119,2.3,2.3,0,0,0-2.4-1.424c-2.966.1-5.94.09-8.907,0-1.237-.035-1.82.216-1.663,1.588.24,2.1-.546,3.606-2.755,4.11-1.7.365-2.53-.668-3.095-2.009a10.179,10.179,0,0,1-.5-4.041q0-22.077,0-44.154c0-.745.026-1.492-.035-2.235a4,4,0,0,0-3.916-3.968c-1.732-.145-3.475-.044-5.213-.069-14.965.059-29.929.02-44.893.026q-30.085.012-60.169,0a27.44,27.44,0,0,0-2.793.057,4.022,4.022,0,0,0-4.043,4.227c-.028.559-.016,1.117-.016,1.676q0,33.529,0,67.059c0,3.284.005,3.284,3.271,3.314.373,0,.745,0,1.117.017,5.008.2,6.781,2.025,6.79,7.007.008,4.16.028,8.32-.007,12.48-.034,3.958-1.541,5.628-5.467,6.164a34.514,34.514,0,0,1-4.093.134c-1.077.019-1.591.511-1.594,1.589,0,.62-.018,1.241-.018,1.862q0,20.118,0,40.235a10.4,10.4,0,0,1-.564,4.215c-.687,1.6-1.659,2-3.418,1.481-2.109-.32-2.389-1.871-2.391-3.586-.007-5.715-.042-11.43.026-17.144.016-1.309-.184-1.853-1.683-1.783-3.037.14-6.086.076-9.13.022a1.9,1.9,0,0,0-2.015,1.138,8.191,8.191,0,0,1-9.635,4.1,8.37,8.37,0,0,1,.348-16.185,8.242,8.242,0,0,1,9.29,4.186,1.912,1.912,0,0,0,1.984,1.215c3.1-.08,6.214-.1,9.316,0,1.314.044,1.531-.455,1.517-1.608-.054-4.658-.022-9.317-.022-13.976q0-51.154-.021-102.308c-.005-4.563,1.342-8.284,5.53-10.576A10.625,10.625,0,0,1,39.21,0Q95.4,0,151.585.014c6.07,0,10.282,3.842,10.623,9.891.256,4.52.1,9.065.107,13.6.01,8.635.057,17.27-.043,25.9-.02,1.709.484,2.077,2.079,2.008,2.976-.13,5.962-.064,8.943-.021a1.643,1.643,0,0,0,1.713-1.025,8.353,8.353,0,0,1,15.48,1.556,3.658,3.658,0,0,0,.343.633Z" transform="translate(0 0)"/>
        <path id="Trazado_192430" data-name="Trazado 192430" d="M191.965,146.859c2.483.765,2.867,1.29,2.868,4.108q.006,53.357.022,106.714c.007,5.962-2.872,9.611-8.409,11.388H69.407c-1.3-.672-2.768-.967-3.979-1.852a10.363,10.363,0,0,1-4.4-8.763c-.033-4.213.022-8.426-.026-12.638a3.4,3.4,0,0,1,2.78-3.612c1.7-.357,2.529.664,3.1,2.005a8.794,8.794,0,0,1,.508,3.478c.008,3.475-.03,6.95.014,10.425.042,3.213,1.441,4.609,4.67,4.752.744.033,1.489.017,2.234.017q51.846,0,103.693,0a11.854,11.854,0,0,1,1.3.026c1.549,0,3.1.023,4.649-.043,2.992-.127,4.417-1.562,4.495-4.537.06-2.294.017-4.589.017-6.884q0-30.794,0-61.589c0-3.29,0-3.3-3.258-3.307a14.506,14.506,0,0,1-4.233-.5,5.025,5.025,0,0,1-3.415-4.228,28.641,28.641,0,0,1-.235-5.174c-.012-3.088-.081-6.179.027-9.265.09-2.561.615-4.956,3.4-6.033a16.088,16.088,0,0,1,5.707-.529c1.543.068,2.094-.594,2.055-2.09-.06-2.291-.023-4.584-.009-6.876a7.508,7.508,0,0,1,.571-3.271c.568-1.18,1.366-2.086,2.887-1.719" transform="translate(-32.516 -78.234)"/>
        <path id="Trazado_192431" data-name="Trazado 192431" d="M182.119,191.571c-.682.02-1.365.056-2.047.056q-52.27,0-104.538,0c-4.616,0-6.074-1.476-6.076-6.148,0-3.541-.024-7.081.008-10.621.02-2.177-.55-3.917-2.932-4.5-.168-2.084.511-4.219-.374-6.261,2.195-.088,2.868-.649,3.2-2.77a13.383,13.383,0,0,0,.1-2.041c0-14.4.029-28.809-.032-43.214-.007-1.624.392-2.2,2.068-2.1a21.6,21.6,0,0,0,5.567-.2c2.181-.436,3.611-1.808,3.647-4.046q.125-7.915,0-15.831c-.036-2.312-1.467-3.638-3.81-4.092a21.782,21.782,0,0,0-5.382-.176c-1.637.091-2.1-.409-2.094-2.072.072-11.859.038-23.718.039-35.577q0-17.416.007-34.832c0-3.352,1.827-5.168,5.178-5.169q53.181-.011,106.363,0c.372,0,.743.036,1.115.056,1.514.813,1.872,2.309,1.979,3.786.238,3.281.117,6.574.065,9.861-.023,1.466-.805,2.121-2.246,2.093-.744-.014-1.489.008-2.234.008q-35.094,0-70.187.005a12.216,12.216,0,0,0-2.777.12c-1.784.126-1.718,2.033-2.758,2.879-2.072-.088-4.173.324-6.208-.379-1.375-2.257-3.508-2.661-5.947-2.607-3.973.09-7.95-.011-11.925.037-3.494.042-4.508.983-4.526,4.423q-.087,16.677,0,33.354c.007,1.636.173,3.284,2.015,4.048a6.568,6.568,0,0,0,2.94.3q49.911.01,99.823.006c4,0,4.072.069,4.075,4.033,0,4.407.01,8.815-.006,13.222a3.7,3.7,0,0,1-.6,2.658,4.833,4.833,0,0,0-2.829,4.429q-.085,7.493,0,14.987a4.832,4.832,0,0,0,2.829,4.429,3.419,3.419,0,0,1,.6,2.469q.013,35.149-.015,70.3c0,1.93-.161,3.881-2.065,5.078" transform="translate(-35.264 -6.385)" fill="#50536e"/>
        <path id="Trazado_192432" data-name="Trazado 192432" d="M195.969,89.885c0-5.711-.071-11.423.041-17.133.035-1.776-.441-2.286-2.253-2.283q-47.771.083-95.541.04c-2.359,0-4.718.011-7.077-.007-.6,0-1.253.175-1.781-.306.905-.938,2.087-.657,3.169-.658q24.876-.031,49.751-.014,25.435,0,50.87,0c.807,0,1.614-.016,2.422-.027a2.429,2.429,0,0,0,2.579-2.184,11.721,11.721,0,0,0,.2-2.409q.006-15.931,0-31.862c0-.311,0-.621-.015-.931-.14-3.229-.782-3.862-4.059-3.864q-35.683-.014-71.366-.005c-.87,0-1.74.026-2.608-.024a2.242,2.242,0,0,1-1.865-.648c.719-.562,1.559-.3,2.34-.3q36.426-.022,72.852.029c1.845,0,2.546-.387,2.388-2.342a52.563,52.563,0,0,1-.017-6.889,10.072,10.072,0,0,0-1.509-6.024c1.489-.019,2.978-.06,4.468-.054,3.489.013,5.284,1.775,5.287,5.238q.015,23.565.008,47.13c0,3.1.384,3.678,2.929,4.674q-.049,2.992-.1,5.986c-2.313.854-2.787,1.5-2.824,4.144-.041,2.907-.058,5.815.013,8.72.03,1.246-.294,1.787-1.649,1.733a30.534,30.534,0,0,0-6.649.274" transform="translate(-47.629 -6.389)" fill="#484b63"/>
        <path id="Trazado_192433" data-name="Trazado 192433" d="M73.447,196.75c0-1.671-.014-3.343.009-5.014.007-.452-.209-1.17.482-1.211a46.132,46.132,0,0,1,4.631-.011c.613.025.457.644.458,1.04q.02,5.387,0,10.773c0,.4.153,1.012-.461,1.038a46.282,46.282,0,0,1-4.631-.014c-.689-.042-.473-.763-.479-1.214-.023-1.8-.009-3.591-.009-5.386" transform="translate(-39.139 -101.518)" fill="#fec2b5"/>
        <path id="Trazado_192434" data-name="Trazado 192434" d="M387.514,115.608a2.935,2.935,0,0,1-2.775-2.744,2.776,2.776,0,1,1,5.553,0,2.936,2.936,0,0,1-2.778,2.742" transform="translate(-205.071 -58.673)" fill="#fff2bf"/>
        <path id="Trazado_192435" data-name="Trazado 192435" d="M14.788,283.216a2.93,2.93,0,0,1-2.8-2.718,2.777,2.777,0,1,1,5.553-.043,2.924,2.924,0,0,1-2.754,2.761" transform="translate(-6.39 -148.012)" fill="#fff2bf"/>
        <path id="Trazado_192436" data-name="Trazado 192436" d="M314.474,307.706a10.88,10.88,0,0,0,1.514-6.015q-.072-35.914-.029-71.829a32.374,32.374,0,0,0,6.677.28c1.2-.034,1.673.339,1.619,1.582-.082,1.922-.021,3.849-.021,5.775q0,32.232,0,64.464c0,4.236-1.583,5.8-5.849,5.8-1.3,0-2.606-.036-3.91-.056" transform="translate(-167.619 -122.52)" fill="#484b63"/>
        <path id="Trazado_192437" data-name="Trazado 192437" d="M323.542,196.683q0-2.32,0-4.639a2.6,2.6,0,0,1,.018-.922c.865-2.1,2.653-.584,3.974-.946.688-.189,1.672-.309,1.66,1.032-.033,3.65-.024,7.3,0,10.95.005.807-.334,1.1-1.111,1.08-1.051-.031-2.107-.058-3.154.009s-1.445-.3-1.4-1.367c.068-1.729.018-3.464.018-5.2" transform="translate(-172.434 -101.263)" fill="#fec2b5"/>
        <path id="Trazado_192438" data-name="Trazado 192438" d="M113.754,50.93c1.538.024,3.076.044,4.614.076.6.013,1.248-.145,1.721.412,1.634,1.726,3.705,1.986,5.959,1.982q33.359-.05,66.718-.019c4.3,0,4.389.1,4.391,4.358q0,12.3,0,24.6c-.006,3.23-.32,3.555-3.487,3.556q-47.057.012-94.113,0c-3.156,0-3.486-.341-3.492-3.561q-.023-12.765,0-25.531c.007-3.033.386-3.388,3.465-3.417q3.261-.03,6.522,0c2.843.028,5.757.311,7.707-2.454" transform="translate(-51.194 -27.146)" fill="#fff2bf"/>
        <path id="Trazado_192439" data-name="Trazado 192439" d="M152.936,166.73c10.87,0,21.744.168,32.61-.064,6.266-.134,12.363,3.466,12.382,11.991.051,21.988.082,43.977-.019,65.965-.035,7.726-4.591,11.934-12.366,11.934q-32.984,0-65.968,0c-5.646,0-9.717-2.958-11.129-8.077a17.286,17.286,0,0,1-.522-4.6q0-32.238,0-64.475c0-6.785,2.952-10.952,8.7-12.418a13.266,13.266,0,0,1,3.331-.247q16.491-.012,32.984-.005" transform="translate(-57.523 -88.833)"/>
        <path id="Trazado_192440" data-name="Trazado 192440" d="M107.738,47.69c-.74,2.475-1.279,2.863-4.11,2.87-3.912.011-7.824.046-11.735-.023-1.168-.021-1.46.359-1.455,1.484q.06,14.343,0,28.686c-.006,1.233.374,1.553,1.575,1.552q48.62-.044,97.24.005c1.326,0,1.492-.522,1.488-1.636-.033-9.438-.06-18.876.021-28.313.014-1.583-.573-1.783-1.924-1.777-10.743.046-21.485.026-32.227.026q-19.28,0-38.56,0c-1.795,0-3.567-.057-3.973-2.383a2.689,2.689,0,0,1,1.907-3.093l76.2,0c3.433,0,4.239.789,4.243,4.272q.019,17.045,0,34.091c0,3.474-.813,4.26-4.253,4.261l-105.258,0c-1.75-.556-2.113-2.019-2.117-3.545q-.051-17.748,0-35.5c.011-2.707,1.049-3.735,3.741-3.776,5.141-.077,10.283-.038,15.425-.014,1.915.009,3.387.705,3.779,2.808" transform="translate(-45.178 -23.906)"/>
        <path id="Trazado_192441" data-name="Trazado 192441" d="M159.453,178.776q16.487,0,32.974,0c4.362,0,6.316,1.88,6.318,6.169q.018,33.159,0,66.318c0,4.207-1.971,6.153-6.153,6.153q-33.16.008-66.32,0c-4.163,0-6.13-1.962-6.132-6.175q-.018-33.159,0-66.317c0-4.206,1.969-6.144,6.153-6.146q16.58-.009,33.16,0" transform="translate(-64.031 -95.29)" fill="#fc502d"/>
        <path id="Trazado_192442" data-name="Trazado 192442" d="M201.287,222.093c-.368,10.252-3.754,20.305-11.628,28.46-5.785,5.991-12.738,8.933-21.221,6.781a20.66,20.66,0,0,1-6.391-2.925,2.817,2.817,0,0,1-1.076-3.721,2.772,2.772,0,0,1,3.856-1.045c.891.43,1.719,1,2.62,1.4,6.15,2.772,12.3,1.507,17.815-3.954,10.441-10.349,14.354-29.6,5.654-43.267-4.258-6.69-10.155-10.96-18.44-10.517-7.356.394-12.6,4.534-16.367,10.571-4.936,7.9-5.673,16.507-3.744,25.459a40.138,40.138,0,0,0,3.931,10.393,3.671,3.671,0,0,1,.667,2.818,2.711,2.711,0,0,1-2.358,2.092,2.9,2.9,0,0,1-3-1.763,43.819,43.819,0,0,1-4.8-12.635c-2.169-10.565-1.085-20.671,4.953-29.827,5.438-8.246,12.945-13.209,23.157-12.682,8.767.453,15.253,5.143,20.1,12.176,4.39,6.368,6.256,13.562,6.279,22.186" transform="translate(-77.697 -100.043)"/>
        <path id="Trazado_192443" data-name="Trazado 192443" d="M202.357,231.283a34.877,34.877,0,0,1-9.174,22.363c-3.279,3.527-7.2,5.91-12.316,5.329a15.031,15.031,0,0,1-8.88-4.689c-9.239-9.1-13.783-27.46-5.338-40.708,3.466-5.436,8.129-9.161,14.863-9.6,2.047-.133,3.338.8,3.5,2.485.15,1.616-.778,2.77-2.812,3-7.529.869-11.3,5.974-13.183,12.459-2.893,9.968-.55,19.1,5.841,27.22a12.86,12.86,0,0,0,3.019,2.745c4.024,2.672,7.857,2.1,11.416-2.311,7.494-9.288,9.736-19.574,5.034-30.922A32,32,0,0,0,191.9,214.7c-1.007-1.7-.83-3.171.5-4.115,1.31-.931,2.826-.6,4.065.894,3.634,4.372,5.921,11.441,5.894,19.8" transform="translate(-86.449 -108.717)"/>
        <path id="Trazado_192444" data-name="Trazado 192444" d="M203.494,239.229c-.405,6.7-2.433,13.6-8.147,18.91-3,2.786-5.517,2.763-8.516-.069-5.662-5.346-7.805-12.206-8.055-19.778a2.511,2.511,0,0,1,2.512-2.7,2.675,2.675,0,0,1,2.98,2.664,33.571,33.571,0,0,0,.885,6.067,21.352,21.352,0,0,0,4.815,9.119c.67.717,1.255,1.089,2.131.195,5.467-5.584,8.244-17.736,2.979-24.966a8.659,8.659,0,0,0-1.92-2.01c-1.68-1.2-3.07-1.027-4.81.6-2.215,2.07-3.568,2.35-4.91,1.019-1.413-1.4-1.08-2.923,1.107-5.068,4.588-4.5,10.854-3.69,14.845,1.916a22.664,22.664,0,0,1,4.1,14.107" transform="translate(-95.29 -117.427)"/>
        <path id="Trazado_192445" data-name="Trazado 192445" d="M195.128,248.574a15.076,15.076,0,0,1,2.282-9,2.682,2.682,0,0,1,3.7-1.082,2.632,2.632,0,0,1,1.06,3.822c-2.153,3.8-1.661,7.6-.259,11.448.148.406.345.8.467,1.209a2.765,2.765,0,0,1-1.556,3.673,2.693,2.693,0,0,1-3.62-1.652,22.1,22.1,0,0,1-2.071-8.419" transform="translate(-104.005 -126.934)"/>
      </g>
    </g>
  </g>
</svg>
