<svg xmlns="http://www.w3.org/2000/svg" xmlns:xlink="http://www.w3.org/1999/xlink" width="51.109" height="36.075" viewBox="0 0 51.109 36.075">
  <defs>
    <clipPath id="clip-path">
      <rect id="Rectángulo_85357" data-name="Rectángulo 85357" width="51.109" height="36.075" fill="#0d2380"/>
    </clipPath>
  </defs>
  <g id="Grupo_137500" data-name="Grupo 137500" transform="translate(882.109 6279.5)">
    <g id="Grupo_135290" data-name="Grupo 135290" transform="translate(-882.109 -6279.5)">
      <g id="Grupo_135291" data-name="Grupo 135291" clip-path="url(#clip-path)">
        <path id="Trazado_193061" data-name="Trazado 193061" d="M3.6,14.784v-.612q0-5.712,0-11.424A2.485,2.485,0,0,1,6.318,0Q23.78,0,41.241,0a2.5,2.5,0,0,1,2.734,2.774q0,3.184,0,6.369v.6c.219.011.4.027.575.027,1.634,0,3.268,0,4.9,0,1.12,0,1.653.522,1.654,1.633q0,11.525,0,23.05A1.411,1.411,0,0,1,49.5,36.073q-4.144.008-8.288,0H14.128c-1,0-1.141-.149-1.122-1.146A3.822,3.822,0,0,1,16.878,31.1c1.091-.013,2.182,0,3.3,0V28.5H12.133c0,.885,0,1.757,0,2.629q0,1.667,0,3.334c0,1.225-.38,1.61-1.59,1.611q-4.043,0-8.086,0c-.3,0-.606,0-.91,0C.429,36.069,0,35.637,0,34.5q0-1.491,0-2.982V16.659c0-.152,0-.3,0-.455a1.242,1.242,0,0,1,1.333-1.325c.707-.018,1.414-.015,2.121-.023.03,0,.059-.028.146-.072M42.577,9.77c0-2.371,0-4.661,0-6.952,0-1.066-.354-1.414-1.432-1.414H6.427c-1.073,0-1.419.348-1.419,1.423q0,5.737,0,11.474c0,.178.017.355.029.574h.6c1.7,0,3.4-.007,5.1,0a1.228,1.228,0,0,1,1.391,1.4c.007,1.414,0,2.829,0,4.243v.527h18.8v-.628q0-4.4,0-8.795c0-1.4.454-1.858,1.834-1.859h9.81ZM1.425,31.764H10.7V19.194H1.425Zm30.931,2.869H49.668V11.2H32.355ZM30.906,22.525H12.17v4.488H30.906Zm0,9.977H17.124c-.168,0-.337-.005-.5.008a2.285,2.285,0,0,0-2.133,2.141H30.908ZM1.419,34.653H10.7V33.245H1.419Zm9.3-18.344H1.432v1.406h9.29ZM25.919,28.5H21.655v2.586h4.264Zm4.985,0H27.4V31.07H30.9Z" transform="translate(0 -0.001)" fill="#0d2380"/>
        <path id="Trazado_193062" data-name="Trazado 193062" d="M246.385,99.746q0-4.524,0-9.048c0-.871.2-1.068,1.076-1.068H260.8c.882,0,1.081.195,1.081,1.062q0,9.073,0,18.146c0,.865-.208,1.07-1.076,1.071H247.468c-.875,0-1.082-.2-1.082-1.065q0-4.549,0-9.1m1.424,8.723h12.645v-17.4H247.809Z" transform="translate(-213.117 -77.528)" fill="#0d2380"/>
        <path id="Trazado_193063" data-name="Trazado 193063" d="M299.633,243.5a.606.606,0,0,1,.591.631.654.654,0,0,1-.657.68.672.672,0,0,1-.651-.693.659.659,0,0,1,.717-.617" transform="translate(-258.554 -210.625)" fill="#0d2380"/>
        <path id="Trazado_193064" data-name="Trazado 193064" d="M170.69,178.82a.858.858,0,0,1-.879-.849.859.859,0,0,1,1.717-.038.854.854,0,0,1-.838.887" transform="translate(-146.883 -153.189)" fill="#0d2380"/>
      </g>
    </g>
  </g>
</svg>
