<svg xmlns="http://www.w3.org/2000/svg" xmlns:xlink="http://www.w3.org/1999/xlink" width="304" height="229" viewBox="0 0 304 229">
  <defs>
    <clipPath id="clip-path">
      <rect id="Rectángulo_85132" data-name="Rectángulo 85132" width="193.483" height="190.835" fill="none"/>
    </clipPath>
  </defs>
  <g id="Grupo_137519" data-name="Grupo 137519" transform="translate(-494 -5877)">
    <g id="Image_Place_Holder" data-name="Image Place Holder" transform="translate(494 5893.999)" opacity="0.599">
      <path id="Image_Place_Holder-2" data-name="Image Place Holder" d="M10,0H293.554a10,10,0,0,1,10,10V195.482a10,10,0,0,1-10,10H10a10,10,0,0,1-10-10V10A10,10,0,0,1,10,0Z" transform="translate(0 0)" fill="#0d2380"/>
      <rect id="Rectángulo_85173" data-name="Rectángulo 85173" width="303" height="17" transform="translate(1 -16.999)" fill="#fff"/>
    </g>
    <rect id="Rectángulo_41169" data-name="Rectángulo 41169" width="250" height="11" rx="5" transform="translate(517 6095)" fill="#0d2380"/>
    <g id="Grupo_134907" data-name="Grupo 134907" transform="translate(549 5877)">
      <g id="Grupo_134906" data-name="Grupo 134906" clip-path="url(#clip-path)">
        <path id="Trazado_192446" data-name="Trazado 192446" d="M134.574,43.222c-1.348-2.449-1.2-3.72.741-5.642q16.819-16.614,33.664-33.2c4.214-4.137,9.293-5.436,14.914-3.5S192.673,6.975,193.3,12.8c.488,4.537-1.229,8.355-4.5,11.564q-11.387,11.168-22.711,22.4-21.77,21.48-43.577,42.924c-1.235,1.21-1.085,1.769.062,2.818,2.353,2.152,4.592,4.428,6.829,6.7,6.471,6.576,6.441,15.741-.052,22.318a48.629,48.629,0,0,1-3.889,3.8c-3.37,2.722-5.269,6.4-7.141,10.128-.417.83-.333,1.121.61,1.368a23.821,23.821,0,0,1,12.758,8.135c.68.836,1.278.644,2.11.471,13.121-2.723,25.093,6.893,24.917,19.984-.206,15.255-17.353,24.76-30.655,16.941a2.81,2.81,0,0,0-3.331-.083,25.094,25.094,0,0,1-28.4-2.413c-.24-.194-.484-.383-.9-.711-2.626,4.975-4.994,10.143-11.155,11.695h-3.4a13.132,13.132,0,0,1-7.606-4.057Q38.918,152.871,4.532,119C2.265,116.769.443,114.327,0,111.1V107.37c1.521-4.655,5.142-7.239,9.316-9.362Q34.988,84.95,60.627,71.831a13.426,13.426,0,0,0,3.612-2.616c2-2.06,4.061-4.068,6.128-6.065a15.708,15.708,0,0,1,22.467-.017c2.433,2.338,4.845,4.7,7.194,7.12.8.823,1.257.977,2.144.054,2.642-2.744,5.391-5.388,8.119-8.051,1.935-1.888,3.3-2.04,5.723-.712a3.312,3.312,0,0,1,1.331,4.19,7.183,7.183,0,0,1-1.879,2.751c-2.319,2.273-4.576,4.611-6.961,6.813-1.124,1.038-1.019,1.715.04,2.692,2.02,1.862,3.923,3.847,5.891,5.765,1.392,1.356,1.415,1.352,2.986-.2Q134.9,66.331,152.375,49.1c.8-.789,1.574-1.607,2.408-2.361.887-.8.653-1.443-.1-2.175-2.155-2.085-4.3-4.18-6.4-6.317-.8-.818-1.408-.785-2.187.019-1.477,1.523-2.977,3.028-4.54,4.466a6.166,6.166,0,0,1-3.9,2.068c-1.3.046-2.548-.112-3.079-1.577" transform="translate(0 0)"/>
        <path id="Trazado_192447" data-name="Trazado 192447" d="M239.2,80.3c2.454,1.759,3.975,1.664,6.131-.427,1.885-1.829,3.774-3.656,5.6-5.541.641-.662,1-.614,1.623.023,2.5,2.541,4.992,5.092,7.624,7.494,1.138,1.039.4,1.464-.264,2.114q-13.9,13.692-27.785,27.395c-3.871,3.819-7.731,7.649-11.681,11.558-2.906-2.882-5.713-5.728-8.6-8.49-.727-.7-.509-1.025.072-1.59q4.17-4.054,8.279-8.168c2.137-2.132,2.233-3.633.445-6.047,2.277-2.1,4.8-3.971,6.42-6.681.487-.274.839.064,1.181.293a2.844,2.844,0,0,0,3.768-.116c1.349-1.135,1.611-2.177.951-3.944a2.385,2.385,0,0,1-.333-1.408A50.634,50.634,0,0,0,239.2,80.3" transform="translate(-104.624 -37.078)" fill="#fffbe9"/>
        <path id="Trazado_192448" data-name="Trazado 192448" d="M290.048,219.93A16.48,16.48,0,1,1,306.516,236.1a16.338,16.338,0,0,1-16.468-16.167" transform="translate(-143.559 -102.226)"/>
        <path id="Trazado_192449" data-name="Trazado 192449" d="M344.227,341.758a12.947,12.947,0,1,1,13.117-12.874,13.088,13.088,0,0,1-13.117,12.874" transform="translate(-163.86 -158.573)"/>
        <path id="Trazado_192450" data-name="Trazado 192450" d="M247.282,98.95c2.024,2.763,1.258,5.729-1.672,6.487-1.6.413-2.787-.323-3.894-1.312-1.069-2.2-.957-3.619.388-4.938s2.92-1.4,5.178-.237" transform="translate(-119.28 -49.263)" fill="#010101"/>
        <path id="Trazado_192451" data-name="Trazado 192451" d="M32.009,222.822c4.53-2.316,8.758-4.488,13-6.636a4.619,4.619,0,0,0,2.7-2.688,3.483,3.483,0,0,0-1.153-3.871,3.734,3.734,0,0,0-4.4-.4q-6.282,3.192-12.546,6.417c-3.156,1.62-3.158,1.63-5.654-.849-2.351-2.335-4.76-4.616-7.016-7.038-2.791-3-2.6-4.844.958-6.751,7.338-3.932,14.8-7.648,22.18-11.5.972-.506,1.363.106,1.88.616q8.947,8.824,17.891,17.65,18.089,17.849,36.2,35.681a2.024,2.024,0,0,1,.613,2.68,23.868,23.868,0,0,0,.436,20.351,2.418,2.418,0,0,1-.048,2.545c-1.427,2.473-2.488,5.154-4.213,7.459s-2.953,2.576-5.189.812c-3.694-2.912-6.76-6.489-10.17-9.7-.68-.642-.131-1.114.132-1.618q3.584-6.853,7.188-13.7a4.952,4.952,0,0,0,.853-2.807,3.767,3.767,0,0,0-7.1-1.47c-2.1,3.879-4.118,7.8-6.17,11.706-.986,1.878-.987,1.878-2.529.359-4.765-4.7-9.505-9.415-14.313-14.066-.922-.892-.988-1.394-.023-2.318q5.352-5.123,10.54-10.412c2.3-2.333,1.525-5.7-1.428-6.5a4,4,0,0,0-4.057,1.371c-3.412,3.4-6.891,6.726-10.234,10.187-1.065,1.1-1.62.95-2.617-.047-5.12-5.123-10.318-10.171-15.715-15.468" transform="translate(-7.434 -95.043)" fill="#fff2bf"/>
        <path id="Trazado_192452" data-name="Trazado 192452" d="M205.145,287.891a17.443,17.443,0,0,1,14.708,7.873c2.073,3.025,3.048,3.354,6.58,2.008a12.907,12.907,0,0,1,15.722,5.341,12.484,12.484,0,0,1-2.948,16.274,12.951,12.951,0,0,1-16.473-.279c-2.731-2.318-3.9-2.351-6.743-.19a17.652,17.652,0,0,1-19.967,1.176,17.287,17.287,0,0,1-8.238-17.844,17.547,17.547,0,0,1,14.269-14.083c1.046-.19,2.127-.195,3.092-.277" transform="translate(-92.801 -144.529)" fill="#fc502d"/>
        <path id="Trazado_192453" data-name="Trazado 192453" d="M150.931,132.414a7.6,7.6,0,0,1,5.587,2.3q18.493,18.221,36.945,36.48c3.338,3.318,3.216,7.913-.079,11.327-1.431,1.482-3.025,2.822-4.367,4.375-1,1.156-1.536.842-2.46-.074q-19.1-18.935-38.272-37.8c-2.58-2.546-5.11-5.143-7.766-7.608-1.013-.94-.884-1.454.056-2.294,1.582-1.415,3.022-2.985,4.564-4.447a7.668,7.668,0,0,1,5.792-2.254" transform="translate(-69.2 -66.475)" fill="#a8a8a8"/>
        <path id="Trazado_192454" data-name="Trazado 192454" d="M163.96,215.2l-54-53.184c2.659-1.367,5.324-2.715,7.965-4.108,1.021-.539,1.35.352,1.819.813Q132.39,171.143,145,183.608c7.391,7.291,14.763,14.6,22.2,21.849a1.942,1.942,0,0,1,.433,2.835c-1.318,2.248-2.458,4.6-3.672,6.9" transform="translate(-54.424 -79.187)" fill="#f0f0f0"/>
        <path id="Trazado_192455" data-name="Trazado 192455" d="M141.172,225.975a26.452,26.452,0,0,0-6.124,4.385c-.472.478-.793.44-1.192-.023-.2-.236-.446-.437-.668-.657q-25.572-25.226-51.164-50.432c-1.051-1.033-1.28-1.538.29-2.2a47.931,47.931,0,0,0,5.022-2.551,1.437,1.437,0,0,1,2.075.223q25.6,25.332,51.244,50.615c.172.171.308.378.516.636" transform="translate(-40.183 -87.434)" fill="#7e7e7e"/>
        <path id="Trazado_192456" data-name="Trazado 192456" d="M322.921,49.3c-.272.308-.5.6-.755.852-3.286,3.249-6.593,6.478-9.853,9.753-.624.627-.988.7-1.644.03q-3.811-3.87-7.734-7.633c-.621-.6-.715-.965-.031-1.625,3.368-3.255,6.683-6.564,10.008-9.863.431-.428.762-.776,1.369-.167,2.69,2.7,5.416,5.359,8.125,8.037.169.168.307.367.515.617" transform="translate(-149.687 -20.241)" fill="#dadeec"/>
        <path id="Trazado_192457" data-name="Trazado 192457" d="M345.7,15.07a6.315,6.315,0,0,1,5.652,3.741,6.011,6.011,0,0,1-.908,6.949c-1.511,1.738-3.266,3.267-4.879,4.921-.512.525-.856.522-1.375,0-2.648-2.653-5.327-5.275-8-7.9-.379-.373-.694-.692-.134-1.213,1.921-1.785,3.758-3.66,5.731-5.385A5.745,5.745,0,0,1,345.7,15.07" transform="translate(-166.184 -7.566)" fill="#fffbe9"/>
        <path id="Trazado_192458" data-name="Trazado 192458" d="M313.9,236.158a8.783,8.783,0,1,1-.089-17.565,8.785,8.785,0,1,1,.089,17.565" transform="translate(-150.966 -109.74)" fill="#fc502d"/>
        <path id="Trazado_192459" data-name="Trazado 192459" d="M357.193,336.382a5.582,5.582,0,1,1-5.412-5.551,5.578,5.578,0,0,1,5.412,5.551" transform="translate(-171.268 -166.085)" fill="#fc502d"/>
      </g>
    </g>
  </g>
</svg>
