<svg xmlns="http://www.w3.org/2000/svg" xmlns:xlink="http://www.w3.org/1999/xlink" width="69.745" height="55.459" viewBox="0 0 69.745 55.459">
  <defs>
    <clipPath id="clip-path">
      <rect id="Rectángulo_85139" data-name="Rectángulo 85139" width="69.745" height="55.459" fill="#0d2380"/>
    </clipPath>
  </defs>
  <g id="Grupo_137521" data-name="Grupo 137521" transform="translate(6559 5126)">
    <g id="Grupo_134912" data-name="Grupo 134912" transform="translate(-6559 -5126)">
      <g id="Grupo_134913" data-name="Grupo 134913" clip-path="url(#clip-path)">
        <path id="Trazado_192476" data-name="Trazado 192476" d="M0,38.3a25.318,25.318,0,0,1,.806-2.653,9.238,9.238,0,0,1,6.556-5.523c1.316-.342,2.641-.648,3.967-.947.367-.083.494-.231.523-.629a2.021,2.021,0,0,0-.9-1.987A7.781,7.781,0,0,1,7.743,20.78a42.123,42.123,0,0,1,.049-7.537,8.267,8.267,0,0,1,6.032-7.19A8.646,8.646,0,0,1,22.933,8.2c.115.108.228.217.36.343C25.66,2.609,29.9-.591,36.366.09c5.053.532,8.3,3.627,10.057,8.442L46.9,8.1a8.987,8.987,0,0,1,15.19,6.224c.091,1.811.058,3.632.008,5.446a8.8,8.8,0,0,1-3.731,7.147,2.3,2.3,0,0,0-.423,2.029.839.839,0,0,0,.468.22c1.343.328,2.692.629,4.032.969a9.519,9.519,0,0,1,7.289,9.34c.013,2.883.005,5.765,0,8.648,0,1.279-.485,1.753-1.787,1.754q-4.834,0-9.669,0h-.815c0,1-.042,1.948.011,2.89a2.554,2.554,0,0,1-1.088,2.695H40.182c-.025-.078-.025-.187-.079-.229-.8-.634-1-1.043-.784-1.682.222-.66.729-.947,1.695-.948q2.757,0,5.514,0h.734v-.585c0-1.747-.01-3.494.005-5.242a1.387,1.387,0,0,1,1.325-1.517,1.4,1.4,0,0,1,1.392,1.525c.014.431,0,.862,0,1.293q0,2.235,0,4.472h4.726c0-2.291.14-4.538-.031-6.761a9.249,9.249,0,0,0-6.094-8.447,75.787,75.787,0,0,0-8.126-2.2c-.143.3-.242.5-.332.708q-1.9,4.323-3.8,8.649c-.294.673-.627,1.291-1.482,1.283s-1.176-.64-1.464-1.31c-.545-1.27-1.1-2.533-1.661-3.8-.8-1.821-1.6-3.641-2.426-5.5-2.374.578-4.729,1.056-7.026,1.734a9.444,9.444,0,0,0-7.149,8.2,42.5,42.5,0,0,0-.142,5.365c-.012.7,0,1.391,0,2.09H19.7a1,1,0,0,0,.042-.175q.005-2.621.008-5.241c0-1.223.493-1.893,1.379-1.88s1.345.666,1.345,1.91q0,2.383,0,4.765V52.6h3.782c.771,0,1.544-.024,2.314.015a1.265,1.265,0,0,1,1.258.962,1.3,1.3,0,0,1-.577,1.532,3.216,3.216,0,0,0-.377.351H13.212c-.007-.065.006-.175-.025-.189-.879-.4-.957-1.161-.937-2,.027-1.121.007-2.242.007-3.4h-.835c-3.167,0-6.334-.019-9.5.013A1.928,1.928,0,0,1,0,48.921V38.3M25.732,15.84a40.765,40.765,0,0,0,.026,4.488,9.171,9.171,0,0,0,8.16,7.884,9.307,9.307,0,0,0,9.809-6.464c.62-2.049.342-4.142.388-6.22,0-.162-.206-.386-.373-.487-1.535-.922-3.089-1.811-4.62-2.739a.623.623,0,0,0-.881.108,12.841,12.841,0,0,1-9.053,3.431c-1.154-.008-2.309,0-3.456,0m-.093-2.725c1.152,0,2.257-.016,3.361,0a10.334,10.334,0,0,0,8.17-3.475,1.486,1.486,0,0,1,2.225-.328c1.37.8,2.733,1.607,4.1,2.41.185.108.375.207.667.368-.144-3.731-1.676-6.531-4.837-8.255a8.767,8.767,0,0,0-9.7.507c-3.021,2.075-4.194,5.088-3.983,8.769m31.9,18.533c-.925,2.21-1.766,4.263-2.648,6.3a1.091,1.091,0,0,0,.146,1.106,20.14,20.14,0,0,1,1.765,3.57,36.51,36.51,0,0,1,.851,4.491h3.91c0-1.936-.006-3.837,0-5.737,0-1.014.516-1.608,1.354-1.611s1.359.59,1.365,1.6c.01,1.7,0,3.4,0,5.1v.647h2.667a1.073,1.073,0,0,0,.052-.218c0-2.563.061-5.128-.019-7.689a6.116,6.116,0,0,0-3.639-5.778,48.024,48.024,0,0,0-5.809-1.782M12.2,47.122a1.086,1.086,0,0,0,.047-.2,13.017,13.017,0,0,1,2.564-8.145.975.975,0,0,0,.01-.791c-.718-1.785-1.469-3.557-2.213-5.332-.128-.3-.271-.6-.4-.9-1.411.335-2.757.639-4.1.974a6.77,6.77,0,0,0-5.382,6.85c-.012,2.336,0,4.671,0,7.007,0,.173.027.346.041.507H5.448v-.932c0-1.655-.015-3.311.009-4.966a1.356,1.356,0,1,1,2.708,0c.026.974.007,1.95.008,2.925,0,.99,0,1.98,0,3Zm47.144-29.4c-4.287.15-8.5.072-12.378-1.966A38.9,38.9,0,0,0,47,20.593a5.761,5.761,0,0,0,4.374,5.02,5.951,5.951,0,0,0,6.332-1.739c1.639-1.7,1.817-3.819,1.636-6.148m-48.962,0c-.1,1.868-.1,3.607.9,5.162a5.98,5.98,0,0,0,5.8,2.964,5.947,5.947,0,0,0,5.4-4.127c.711-1.905.289-3.9.424-6.033-4,2.1-8.208,2.188-12.522,2.034m.018-2.741c4.782.453,10.033-.522,12.178-2.248A6.231,6.231,0,0,0,10.4,14.984m48.935,0a6.234,6.234,0,0,0-5.125-6.57A6.133,6.133,0,0,0,47.19,12.8c3.744,2.331,7.9,2.379,12.146,2.189M31.383,30.6a12,12,0,0,0,.306,3.116c.85,2.288,1.926,4.491,2.914,6.727.066.15.161.288.3.526.937-2.131,1.745-4.2,2.745-6.169a8.111,8.111,0,0,0,.6-4.189,31.184,31.184,0,0,1-3.313.333c-1.122,0-2.245-.208-3.548-.344m-2.723.642c.225-1.2.216-2.219-1.058-2.759a1.744,1.744,0,0,1-.575-.472c-.981-1.114-1.95-2.239-2.85-3.275-.793.729-1.689,1.544-2.569,2.375a.742.742,0,0,0-.21.456c-.027.473-.01.948-.01,1.436,2.443.752,5.016.945,7.272,2.239M45.5,24.685A24.816,24.816,0,0,1,43.665,27.1a30.678,30.678,0,0,1-2.431,2.057.62.62,0,0,0-.226.378c-.025.551-.011,1.1-.011,1.774,2.347-1.374,4.93-1.541,7.355-2.309,0-.457.024-.889-.011-1.316a.962.962,0,0,0-.232-.58c-.861-.825-1.747-1.624-2.607-2.415M16.528,34.97l.216.033c.561-2.2,2.281-4.05,1.893-6.469H14.531a7.144,7.144,0,0,0,.15,1.929c.54,1.529,1.222,3.008,1.847,4.507m36.514.022.21-.005c.564-2.187,2.256-4.036,1.908-6.452H51.1a5.539,5.539,0,0,0,.031,1.781c.562,1.586,1.265,3.121,1.912,4.677m-9.359-2.015.015.148,6.3,1.65L48.727,31.74l-5.044,1.238m-17.663.143.044-.142L21,31.741l-1.249,3.011,6.271-1.631" transform="translate(0 0)" fill="#0d2380"/>
        <path id="Trazado_192477" data-name="Trazado 192477" d="M197.318,311.315a6.016,6.016,0,0,0-.445-.434,1.342,1.342,0,1,1,1.817-1.958,1.344,1.344,0,0,1-.2,1.969c-.17.131-.327.281-.489.423Z" transform="translate(-162.857 -255.856)" fill="#0d2380"/>
      </g>
    </g>
  </g>
</svg>
