<svg xmlns="http://www.w3.org/2000/svg" xmlns:xlink="http://www.w3.org/1999/xlink" width="93.138" height="72.829" viewBox="0 0 93.138 72.829">
  <defs>
    <clipPath id="clip-path">
      <rect id="Rectángulo_85141" data-name="Rectángulo 85141" width="93.138" height="72.829" fill="#0d2380"/>
    </clipPath>
  </defs>
  <g id="Grupo_137522" data-name="Grupo 137522" transform="translate(6742 4933.915)">
    <g id="Grupo_134914" data-name="Grupo 134914" transform="translate(-6742 -4933.915)">
      <g id="Grupo_134915" data-name="Grupo 134915" clip-path="url(#clip-path)">
        <path id="Trazado_192478" data-name="Trazado 192478" d="M0,26.606a13.094,13.094,0,0,1,.958-2.039,5.146,5.146,0,0,1,4.583-2.109q12.824.016,25.648,0h1.225v-1.1c0-5.306-.01-10.612,0-15.918A5.007,5.007,0,0,1,36.369.169,5.9,5.9,0,0,1,37.631.044q5.093-.014,10.186,0a2.642,2.642,0,0,1,.808.083,1.366,1.366,0,0,1,1.04,1.512A1.3,1.3,0,0,1,48.4,2.953c-1,.068-2,.041-3,.043-2.456,0-4.911,0-7.367,0-1.877,0-2.606.717-2.611,2.556q-.011,3.866,0,7.732c0,.266.028.533.045.851H90.121c.018-.33.049-.624.049-.917q.006-3.775,0-7.55c0-1.956-.728-2.672-2.7-2.672q-16.189,0-32.379,0A8.24,8.24,0,0,1,54,2.96a1.334,1.334,0,0,1-1.262-1.318A1.356,1.356,0,0,1,53.857.106,4.371,4.371,0,0,1,54.941.041C65.522.038,76.1.1,86.683,0c3.153-.03,5.427.9,6.454,4.046V46.255c-1.411,3.391-2.549,4.143-6.264,4.144H60.723v1.174q0,7.819,0,15.637c0,3.612-2.015,5.612-5.638,5.613q-12.181,0-24.362,0-12.681,0-25.362.007A5.046,5.046,0,0,1,.9,70.664a13.06,13.06,0,0,1-.9-1.85V26.606M2.965,39.642v.975q0,13.279,0,26.558c0,1.963.726,2.688,2.685,2.688q24.691,0,49.381,0c1.983,0,2.678-.694,2.678-2.672q0-13.279,0-26.558c0-.32-.029-.64-.046-.987H53.755v1.2q0,11.46,0,22.92c0,1.633-.49,2.115-2.117,2.115q-21.28,0-42.561,0c-1.637,0-2.133-.49-2.136-2.106q-.008-4.457,0-8.913a3.731,3.731,0,0,1,.129-1.074A1.33,1.33,0,0,1,8.52,52.8a1.321,1.321,0,0,1,1.309,1.059,4.485,4.485,0,0,1,.11,1.079c.009,2.3,0,4.608.007,6.912,0,.322.026.644.041.98H50.723V39.672H9.943v1.066q0,3.365,0,6.73c0,.212.008.425,0,.636-.065,1.073-.631,1.724-1.495,1.726a1.539,1.539,0,0,1-1.5-1.718c-.026-2.213-.009-4.426-.01-6.639V39.642ZM86.2,17.19v1.139q0,11.37,0,22.741a6.5,6.5,0,0,1-.038,1,1.378,1.378,0,0,1-1.378,1.322c-1.969.037-3.939.05-5.908,0A1.364,1.364,0,0,1,77.48,42a1.454,1.454,0,0,1,1.371-1.527,7.533,7.533,0,0,1,1-.026c1.083,0,2.166,0,3.276,0V17.205H42.43v5.257h1.041q5.776,0,11.551,0c3.66,0,5.7,2.028,5.7,5.674q.005,5.64,0,11.279v1.03h1.108c3.517,0,7.034,0,10.55.007a3.468,3.468,0,0,1,1.158.16,1.443,1.443,0,0,1-.19,2.728,5.147,5.147,0,0,1-1.173.093q-5.139.01-10.278,0h-1.12v3.951h1.032q12.824,0,25.648,0c2.054,0,2.713-.659,2.714-2.717q0-13.235,0-26.47V17.19ZM3,36.567H57.712V35.539q0-3.637,0-7.274c0-2.194-.6-2.791-2.817-2.791H5.8c-.3,0-.607-.006-.908.02a1.877,1.877,0,0,0-1.85,1.671.994.994,0,0,0-.039.177c0,3.054,0,6.107,0,9.225m32.48-19.414V22.4H39.32V17.2c-.2-.019-.349-.044-.5-.044-1.083,0-2.167,0-3.341,0" transform="translate(0 0)" fill="#0d2380"/>
        <path id="Trazado_192479" data-name="Trazado 192479" d="M323.08,30.708a2.959,2.959,0,1,1,3-2.982,2.969,2.969,0,0,1-3,2.982" transform="translate(-247.325 -19.154)" fill="#0d2380"/>
        <path id="Trazado_192480" data-name="Trazado 192480" d="M286.158,24.791a2.958,2.958,0,1,1-.064,5.915,2.958,2.958,0,1,1,.064-5.915" transform="translate(-218.773 -19.153)" fill="#0d2380"/>
        <path id="Trazado_192481" data-name="Trazado 192481" d="M363.183,27.727a2.961,2.961,0,1,1-2.944-2.928,2.919,2.919,0,0,1,2.944,2.928" transform="translate(-276.025 -19.161)" fill="#0d2380"/>
        <path id="Trazado_192482" data-name="Trazado 192482" d="M220.486,126.413a2.984,2.984,0,1,1-3-3.005,2.992,2.992,0,0,1,3,3.005" transform="translate(-165.739 -95.347)" fill="#0d2380"/>
        <path id="Trazado_192483" data-name="Trazado 192483" d="M180.58,123.408a2.983,2.983,0,1,1-.081,5.966,2.983,2.983,0,0,1,.081-5.966" transform="translate(-137.197 -95.347)" fill="#0d2380"/>
        <path id="Trazado_192484" data-name="Trazado 192484" d="M146.474,126.38a2.958,2.958,0,1,1-2.922-2.965,2.975,2.975,0,0,1,2.922,2.965" transform="translate(-108.596 -95.351)" fill="#0d2380"/>
      </g>
    </g>
  </g>
</svg>
