<svg xmlns="http://www.w3.org/2000/svg" xmlns:xlink="http://www.w3.org/1999/xlink" width="85" height="88.178" viewBox="0 0 85 88.178">
  <defs>
    <clipPath id="clip-path">
      <path id="Trazado_192595" data-name="Trazado 192595" d="M-9,0H76V88.177H-9Z" fill="none"/>
    </clipPath>
  </defs>
  <g id="Grupo_137499" data-name="Grupo 137499" transform="translate(5372.601 11249.178)">
    <g id="Grupo_137495" data-name="Grupo 137495" transform="translate(-5657.601 -11936.178)">
      <g id="Grupo_134932" data-name="Grupo 134932">
        <g id="Grupo_134931" data-name="Grupo 134931" transform="translate(294 687)">
          <g id="Enmascarar_grupo_131" data-name="Enmascarar grupo 131" clip-path="url(#clip-path)">
            <path id="Trazado_192579" data-name="Trazado 192579" d="M-9,88.177c-.519-.456-1.05-.9-.735-1.72.308-.8,1.138-.85,1.863-.846,1.75.011,13.161-.043,14.911,0,.574.013.705-.156.689-.711C7.506,77.61,7.313,70.322,7.1,63.035a15.158,15.158,0,0,1,.507-5.786,9.748,9.748,0,0,1,5.487-5.722c1.987-.882,3.969-1.774,5.965-2.633a5.739,5.739,0,0,0,1.923-1.346,2.91,2.91,0,0,0-1.233-.5,65.6,65.6,0,0,1-7.654-3.027,1.384,1.384,0,0,1-.848-2.072A41.28,41.28,0,0,0,13.568,30.36c.295-3.5.2-7,.2-10.5A19.124,19.124,0,0,1,19.1,6.028,18.347,18.347,0,0,1,35.967.277c7.539,1.228,12.594,5.659,15.266,12.794a19.317,19.317,0,0,1,1.045,6.679,118.362,118.362,0,0,0,.363,12.3,39.281,39.281,0,0,0,2.126,9.794c.461,1.2.248,1.68-.933,2.236a70.7,70.7,0,0,1-8.806,3.383,3.915,3.915,0,0,0,1.434,1.115q3.3,1.451,6.587,2.923a9.694,9.694,0,0,1,6.115,9.739c-.218,7.833-.428,15.666-.677,23.5-.024.738.173.9.877.874,1.634-.056,12.682-.01,14.318-.022.725,0,1.385.069,1.693.868.315.817-.217,1.264-.735,1.719Z" transform="translate(0 0)"/>
            <path id="Trazado_192580" data-name="Trazado 192580" d="M88.226,293.618q7.833,0,15.667,0c1.714,0,2.2.545,2.1,2.226-.339,5.815-.656,11.631-.985,17.447a12.567,12.567,0,0,1-.132,1.366,1.391,1.391,0,0,1-1.371,1.2,6.089,6.089,0,0,1-.688.012H73.461c-1.627,0-2.084-.443-2.174-2.062q-.5-9.068-1.01-18.135c-.083-1.462.456-2.051,1.937-2.052q8.006-.006,16.012,0" transform="translate(-55.11 -230.275)" fill="#dad8db"/>
            <path id="Trazado_192581" data-name="Trazado 192581" d="M98.708,16.855a15.29,15.29,0,0,1,9.2-4.589,16.624,16.624,0,0,1,18.643,12.982,17.986,17.986,0,0,1,.4,3.75c.027,2.324-.012,4.649.024,6.973a49.609,49.609,0,0,0,2.055,14.563c.244.76.153,1.121-.678,1.449-2.585,1.02-5.168,2.035-7.842,2.8a1.63,1.63,0,0,1-2.013-1.45,3.724,3.724,0,0,1,1.6-3.6,13.712,13.712,0,0,0,5.129-10.219c.187-3.4-1.6-5.871-5.032-7.3-3.049-1.272-6.272-2-9.372-3.105a24.572,24.572,0,0,1-8.881-5.092c-.554-.524-1.167-.964-2-.569a.734.734,0,0,1-.437-.5,15.424,15.424,0,0,1-1.017-5.189,2.3,2.3,0,0,1,.223-.909" transform="translate(-77.239 -9.493)" fill="#5c414b"/>
            <path id="Trazado_192582" data-name="Trazado 192582" d="M113.08,84.79c4.585,3.171,9.925,4.486,15.122,6.151a14.663,14.663,0,0,1,2.608,1.1,4.432,4.432,0,0,1,2.515,4.833,12.3,12.3,0,0,1-9.866,10.773,9.36,9.36,0,0,1-3.158.183,11.1,11.1,0,0,1-5.064-4.094,13.654,13.654,0,0,1-2.753-8.595c.02-1.69.032-3.381-.011-5.071-.016-.631.3-1.233.107-1.866l-.415-.682a4.8,4.8,0,0,1,.916-2.726" transform="translate(-87.961 -66.498)" fill="#efbf86"/>
            <path id="Trazado_192583" data-name="Trazado 192583" d="M78.768,247.406c-5.076,0-10.152-.009-15.229.013a1.433,1.433,0,0,1-1.288-.623c-1.223-1.591-2.483-3.154-3.758-4.7-.345-.419-.434-.7.127-.955,2.239-1.017,4.481-2.028,6.713-3.061.464-.215.476.173.585.384.577,1.119,1.122,2.254,1.7,3.375,1.39,2.713,4.057,3.329,6.52,1.517.461-.34.921-.939,1.388-.945.523-.007.681.818,1.039,1.25a2.671,2.671,0,0,0,4.347-.129c.922-1.218.922-1.218,2.181-.281,1.83,1.361,3.523,1.5,5.158.431a4.422,4.422,0,0,0,1.508-1.832c.575-1.152,1.154-2.3,1.724-3.456.15-.3.262-.526.7-.323,2.178,1.013,4.371,1.994,6.562,2.979.589.265.751.521.253,1.109-1.3,1.53-2.539,3.109-3.764,4.7a1.363,1.363,0,0,1-1.234.564c-5.076-.018-10.152-.011-15.229-.011" transform="translate(-45.657 -186.646)" fill="#fedb64"/>
            <path id="Trazado_192584" data-name="Trazado 192584" d="M244.388,263.5a6.872,6.872,0,0,1,1.035,3.979q-.275,10.143-.578,20.286c-.037,1.289-.084,2.579-.082,3.869,0,.488-.146.641-.634.624-1.028-.035-2.058-.011-3.069-.011.4-2.864.4-5.7.588-8.527.253-3.832.427-7.669.66-11.5a4.365,4.365,0,0,0-1.318-3.742c-.293-.266-.249-.434-.032-.7,1.133-1.4,2.253-2.805,3.43-4.275" transform="translate(-188.838 -206.658)" fill="#feef81"/>
            <path id="Trazado_192585" data-name="Trazado 192585" d="M48.819,292.8c-.979,0-1.952-.027-2.923.011-.493.019-.616-.14-.627-.623-.092-3.985-.214-7.97-.326-11.954s-.221-7.969-.338-11.954a7.891,7.891,0,0,1,.741-3.752c.2-.418.354-.423.637-.061q1.51,1.93,3.062,3.827c.25.305.167.462-.1.688a4.1,4.1,0,0,0-1.39,3.541q.51,9.276,1.037,18.551c.032.561.143,1.117.225,1.726" transform="translate(-34.977 -207.211)" fill="#feef81"/>
            <path id="Trazado_192586" data-name="Trazado 192586" d="M84.02,100.588c.247.27.139.6.141.9.009,2.149-.023,4.3.011,6.447a13.565,13.565,0,0,0,3.46,8.981,21.088,21.088,0,0,0,4.109,3.293,12.416,12.416,0,0,1-11.547-9.9,2.79,2.79,0,0,0-2.865-2.449,1.474,1.474,0,0,1-1.486-1.283,3.82,3.82,0,0,1,.028-1.873,1.405,1.405,0,0,1,2.356-.746c1.5,1.235,2.083,1.232,3.549-.045a10.848,10.848,0,0,0,1.781-1.976,2.171,2.171,0,0,0,.462-1.35" transform="translate(-59.401 -78.888)" fill="#e5ae78"/>
            <path id="Trazado_192587" data-name="Trazado 192587" d="M76.1,156.918c0,.485,0,.743,0,1a1.622,1.622,0,0,1-1.93,1.367,75.632,75.632,0,0,1-8.236-2.962c-.459-.187-.6-.4-.435-.906a41.466,41.466,0,0,0,1.809-9.493c.045-.532.2-.619.794-.588,1.2.064,1.519.661,1.8,1.728a13.634,13.634,0,0,0,5.268,7.727,2.041,2.041,0,0,1,.927,2.126" transform="translate(-51.313 -113.978)" fill="#503441"/>
            <path id="Trazado_192588" data-name="Trazado 192588" d="M84.4,45.057a17.391,17.391,0,0,1-.916,2.726c-.978-.555-1.4-.464-2.095.45-.156.2-.312.409-.466.615-.74.986-.818,1.008-1.936.478A3.946,3.946,0,0,0,76.166,49c-.43.12-.537.011-.554-.423-.186-4.671.614-9.059,3.6-12.839a11.7,11.7,0,0,1,1.537-1.61,16.626,16.626,0,0,0,1.231,6.594c-.854,1.019-.778,1.682.26,2.523.73.591,1.44,1.208,2.158,1.813" transform="translate(-59.28 -26.765)" fill="#503441"/>
            <path id="Trazado_192589" data-name="Trazado 192589" d="M138.172,214.322c-1.509,2.156-3.031,4.3-4.523,6.473-1.03,1.5-.991,1.5-2.021,0-1.491-2.169-3.014-4.316-4.523-6.473-.216-1.9-.211-1.919,1.593-1.476a16.3,16.3,0,0,0,7.964-.02c1.66-.414,1.665-.4,1.56,1.333a.6.6,0,0,1-.05.163" transform="translate(-99.61 -166.738)" fill="#e5ae77"/>
            <path id="Trazado_192590" data-name="Trazado 192590" d="M138.076,203.956c-.1-1.594-.1-1.605-1.648-1.206a16.337,16.337,0,0,1-8.19-.079c-1.171-.294-1.171-.293-1.2.857,0,.143-.021.285-.032.428a29.708,29.708,0,0,1-.085-4.187c-.02-.582.379-.354.652-.256a15.1,15.1,0,0,0,6.086.792,13.144,13.144,0,0,0,3.767-.778c.561-.206.792-.148.747.5a32.98,32.98,0,0,1-.1,3.928" transform="translate(-99.513 -156.372)" fill="#d19a6d"/>
            <path id="Trazado_192591" data-name="Trazado 192591" d="M107.224,230.621a1.6,1.6,0,0,1-1.72-.927c-.65-1.268-1.276-2.548-1.928-3.815a.529.529,0,0,1,.127-.733c1.85-1.844,1.843-1.85,3.322.209.766,1.067,1.525,2.139,2.309,3.192.234.314.271.52-.1.745-.765.467-1.344,1.256-2.013,1.328" transform="translate(-81.158 -175.509)" fill="#feef81"/>
            <path id="Trazado_192592" data-name="Trazado 192592" d="M176.912,229.94c-.818-.132-1.5-.96-2.314-1.556-.228-.167.046-.358.148-.5,1.11-1.558,2.238-3.1,3.341-4.666.231-.327.419-.438.708-.1a.463.463,0,0,0,.065.056c1.882,1.53,1.882,1.53.8,3.684-.357.713-.71,1.429-1.08,2.136a1.594,1.594,0,0,1-1.67.944" transform="translate(-136.863 -174.823)" fill="#feef81"/>
            <path id="Trazado_192593" data-name="Trazado 192593" d="M135.928,326.449a4.735,4.735,0,1,1-4.757,4.744,4.73,4.73,0,0,1,4.757-4.744" transform="translate(-102.874 -256.023)"/>
            <path id="Trazado_192594" data-name="Trazado 192594" d="M145.25,338.419a2.177,2.177,0,0,1,2.181,2.082,2.147,2.147,0,1,1-4.292.077,2.191,2.191,0,0,1,2.111-2.159" transform="translate(-112.259 -265.411)" fill="#fefefe"/>
          </g>
        </g>
      </g>
    </g>
  </g>
</svg>
