<svg xmlns="http://www.w3.org/2000/svg" xmlns:xlink="http://www.w3.org/1999/xlink" width="85" height="84.988" viewBox="0 0 85 84.988">
  <defs>
    <clipPath id="clip-path">
      <rect id="Rectángulo_85112" data-name="Rectángulo 85112" width="85" height="84.988" fill="none"/>
    </clipPath>
  </defs>
  <g id="Grupo_137517" data-name="Grupo 137517" transform="translate(-180 -4843)">
    <g id="Grupo_134870" data-name="Grupo 134870" transform="translate(180 4843)">
      <g id="Grupo_134869" data-name="Grupo 134869" clip-path="url(#clip-path)">
        <path id="Trazado_192280" data-name="Trazado 192280" d="M69.133,103.572H2.155A2.262,2.262,0,0,1,0,101.417V31.783a2.7,2.7,0,0,1,3.021-2.394c1.787-.024,3.575-.016,5.363,0,6.435-.051,12.87-.023,19.3-.014a3.143,3.143,0,0,1,2.953,1.789,20.341,20.341,0,0,1,1.1,2.225,2.1,2.1,0,0,0,2.33,1.475c5.5-.065,10.992-.028,16.488-.028q5.468,0,10.937,0c1.193,0,1.228-.036,1.23-1.187,0-1.8.012-3.591,0-5.386-.008-.91-.1-.989-1-1.016-.3-.009-.608,0-.911,0q-25.478,0-50.956,0a2.691,2.691,0,0,1-1.614-.222,4.452,4.452,0,0,1-.153-2.5c.047-.474.451-.582.856-.6a17.381,17.381,0,0,1,1.973,0c.524-.038,1.048-.02,1.573-.02H61.623c.359,0,.718.005,1.077,0a2.9,2.9,0,0,1,3.183,3.2c0,2.264,0,4.529,0,6.794,0,.916.067.968,1,.982.525.008,1.05-.022,1.574.019a2.906,2.906,0,0,1,2.89,3.082c.01,2.458.026,4.916-.011,7.373a1.35,1.35,0,0,0,1,1.468,15.2,15.2,0,0,1,9.868,12.119,8.573,8.573,0,0,1,.084,1.486c0,3.038.009,6.076-.006,9.114a3.915,3.915,0,0,0,.453,1.907A21.152,21.152,0,0,1,84.4,75.311a18.386,18.386,0,0,1,.507,6.73c-.514,6.5-3.983,11.066-9.5,14.232a13.252,13.252,0,0,1-3.224,1.288.965.965,0,0,0-.83,1.123c.032.689.014,1.381,0,2.071a2.585,2.585,0,0,1-2.221,2.818" transform="translate(0 -18.584)"/>
        <path id="Trazado_192281" data-name="Trazado 192281" d="M65.034,148.476a15.784,15.784,0,0,0-3.462,10.889c.088,2.594.009,5.193.024,7.79a2.212,2.212,0,0,1-.319,1.166,17.771,17.771,0,0,0,12.64,26.512,14.168,14.168,0,0,0,3.551.176c.454-.041.543.11.555.536.064,2.223.077,2.223-2.122,2.223q-31.285,0-62.569.022c-.9,0-1.058-.264-1.057-1.093q.037-23.62,0-47.24c0-.781.161-1,.98-1q25.4.041,50.8.021Z" transform="translate(-9.552 -115.527)" fill="#e5e8ec"/>
        <path id="Trazado_192282" data-name="Trazado 192282" d="M25.011,62.213c3.923,0,7.846.012,11.769-.013a.981.981,0,0,1,1.066.661c.461,1.031,1.019,2.019,1.5,3.042a2.924,2.924,0,0,0,2.911,1.784c1.8-.012,3.591,0,5.387,0q14.753,0,29.505-.015c.694,0,.948.12.927.889-.061,2.236-.033,4.475-.012,6.713,0,.482-.079.665-.633.641a14.726,14.726,0,0,0-8.947,2.439,1.74,1.74,0,0,1-1.005.294q-27.185-.009-54.37.008c-.634,0-.783-.189-.781-.8q.034-7.459,0-14.919c0-.588.174-.739.747-.736,3.978.023,7.956.012,11.935.012" transform="translate(-9.594 -48.403)" fill="#fc502d"/>
        <path id="Trazado_192283" data-name="Trazado 192283" d="M37.359,40.126l.021-2.669c.275-.01.551-.028.826-.028q26.428,0,52.855-.023c.854,0,1.042.222,1.019,1.041-.062,2.18-.037,4.363-.009,6.544.006.5-.1.652-.631.651q-14.746-.026-29.493,0a.768.768,0,0,1-.809-.518c-.5-1.071-1.059-2.119-1.574-3.185a2.948,2.948,0,0,0-2.906-1.786c-6.13.016-12.261.008-18.391.006-.3,0-.606-.02-.909-.031" transform="translate(-29.073 -29.108)" fill="#e5e8ec"/>
        <path id="Trazado_192284" data-name="Trazado 192284" d="M264.711,225.493a15.048,15.048,0,1,1-14.94-15.091,15.053,15.053,0,0,1,14.94,15.091" transform="translate(-182.576 -163.734)" fill="#fbd670"/>
        <path id="Trazado_192285" data-name="Trazado 192285" d="M104.008,12.11q0,2.284,0,4.567a3.219,3.219,0,0,0-3.263-1.887q-25.261.042-50.521.016c-.3,0-.606-.016-.909-.025q0-1.392.009-2.785a1.733,1.733,0,0,1,.892-.115q26.092.01,52.184.008a2.614,2.614,0,0,1,1.61.22" transform="translate(-38.375 -9.236)" fill="#efcfb3"/>
        <path id="Trazado_192286" data-name="Trazado 192286" d="M271.406,154.878a20.12,20.12,0,0,0-2.427-1.9c-.349-.211-.349-.519-.348-.858,0-1.271.029-2.543-.012-3.812a9.564,9.564,0,0,0-18.86-2.022,23.2,23.2,0,0,0-.255,5.528,1.448,1.448,0,0,1-.717,1.417,25.122,25.122,0,0,0-2.093,1.623c.215-3.695-.48-7.3.874-10.759a12.3,12.3,0,0,1,23.68,2.84c.34,2.578.052,5.178.158,7.945" transform="translate(-191.975 -105.999)" fill="#a9b1bc"/>
        <path id="Trazado_192287" data-name="Trazado 192287" d="M285.183,168.88c-.073.442.27,1.2-.139,1.506-.256.192-.991-.262-1.514-.418a17.261,17.261,0,0,0-11.279.327c-.757.283-.806.044-.78-.59a16.4,16.4,0,0,1,.237-3.54,6.838,6.838,0,0,1,13.474,1.52c.01.359,0,.718,0,1.2" transform="translate(-211.253 -125.274)" fill="#fefefe"/>
        <path id="Trazado_192288" data-name="Trazado 192288" d="M103.66,2.874c-.331-.01-.662-.029-.992-.029q-26.316,0-52.632-.005a2.4,2.4,0,0,1-1.062-.079c.051-.871-.369-2.038.171-2.529C49.618-.2,50.768.1,51.62.1Q77.2.1,102.785.08c.81,0,1.066.2.958.986a12.258,12.258,0,0,1-.082,1.808" transform="translate(-38.027 0)" fill="#010000"/>
        <path id="Trazado_192289" data-name="Trazado 192289" d="M111.368,200.546h-.888c-6.932,0-13.864-.014-20.8.02-.765,0-.859-.216-.687-.87.5-1.91.566-3.94,1.55-5.72.178-.321-.052-.442-.234-.605a11.463,11.463,0,0,1-3.907-9.2c.057-3.12,0-6.242.014-9.362a13.636,13.636,0,0,1,11.768-13.819c7.35-1.215,14.835,4.475,15.458,11.9a91.126,91.126,0,0,1,.02,13.241,10.312,10.312,0,0,1-3.654,7.107.74.74,0,0,0-.2,1.078c.934,1.938,1.012,4.1,1.559,6.228" transform="translate(-67.238 -125.153)"/>
        <path id="Trazado_192290" data-name="Trazado 192290" d="M31.5,321.346c2.044,0,4.088.016,6.131-.011.529-.007.71.122.713.686.009,2.08.031,2.08-2.024,2.08-3.673,0-7.346-.01-11.019.012-.523,0-.7-.11-.694-.67.006-2.1-.017-2.1,2.088-2.1H31.5" transform="translate(-19.148 -250.06)" fill="#010101"/>
        <path id="Trazado_192291" data-name="Trazado 192291" d="M53.359,299.409c-1.187,0-2.374-.016-3.561.009-.419.009-.558-.094-.571-.543-.068-2.225-.083-2.225,2.124-2.225,1.822,0,3.644.015,5.466-.01.491-.007.663.116.671.641.033,2.128.052,2.128-2.058,2.128h-2.07" transform="translate(-38.293 -230.843)" fill="#010101"/>
        <path id="Trazado_192292" data-name="Trazado 192292" d="M27.16,348.815c-.221,0-.442.013-.662,0-.651-.046-1.638.294-1.876-.13-.331-.591-.106-1.489-.133-2.256-.014-.385.238-.362.494-.362,1.489,0,2.978.011,4.467-.007.387,0,.508.105.528.509.112,2.248.125,2.248-2.074,2.248H27.16" transform="translate(-19.019 -269.3)" fill="#010101"/>
        <path id="Trazado_192293" data-name="Trazado 192293" d="M64.361,348.82c-.718,0-1.438-.022-2.155.008-.418.018-.558-.092-.572-.541-.071-2.217-.087-2.217,2.15-2.217.939,0,1.879.012,2.818-.006.386-.007.511.123.536.521.137,2.235.149,2.235-2.031,2.235h-.746" transform="translate(-47.947 -269.305)" fill="#010101"/>
        <path id="Trazado_192294" data-name="Trazado 192294" d="M27.422,298.025c0,1.417,0,1.417-1.423,1.417-1.328,0-1.328,0-1.328-1.33,0-1.431,0-1.431,1.4-1.431,1.346,0,1.346,0,1.346,1.345" transform="translate(-19.199 -230.874)" fill="#030303"/>
        <path id="Trazado_192295" data-name="Trazado 192295" d="M39.778,89.529c0,.69-.041,1.383.012,2.069.047.608-.194.724-.751.72-1.982-.012-1.983.009-1.982-1.979,0-.966.019-1.932-.008-2.9-.013-.454.117-.612.6-.627,2.132-.067,2.131-.084,2.131,2.052v.662" transform="translate(-28.83 -67.543)"/>
        <path id="Trazado_192296" data-name="Trazado 192296" d="M61.754,89.513c0-.717.022-1.435-.008-2.151-.018-.445.159-.545.576-.561,2.149-.085,2.149-.1,2.149,2.031,0,.966-.018,1.931.008,2.9.011.429-.13.554-.562.571-2.164.086-2.163.1-2.163-2.041q0-.372,0-.745" transform="translate(-48.05 -67.526)"/>
        <path id="Trazado_192297" data-name="Trazado 192297" d="M89.158,89.572c0,.745-.017,1.49.007,2.234.012.394-.127.506-.52.529-2.2.128-2.2.139-2.2-2.082,0-.938.023-1.876-.009-2.813-.017-.48.162-.592.618-.6,2.106-.056,2.106-.07,2.106,1.992q0,.372,0,.745" transform="translate(-67.263 -67.563)"/>
        <path id="Trazado_192298" data-name="Trazado 192298" d="M271.5,234.929a12.328,12.328,0,1,1-12.337-12.321A12.358,12.358,0,0,1,271.5,234.929" transform="translate(-192.091 -173.232)"/>
        <path id="Trazado_192299" data-name="Trazado 192299" d="M106.176,182.053c-.561.124-1.128.232-1.687.375a3.926,3.926,0,0,0-3.068,3.833,33.317,33.317,0,0,0,.191,6.609,7.757,7.757,0,0,0,2.664,4.377,1.568,1.568,0,0,1-.278,2.466,7.489,7.489,0,0,0-1.657,1.086c-.373.353-.615.257-.952-.068a8.4,8.4,0,0,1-2.742-6.1q-.078-5.385,0-10.772a10.948,10.948,0,0,1,21.715-1.694,9.8,9.8,0,0,1,.163,1.727c0,3.563.014,7.126,0,10.69a8.316,8.316,0,0,1-2.636,6.056c-.375.371-.648.568-1.133.088a5.945,5.945,0,0,0-1.454-.938,1.675,1.675,0,0,1-.222-2.752,7.169,7.169,0,0,0,2.646-5.078,24.973,24.973,0,0,0-.021-5.781,3.966,3.966,0,0,0-3.909-3.393,15.665,15.665,0,0,1-1.9-.056,4.362,4.362,0,0,1-3.462-2.526c-.231-.494-.475-.592-.924-.38a1.558,1.558,0,0,1-.154.06c-.546.191-1.271.231-1.592.612-.4.468.423.965.417,1.56" transform="translate(-76.735 -134.76)" fill="#b17946"/>
        <path id="Trazado_192300" data-name="Trazado 192300" d="M134.3,228.849a15.214,15.214,0,0,1-.129,2.812,5.469,5.469,0,0,1-10.8-1c-.057-1.544-.021-3.092-.014-4.639a1.394,1.394,0,0,1,1.235-1.511c.946-.187,1.889-.392,2.834-.582a.951.951,0,0,1,.717.088,8.037,8.037,0,0,0,4.295.987c1.467-.014,1.862.4,1.866,1.862,0,.608,0,1.215,0,1.981" transform="translate(-95.977 -174.237)" fill="#efcfb3"/>
        <path id="Trazado_192301" data-name="Trazado 192301" d="M120.664,309.678c-2.374,0-4.748-.027-7.122.016-.7.013-.763-.236-.635-.819a6.45,6.45,0,0,1,2.715-4.1.716.716,0,0,1,1.107.109c1.12,1.182,2.309,2.3,3.434,3.474.391.408.622.447,1.033.014,1.14-1.2,2.339-2.345,3.5-3.531.289-.3.5-.4.9-.149a6.37,6.37,0,0,1,2.924,4.59c.1.6-.337.384-.568.385-2.291.015-4.582.009-6.873.009h-.414" transform="translate(-87.822 -236.999)" fill="#0d2380"/>
        <path id="Trazado_192302" data-name="Trazado 192302" d="M141.891,290.557a.425.425,0,0,1-.167.356c-.683.68-1.373,1.353-2.037,2.049-.257.27-.4.141-.6-.055-.637-.647-1.269-1.3-1.931-1.923-.495-.465-.043-.857.057-1.267.119-.482.506-.217.751-.173a7.694,7.694,0,0,0,2.789.012c.743-.137,1.171.24,1.136,1" transform="translate(-106.558 -225.235)" fill="#efcfb3"/>
        <path id="Trazado_192303" data-name="Trazado 192303" d="M268.832,254.226a9.569,9.569,0,1,1,9.613-9.554,9.562,9.562,0,0,1-9.613,9.554" transform="translate(-201.787 -182.944)" fill="#fee9a6"/>
        <path id="Trazado_192304" data-name="Trazado 192304" d="M137.6,253.19c-1.744,0-1.744,0-1.744-1.576,0-1.137,0-1.146,1.126-1.134a4.311,4.311,0,0,0,3.129-.783c.252-.222.382-.066.541.094.331.333.666.662,1,.994.7.7.7.7-.138,1.3a5.978,5.978,0,0,1-3.913,1.111" transform="translate(-105.72 -194.225)"/>
        <path id="Trazado_192305" data-name="Trazado 192305" d="M286.6,258.106c0-.248-.02-.5,0-.744a2.616,2.616,0,0,0-1.275-2.912,3.7,3.7,0,0,1-1.124-4.6,4.1,4.1,0,0,1,7.761.582,3.945,3.945,0,0,1-1.811,4.422,1.367,1.367,0,0,0-.81,1.466c.046,1.35,0,2.7.023,4.054.009.464-.056.67-.611.674-2.156.017-2.156.041-2.156-2.111Z" transform="translate(-220.9 -192.459)"/>
        <path id="Trazado_192306" data-name="Trazado 192306" d="M299.018,261.113a1.369,1.369,0,0,1-2.737.039,1.369,1.369,0,0,1,2.737-.039" transform="translate(-230.564 -202.159)" fill="#5bd3b1"/>
      </g>
    </g>
  </g>
</svg>
