<svg xmlns="http://www.w3.org/2000/svg" xmlns:xlink="http://www.w3.org/1999/xlink" width="381.932" height="340.292" viewBox="0 0 381.932 340.292">
  <defs>
    <clipPath id="clip-path">
      <rect id="Rectángulo_85118" data-name="Rectángulo 85118" width="381.932" height="340.292" fill="none"/>
    </clipPath>
  </defs>
  <g id="Grupo_137518" data-name="Grupo 137518" transform="translate(6687 6999.57)">
    <g id="Grupo_134874" data-name="Grupo 134874" transform="translate(-6687 -6999.57)">
      <g id="Grupo_134873" data-name="Grupo 134873" clip-path="url(#clip-path)">
        <path id="Trazado_192307" data-name="Trazado 192307" d="M381.916,214.6c.841,31.532-30.691,62-65.806,82.657a237.7,237.7,0,0,1-36.928,17.734c-38.43,14.372-70.759,13.266-94.641,12.514a8.2,8.2,0,0,0-1.017-.042c-.752-.044-1.549-.044-2.3-.089-39.538-1.635-79.562-10.171-114.765-28.613-.928-.487-1.856-.975-2.786-1.5-30.337-16.23-60.632-39.4-63.463-76.333a76.426,76.426,0,0,1,15.258-51.211c11.809-15.7,29.056-24.5,44.623-35.867,10.968-8,15.834-19.592,20.963-31.621A256.758,256.758,0,0,1,93,77.639c2.477-4.335,5.04-8.536,7.87-12.65,19.77-28.791,52.5-49.885,87.167-54.838,36.132-5.129,70.628,11.72,94.288,38.828a125.351,125.351,0,0,1,28.348,57.76c3.493,17.378-.087,39.138,13.444,52.76,15.7,15.787,38.254,11.1,51.036,30.78,6.368,9.773,6.633,19.988,6.767,24.323" transform="translate(0 12.401)" fill="#dadeec"/>
        <path id="Trazado_192308" data-name="Trazado 192308" d="M190.878,163.933c32.1-27.5,41.638-77.708,19.684-110.019C197.9,35.29,178.4,27.933,168.818,25.1c-3.983-5.8-14.082-18.695-31.178-23.39C107.825-6.479,81.949,17.2,78.291,20.539c-34.26,31.345-47.153,107.9-.38,145.3,30.391,24.3,79.923,26.408,112.966-1.9" transform="translate(63.81 0)" fill="#12263f"/>
        <rect id="Rectángulo_85114" data-name="Rectángulo 85114" width="36.795" height="45.375" transform="translate(176.757 118.299)" fill="#ffb3ae"/>
        <path id="Trazado_192309" data-name="Trazado 192309" d="M112.235,50.49V72.336c-19.414,1.415-30.515-1.1-36.795-4.953V50.49Z" transform="translate(101.317 67.809)" fill="#ff7a72"/>
        <path id="Trazado_192310" data-name="Trazado 192310" d="M122.087,51.671c-3.508,9.342-12.043,14.777-19.063,12.139S93.16,51.465,96.668,42.123s12.043-14.775,19.063-12.139,9.864,12.345,6.357,21.687" transform="translate(127.809 39.376)" fill="#ffb3ae"/>
        <path id="Trazado_192311" data-name="Trazado 192311" d="M63.311,51.671c3.508,9.342,12.043,14.777,19.063,12.139s9.864-12.345,6.357-21.687S76.687,27.348,69.67,29.984,59.8,42.33,63.311,51.671" transform="translate(83.01 39.376)" fill="#ffb3ae"/>
        <path id="Trazado_192312" data-name="Trazado 192312" d="M141.188,63.338c5.918,16.279-12.76,48.782-36.656,48.782-20.246,0-36.656-21.842-36.656-48.782,0-29.349,29.449-52.359,36.656-48.782,2.9,1.439.518,6.317,3.126,14.691,6.223,19.977,28.489,20.218,33.531,34.091" transform="translate(91.157 19.056)" fill="#ffb3ae"/>
        <path id="Trazado_192313" data-name="Trazado 192313" d="M247.722,207.908H37.765v-40.9a104.979,104.979,0,1,1,209.957,0Z" transform="translate(50.719 83.31)" fill="#fc502d"/>
        <path id="Trazado_192321" data-name="Trazado 192321" d="M0,0H57.814V65.82H0Z" transform="translate(271.914 225.96)" fill="#0d2380"/>
        <path id="Trazado_192314" data-name="Trazado 192314" d="M159.136,123.244a10.394,10.394,0,0,1-18.409,6.6V143.8a21.477,21.477,0,0,0,8,1.5,22.074,22.074,0,1,0,0-44.147,21.478,21.478,0,0,0-8,1.5v13.96a10.392,10.392,0,0,1,18.409,6.626" transform="translate(188.998 135.851)" fill="#0d2380"/>
        <rect id="Rectángulo_85116" data-name="Rectángulo 85116" width="352.401" height="17.877" transform="translate(19.487 291.78)" fill="#97301b"/>
        <path id="Trazado_192315" data-name="Trazado 192315" d="M34.4,149.033c-1.211-31.225-.776-70.6,9.576-72.826a4.256,4.256,0,0,1,2.837.316c8.376,4.318-1.3,39.475-12.413,72.509" transform="translate(45.568 102.197)" fill="#40c1b0"/>
        <path id="Trazado_192316" data-name="Trazado 192316" d="M51.058,124.768C35.788,98,28.427,93.135,24.593,94.325a4.656,4.656,0,0,0-2.87,3.046c-2.648,8.643,22.559,23.514,29.335,27.4" transform="translate(28.914 126.461)" fill="#40c1b0"/>
        <path id="Trazado_192317" data-name="Trazado 192317" d="M34.132,129.39s14.246-41,24.093-38.564S34.132,129.39,34.132,129.39" transform="translate(45.84 121.84)" fill="#40c1b0"/>
        <path id="Trazado_192318" data-name="Trazado 192318" d="M26.569,151.649H65.552L69,103.922H23.118Z" transform="translate(31.048 139.569)" fill="#ff828a"/>
        <rect id="Rectángulo_85117" data-name="Rectángulo 85117" width="160.321" height="106.689" rx="3.775" transform="translate(113.303 185.091)" fill="#fff"/>
        <path id="Trazado_192319" data-name="Trazado 192319" d="M102.042,110.269A12.377,12.377,0,1,1,89.664,97.891a12.379,12.379,0,0,1,12.378,12.378" transform="translate(103.799 131.469)" fill="#dfeaf7"/>
        <path id="Trazado_192320" data-name="Trazado 192320" d="M279.612,132.163A237.263,237.263,0,0,1,242.684,149.9c-38.43,14.372-70.759,13.268-94.641,12.516a7.766,7.766,0,0,0-1.017-.045c-.752-.044-1.549-.044-2.3-.089-39.538-1.635-79.562-10.171-114.765-28.613-.928-.487-1.856-.972-2.786-1.5Z" transform="translate(36.498 177.497)" fill="#97301b"/>
      </g>
    </g>
  </g>
</svg>
