<svg xmlns="http://www.w3.org/2000/svg" xmlns:xlink="http://www.w3.org/1999/xlink" width="526.735" height="1226.021" viewBox="0 0 526.735 1226.021">
  <defs>
    <clipPath id="clip-path">
      <rect id="Rectángulo_85306" data-name="Rectángulo 85306" width="3" height="1226.021" fill="none"/>
    </clipPath>
    <clipPath id="clip-path-2">
      <rect id="Rectángulo_85307" data-name="Rectángulo 85307" width="12.512" height="12.512" fill="#0d2380"/>
    </clipPath>
    <clipPath id="clip-path-10">
      <rect id="Rectángulo_85302" data-name="Rectángulo 85302" width="206.841" height="501.059" fill="none"/>
    </clipPath>
    <clipPath id="clip-path-12">
      <rect id="Rectángulo_85270" data-name="Rectángulo 85270" width="116.476" height="80.841" fill="none"/>
    </clipPath>
    <clipPath id="clip-path-13">
      <rect id="Rectángulo_85271" data-name="Rectángulo 85271" width="96.166" height="11.509" fill="none"/>
    </clipPath>
    <clipPath id="clip-path-14">
      <rect id="Rectángulo_85272" data-name="Rectángulo 85272" width="34.89" height="85.56" fill="none"/>
    </clipPath>
    <clipPath id="clip-path-15">
      <rect id="Rectángulo_85273" data-name="Rectángulo 85273" width="14.505" height="80.514" fill="none"/>
    </clipPath>
    <clipPath id="clip-path-16">
      <rect id="Rectángulo_85274" data-name="Rectángulo 85274" width="15.947" height="14.985" fill="none"/>
    </clipPath>
    <clipPath id="clip-path-17">
      <rect id="Rectángulo_85275" data-name="Rectángulo 85275" width="21.665" height="29.061" fill="none"/>
    </clipPath>
    <clipPath id="clip-path-18">
      <rect id="Rectángulo_85276" data-name="Rectángulo 85276" width="9.916" height="22.388" fill="none"/>
    </clipPath>
    <clipPath id="clip-path-19">
      <rect id="Rectángulo_85278" data-name="Rectángulo 85278" width="38.962" height="38.627" fill="none"/>
    </clipPath>
    <clipPath id="clip-path-20">
      <rect id="Rectángulo_85279" data-name="Rectángulo 85279" width="37.521" height="40.007" fill="none"/>
    </clipPath>
    <clipPath id="clip-path-21">
      <rect id="Rectángulo_85280" data-name="Rectángulo 85280" width="84.666" height="222.739" fill="none"/>
    </clipPath>
    <clipPath id="clip-path-22">
      <rect id="Rectángulo_85281" data-name="Rectángulo 85281" width="35.785" height="90.007" fill="none"/>
    </clipPath>
    <clipPath id="clip-path-23">
      <rect id="Rectángulo_85282" data-name="Rectángulo 85282" width="1.174" height="5.209" fill="none"/>
    </clipPath>
    <clipPath id="clip-path-24">
      <rect id="Rectángulo_85283" data-name="Rectángulo 85283" width="91.306" height="151.403" fill="none"/>
    </clipPath>
    <clipPath id="clip-path-25">
      <rect id="Rectángulo_85284" data-name="Rectángulo 85284" width="49.063" height="114.317" fill="none"/>
    </clipPath>
    <clipPath id="clip-path-26">
      <rect id="Rectángulo_85285" data-name="Rectángulo 85285" width="18.376" height="113.145" fill="none"/>
    </clipPath>
    <clipPath id="clip-path-27">
      <rect id="Rectángulo_85286" data-name="Rectángulo 85286" width="64.49" height="126.704" fill="none"/>
    </clipPath>
    <clipPath id="clip-path-28">
      <rect id="Rectángulo_85287" data-name="Rectángulo 85287" width="39.3" height="122.053" fill="none"/>
    </clipPath>
    <clipPath id="clip-path-29">
      <rect id="Rectángulo_85288" data-name="Rectángulo 85288" width="25.016" height="119.328" fill="none"/>
    </clipPath>
    <clipPath id="clip-path-30">
      <rect id="Rectángulo_85289" data-name="Rectángulo 85289" width="35.961" height="22.401" fill="none"/>
    </clipPath>
    <clipPath id="clip-path-31">
      <rect id="Rectángulo_85290" data-name="Rectángulo 85290" width="80.45" height="101.881" fill="none"/>
    </clipPath>
    <clipPath id="clip-path-32">
      <rect id="Rectángulo_85291" data-name="Rectángulo 85291" width="26.949" height="18.505" fill="none"/>
    </clipPath>
    <clipPath id="clip-path-33">
      <rect id="Rectángulo_85292" data-name="Rectángulo 85292" width="95.648" height="108.496" fill="none"/>
    </clipPath>
    <clipPath id="clip-path-34">
      <rect id="Rectángulo_85293" data-name="Rectángulo 85293" width="28.615" height="15.286" fill="none"/>
    </clipPath>
    <clipPath id="clip-path-35">
      <rect id="Rectángulo_85294" data-name="Rectángulo 85294" width="24.029" height="33.9" fill="none"/>
    </clipPath>
    <clipPath id="clip-path-36">
      <rect id="Rectángulo_85295" data-name="Rectángulo 85295" width="67.145" height="55.464" fill="none"/>
    </clipPath>
    <clipPath id="clip-path-37">
      <rect id="Rectángulo_85296" data-name="Rectángulo 85296" width="82.148" height="55.615" fill="none"/>
    </clipPath>
    <clipPath id="clip-path-38">
      <rect id="Rectángulo_85297" data-name="Rectángulo 85297" width="29.505" height="36.528" fill="none"/>
    </clipPath>
    <clipPath id="clip-path-39">
      <rect id="Rectángulo_85298" data-name="Rectángulo 85298" width="9.298" height="31.02" fill="none"/>
    </clipPath>
    <clipPath id="clip-path-40">
      <rect id="Rectángulo_85299" data-name="Rectángulo 85299" width="62.124" height="33.946" fill="none"/>
    </clipPath>
    <clipPath id="clip-path-41">
      <rect id="Rectángulo_85300" data-name="Rectángulo 85300" width="77.316" height="49.439" fill="none"/>
    </clipPath>
  </defs>
  <g id="Grupo_137494" data-name="Grupo 137494" transform="translate(-283.325 -3165)">
    <g id="Grupo_135209" data-name="Grupo 135209" transform="translate(802.549 3165)">
      <g id="Grupo_135208" data-name="Grupo 135208" clip-path="url(#clip-path)">
        <line id="Línea_161" data-name="Línea 161" y2="6.666" transform="translate(0.475 -0.001)" fill="none" stroke="#2b3033" stroke-miterlimit="10" stroke-width="0.949"/>
        <line id="Línea_162" data-name="Línea 162" y2="1192.701" transform="translate(0.475 19.991)" fill="none" stroke="#2b3033" stroke-miterlimit="10" stroke-width="0.949" stroke-dasharray="5.692 5.692"/>
        <line id="Línea_163" data-name="Línea 163" y2="6.665" transform="translate(0.475 1219.356)" fill="none" stroke="#2b3033" stroke-miterlimit="10" stroke-width="0.949"/>
      </g>
    </g>
    <g id="Grupo_135212" data-name="Grupo 135212" transform="translate(797.549 3267)">
      <g id="Grupo_135210" data-name="Grupo 135210" clip-path="url(#clip-path-2)">
        <path id="Trazado_193001" data-name="Trazado 193001" d="M12.512,6.256A6.256,6.256,0,1,1,6.256,0a6.256,6.256,0,0,1,6.256,6.256" transform="translate(0 0)" fill="#0d2380"/>
      </g>
    </g>
    <g id="Grupo_135213" data-name="Grupo 135213" transform="translate(797.549 3499.775)">
      <g id="Grupo_135210-2" data-name="Grupo 135210" clip-path="url(#clip-path-2)">
        <path id="Trazado_193001-2" data-name="Trazado 193001" d="M12.512,6.256A6.256,6.256,0,1,1,6.256,0a6.256,6.256,0,0,1,6.256,6.256" transform="translate(0 0)" fill="#0d2380"/>
      </g>
    </g>
    <g id="Grupo_135214" data-name="Grupo 135214" transform="translate(797.549 3634.074)">
      <g id="Grupo_135210-3" data-name="Grupo 135210" clip-path="url(#clip-path-2)">
        <path id="Trazado_193001-3" data-name="Trazado 193001" d="M12.512,6.256A6.256,6.256,0,1,1,6.256,0a6.256,6.256,0,0,1,6.256,6.256" transform="translate(0 0)" fill="#0d2380"/>
      </g>
    </g>
    <g id="Grupo_135215" data-name="Grupo 135215" transform="translate(797.549 3770.321)">
      <g id="Grupo_135210-4" data-name="Grupo 135210" clip-path="url(#clip-path-2)">
        <path id="Trazado_193001-4" data-name="Trazado 193001" d="M12.512,6.256A6.256,6.256,0,1,1,6.256,0a6.256,6.256,0,0,1,6.256,6.256" transform="translate(0 0)" fill="#0d2380"/>
      </g>
    </g>
    <g id="Grupo_135216" data-name="Grupo 135216" transform="translate(797.549 3906.566)">
      <g id="Grupo_135210-5" data-name="Grupo 135210" clip-path="url(#clip-path-2)">
        <path id="Trazado_193001-5" data-name="Trazado 193001" d="M12.512,6.256A6.256,6.256,0,1,1,6.256,0a6.256,6.256,0,0,1,6.256,6.256" transform="translate(0 0)" fill="#0d2380"/>
      </g>
    </g>
    <g id="Grupo_135217" data-name="Grupo 135217" transform="translate(797.549 4042.812)">
      <g id="Grupo_135210-6" data-name="Grupo 135210" clip-path="url(#clip-path-2)">
        <path id="Trazado_193001-6" data-name="Trazado 193001" d="M12.512,6.256A6.256,6.256,0,1,1,6.256,0a6.256,6.256,0,0,1,6.256,6.256" transform="translate(0 0)" fill="#0d2380"/>
      </g>
    </g>
    <g id="Grupo_135218" data-name="Grupo 135218" transform="translate(797.549 4276.036)">
      <g id="Grupo_135210-7" data-name="Grupo 135210" clip-path="url(#clip-path-2)">
        <path id="Trazado_193001-7" data-name="Trazado 193001" d="M12.512,6.256A6.256,6.256,0,1,1,6.256,0a6.256,6.256,0,0,1,6.256,6.256" transform="translate(0 0)" fill="#0d2380"/>
      </g>
    </g>
    <g id="Grupo_135219" data-name="Grupo 135219" transform="translate(797.549 4347.036)">
      <g id="Grupo_135210-8" data-name="Grupo 135210" clip-path="url(#clip-path-2)">
        <path id="Trazado_193001-8" data-name="Trazado 193001" d="M12.512,6.256A6.256,6.256,0,1,1,6.256,0a6.256,6.256,0,0,1,6.256,6.256" transform="translate(0 0)" fill="#0d2380"/>
      </g>
    </g>
    <path id="Trazado_193002" data-name="Trazado 193002" d="M129.1-8529.934s-68.508,47.16-99.453,475.858-193.44,705.8-310.87,678.772-92.16,66.313-92.16,66.313,500.408-4.461,502.483,0S129.1-8529.934,129.1-8529.934Z" transform="translate(659 11699.999)" fill="#f0f0f0"/>
    <g id="Grupo_135229" data-name="Grupo 135229" transform="translate(395.964 3881.506)">
      <g id="Grupo_135187" data-name="Grupo 135187" clip-path="url(#clip-path-10)">
        <g id="Grupo_135186" data-name="Grupo 135186">
          <g id="Grupo_135185" data-name="Grupo 135185" clip-path="url(#clip-path-10)">
            <path id="Trazado_192935" data-name="Trazado 192935" d="M122.113,295.443s13.861-1.8,23.053,5.295-6.143,9.83-6.143,9.83a21.353,21.353,0,0,0-21.531-3.887c-13.024,4.516-7.247,16.174-7.247,16.174l-4.831.316s-.421-17.645,2.625-19.641,14.074-8.087,14.074-8.087" transform="translate(19.837 55.569)" fill="#963e35"/>
            <path id="Trazado_192936" data-name="Trazado 192936" d="M184.258,402.382a19.482,19.482,0,0,0,5.784-7.594c4.133-9.543,1.858-20.733,1.877-30.5.013-9.162,2.259-36.557-12.217-40.6-20.4-5.7-44.719-6.409-65.956-5.543-8.142.332-20.2.271-25.582,6.054-6.539,7.031-7.62,18.8-9.44,27.2a128.882,128.882,0,0,0-2.584,19.76c-.463,8.836.771,19.463,6.345,27.28,8.023,11.246,27.733,10.222,41.591,11,9.7.544,19.437.649,29.133.265,11.328-.448,23.4-1.207,31.049-7.323" transform="translate(14.314 59.823)" fill="#963e35"/>
            <g id="Grupo_135094" data-name="Grupo 135094" transform="translate(90.366 388.917)" opacity="0.5" style="mix-blend-mode: multiply;isolation: isolate">
              <g id="Grupo_135093" data-name="Grupo 135093">
                <g id="Grupo_135092" data-name="Grupo 135092" clip-path="url(#clip-path-12)">
                  <path id="Trazado_192937" data-name="Trazado 192937" d="M191.92,362.508c.011-6.2,1.018-20.71-2.789-30.723.1,1.191.2,2.381.2,3.581,0,12.189-5.58,24.01-15.384,32.624q-.2.176-.4.353c-9.8,8.615-23.261,13.514-37.132,13.514s-27.33-4.9-37.134-13.514S83.9,347.909,83.9,335.72a40.34,40.34,0,0,1,.922-8.409c-3.625,6.861-4.652,15.63-6.1,22.309a128.886,128.886,0,0,0-2.584,19.759c-.463,8.837.771,19.463,6.345,27.281,8.023,11.247,27.733,10.222,41.591,11,9.7.543,19.437.649,29.133.265,11.328-.449,23.4-1.208,31.049-7.324a19.473,19.473,0,0,0,5.784-7.594c4.133-9.543,1.858-20.733,1.877-30.5" transform="translate(-76.051 -327.311)" fill="#c87568"/>
                </g>
              </g>
            </g>
            <g id="Grupo_135097" data-name="Grupo 135097" transform="translate(100.7 377.775)" opacity="0.5" style="mix-blend-mode: screen;isolation: isolate">
              <g id="Grupo_135096" data-name="Grupo 135096">
                <g id="Grupo_135095" data-name="Grupo 135095" clip-path="url(#clip-path-13)">
                  <path id="Trazado_192938" data-name="Trazado 192938" d="M84.749,326.473a210.4,210.4,0,0,1,44.61-2.946c29.528,1.336,40.663,5.916,40.663,5.916l10.892-4.521a11.767,11.767,0,0,0-2.849-1.251,146.872,146.872,0,0,0-20.895-4.048,361.621,361.621,0,0,0-40.622-1.629c-1.485.043-2.985.075-4.439.134l-.114,0a109.285,109.285,0,0,0-17.666,1.845,16.42,16.42,0,0,0-7.8,4.205,20.284,20.284,0,0,0-1.778,2.291" transform="translate(-84.749 -317.934)" fill="#963e35"/>
                </g>
              </g>
            </g>
            <g id="Grupo_135100" data-name="Grupo 135100" transform="translate(171.504 383.069)" opacity="0.7" style="mix-blend-mode: multiply;isolation: isolate">
              <g id="Grupo_135099" data-name="Grupo 135099">
                <g id="Grupo_135098" data-name="Grupo 135098" clip-path="url(#clip-path-14)">
                  <path id="Trazado_192939" data-name="Trazado 192939" d="M178.736,364.725c.05-6.49,1.137-21.628-2.51-32.162-1.827-4.726-4.735-8.435-9.376-9.733-.591-.164-1.214-.285-1.806-.442a13.039,13.039,0,0,0-7.015,5.818c-6.734,11.211-21.5,64.138-8.542,76.919a20.391,20.391,0,0,0,3.634,2.823c6.98-.869,13.5-2.6,18.285-6.423a19.481,19.481,0,0,0,5.784-7.594,27.925,27.925,0,0,0,1.576-5.177c1.082-7.965-.094-16.4-.03-24.029" transform="translate(-144.337 -322.39)" fill="#c87568"/>
                </g>
              </g>
            </g>
            <g id="Grupo_135103" data-name="Grupo 135103" transform="translate(183.845 387.31)" opacity="0.5" style="mix-blend-mode: screen;isolation: isolate">
              <g id="Grupo_135102" data-name="Grupo 135102">
                <g id="Grupo_135101" data-name="Grupo 135101" clip-path="url(#clip-path-15)">
                  <path id="Trazado_192940" data-name="Trazado 192940" d="M168.383,397.5c.3-1.675.5-3.415.655-5.177.449-7.965-.039-16.4-.012-24.029.023-6.489.473-21.628-1.043-32.162-.762-4.726-1.971-8.435-3.9-9.733-.246-.164-.505-.284-.751-.442-1.091.917-2.132,2.67-2.918,5.818-2.662,10.654-8.333,58.946-4.266,74.7a34.28,34.28,0,0,0,10.936-4,31.3,31.3,0,0,0,1.3-4.975" transform="translate(-154.723 -325.959)" fill="#963e35"/>
                </g>
              </g>
            </g>
            <path id="Trazado_192941" data-name="Trazado 192941" d="M151.675,340.04c1.322.058,2.645.109,4,.109a83.518,83.518,0,0,0,20.525-2.433,39.309,39.309,0,0,0-1.359-5.152c-1.827-4.726-4.734-8.435-9.375-9.733-.592-.164-1.216-.284-1.806-.442a13.039,13.039,0,0,0-7.015,5.818,68.393,68.393,0,0,0-4.973,11.833" transform="translate(28.548 60.679)" fill="#4052a0"/>
            <g id="Grupo_135106" data-name="Grupo 135106" transform="translate(180.223 385.844)" opacity="0.4" style="mix-blend-mode: multiply;isolation: isolate">
              <g id="Grupo_135105" data-name="Grupo 135105">
                <g id="Grupo_135104" data-name="Grupo 135104" clip-path="url(#clip-path-16)">
                  <path id="Trazado_192942" data-name="Trazado 192942" d="M166.264,333.538c-1.508-3.9-3.769-7.082-7.115-8.813a13.9,13.9,0,0,0-2.5,3.043,68.394,68.394,0,0,0-4.973,11.833c1.322.057,2.645.108,4,.108a90.368,90.368,0,0,0,9.791-.547c.715-.158,1.463-.3,2.153-.473a39.307,39.307,0,0,0-1.358-5.152" transform="translate(-151.675 -324.725)" fill="#1d255b"/>
                </g>
              </g>
            </g>
            <path id="Trazado_192943" data-name="Trazado 192943" d="M125.181,295.245c-11.61.1-15.244,5.943-17.814,9.244-4.727,6.08-1.377,20.839-1.377,20.839l6.5.327a56.008,56.008,0,0,1,.183-10.808,8.617,8.617,0,0,1,.359-11.649c.061-.058.119-.116.177-.176a8.444,8.444,0,0,1,5.33-2.4,8.9,8.9,0,0,1,7.809-1.926,9.234,9.234,0,0,1,.4-1.11,8.69,8.69,0,0,1-1.568-2.338" transform="translate(19.733 55.57)" fill="#963e35"/>
            <path id="Trazado_192944" data-name="Trazado 192944" d="M136.956,298c1.1,3.967-.373,8.738-4.453,10.468a8,8,0,0,1,2.557,3.314c3.84,9.445,1.477,14.328,1.477,14.328s8.569,3.257,8.569-1.627c0,0,3.521-16.266-5.043-24.268A14.524,14.524,0,0,0,136.956,298" transform="translate(24.939 56.089)" fill="#963e35"/>
            <g id="Grupo_135109" data-name="Grupo 135109" transform="translate(124.572 352.023)" opacity="0.8" style="mix-blend-mode: multiply;isolation: isolate">
              <g id="Grupo_135108" data-name="Grupo 135108">
                <g id="Grupo_135107" data-name="Grupo 135107" clip-path="url(#clip-path-17)">
                  <path id="Trazado_192945" data-name="Trazado 192945" d="M110.891,311.3a8.587,8.587,0,0,1,2.14-8.291c.061-.059.119-.118.176-.176a8.46,8.46,0,0,1,5.335-2.4,8.885,8.885,0,0,1,7.824-1.92c.055-.219.067-.448.138-.659a48.723,48.723,0,0,0-9.307-1.587c-5.572,1.923-7.968,5.655-9.829,8.037-4.727,6.08-1.377,20.839-1.377,20.839l3.686.187c-2.628-4.155-2.22-10.566,1.214-14.025" transform="translate(-104.839 -296.261)" fill="#c87568"/>
                </g>
              </g>
            </g>
            <g id="Grupo_135112" data-name="Grupo 135112" transform="translate(157.443 360.874)" opacity="0.8" style="mix-blend-mode: multiply;isolation: isolate">
              <g id="Grupo_135111" data-name="Grupo 135111">
                <g id="Grupo_135110" data-name="Grupo 135110" clip-path="url(#clip-path-18)">
                  <path id="Trazado_192946" data-name="Trazado 192946" d="M141.965,316.949c-.7-3.361-1.784-8.266-3.663-11.017a13.254,13.254,0,0,0-1.952-2.222,7.563,7.563,0,0,1-3.846,3.685,8,8,0,0,1,2.557,3.315c3.84,9.445,1.477,14.328,1.477,14.328a16.352,16.352,0,0,0,5.77,1.04c.337-.028-.188-8.4-.342-9.128" transform="translate(-132.503 -303.71)" fill="#c87568"/>
                </g>
              </g>
            </g>
            <path id="Trazado_192947" data-name="Trazado 192947" d="M112.157,314.067s8.76-16.466,25.826-5.227l3.572-3.466s-7.247-10.5-22.372-3.676-11.134,21.321-11.134,21.321Z" transform="translate(20.247 56.351)" fill="#963e35"/>
            <path id="Trazado_192949" data-name="Trazado 192949" d="M99.274,375.07c.059,1.267,1.882,13.1,1.882,13.1s29.925,21.582,27.09,24.691-30.706-10.913-34.8-16.677l-3.975-21.507Z" transform="translate(16.84 70.521)" fill="#1b205e"/>
            <g id="Grupo_135118" data-name="Grupo 135118" transform="translate(106.311 445.196)" opacity="0.4" style="mix-blend-mode: multiply;isolation: isolate">
              <g id="Grupo_135117" data-name="Grupo 135117">
                <g id="Grupo_135116" data-name="Grupo 135116" clip-path="url(#clip-path-19)">
                  <path id="Trazado_192950" data-name="Trazado 192950" d="M99.274,375.07c.059,1.267,1.882,13.1,1.882,13.1s.078.058.191.138a9.9,9.9,0,0,0,2.437,8.944A12.622,12.622,0,0,0,109,402.925a11.752,11.752,0,0,0,1.458.692,15.777,15.777,0,0,0,7.41,3.279,11.072,11.072,0,0,0,5.878-.643c3.288,3.126,5.339,5.678,4.5,6.605-2.835,3.107-30.706-10.913-34.8-16.677l-3.975-21.507Z" transform="translate(-89.471 -374.675)" fill="#1d255b"/>
                </g>
              </g>
            </g>
            <path id="Trazado_192951" data-name="Trazado 192951" d="M38.742,382.79c-.011,1.274-1.385,13.161-1.385,13.161S8.263,418.643,11.21,421.644s30.278-12.063,34.149-17.974l3.164-21.643Z" transform="translate(2.071 71.904)" fill="#1b205e"/>
            <g id="Grupo_135121" data-name="Grupo 135121" transform="translate(13.072 453.931)" opacity="0.4" style="mix-blend-mode: multiply;isolation: isolate">
              <g id="Grupo_135120" data-name="Grupo 135120">
                <g id="Grupo_135119" data-name="Grupo 135119" clip-path="url(#clip-path-20)">
                  <path id="Trazado_192952" data-name="Trazado 192952" d="M14.251,416.149a14.777,14.777,0,0,0,7.971-1.378c5.819-2.722,11.359-6.9,14.747-12.456a8.334,8.334,0,0,0,.5-7.31c.324-2.82,1.269-11.159,1.276-12.214l9.781-.764L45.36,403.67c-3.872,5.911-31.2,20.97-34.151,17.974-.755-.77.608-2.843,3.042-5.5" transform="translate(-11.001 -382.027)" fill="#1d255b"/>
                </g>
              </g>
            </g>
            <path id="Trazado_192953" data-name="Trazado 192953" d="M109.439,208.973s4.026,73.184,4.5,83.374,1.876,26.708,2.466,39.441-3.24,67.782-4.617,79.325a11.553,11.553,0,0,1-11.489-.1s-8-48.759-9.525-67.831-12.7-67.673-12.7-67.673-15.408,53.029-16.845,63.3-14.808,79.8-14.808,79.8S36,428.023,31.684,417.375c0,0,2.409-58.167,3.346-79.27s8.882-69.949,7.714-81.38,4.6-38.494,4.7-49.986,53.241-7.569,61.992,2.234" transform="translate(5.964 37.589)" fill="#4052a0"/>
            <g id="Grupo_135124" data-name="Grupo 135124" transform="translate(37.648 237.3)" opacity="0.2" style="mix-blend-mode: multiply;isolation: isolate">
              <g id="Grupo_135123" data-name="Grupo 135123">
                <g id="Grupo_135122" data-name="Grupo 135122" clip-path="url(#clip-path-21)">
                  <path id="Trazado_192954" data-name="Trazado 192954" d="M35.229,334.648c5.442,2.912,13.167,1.242,17.5-2.968,16.214-15.758,16.1-43.351,16.868-64.29.279-7.641-7.5-13.678-14.641-13.344a13.946,13.946,0,0,0-1.713.188,14.127,14.127,0,0,0-10.532,2.04c-.984-11.664,4.63-38.188,4.737-49.533.107-11.485,53.241-7.57,61.992,2.233,0,0,1.189,21.668,2.356,43.063-6.782-1.1-13.92,3.054-17.689,9.248-7.529,12.376-4.566,25.63-3.388,39.155,1.027,11.759.178,26,8.245,35.618,4.275,5.1,11.433,7.935,17.387,5.376-.582,20.42-3.421,60.076-4.566,69.681a11.553,11.553,0,0,1-11.489-.1s-8-48.76-9.525-67.831-12.7-67.673-12.7-67.673-15.408,53.028-16.845,63.3-14.808,79.8-14.808,79.8S36,428.022,31.685,417.375c0,0,2.407-58.167,3.345-79.27.049-1.074.118-2.242.2-3.458" transform="translate(-31.684 -199.711)" fill="#1d255b"/>
                </g>
              </g>
            </g>
            <g id="Grupo_135127" data-name="Grupo 135127" transform="translate(63.095 295.555)" opacity="0.5">
              <g id="Grupo_135126" data-name="Grupo 135126">
                <g id="Grupo_135125" data-name="Grupo 135125" clip-path="url(#clip-path-22)">
                  <path id="Trazado_192955" data-name="Trazado 192955" d="M53.55,335.916a12.855,12.855,0,0,0-.444,1.936,12.5,12.5,0,0,0,.677-1.868c.38-1.2.928-2.922,1.586-4.986,1.255-4.137,3.072-9.614,4.821-15.112,3.594-10.966,6.963-22.015,6.963-22.015s.759-2.782,1.9-6.947c1.214-4.152,2.436-9.79,3.773-15.4.3-1.7.625-3.389.94-5.048.081.244.188.543.328.923.322.964.924,2.293,1.437,3.964a125.888,125.888,0,0,1,3.467,12.291c1,4.537,1.823,9.116,2.356,12.562.516,3.451.86,5.749.86,5.749s1.4,9.243,2.8,18.484c.756,4.614,1.59,9.221,2.379,12.641.354,1.717.764,3.126,1.014,4.117a8.753,8.753,0,0,0,.474,1.536,8.355,8.355,0,0,0-.236-1.592c-.176-1.01-.511-2.425-.794-4.154-.644-3.446-1.351-8.053-2-12.678-1.224-9.262-2.449-18.529-2.449-18.529s-.383-2.3-.959-5.756c-.6-3.453-1.511-8.036-2.624-12.577A108.892,108.892,0,0,0,75.962,271.2c-.581-1.654-1.254-2.956-1.649-3.9-.214-.465-.385-.828-.509-1.072.719-3.788,1.378-7.378,1.642-10.338.251-2.141.455-3.931.6-5.189a12.059,12.059,0,0,0,.151-1.97,12.5,12.5,0,0,0-.392,1.95c-.2,1.239-.484,3.012-.823,5.145-.522,4.276-1.875,9.879-2.992,15.511-1.439,5.563-2.736,11.161-4.009,15.285C66.794,290.771,66,293.535,66,293.535s-3.237,11.066-6.622,22.1c-1.647,5.532-3.339,11.048-4.461,15.231-.569,2.089-1.04,3.832-1.371,5.05" transform="translate(-53.101 -248.738)" fill="#1d255b"/>
                </g>
              </g>
            </g>
            <g id="Grupo_135130" data-name="Grupo 135130" transform="translate(101.884 120.557)" style="mix-blend-mode: multiply;isolation: isolate">
              <g id="Grupo_135129" data-name="Grupo 135129">
                <g id="Grupo_135128" data-name="Grupo 135128" clip-path="url(#clip-path-23)">
                  <path id="Trazado_192956" data-name="Trazado 192956" d="M86.919,104.3c-.417-.935-.807-1.879-1.174-2.839a16.218,16.218,0,0,1,.282,5.209s.4-.895.892-2.37" transform="translate(-85.745 -101.46)" fill="#d2e4ff"/>
                </g>
              </g>
            </g>
            <path id="Trazado_192957" data-name="Trazado 192957" d="M27.171,104.939S50.357,90.125,77.409,90.125s41.865,9.661,48.306,14.814,3.864,53.458-2.576,69.559c-4.932,12.329-7.729,30.272-8.373,38s1.609,35.744,1.609,35.744a47.675,47.675,0,0,1-26.729-14.815s-18.679,16.1-47.661,10.305c0,0,4.509-30.592,3.865-54.423S27.815,117.82,27.171,104.939" transform="translate(5.114 16.963)" fill="#1b205e"/>
            <g id="Grupo_135133" data-name="Grupo 135133" transform="translate(32.285 113.804)" opacity="0.4" style="mix-blend-mode: multiply;isolation: isolate">
              <g id="Grupo_135132" data-name="Grupo 135132">
                <g id="Grupo_135131" data-name="Grupo 135131" clip-path="url(#clip-path-24)">
                  <path id="Trazado_192958" data-name="Trazado 192958" d="M114.765,211.436a173.534,173.534,0,0,1,3.712-22.533,47.3,47.3,0,0,1-34.641,5.409c-21.43-4.736-37.507-26.88-40.771-47.778-2.6-16.679-2.873-30.62.019-47.279a31.569,31.569,0,0,1,.816-3.477q-.932.36-1.825.72c-.164.065-.321.133-.486.2-.419.173-.836.345-1.24.516-.216.091-.421.182-.633.271l-1.01.437-.654.294c-.3.135-.6.271-.894.4-.223.1-.437.2-.654.3-.269.126-.537.251-.8.374-.214.1-.419.2-.627.3-.244.118-.491.236-.724.352-.2.1-.4.2-.593.295l-.659.332c-.185.094-.366.188-.543.279l-.6.31-.5.264-.53.283c-.15.082-.3.163-.447.242-.165.09-.323.177-.475.263-.131.071-.259.144-.379.21-.145.08-.276.156-.405.229s-.233.131-.337.192c-.124.07-.233.133-.342.2-.089.052-.185.106-.264.154-.108.062-.2.118-.292.173l-.189.111-.214.131c-.044.029-.1.061-.138.084l-.166.1c-.012.006-.032.02-.04.025l-.072.046c.644,12.881,18.034,60.543,18.679,84.373s-3.865,54.423-3.865,54.423c1.054.213,2.091.385,3.118.538.3.046.6.083.9.125.75.1,1.494.19,2.228.265.291.032.583.061.873.083.828.07,1.644.131,2.452.168.152.007.305.019.459.025,1.008.04,2,.056,2.98.049a29.382,29.382,0,0,1-.185-3.265v-.241a30.332,30.332,0,0,1,60.663,0v.241a29.549,29.549,0,0,1-.669,6.233c.751.16,1.257.242,1.467.274h.01l.1.014s-2.253-28.017-1.609-35.744" transform="translate(-27.171 -95.777)" fill="#1d255b"/>
                </g>
              </g>
            </g>
            <path id="Trazado_192959" data-name="Trazado 192959" d="M79.737,214.922c-.335-.019-.09-13.244-.09-13.244s.106-3.29.214-6.584a46.738,46.738,0,0,1,.454-6.6,45.922,45.922,0,0,1,.4,6.6c.04,1.655.081,3.31.111,4.549s.031,2.071.031,2.071-.788,13.225-1.12,13.208" transform="translate(14.975 35.478)" fill="#4052a0"/>
            <path id="Trazado_192960" data-name="Trazado 192960" d="M53.731,91.019s10.3,26.408,15.458,38,6.44,37.356,8.373,43.154,6.225,27.522,6.225,27.522a113.249,113.249,0,0,0,16.959-39.114c5.153-23.188,0-54.1-9.016-66.339s-25.763-10.3-38-3.221" transform="translate(10.113 16.069)" fill="#d2e4ff"/>
            <g id="Grupo_135136" data-name="Grupo 135136" transform="translate(63.845 101.445)" style="mix-blend-mode: multiply;isolation: isolate">
              <g id="Grupo_135135" data-name="Grupo 135135">
                <g id="Grupo_135134" data-name="Grupo 135134" clip-path="url(#clip-path-25)">
                  <path id="Trazado_192961" data-name="Trazado 192961" d="M53.731,91.019s10.3,26.408,15.458,38,6.44,37.356,8.373,43.154,6.225,27.522,6.225,27.522a113.249,113.249,0,0,0,16.959-39.114c5.153-23.188,0-54.1-9.016-66.339s-25.763-10.3-38-3.221" transform="translate(-53.731 -85.376)" fill="#d2e4ff"/>
                </g>
              </g>
            </g>
            <path id="Trazado_192962" data-name="Trazado 192962" d="M69.451,100.585s3.219,8.051,7.728,10.627c0,0-1.288,17.712-1.932,31.237s6.011,60.006,6.011,60.006,10.734-30.378,12.666-43.9-9.661-47.984-9.661-47.984,4.83-1.932,3.543-11.593-16.425-16.425-18.356,1.61" transform="translate(13.072 16.809)" fill="#cc5252"/>
            <g id="Grupo_135139" data-name="Grupo 135139" transform="translate(82.523 106.12)" opacity="0.5" style="mix-blend-mode: multiply;isolation: isolate">
              <g id="Grupo_135138" data-name="Grupo 135138">
                <g id="Grupo_135137" data-name="Grupo 135137" clip-path="url(#clip-path-26)">
                  <path id="Trazado_192963" data-name="Trazado 192963" d="M83.711,151.322c-.859-12.015-4.136-24.432-1-36.344a5.253,5.253,0,0,1,2.006-3.041c-.286-.873-.452-1.37-.452-1.37s2.8-1.134,3.563-5.936a10.587,10.587,0,0,1-5.1,1.829,7.908,7.908,0,0,1-4.809-1.217,7.8,7.8,0,0,1-3.54-6.159,8.393,8.393,0,0,1,1.6-5.2A5.987,5.987,0,0,1,79.335,91.3a5.723,5.723,0,0,1,4.33.566,7.127,7.127,0,0,1,.692.444c-4.945-4.834-13.487-4.974-14.905,8.274,0,0,3.219,8.051,7.728,10.627,0,0-1.288,17.712-1.932,31.237s6.011,60.006,6.011,60.006S83,197.528,85.2,190.764c-.851-13.133-.557-26.311-1.494-39.442" transform="translate(-69.451 -89.31)" fill="#cc5252"/>
                </g>
              </g>
            </g>
            <g id="Grupo_135142" data-name="Grupo 135142" transform="translate(55.728 102.096)" opacity="0.4" style="mix-blend-mode: multiply;isolation: isolate">
              <g id="Grupo_135141" data-name="Grupo 135141">
                <g id="Grupo_135140" data-name="Grupo 135140" clip-path="url(#clip-path-27)">
                  <path id="Trazado_192964" data-name="Trazado 192964" d="M106.7,113.687c-12.022-29.361-18.785-24.53-18.785-24.53s11.591,25.458,9.445,58.189c-1.78,27.157-9.174,51.793-11.642,59.4-1.1-13.107-4.022-44.815-7.971-63.51-5.071-24-22.211-45.313-19.676-57.313,0,0-11.586,6.037-11.163,17.674s4.645,36,9.292,41.093,14.366,2.546,14.366,2.546-8.875,14.545-5.493,24.363c2.334,6.781,6,13.146,9.421,19.419,2.06,3.78,4.166,7.532,6.219,11.315,1.874,3.454,2.761,7.27,5.395,10.294,1.751-3.256,5.493-6.061,7.715-9.23a80.747,80.747,0,0,0,6.74-11.781,113.848,113.848,0,0,0,8.069-23.074c3.484-15.073-3.542-24.084-3.542-24.084,5.582-1.364,10.051-10.16,1.61-30.772" transform="translate(-46.901 -85.924)" fill="#1d255b"/>
                </g>
              </g>
            </g>
            <path id="Trazado_192965" data-name="Trazado 192965" d="M58.076,85.924S46.49,91.738,46.912,102.94,51.558,137.6,56.2,142.5s14.366,2.451,14.366,2.451-8.875,14-5.493,23.457S79.44,195.021,86.2,207.977c0,0-3.382-43.767-8.449-66.874S55.541,97.478,58.076,85.924" transform="translate(8.828 16.172)" fill="#4052a0"/>
            <g id="Grupo_135145" data-name="Grupo 135145" transform="translate(55.728 102.096)" opacity="0.2" style="mix-blend-mode: multiply;isolation: isolate">
              <g id="Grupo_135144" data-name="Grupo 135144">
                <g id="Grupo_135143" data-name="Grupo 135143" clip-path="url(#clip-path-28)">
                  <path id="Trazado_192966" data-name="Trazado 192966" d="M73.964,152.586a29.138,29.138,0,0,1,3.76-11.6c-.052-.222-.107-.443-.159-.665-4.824-.708-8.588-3.053-12.582-6.233-9.483-7.556-11.649-19.172-12.917-30.449-.579-5.153,2.321-11.083,5.774-14.894a11.875,11.875,0,0,1,.238-2.818S46.49,91.737,46.912,102.939,51.558,137.6,56.2,142.5s14.366,2.45,14.366,2.45-8.875,14-5.493,23.458S79.44,195.02,86.2,207.976c0,0-.278-3.581-.79-9.223-7.928-14.019-13.247-29.923-11.447-46.167" transform="translate(-46.901 -85.924)" fill="#1d255b"/>
                </g>
              </g>
            </g>
            <path id="Trazado_192967" data-name="Trazado 192967" d="M78.891,204.134S89.2,176.123,91.344,144.612A124.143,124.143,0,0,0,81.9,88.589s6.762-4.65,18.785,23.617c8.44,19.844,3.972,28.313-1.611,29.627,0,0,7.027,8.676,3.543,23.187-2.91,12.121-10.842,32.987-23.294,42.615Z" transform="translate(14.849 16.62)" fill="#4052a0"/>
            <g id="Grupo_135148" data-name="Grupo 135148" transform="translate(93.739 104.928)" opacity="0.2" style="mix-blend-mode: multiply;isolation: isolate">
              <g id="Grupo_135147" data-name="Grupo 135147">
                <g id="Grupo_135146" data-name="Grupo 135146" clip-path="url(#clip-path-29)">
                  <path id="Trazado_192968" data-name="Trazado 192968" d="M93.032,166.156c1.006-4.808,3.012-17.443,8.552-19.7a19.576,19.576,0,0,0-2.512-4.621,7.351,7.351,0,0,0,4.835-3.976c-4.3-3.188-6.692-9.747-7.8-15.033-1.058-5.034-1.693-9.943-3.918-14.669C89.1,101.6,85.532,95.306,83.349,88.366c-.006-.018-.009-.036-.014-.053a2.45,2.45,0,0,0-1.437.276,124.131,124.131,0,0,1,9.444,56.022c-2.147,31.512-12.451,59.521-12.451,59.521l.43,3.5a49.158,49.158,0,0,0,11.105-12.954c-1.69-9.268.816-19.982,2.606-28.526" transform="translate(-78.891 -88.307)" fill="#1d255b"/>
                </g>
              </g>
            </g>
            <path id="Trazado_192969" data-name="Trazado 192969" d="M59.232,79.554s-10.412,8.158-1.4,19.323c0,0,4.4,8.373,16.424,13.525,0,0-3-12.237,6.443-19.537,0,0,12.559,5.8,11.27,18.249,0,0,3.757-8.372,2.469-16.532S77.7,73.114,59.232,79.554" transform="translate(10.194 14.653)" fill="#d2e4ff"/>
            <g id="Grupo_135151" data-name="Grupo 135151" transform="translate(64.374 92.503)" style="mix-blend-mode: multiply;isolation: isolate">
              <g id="Grupo_135150" data-name="Grupo 135150">
                <g id="Grupo_135149" data-name="Grupo 135149" clip-path="url(#clip-path-30)">
                  <path id="Trazado_192970" data-name="Trazado 192970" d="M88.891,94.407c-.007-.076-.023-.154-.027-.231a14.47,14.47,0,0,1,1.275-7.247,29.127,29.127,0,0,0-30.909-7.375s-6.116,4.813-4.89,12.1a5.33,5.33,0,0,1,4.032-1.83c6.681-.184,13.4-.036,16.56,7.195.289.663.537,1.33.769,2a17.012,17.012,0,0,1,5-6.148,23.334,23.334,0,0,1,8.53,7.386,15.866,15.866,0,0,1-.339-5.845" transform="translate(-54.177 -77.85)" fill="#d2e4ff"/>
                </g>
              </g>
            </g>
            <path id="Trazado_192971" data-name="Trazado 192971" d="M78.8,90.151a23.6,23.6,0,0,0,7.659-1.987c-.052-.166-3.832.954-7.733,1.131a35.718,35.718,0,0,1-5.327-.078c-.719-.074-1.315-.172-1.732-.225a5.366,5.366,0,0,1-.656-.106l-.649-.111a15.492,15.492,0,0,1-1.7-.343,21.618,21.618,0,0,1-4.938-1.806,18.434,18.434,0,0,1-4.237-3.133A15.767,15.767,0,0,0,57.8,81.725a8.142,8.142,0,0,0,1.338,2.087A16.842,16.842,0,0,0,63.3,87.374a21.555,21.555,0,0,0,5.077,2.14,16.111,16.111,0,0,0,1.767.43c.429.088.674.14.674.14a6.016,6.016,0,0,0,.686.086c.438.037,1.061.115,1.811.162a33.873,33.873,0,0,0,5.484-.181" transform="translate(10.878 15.381)" fill="#65a1ff"/>
            <path id="Trazado_192972" data-name="Trazado 192972" d="M120.836,102.412a135.9,135.9,0,0,1,14.6,40.484c4.294,23.18,3.006,56.893-5.153,61.528s-52.814.422-76.856-10.114c0,0-2.578-11.8,6.439-18.963,0,0,40.792-.845,57.537,2.949,0,0,12.879-50.809,3.435-75.884" transform="translate(9.991 19.276)" fill="#1d255b"/>
            <g id="Grupo_135154" data-name="Grupo 135154" transform="translate(63.075 121.688)" opacity="0.4" style="mix-blend-mode: multiply;isolation: isolate">
              <g id="Grupo_135153" data-name="Grupo 135153">
                <g id="Grupo_135152" data-name="Grupo 135152" clip-path="url(#clip-path-31)">
                  <path id="Trazado_192973" data-name="Trazado 192973" d="M96.487,196.436c11.233-7.628,26.187-2.873,36.293,5.358a15.281,15.281,0,0,0,.753-1.375,10.177,10.177,0,0,1-2.332-4.009c-7.184-22.524-9.25-49.279-.6-71.859a128.25,128.25,0,0,0-9.762-22.138C130.28,127.488,117.4,178.3,117.4,178.3c-16.747-3.8-57.538-2.95-57.538-2.95-9.017,7.164-6.439,18.964-6.439,18.964,10.51,4.606,24.962,8,38.579,9.982a9.77,9.77,0,0,1,4.483-7.858" transform="translate(-53.084 -102.412)" fill="#1d255b"/>
                </g>
              </g>
            </g>
            <path id="Trazado_192974" data-name="Trazado 192974" d="M93.62,159.689s10.305-4.83,16.1-1.932,10.305,16.1,8.373,16.1-4.508-2.576-7.084-1.61-9.663,4.83-13.849,4.186-8.051-14.492-3.543-16.746" transform="translate(17.241 29.518)" fill="#fad0bf"/>
            <g id="Grupo_135157" data-name="Grupo 135157" transform="translate(108.841 187.52)" opacity="0.2">
              <g id="Grupo_135156" data-name="Grupo 135156">
                <g id="Grupo_135155" data-name="Grupo 135155" clip-path="url(#clip-path-32)">
                  <path id="Trazado_192975" data-name="Trazado 192975" d="M115.705,164.451a9.061,9.061,0,0,1-7.915,4.044c-6.732,0-9.929-5.471-9.6-10.679A36.916,36.916,0,0,0,93.62,159.5c-4.508,2.254-.644,16.1,3.544,16.747s11.27-3.221,13.847-4.187,5.152,1.61,7.084,1.61c1.162,0-.01-4.781-2.391-9.222" transform="translate(-91.6 -157.816)" fill="#fa7296"/>
                </g>
              </g>
            </g>
            <path id="Trazado_192976" data-name="Trazado 192976" d="M115.191,170.235c-.2.074-.692-1.116-1.542-1.961a5.477,5.477,0,0,0-.659-.558l-.3-.247c-.113-.057-.22-.111-.317-.162-.383-.2-.639-.337-.639-.337l-.664-.309a9.7,9.7,0,0,0-1.567-.543c-1.2-.293-2.468-.424-2.468-.606a5.535,5.535,0,0,1,2.6-.24,10.039,10.039,0,0,1,2.631.61s.286.2.72.5l.343.244c.1.108.21.223.324.342a5.245,5.245,0,0,1,1.433,2.444c.132.482.182.8.1.828" transform="translate(20.145 31.103)" fill="#fa7296"/>
            <path id="Trazado_192977" data-name="Trazado 192977" d="M113.905,166.05c-.156.074-.821-.935-1.668-1.748a10.175,10.175,0,0,0-1.8-1.416,6.271,6.271,0,0,0-1.95-1.047c-1.071-.362-2.259-.134-2.313-.3a3.09,3.09,0,0,1,2.482-.543,5.793,5.793,0,0,1,1.736.5,5.153,5.153,0,0,1,.727.384s.263.2.624.529a9.087,9.087,0,0,1,1.148,1.336,4.351,4.351,0,0,1,1.014,2.3" transform="translate(19.983 30.296)" fill="#fa7296"/>
            <path id="Trazado_192978" data-name="Trazado 192978" d="M111.6,161.985c-.153.072-.821-.935-1.666-1.748a10.207,10.207,0,0,0-1.8-1.416,6.272,6.272,0,0,0-1.95-1.047c-1.071-.364-2.259-.134-2.315-.3a3.1,3.1,0,0,1,2.483-.542,5.846,5.846,0,0,1,1.738.5,5.526,5.526,0,0,1,.726.383s.261.2.623.53a9.361,9.361,0,0,1,1.148,1.336c.747,1.039,1.162,2.234,1.012,2.3" transform="translate(19.55 29.531)" fill="#fa7296"/>
            <path id="Trazado_192979" data-name="Trazado 192979" d="M29.243,102.456s-7.67,13.259-11.107,37.3.639,66.339,17.387,71.063c24.688,1.5,56.679-10.305,76.645-19.967,0,0,3.436-21.468-7.729-23.186L48.406,184.415s-.269-76.805-19.162-81.959" transform="translate(3.202 19.284)" fill="#1d255b"/>
            <g id="Grupo_135160" data-name="Grupo 135160" transform="translate(20.216 121.74)" opacity="0.4" style="mix-blend-mode: multiply;isolation: isolate">
              <g id="Grupo_135159" data-name="Grupo 135159">
                <g id="Grupo_135158" data-name="Grupo 135158" clip-path="url(#clip-path-33)">
                  <path id="Trazado_192980" data-name="Trazado 192980" d="M103.03,188.35a82.738,82.738,0,0,1-29.192,12.275c-6.8,1.381-12.984,1.563-18.518-3.158-4.61-3.932-4.545-9.475-2.489-14.375L48.4,184.416s0-1.419-.061-3.87a11.582,11.582,0,0,1-8.2-.377C32.6,177.028,29.122,169.5,27.317,161.9c-3.765-15.869-3.866-33.319,3.061-48.286A42.763,42.763,0,0,1,33.7,105.28a9.914,9.914,0,0,0-4.458-2.823s-7.67,13.258-11.106,37.3.639,66.339,17.387,71.063c24.686,1.5,56.679-10.305,76.644-19.967a47.479,47.479,0,0,0,.116-12.6c-1.667,4.216-5.955,7.8-9.253,10.092" transform="translate(-17.013 -102.456)" fill="#1d255b"/>
                </g>
              </g>
            </g>
            <path id="Trazado_192981" data-name="Trazado 192981" d="M64.958,163.371c-4.462-3.294-10.334-5.559-15.668-3.347C43.3,162.506,37.872,175.357,39.8,175.5c2.457.175,6.453-1.471,8.763-2.334,4.481-1.672,8.622-3.211,13.244-4.729,2.777-.914,4.225-1.4,6.212-2.2a35.586,35.586,0,0,0-3.062-2.86" transform="translate(7.417 29.954)" fill="#fad0bf"/>
            <g id="Grupo_135163" data-name="Grupo 135163" transform="translate(46.822 190.176)" opacity="0.2">
              <g id="Grupo_135162" data-name="Grupo 135162">
                <g id="Grupo_135161" data-name="Grupo 135161" clip-path="url(#clip-path-34)">
                  <path id="Trazado_192982" data-name="Trazado 192982" d="M64.958,163.2a23.973,23.973,0,0,0-5.675-3.149,10.05,10.05,0,0,1-9.941,9.633h-.321a9.89,9.89,0,0,1-6.659-2.619c-2.387,4.036-3.653,8.182-2.562,8.259,2.457.175,6.453-1.471,8.763-2.334,4.481-1.672,8.622-3.211,13.244-4.729,2.777-.914,4.225-1.4,6.212-2.2a35.584,35.584,0,0,0-3.062-2.86" transform="translate(-39.405 -160.051)" fill="#fa7296"/>
                </g>
              </g>
            </g>
            <path id="Trazado_192983" data-name="Trazado 192983" d="M51.417,167.652a24.715,24.715,0,0,1-3.327,1.061,25.159,25.159,0,0,0-3.169,1.256s-.386.165-.965.416a11.215,11.215,0,0,0-1.964,1.163,6.534,6.534,0,0,0-1.561,1.639c-.346.52-.509.933-.606.907-.064-.012-.059-.476.184-1.119A5.851,5.851,0,0,1,41.43,170.9a10.655,10.655,0,0,1,2-1.5c.589-.335,1-.537,1-.537a20.533,20.533,0,0,1,3.447-.977,9.163,9.163,0,0,1,3.54-.231" transform="translate(7.489 31.538)" fill="#fa7296"/>
            <path id="Trazado_192984" data-name="Trazado 192984" d="M51.676,163.968c-.04.094-.45-.024-1.05-.076a6.837,6.837,0,0,0-2.182.162,9.854,9.854,0,0,0-2.054.751c-.53.276-.873.478-.872.479s-.355.181-.871.484a12.222,12.222,0,0,0-1.778,1.307,25.257,25.257,0,0,0-2.142,2.476c-.065-.018-.02-.461.239-1.061a7.707,7.707,0,0,1,1.289-2.014,11.9,11.9,0,0,1,2.675-2.253s.4-.2,1.016-.442a9.511,9.511,0,0,1,2.365-.573,5.954,5.954,0,0,1,2.411.222c.63.208.985.481.955.538" transform="translate(7.66 30.713)" fill="#fa7296"/>
            <path id="Trazado_192985" data-name="Trazado 192985" d="M53.343,160.755c-.083.19-1.423-.272-2.763-.177a7.741,7.741,0,0,0-1.776.385l-.776.279-.768.318a12.971,12.971,0,0,0-1.656.856c-1.156.744-2.22,1.68-2.351,1.559a6.348,6.348,0,0,1,1.841-2.246,11.235,11.235,0,0,1,1.665-1.168c.5-.269.829-.448.829-.448l.927-.229a7.64,7.64,0,0,1,2.073-.163,4.719,4.719,0,0,1,2.755,1.034" transform="translate(8.139 30.062)" fill="#fa7296"/>
            <g id="Grupo_135166" data-name="Grupo 135166" transform="translate(46.32 29.821)" opacity="0.8" style="mix-blend-mode: multiply;isolation: isolate">
              <g id="Grupo_135165" data-name="Grupo 135165">
                <g id="Grupo_135164" data-name="Grupo 135164" clip-path="url(#clip-path-35)">
                  <path id="Trazado_192986" data-name="Trazado 192986" d="M63.011,39.259c-9.4-1.623-18.42-4.844-24.029-14.162a19.284,19.284,0,0,0,2.5,5.132s1.717,12.883,3,18.464a9.424,9.424,0,0,1,6.871,3.864C54.361,56.421,53.932,59,53.932,59l6.44-1.289L58.438,41.822a15.7,15.7,0,0,0,4.573-2.563" transform="translate(-38.982 -25.097)" fill="#c87568"/>
                </g>
              </g>
            </g>
            <path id="Trazado_192987" data-name="Trazado 192987" d="M104.666,40.7s8.3-6.231,10.127.436-.871,23.669-7.3,19.729S104.666,40.7,104.666,40.7" transform="translate(19.512 7.163)" fill="#fad0bf"/>
            <path id="Trazado_192988" data-name="Trazado 192988" d="M87.563,6.949s20.292,3.714,25.9,16.716,4.5,33.982,4.5,33.982,1.736,11.852-.276,20.79c-.632,5.223-2.8,8.348-5.8,10.242C106.418,92.135,98.2,91.49,91.545,92c-4.133,1.943-.389,6.054-2.018,9.914-9.718,4.645-18.036,1.16-24.24-3.395-4.011-2.942-1.728-14.752-8.94-21.888a4.525,4.525,0,0,1-.612-.873S44,80.547,37.743,71.189,34.621,47.509,48.249,53c0,0-5.395-45.323,39.313-46.047" transform="translate(6.523 1.308)" fill="#fad0bf"/>
            <g id="Grupo_135169" data-name="Grupo 135169" transform="translate(53.98 8.257)" opacity="0.2">
              <g id="Grupo_135168" data-name="Grupo 135168">
                <g id="Grupo_135167" data-name="Grupo 135167" clip-path="url(#clip-path-36)">
                  <path id="Trazado_192989" data-name="Trazado 192989" d="M112.575,26.69c-.337-1.005-.7-2.013-1.139-3.025-5.61-13-25.9-16.716-25.9-16.716C40.826,7.673,46.22,53,46.22,53c-.269-.109-.528-.2-.791-.291.141.724.284,1.394.417,1.98a9.426,9.426,0,0,1,6.873,3.864c3,3.864,0,3.864,0,3.864l8.049-1.074L59.8,47.814s10.736-3.221,12.239-17.39a77.5,77.5,0,0,0,29.628-2.792,33.982,33.982,0,0,0,10.908-.942" transform="translate(-45.43 -6.949)" fill="#fa7296"/>
                </g>
              </g>
            </g>
            <path id="Trazado_192990" data-name="Trazado 192990" d="M41.568,34.951s1.717,12.884,3,18.464a9.425,9.425,0,0,1,6.873,3.866,20.556,20.556,0,0,1,3.726,8.4l6.238-.594L59.924,46.672s9.338-3.346,10.84-17.516a77.486,77.486,0,0,0,29.628-2.791,32.639,32.639,0,0,0,12.346-1.393s3.971,9.551,3.542,15.991a59.71,59.71,0,0,0,.859,15.027l3.006-2.146-1.075-8.909s7.085-9.661-.643-19.644c0,0,16.317-7.085,1.718-25.119A27.519,27.519,0,0,1,99.107,2.749C87.512-.686,51.874-4.122,47.58,13.912c0,0-15.459,6.871-6.011,21.04" transform="translate(7.248 0)" fill="#963e35"/>
            <g id="Grupo_135172" data-name="Grupo 135172" transform="translate(51.309 0.378)" opacity="0.8" style="mix-blend-mode: multiply;isolation: isolate">
              <g id="Grupo_135171" data-name="Grupo 135171">
                <g id="Grupo_135170" data-name="Grupo 135170" clip-path="url(#clip-path-37)">
                  <path id="Trazado_192991" data-name="Trazado 192991" d="M119.424.318C108.28,14.329,87.88,21.812,70.828,14.686a22.326,22.326,0,0,1-2.208-1.078C63.285,11.86,60.309,7.151,59.7,2.091c-6.49,2.018-11.54,5.655-13,11.762a19.066,19.066,0,0,0-3.518,2.2A71.208,71.208,0,0,0,69.413,31.978a26.829,26.829,0,0,0,.473-2.883A77.48,77.48,0,0,0,99.513,26.3a32.644,32.644,0,0,0,12.347-1.393s3.971,9.551,3.541,15.991a59.67,59.67,0,0,0,.86,15.03l3.005-2.148-1.075-8.909s7.087-9.661-.643-19.644c0,0,16.181-7.034,1.876-24.913" transform="translate(-43.182 -0.318)" fill="#c87568"/>
                </g>
              </g>
            </g>
            <g id="Grupo_135175" data-name="Grupo 135175" transform="translate(48.508 29.155)" opacity="0.8" style="mix-blend-mode: multiply;isolation: isolate">
              <g id="Grupo_135174" data-name="Grupo 135174">
                <g id="Grupo_135173" data-name="Grupo 135173" clip-path="url(#clip-path-38)">
                  <path id="Trazado_192992" data-name="Trazado 192992" d="M55.3,32.909c-8.24,1.137-12.514-1.293-14.477-3.07.106.166.2.328.309.494,0,0,1.717,12.884,3.005,18.464a9.424,9.424,0,0,1,6.871,3.866,20.556,20.556,0,0,1,3.726,8.4l6.238-.594-.536-6.642-2.346-11.9s10.734-3.22,12.236-17.39c0,0-2.575,6.655-15.027,8.371" transform="translate(-40.824 -24.537)" fill="#c87568"/>
                </g>
              </g>
            </g>
            <g id="Grupo_135178" data-name="Grupo 135178" transform="translate(119.986 24.973)" opacity="0.8" style="mix-blend-mode: multiply;isolation: isolate">
              <g id="Grupo_135177" data-name="Grupo 135177">
                <g id="Grupo_135176" data-name="Grupo 135176" clip-path="url(#clip-path-39)">
                  <path id="Trazado_192993" data-name="Trazado 192993" d="M104.522,37.008a59.66,59.66,0,0,0,.86,15.029l3.005-2.147-1.075-8.909s7.054-9.621-.6-19.583c-4.115.7-5.733-.38-5.733-.38s3.97,9.551,3.541,15.991" transform="translate(-100.98 -21.017)" fill="#c87568"/>
                </g>
              </g>
            </g>
            <g id="Grupo_135181" data-name="Grupo 135181" transform="translate(63.046 70.474)" opacity="0.2">
              <g id="Grupo_135180" data-name="Grupo 135180">
                <g id="Grupo_135179" data-name="Grupo 135179" clip-path="url(#clip-path-40)">
                  <path id="Trazado_192994" data-name="Trazado 192994" d="M88.079,82.146c6.652-.512,14.874.133,20.341-3.322,3-1.894,5.169-5.02,5.8-10.244a46.222,46.222,0,0,0,.962-9.268c-.6,4.244-1.659,9.1-3.523,12.641-4.1,7.8-17.027,9.848-36.313,7.8S53.4,64.773,53.4,64.773l-.336,2.2c6.982,7.155,4.789,18.774,8.763,21.69a30.3,30.3,0,0,0,8.738,4.592c2.413-4.382,5.649-8.924,8.48-8.379,2.944.566,4.638,4.446,5.563,7.81.484-.195.968-.394,1.459-.629,1.628-3.861-2.116-7.972,2.016-9.915" transform="translate(-53.06 -59.311)" fill="#fa7296"/>
                </g>
              </g>
            </g>
            <path id="Trazado_192995" data-name="Trazado 192995" d="M118.219,40.2c-.138.014-3.066-.1-3.2-.09l.075.39s.07-.128.176-.347l-.393,21.714s-5.415-4.218-21.4-2.77S67.74,66.2,67.74,66.2s-1.369-13.484-8.824-20.54l-15.051.4c3,1.34,9.588,6.056,9.7,12.278.16,8.621-.594,9.761-.594,9.761C51.6,70.417,57.191,79.58,58.884,81.147a30.811,30.811,0,0,0,12.445,6.844c8.682,2.384,21.4,1.639,30.183.367,18.428-2.666,19.831-9.746,19.657-19.151-.214-11.352-2-25.58-2.95-29.008" transform="translate(8.256 7.549)" fill="#963e35"/>
            <g id="Grupo_135184" data-name="Grupo 135184" transform="translate(52.121 47.658)" opacity="0.8" style="mix-blend-mode: multiply;isolation: isolate">
              <g id="Grupo_135183" data-name="Grupo 135183">
                <g id="Grupo_135182" data-name="Grupo 135182" clip-path="url(#clip-path-41)">
                  <path id="Trazado_192996" data-name="Trazado 192996" d="M121.171,69.207c-.215-11.352-2-25.58-2.95-29.008-.139.014-3.067-.1-3.2-.09l.076.39s.069-.128.175-.347L115.023,53.7c3.609,4.879,4.966,11.01,1.875,17.063-5.265,10.314-15.765,13.385-26.257,12.858-7.026-.353-13.211-.52-19.528-4.145-4.269-2.449-6.962-6.439-9.035-10.791A24.588,24.588,0,0,1,59.627,58.5c-.023-3.451,1.539-4.979,3.509-7.216q-.41-.75-.871-1.478c-.015-.025-.032-.049-.046-.074q-.446-.7-.939-1.374l-.088-.115c-.326-.437-.667-.864-1.024-1.275l-.094-.1c-.37-.417-.752-.822-1.157-1.2l-1.837.048c-3.073.082-9.216.244-11.906.314l-.221.006-.714.019-.253.007-.12,0c3,1.34,9.589,6.056,9.7,12.278.16,8.621-.594,9.761-.594,9.761-1.376,2.324,4.216,11.488,5.91,13.054a30.811,30.811,0,0,0,12.445,6.844c8.681,2.384,21.4,1.639,30.183.367q.863-.127,1.678-.263c16.836-2.849,18.137-9.778,17.979-18.888" transform="translate(-43.865 -40.109)" fill="#c87568"/>
                </g>
              </g>
            </g>
          </g>
        </g>
      </g>
    </g>
  </g>
</svg>
